<svg xmlns="http://www.w3.org/2000/svg" xmlns:xlink="http://www.w3.org/1999/xlink" version="1.1" width="7.500in" height="4.500in" viewBox="0 0 5400 3240">
	<desc>Stata Graph - Graph</desc>
	<rect x="0" y="0" width="5400" height="3240" style="fill:#FFFFFF;stroke:none"/>
	<rect x="0.00" y="0.00" width="5400.00" height="3240.00" style="fill:#FFFFFF"/>
	<rect x="3.24" y="3.24" width="5393.52" height="3233.52" style="fill:none;stroke:#FFFFFF;stroke-width:6.48"/>
	<rect x="71.21" y="267.64" width="2628.79" height="2901.15" style="fill:#FFFFFF"/>
	<rect x="73.64" y="270.07" width="2623.93" height="2896.29" style="fill:none;stroke:#FFFFFF;stroke-width:4.86"/>
	<rect x="536.79" y="963.22" width="1387.29" height="1387.29" style="fill:#FFFFFF"/>
	<rect x="539.22" y="965.65" width="1382.43" height="1382.43" style="fill:none;stroke:#FFFFFF;stroke-width:4.86"/>
	<line x1="536.79" y1="1880.72" x2="601.59" y2="1880.72" style="stroke:#F0F0F0;stroke-width:7.29"/>
	<line x1="633.99" y1="1880.72" x2="698.79" y2="1880.72" style="stroke:#F0F0F0;stroke-width:7.29"/>
	<line x1="731.19" y1="1880.72" x2="795.99" y2="1880.72" style="stroke:#F0F0F0;stroke-width:7.29"/>
	<line x1="828.39" y1="1880.72" x2="893.19" y2="1880.72" style="stroke:#F0F0F0;stroke-width:7.29"/>
	<line x1="925.59" y1="1880.72" x2="990.39" y2="1880.72" style="stroke:#F0F0F0;stroke-width:7.29"/>
	<line x1="1022.79" y1="1880.72" x2="1087.59" y2="1880.72" style="stroke:#F0F0F0;stroke-width:7.29"/>
	<line x1="1119.99" y1="1880.72" x2="1184.79" y2="1880.72" style="stroke:#F0F0F0;stroke-width:7.29"/>
	<line x1="1217.19" y1="1880.72" x2="1281.99" y2="1880.72" style="stroke:#F0F0F0;stroke-width:7.29"/>
	<line x1="1314.39" y1="1880.72" x2="1379.19" y2="1880.72" style="stroke:#F0F0F0;stroke-width:7.29"/>
	<line x1="1411.59" y1="1880.72" x2="1476.39" y2="1880.72" style="stroke:#F0F0F0;stroke-width:7.29"/>
	<line x1="1508.79" y1="1880.72" x2="1573.59" y2="1880.72" style="stroke:#F0F0F0;stroke-width:7.29"/>
	<line x1="1605.99" y1="1880.72" x2="1670.79" y2="1880.72" style="stroke:#F0F0F0;stroke-width:7.29"/>
	<line x1="1703.19" y1="1880.72" x2="1767.99" y2="1880.72" style="stroke:#F0F0F0;stroke-width:7.29"/>
	<line x1="1800.39" y1="1880.72" x2="1865.19" y2="1880.72" style="stroke:#F0F0F0;stroke-width:7.29"/>
	<line x1="1897.59" y1="1880.72" x2="1924.09" y2="1880.72" style="stroke:#F0F0F0;stroke-width:7.29"/>
	<line x1="536.79" y1="1464.41" x2="601.59" y2="1464.41" style="stroke:#F0F0F0;stroke-width:7.29"/>
	<line x1="633.99" y1="1464.41" x2="698.79" y2="1464.41" style="stroke:#F0F0F0;stroke-width:7.29"/>
	<line x1="731.19" y1="1464.41" x2="795.99" y2="1464.41" style="stroke:#F0F0F0;stroke-width:7.29"/>
	<line x1="828.39" y1="1464.41" x2="893.19" y2="1464.41" style="stroke:#F0F0F0;stroke-width:7.29"/>
	<line x1="925.59" y1="1464.41" x2="990.39" y2="1464.41" style="stroke:#F0F0F0;stroke-width:7.29"/>
	<line x1="1022.79" y1="1464.41" x2="1087.59" y2="1464.41" style="stroke:#F0F0F0;stroke-width:7.29"/>
	<line x1="1119.99" y1="1464.41" x2="1184.79" y2="1464.41" style="stroke:#F0F0F0;stroke-width:7.29"/>
	<line x1="1217.19" y1="1464.41" x2="1281.99" y2="1464.41" style="stroke:#F0F0F0;stroke-width:7.29"/>
	<line x1="1314.39" y1="1464.41" x2="1379.19" y2="1464.41" style="stroke:#F0F0F0;stroke-width:7.29"/>
	<line x1="1411.59" y1="1464.41" x2="1476.39" y2="1464.41" style="stroke:#F0F0F0;stroke-width:7.29"/>
	<line x1="1508.79" y1="1464.41" x2="1573.59" y2="1464.41" style="stroke:#F0F0F0;stroke-width:7.29"/>
	<line x1="1605.99" y1="1464.41" x2="1670.79" y2="1464.41" style="stroke:#F0F0F0;stroke-width:7.29"/>
	<line x1="1703.19" y1="1464.41" x2="1767.99" y2="1464.41" style="stroke:#F0F0F0;stroke-width:7.29"/>
	<line x1="1800.39" y1="1464.41" x2="1865.19" y2="1464.41" style="stroke:#F0F0F0;stroke-width:7.29"/>
	<line x1="1897.59" y1="1464.41" x2="1924.09" y2="1464.41" style="stroke:#F0F0F0;stroke-width:7.29"/>
	<line x1="536.79" y1="1048.28" x2="601.59" y2="1048.28" style="stroke:#F0F0F0;stroke-width:7.29"/>
	<line x1="633.99" y1="1048.28" x2="698.79" y2="1048.28" style="stroke:#F0F0F0;stroke-width:7.29"/>
	<line x1="731.19" y1="1048.28" x2="795.99" y2="1048.28" style="stroke:#F0F0F0;stroke-width:7.29"/>
	<line x1="828.39" y1="1048.28" x2="893.19" y2="1048.28" style="stroke:#F0F0F0;stroke-width:7.29"/>
	<line x1="925.59" y1="1048.28" x2="990.39" y2="1048.28" style="stroke:#F0F0F0;stroke-width:7.29"/>
	<line x1="1022.79" y1="1048.28" x2="1087.59" y2="1048.28" style="stroke:#F0F0F0;stroke-width:7.29"/>
	<line x1="1119.99" y1="1048.28" x2="1184.79" y2="1048.28" style="stroke:#F0F0F0;stroke-width:7.29"/>
	<line x1="1217.19" y1="1048.28" x2="1281.99" y2="1048.28" style="stroke:#F0F0F0;stroke-width:7.29"/>
	<line x1="1314.39" y1="1048.28" x2="1379.19" y2="1048.28" style="stroke:#F0F0F0;stroke-width:7.29"/>
	<line x1="1411.59" y1="1048.28" x2="1476.39" y2="1048.28" style="stroke:#F0F0F0;stroke-width:7.29"/>
	<line x1="1508.79" y1="1048.28" x2="1573.59" y2="1048.28" style="stroke:#F0F0F0;stroke-width:7.29"/>
	<line x1="1605.99" y1="1048.28" x2="1670.79" y2="1048.28" style="stroke:#F0F0F0;stroke-width:7.29"/>
	<line x1="1703.19" y1="1048.28" x2="1767.99" y2="1048.28" style="stroke:#F0F0F0;stroke-width:7.29"/>
	<line x1="1800.39" y1="1048.28" x2="1865.19" y2="1048.28" style="stroke:#F0F0F0;stroke-width:7.29"/>
	<line x1="1897.59" y1="1048.28" x2="1924.09" y2="1048.28" style="stroke:#F0F0F0;stroke-width:7.29"/>
	<line x1="590.29" y1="2350.52" x2="590.29" y2="2285.72" style="stroke:#F0F0F0;stroke-width:7.29"/>
	<line x1="590.29" y1="2253.32" x2="590.29" y2="2188.52" style="stroke:#F0F0F0;stroke-width:7.29"/>
	<line x1="590.29" y1="2156.12" x2="590.29" y2="2091.32" style="stroke:#F0F0F0;stroke-width:7.29"/>
	<line x1="590.29" y1="2058.92" x2="590.29" y2="1994.12" style="stroke:#F0F0F0;stroke-width:7.29"/>
	<line x1="590.29" y1="1961.72" x2="590.29" y2="1896.92" style="stroke:#F0F0F0;stroke-width:7.29"/>
	<line x1="590.29" y1="1864.52" x2="590.29" y2="1799.72" style="stroke:#F0F0F0;stroke-width:7.29"/>
	<line x1="590.29" y1="1767.32" x2="590.29" y2="1702.52" style="stroke:#F0F0F0;stroke-width:7.29"/>
	<line x1="590.29" y1="1670.12" x2="590.29" y2="1605.32" style="stroke:#F0F0F0;stroke-width:7.29"/>
	<line x1="590.29" y1="1572.92" x2="590.29" y2="1508.12" style="stroke:#F0F0F0;stroke-width:7.29"/>
	<line x1="590.29" y1="1475.72" x2="590.29" y2="1410.92" style="stroke:#F0F0F0;stroke-width:7.29"/>
	<line x1="590.29" y1="1378.52" x2="590.29" y2="1313.72" style="stroke:#F0F0F0;stroke-width:7.29"/>
	<line x1="590.29" y1="1281.32" x2="590.29" y2="1216.52" style="stroke:#F0F0F0;stroke-width:7.29"/>
	<line x1="590.29" y1="1184.12" x2="590.29" y2="1119.32" style="stroke:#F0F0F0;stroke-width:7.29"/>
	<line x1="590.29" y1="1086.92" x2="590.29" y2="1022.12" style="stroke:#F0F0F0;stroke-width:7.29"/>
	<line x1="590.29" y1="989.72" x2="590.29" y2="963.22" style="stroke:#F0F0F0;stroke-width:7.29"/>
	<line x1="990.39" y1="2350.52" x2="990.39" y2="2285.72" style="stroke:#F0F0F0;stroke-width:7.29"/>
	<line x1="990.39" y1="2253.32" x2="990.39" y2="2188.52" style="stroke:#F0F0F0;stroke-width:7.29"/>
	<line x1="990.39" y1="2156.12" x2="990.39" y2="2091.32" style="stroke:#F0F0F0;stroke-width:7.29"/>
	<line x1="990.39" y1="2058.92" x2="990.39" y2="1994.12" style="stroke:#F0F0F0;stroke-width:7.29"/>
	<line x1="990.39" y1="1961.72" x2="990.39" y2="1896.92" style="stroke:#F0F0F0;stroke-width:7.29"/>
	<line x1="990.39" y1="1864.52" x2="990.39" y2="1799.72" style="stroke:#F0F0F0;stroke-width:7.29"/>
	<line x1="990.39" y1="1767.32" x2="990.39" y2="1702.52" style="stroke:#F0F0F0;stroke-width:7.29"/>
	<line x1="990.39" y1="1670.12" x2="990.39" y2="1605.32" style="stroke:#F0F0F0;stroke-width:7.29"/>
	<line x1="990.39" y1="1572.92" x2="990.39" y2="1508.12" style="stroke:#F0F0F0;stroke-width:7.29"/>
	<line x1="990.39" y1="1475.72" x2="990.39" y2="1410.92" style="stroke:#F0F0F0;stroke-width:7.29"/>
	<line x1="990.39" y1="1378.52" x2="990.39" y2="1313.72" style="stroke:#F0F0F0;stroke-width:7.29"/>
	<line x1="990.39" y1="1281.32" x2="990.39" y2="1216.52" style="stroke:#F0F0F0;stroke-width:7.29"/>
	<line x1="990.39" y1="1184.12" x2="990.39" y2="1119.32" style="stroke:#F0F0F0;stroke-width:7.29"/>
	<line x1="990.39" y1="1086.92" x2="990.39" y2="1022.12" style="stroke:#F0F0F0;stroke-width:7.29"/>
	<line x1="990.39" y1="989.72" x2="990.39" y2="963.22" style="stroke:#F0F0F0;stroke-width:7.29"/>
	<line x1="1390.50" y1="2350.52" x2="1390.50" y2="2285.72" style="stroke:#F0F0F0;stroke-width:7.29"/>
	<line x1="1390.50" y1="2253.32" x2="1390.50" y2="2188.52" style="stroke:#F0F0F0;stroke-width:7.29"/>
	<line x1="1390.50" y1="2156.12" x2="1390.50" y2="2091.32" style="stroke:#F0F0F0;stroke-width:7.29"/>
	<line x1="1390.50" y1="2058.92" x2="1390.50" y2="1994.12" style="stroke:#F0F0F0;stroke-width:7.29"/>
	<line x1="1390.50" y1="1961.72" x2="1390.50" y2="1896.92" style="stroke:#F0F0F0;stroke-width:7.29"/>
	<line x1="1390.50" y1="1864.52" x2="1390.50" y2="1799.72" style="stroke:#F0F0F0;stroke-width:7.29"/>
	<line x1="1390.50" y1="1767.32" x2="1390.50" y2="1702.52" style="stroke:#F0F0F0;stroke-width:7.29"/>
	<line x1="1390.50" y1="1670.12" x2="1390.50" y2="1605.32" style="stroke:#F0F0F0;stroke-width:7.29"/>
	<line x1="1390.50" y1="1572.92" x2="1390.50" y2="1508.12" style="stroke:#F0F0F0;stroke-width:7.29"/>
	<line x1="1390.50" y1="1475.72" x2="1390.50" y2="1410.92" style="stroke:#F0F0F0;stroke-width:7.29"/>
	<line x1="1390.50" y1="1378.52" x2="1390.50" y2="1313.72" style="stroke:#F0F0F0;stroke-width:7.29"/>
	<line x1="1390.50" y1="1281.32" x2="1390.50" y2="1216.52" style="stroke:#F0F0F0;stroke-width:7.29"/>
	<line x1="1390.50" y1="1184.12" x2="1390.50" y2="1119.32" style="stroke:#F0F0F0;stroke-width:7.29"/>
	<line x1="1390.50" y1="1086.92" x2="1390.50" y2="1022.12" style="stroke:#F0F0F0;stroke-width:7.29"/>
	<line x1="1390.50" y1="989.72" x2="1390.50" y2="963.22" style="stroke:#F0F0F0;stroke-width:7.29"/>
	<line x1="1790.61" y1="2350.52" x2="1790.61" y2="2285.72" style="stroke:#F0F0F0;stroke-width:7.29"/>
	<line x1="1790.61" y1="2253.32" x2="1790.61" y2="2188.52" style="stroke:#F0F0F0;stroke-width:7.29"/>
	<line x1="1790.61" y1="2156.12" x2="1790.61" y2="2091.32" style="stroke:#F0F0F0;stroke-width:7.29"/>
	<line x1="1790.61" y1="2058.92" x2="1790.61" y2="1994.12" style="stroke:#F0F0F0;stroke-width:7.29"/>
	<line x1="1790.61" y1="1961.72" x2="1790.61" y2="1896.92" style="stroke:#F0F0F0;stroke-width:7.29"/>
	<line x1="1790.61" y1="1864.52" x2="1790.61" y2="1799.72" style="stroke:#F0F0F0;stroke-width:7.29"/>
	<line x1="1790.61" y1="1767.32" x2="1790.61" y2="1702.52" style="stroke:#F0F0F0;stroke-width:7.29"/>
	<line x1="1790.61" y1="1670.12" x2="1790.61" y2="1605.32" style="stroke:#F0F0F0;stroke-width:7.29"/>
	<line x1="1790.61" y1="1572.92" x2="1790.61" y2="1508.12" style="stroke:#F0F0F0;stroke-width:7.29"/>
	<line x1="1790.61" y1="1475.72" x2="1790.61" y2="1410.92" style="stroke:#F0F0F0;stroke-width:7.29"/>
	<line x1="1790.61" y1="1378.52" x2="1790.61" y2="1313.72" style="stroke:#F0F0F0;stroke-width:7.29"/>
	<line x1="1790.61" y1="1281.32" x2="1790.61" y2="1216.52" style="stroke:#F0F0F0;stroke-width:7.29"/>
	<line x1="1790.61" y1="1184.12" x2="1790.61" y2="1119.32" style="stroke:#F0F0F0;stroke-width:7.29"/>
	<line x1="1790.61" y1="1086.92" x2="1790.61" y2="1022.12" style="stroke:#F0F0F0;stroke-width:7.29"/>
	<line x1="1790.61" y1="989.72" x2="1790.61" y2="963.22" style="stroke:#F0F0F0;stroke-width:7.29"/>
	<line x1="1150.54" y1="2350.52" x2="1150.54" y2="2285.72" style="stroke:#000000;stroke-width:7.29"/>
	<line x1="1150.54" y1="2253.32" x2="1150.54" y2="2188.52" style="stroke:#000000;stroke-width:7.29"/>
	<line x1="1150.54" y1="2156.12" x2="1150.54" y2="2091.32" style="stroke:#000000;stroke-width:7.29"/>
	<line x1="1150.54" y1="2058.92" x2="1150.54" y2="1994.12" style="stroke:#000000;stroke-width:7.29"/>
	<line x1="1150.54" y1="1961.72" x2="1150.54" y2="1896.92" style="stroke:#000000;stroke-width:7.29"/>
	<line x1="1150.54" y1="1864.52" x2="1150.54" y2="1799.72" style="stroke:#000000;stroke-width:7.29"/>
	<line x1="1150.54" y1="1767.32" x2="1150.54" y2="1702.52" style="stroke:#000000;stroke-width:7.29"/>
	<line x1="1150.54" y1="1670.12" x2="1150.54" y2="1605.32" style="stroke:#000000;stroke-width:7.29"/>
	<line x1="1150.54" y1="1572.92" x2="1150.54" y2="1508.12" style="stroke:#000000;stroke-width:7.29"/>
	<line x1="1150.54" y1="1475.72" x2="1150.54" y2="1410.92" style="stroke:#000000;stroke-width:7.29"/>
	<line x1="1150.54" y1="1378.52" x2="1150.54" y2="1313.72" style="stroke:#000000;stroke-width:7.29"/>
	<line x1="1150.54" y1="1281.32" x2="1150.54" y2="1216.52" style="stroke:#000000;stroke-width:7.29"/>
	<line x1="1150.54" y1="1184.12" x2="1150.54" y2="1119.32" style="stroke:#000000;stroke-width:7.29"/>
	<line x1="1150.54" y1="1086.92" x2="1150.54" y2="1022.12" style="stroke:#000000;stroke-width:7.29"/>
	<line x1="1150.54" y1="989.72" x2="1150.54" y2="963.22" style="stroke:#000000;stroke-width:7.29"/>
	<path d=" M590.29 1838.19 L670.28 1850.01 L750.26 1855.24 L830.25 1787.57 L910.41 1801.41 L990.39 1769.34 L1070.38 1753.99 L1150.37 1762.09 L1230.36 1582.20 L1310.51 1694.76 L1390.50 1747.24 L1470.49 1729.18 L1550.48 1741.67 L1630.46 1661.01 L1710.62 1717.71 L1790.61 1731.88 L1870.59 1634.34" stroke-linejoin="round" style="fill:none;stroke:#1A85FF;stroke-width:7.29"/>
	<circle cx="590.29" cy="1838.19" r="16.30" style="fill:#1A85FF"/>
	<circle cx="590.29" cy="1838.19" r="12.66" style="fill:none;stroke:#1A85FF;stroke-width:7.29"/>
	<circle cx="670.28" cy="1850.01" r="16.30" style="fill:#1A85FF"/>
	<circle cx="670.28" cy="1850.01" r="12.66" style="fill:none;stroke:#1A85FF;stroke-width:7.29"/>
	<circle cx="750.26" cy="1855.24" r="16.30" style="fill:#1A85FF"/>
	<circle cx="750.26" cy="1855.24" r="12.66" style="fill:none;stroke:#1A85FF;stroke-width:7.29"/>
	<circle cx="830.25" cy="1787.57" r="16.30" style="fill:#1A85FF"/>
	<circle cx="830.25" cy="1787.57" r="12.66" style="fill:none;stroke:#1A85FF;stroke-width:7.29"/>
	<circle cx="910.41" cy="1801.41" r="16.30" style="fill:#1A85FF"/>
	<circle cx="910.41" cy="1801.41" r="12.66" style="fill:none;stroke:#1A85FF;stroke-width:7.29"/>
	<circle cx="990.39" cy="1769.34" r="16.30" style="fill:#1A85FF"/>
	<circle cx="990.39" cy="1769.34" r="12.66" style="fill:none;stroke:#1A85FF;stroke-width:7.29"/>
	<circle cx="1070.38" cy="1753.99" r="16.30" style="fill:#1A85FF"/>
	<circle cx="1070.38" cy="1753.99" r="12.66" style="fill:none;stroke:#1A85FF;stroke-width:7.29"/>
	<circle cx="1150.37" cy="1762.09" r="16.30" style="fill:#1A85FF"/>
	<circle cx="1150.37" cy="1762.09" r="12.66" style="fill:none;stroke:#1A85FF;stroke-width:7.29"/>
	<circle cx="1230.36" cy="1582.20" r="16.30" style="fill:#1A85FF"/>
	<circle cx="1230.36" cy="1582.20" r="12.66" style="fill:none;stroke:#1A85FF;stroke-width:7.29"/>
	<circle cx="1310.51" cy="1694.76" r="16.30" style="fill:#1A85FF"/>
	<circle cx="1310.51" cy="1694.76" r="12.66" style="fill:none;stroke:#1A85FF;stroke-width:7.29"/>
	<circle cx="1390.50" cy="1747.24" r="16.30" style="fill:#1A85FF"/>
	<circle cx="1390.50" cy="1747.24" r="12.66" style="fill:none;stroke:#1A85FF;stroke-width:7.29"/>
	<circle cx="1470.49" cy="1729.18" r="16.30" style="fill:#1A85FF"/>
	<circle cx="1470.49" cy="1729.18" r="12.66" style="fill:none;stroke:#1A85FF;stroke-width:7.29"/>
	<circle cx="1550.48" cy="1741.67" r="16.30" style="fill:#1A85FF"/>
	<circle cx="1550.48" cy="1741.67" r="12.66" style="fill:none;stroke:#1A85FF;stroke-width:7.29"/>
	<circle cx="1630.46" cy="1661.01" r="16.30" style="fill:#1A85FF"/>
	<circle cx="1630.46" cy="1661.01" r="12.66" style="fill:none;stroke:#1A85FF;stroke-width:7.29"/>
	<circle cx="1710.62" cy="1717.71" r="16.30" style="fill:#1A85FF"/>
	<circle cx="1710.62" cy="1717.71" r="12.66" style="fill:none;stroke:#1A85FF;stroke-width:7.29"/>
	<circle cx="1790.61" cy="1731.88" r="16.30" style="fill:#1A85FF"/>
	<circle cx="1790.61" cy="1731.88" r="12.66" style="fill:none;stroke:#1A85FF;stroke-width:7.29"/>
	<circle cx="1870.59" cy="1634.34" r="16.30" style="fill:#1A85FF"/>
	<circle cx="1870.59" cy="1634.34" r="12.66" style="fill:none;stroke:#1A85FF;stroke-width:7.29"/>
	<path d=" M590.29 1216.18 L670.28 1249.93 L750.26 1208.59 L830.25 1172.14 L910.41 1136.19 L990.39 1160.66 L1070.38 1115.78 L1150.37 1113.75 L1230.36 1108.52 L1310.51 1099.57 L1390.50 1108.86 L1470.49 1123.54 L1550.48 1114.93 L1630.46 1043.04 L1710.62 1034.94 L1790.61 1016.72 L1870.59 1078.82" stroke-linejoin="round" style="fill:none;stroke:#D41159;stroke-width:7.29"/>
	<circle cx="590.29" cy="1216.18" r="16.30" style="fill:#D41159"/>
	<circle cx="590.29" cy="1216.18" r="12.66" style="fill:none;stroke:#D41159;stroke-width:7.29"/>
	<circle cx="670.28" cy="1249.93" r="16.30" style="fill:#D41159"/>
	<circle cx="670.28" cy="1249.93" r="12.66" style="fill:none;stroke:#D41159;stroke-width:7.29"/>
	<circle cx="750.26" cy="1208.59" r="16.30" style="fill:#D41159"/>
	<circle cx="750.26" cy="1208.59" r="12.66" style="fill:none;stroke:#D41159;stroke-width:7.29"/>
	<circle cx="830.25" cy="1172.14" r="16.30" style="fill:#D41159"/>
	<circle cx="830.25" cy="1172.14" r="12.66" style="fill:none;stroke:#D41159;stroke-width:7.29"/>
	<circle cx="910.41" cy="1136.19" r="16.30" style="fill:#D41159"/>
	<circle cx="910.41" cy="1136.19" r="12.66" style="fill:none;stroke:#D41159;stroke-width:7.29"/>
	<circle cx="990.39" cy="1160.66" r="16.30" style="fill:#D41159"/>
	<circle cx="990.39" cy="1160.66" r="12.66" style="fill:none;stroke:#D41159;stroke-width:7.29"/>
	<circle cx="1070.38" cy="1115.78" r="16.30" style="fill:#D41159"/>
	<circle cx="1070.38" cy="1115.78" r="12.66" style="fill:none;stroke:#D41159;stroke-width:7.29"/>
	<circle cx="1150.37" cy="1113.75" r="16.30" style="fill:#D41159"/>
	<circle cx="1150.37" cy="1113.75" r="12.66" style="fill:none;stroke:#D41159;stroke-width:7.29"/>
	<circle cx="1230.36" cy="1108.52" r="16.30" style="fill:#D41159"/>
	<circle cx="1230.36" cy="1108.52" r="12.66" style="fill:none;stroke:#D41159;stroke-width:7.29"/>
	<circle cx="1310.51" cy="1099.57" r="16.30" style="fill:#D41159"/>
	<circle cx="1310.51" cy="1099.57" r="12.66" style="fill:none;stroke:#D41159;stroke-width:7.29"/>
	<circle cx="1390.50" cy="1108.86" r="16.30" style="fill:#D41159"/>
	<circle cx="1390.50" cy="1108.86" r="12.66" style="fill:none;stroke:#D41159;stroke-width:7.29"/>
	<circle cx="1470.49" cy="1123.54" r="16.30" style="fill:#D41159"/>
	<circle cx="1470.49" cy="1123.54" r="12.66" style="fill:none;stroke:#D41159;stroke-width:7.29"/>
	<circle cx="1550.48" cy="1114.93" r="16.30" style="fill:#D41159"/>
	<circle cx="1550.48" cy="1114.93" r="12.66" style="fill:none;stroke:#D41159;stroke-width:7.29"/>
	<circle cx="1630.46" cy="1043.04" r="16.30" style="fill:#D41159"/>
	<circle cx="1630.46" cy="1043.04" r="12.66" style="fill:none;stroke:#D41159;stroke-width:7.29"/>
	<circle cx="1710.62" cy="1034.94" r="16.30" style="fill:#D41159"/>
	<circle cx="1710.62" cy="1034.94" r="12.66" style="fill:none;stroke:#D41159;stroke-width:7.29"/>
	<circle cx="1790.61" cy="1016.72" r="16.30" style="fill:#D41159"/>
	<circle cx="1790.61" cy="1016.72" r="12.66" style="fill:none;stroke:#D41159;stroke-width:7.29"/>
	<circle cx="1870.59" cy="1078.82" r="16.30" style="fill:#D41159"/>
	<circle cx="1870.59" cy="1078.82" r="12.66" style="fill:none;stroke:#D41159;stroke-width:7.29"/>
	<line x1="536.79" y1="2350.52" x2="536.79" y2="963.22" style="stroke:#000000;stroke-width:4.86"/>
	<line x1="536.79" y1="2297.03" x2="503.04" y2="2297.03" style="stroke:#000000;stroke-width:4.86"/>
	<text x="486.17" y="2326.60" style="font-family:'Helvetica';font-size:84.38px;fill:#000000" text-anchor="end">9.5</text>
	<line x1="536.79" y1="1880.72" x2="503.04" y2="1880.72" style="stroke:#000000;stroke-width:4.86"/>
	<text x="486.17" y="1910.29" style="font-family:'Helvetica';font-size:84.38px;fill:#000000" text-anchor="end">10</text>
	<line x1="536.79" y1="1464.41" x2="503.04" y2="1464.41" style="stroke:#000000;stroke-width:4.86"/>
	<text x="486.17" y="1493.99" style="font-family:'Helvetica';font-size:84.38px;fill:#000000" text-anchor="end">10.5</text>
	<line x1="536.79" y1="1048.28" x2="503.04" y2="1048.28" style="stroke:#000000;stroke-width:4.86"/>
	<text x="486.17" y="1077.85" style="font-family:'Helvetica';font-size:84.38px;fill:#000000" text-anchor="end">11</text>
	<text x="232.12" y="1656.79" style="font-family:'Helvetica';font-size:84.38px;fill:#000000" transform="rotate(-90 232.12,1656.79)" text-anchor="middle">Log-earnings</text>
	<line x1="536.79" y1="2350.52" x2="1924.09" y2="2350.52" style="stroke:#000000;stroke-width:4.86"/>
	<line x1="590.29" y1="2350.52" x2="590.29" y2="2384.27" style="stroke:#000000;stroke-width:4.86"/>
	<text x="590.29" y="2460.12" style="font-family:'Helvetica';font-size:84.38px;fill:#000000" text-anchor="middle">1995</text>
	<line x1="990.39" y1="2350.52" x2="990.39" y2="2384.27" style="stroke:#000000;stroke-width:4.86"/>
	<text x="990.39" y="2460.12" style="font-family:'Helvetica';font-size:84.38px;fill:#000000" text-anchor="middle">2000</text>
	<line x1="1390.50" y1="2350.52" x2="1390.50" y2="2384.27" style="stroke:#000000;stroke-width:4.86"/>
	<text x="1390.50" y="2460.12" style="font-family:'Helvetica';font-size:84.38px;fill:#000000" text-anchor="middle">2005</text>
	<line x1="1790.61" y1="2350.52" x2="1790.61" y2="2384.27" style="stroke:#000000;stroke-width:4.86"/>
	<text x="1790.61" y="2460.12" style="font-family:'Helvetica';font-size:84.38px;fill:#000000" text-anchor="middle">2010</text>
	<text x="1230.53" y="2578.25" style="font-family:'Helvetica';font-size:84.38px;fill:#000000" text-anchor="middle">Year</text>
	<rect x="1953.28" y="1513.52" width="632.47" height="286.71" style="fill:#FFFFFF"/>
	<rect x="1955.71" y="1515.95" width="627.61" height="281.85" style="fill:none;stroke:#FFFFFF;stroke-width:4.86"/>
	<line x1="1989.73" y1="1592.16" x2="2184.13" y2="1592.16" style="stroke:#1A85FF;stroke-width:7.29"/>
	<circle cx="2086.93" cy="1592.16" r="16.30" style="fill:#1A85FF"/>
	<circle cx="2086.93" cy="1592.16" r="12.66" style="fill:none;stroke:#1A85FF;stroke-width:7.29"/>
	<line x1="1989.73" y1="1721.59" x2="2184.13" y2="1721.59" style="stroke:#D41159;stroke-width:7.29"/>
	<circle cx="2086.93" cy="1721.59" r="16.30" style="fill:#D41159"/>
	<circle cx="2086.93" cy="1721.59" r="12.66" style="fill:none;stroke:#D41159;stroke-width:7.29"/>
	<text x="2251.63" y="1621.73" style="font-family:'Helvetica';font-size:84.38px;fill:#000000">Treated</text>
	<text x="2251.63" y="1751.16" style="font-family:'Helvetica';font-size:84.38px;fill:#000000">Control</text>
	<text x="1230.53" y="913.02" style="font-family:'Helvetica';font-size:118.13px;fill:#000000" text-anchor="middle">Region 1</text>
	<rect x="2700.00" y="267.64" width="2628.79" height="2901.15" style="fill:#FFFFFF"/>
	<rect x="2702.43" y="270.07" width="2623.93" height="2896.29" style="fill:none;stroke:#FFFFFF;stroke-width:4.86"/>
	<rect x="3165.58" y="963.22" width="1387.29" height="1387.29" style="fill:#FFFFFF"/>
	<rect x="3168.01" y="965.65" width="1382.43" height="1382.43" style="fill:none;stroke:#FFFFFF;stroke-width:4.86"/>
	<line x1="3165.58" y1="1881.90" x2="3230.38" y2="1881.90" style="stroke:#F0F0F0;stroke-width:7.29"/>
	<line x1="3262.78" y1="1881.90" x2="3327.58" y2="1881.90" style="stroke:#F0F0F0;stroke-width:7.29"/>
	<line x1="3359.98" y1="1881.90" x2="3424.78" y2="1881.90" style="stroke:#F0F0F0;stroke-width:7.29"/>
	<line x1="3457.18" y1="1881.90" x2="3521.98" y2="1881.90" style="stroke:#F0F0F0;stroke-width:7.29"/>
	<line x1="3554.38" y1="1881.90" x2="3619.18" y2="1881.90" style="stroke:#F0F0F0;stroke-width:7.29"/>
	<line x1="3651.58" y1="1881.90" x2="3716.38" y2="1881.90" style="stroke:#F0F0F0;stroke-width:7.29"/>
	<line x1="3748.78" y1="1881.90" x2="3813.58" y2="1881.90" style="stroke:#F0F0F0;stroke-width:7.29"/>
	<line x1="3845.98" y1="1881.90" x2="3910.78" y2="1881.90" style="stroke:#F0F0F0;stroke-width:7.29"/>
	<line x1="3943.18" y1="1881.90" x2="4007.98" y2="1881.90" style="stroke:#F0F0F0;stroke-width:7.29"/>
	<line x1="4040.38" y1="1881.90" x2="4105.18" y2="1881.90" style="stroke:#F0F0F0;stroke-width:7.29"/>
	<line x1="4137.58" y1="1881.90" x2="4202.38" y2="1881.90" style="stroke:#F0F0F0;stroke-width:7.29"/>
	<line x1="4234.78" y1="1881.90" x2="4299.58" y2="1881.90" style="stroke:#F0F0F0;stroke-width:7.29"/>
	<line x1="4331.98" y1="1881.90" x2="4396.78" y2="1881.90" style="stroke:#F0F0F0;stroke-width:7.29"/>
	<line x1="4429.18" y1="1881.90" x2="4493.98" y2="1881.90" style="stroke:#F0F0F0;stroke-width:7.29"/>
	<line x1="4526.38" y1="1881.90" x2="4552.88" y2="1881.90" style="stroke:#F0F0F0;stroke-width:7.29"/>
	<line x1="3165.58" y1="1466.94" x2="3230.38" y2="1466.94" style="stroke:#F0F0F0;stroke-width:7.29"/>
	<line x1="3262.78" y1="1466.94" x2="3327.58" y2="1466.94" style="stroke:#F0F0F0;stroke-width:7.29"/>
	<line x1="3359.98" y1="1466.94" x2="3424.78" y2="1466.94" style="stroke:#F0F0F0;stroke-width:7.29"/>
	<line x1="3457.18" y1="1466.94" x2="3521.98" y2="1466.94" style="stroke:#F0F0F0;stroke-width:7.29"/>
	<line x1="3554.38" y1="1466.94" x2="3619.18" y2="1466.94" style="stroke:#F0F0F0;stroke-width:7.29"/>
	<line x1="3651.58" y1="1466.94" x2="3716.38" y2="1466.94" style="stroke:#F0F0F0;stroke-width:7.29"/>
	<line x1="3748.78" y1="1466.94" x2="3813.58" y2="1466.94" style="stroke:#F0F0F0;stroke-width:7.29"/>
	<line x1="3845.98" y1="1466.94" x2="3910.78" y2="1466.94" style="stroke:#F0F0F0;stroke-width:7.29"/>
	<line x1="3943.18" y1="1466.94" x2="4007.98" y2="1466.94" style="stroke:#F0F0F0;stroke-width:7.29"/>
	<line x1="4040.38" y1="1466.94" x2="4105.18" y2="1466.94" style="stroke:#F0F0F0;stroke-width:7.29"/>
	<line x1="4137.58" y1="1466.94" x2="4202.38" y2="1466.94" style="stroke:#F0F0F0;stroke-width:7.29"/>
	<line x1="4234.78" y1="1466.94" x2="4299.58" y2="1466.94" style="stroke:#F0F0F0;stroke-width:7.29"/>
	<line x1="4331.98" y1="1466.94" x2="4396.78" y2="1466.94" style="stroke:#F0F0F0;stroke-width:7.29"/>
	<line x1="4429.18" y1="1466.94" x2="4493.98" y2="1466.94" style="stroke:#F0F0F0;stroke-width:7.29"/>
	<line x1="4526.38" y1="1466.94" x2="4552.88" y2="1466.94" style="stroke:#F0F0F0;stroke-width:7.29"/>
	<line x1="3165.58" y1="1051.82" x2="3230.38" y2="1051.82" style="stroke:#F0F0F0;stroke-width:7.29"/>
	<line x1="3262.78" y1="1051.82" x2="3327.58" y2="1051.82" style="stroke:#F0F0F0;stroke-width:7.29"/>
	<line x1="3359.98" y1="1051.82" x2="3424.78" y2="1051.82" style="stroke:#F0F0F0;stroke-width:7.29"/>
	<line x1="3457.18" y1="1051.82" x2="3521.98" y2="1051.82" style="stroke:#F0F0F0;stroke-width:7.29"/>
	<line x1="3554.38" y1="1051.82" x2="3619.18" y2="1051.82" style="stroke:#F0F0F0;stroke-width:7.29"/>
	<line x1="3651.58" y1="1051.82" x2="3716.38" y2="1051.82" style="stroke:#F0F0F0;stroke-width:7.29"/>
	<line x1="3748.78" y1="1051.82" x2="3813.58" y2="1051.82" style="stroke:#F0F0F0;stroke-width:7.29"/>
	<line x1="3845.98" y1="1051.82" x2="3910.78" y2="1051.82" style="stroke:#F0F0F0;stroke-width:7.29"/>
	<line x1="3943.18" y1="1051.82" x2="4007.98" y2="1051.82" style="stroke:#F0F0F0;stroke-width:7.29"/>
	<line x1="4040.38" y1="1051.82" x2="4105.18" y2="1051.82" style="stroke:#F0F0F0;stroke-width:7.29"/>
	<line x1="4137.58" y1="1051.82" x2="4202.38" y2="1051.82" style="stroke:#F0F0F0;stroke-width:7.29"/>
	<line x1="4234.78" y1="1051.82" x2="4299.58" y2="1051.82" style="stroke:#F0F0F0;stroke-width:7.29"/>
	<line x1="4331.98" y1="1051.82" x2="4396.78" y2="1051.82" style="stroke:#F0F0F0;stroke-width:7.29"/>
	<line x1="4429.18" y1="1051.82" x2="4493.98" y2="1051.82" style="stroke:#F0F0F0;stroke-width:7.29"/>
	<line x1="4526.38" y1="1051.82" x2="4552.88" y2="1051.82" style="stroke:#F0F0F0;stroke-width:7.29"/>
	<line x1="3219.08" y1="2350.52" x2="3219.08" y2="2285.72" style="stroke:#F0F0F0;stroke-width:7.29"/>
	<line x1="3219.08" y1="2253.32" x2="3219.08" y2="2188.52" style="stroke:#F0F0F0;stroke-width:7.29"/>
	<line x1="3219.08" y1="2156.12" x2="3219.08" y2="2091.32" style="stroke:#F0F0F0;stroke-width:7.29"/>
	<line x1="3219.08" y1="2058.92" x2="3219.08" y2="1994.12" style="stroke:#F0F0F0;stroke-width:7.29"/>
	<line x1="3219.08" y1="1961.72" x2="3219.08" y2="1896.92" style="stroke:#F0F0F0;stroke-width:7.29"/>
	<line x1="3219.08" y1="1864.52" x2="3219.08" y2="1799.72" style="stroke:#F0F0F0;stroke-width:7.29"/>
	<line x1="3219.08" y1="1767.32" x2="3219.08" y2="1702.52" style="stroke:#F0F0F0;stroke-width:7.29"/>
	<line x1="3219.08" y1="1670.12" x2="3219.08" y2="1605.32" style="stroke:#F0F0F0;stroke-width:7.29"/>
	<line x1="3219.08" y1="1572.92" x2="3219.08" y2="1508.12" style="stroke:#F0F0F0;stroke-width:7.29"/>
	<line x1="3219.08" y1="1475.72" x2="3219.08" y2="1410.92" style="stroke:#F0F0F0;stroke-width:7.29"/>
	<line x1="3219.08" y1="1378.52" x2="3219.08" y2="1313.72" style="stroke:#F0F0F0;stroke-width:7.29"/>
	<line x1="3219.08" y1="1281.32" x2="3219.08" y2="1216.52" style="stroke:#F0F0F0;stroke-width:7.29"/>
	<line x1="3219.08" y1="1184.12" x2="3219.08" y2="1119.32" style="stroke:#F0F0F0;stroke-width:7.29"/>
	<line x1="3219.08" y1="1086.92" x2="3219.08" y2="1022.12" style="stroke:#F0F0F0;stroke-width:7.29"/>
	<line x1="3219.08" y1="989.72" x2="3219.08" y2="963.22" style="stroke:#F0F0F0;stroke-width:7.29"/>
	<line x1="3619.18" y1="2350.52" x2="3619.18" y2="2285.72" style="stroke:#F0F0F0;stroke-width:7.29"/>
	<line x1="3619.18" y1="2253.32" x2="3619.18" y2="2188.52" style="stroke:#F0F0F0;stroke-width:7.29"/>
	<line x1="3619.18" y1="2156.12" x2="3619.18" y2="2091.32" style="stroke:#F0F0F0;stroke-width:7.29"/>
	<line x1="3619.18" y1="2058.92" x2="3619.18" y2="1994.12" style="stroke:#F0F0F0;stroke-width:7.29"/>
	<line x1="3619.18" y1="1961.72" x2="3619.18" y2="1896.92" style="stroke:#F0F0F0;stroke-width:7.29"/>
	<line x1="3619.18" y1="1864.52" x2="3619.18" y2="1799.72" style="stroke:#F0F0F0;stroke-width:7.29"/>
	<line x1="3619.18" y1="1767.32" x2="3619.18" y2="1702.52" style="stroke:#F0F0F0;stroke-width:7.29"/>
	<line x1="3619.18" y1="1670.12" x2="3619.18" y2="1605.32" style="stroke:#F0F0F0;stroke-width:7.29"/>
	<line x1="3619.18" y1="1572.92" x2="3619.18" y2="1508.12" style="stroke:#F0F0F0;stroke-width:7.29"/>
	<line x1="3619.18" y1="1475.72" x2="3619.18" y2="1410.92" style="stroke:#F0F0F0;stroke-width:7.29"/>
	<line x1="3619.18" y1="1378.52" x2="3619.18" y2="1313.72" style="stroke:#F0F0F0;stroke-width:7.29"/>
	<line x1="3619.18" y1="1281.32" x2="3619.18" y2="1216.52" style="stroke:#F0F0F0;stroke-width:7.29"/>
	<line x1="3619.18" y1="1184.12" x2="3619.18" y2="1119.32" style="stroke:#F0F0F0;stroke-width:7.29"/>
	<line x1="3619.18" y1="1086.92" x2="3619.18" y2="1022.12" style="stroke:#F0F0F0;stroke-width:7.29"/>
	<line x1="3619.18" y1="989.72" x2="3619.18" y2="963.22" style="stroke:#F0F0F0;stroke-width:7.29"/>
	<line x1="4019.29" y1="2350.52" x2="4019.29" y2="2285.72" style="stroke:#F0F0F0;stroke-width:7.29"/>
	<line x1="4019.29" y1="2253.32" x2="4019.29" y2="2188.52" style="stroke:#F0F0F0;stroke-width:7.29"/>
	<line x1="4019.29" y1="2156.12" x2="4019.29" y2="2091.32" style="stroke:#F0F0F0;stroke-width:7.29"/>
	<line x1="4019.29" y1="2058.92" x2="4019.29" y2="1994.12" style="stroke:#F0F0F0;stroke-width:7.29"/>
	<line x1="4019.29" y1="1961.72" x2="4019.29" y2="1896.92" style="stroke:#F0F0F0;stroke-width:7.29"/>
	<line x1="4019.29" y1="1864.52" x2="4019.29" y2="1799.72" style="stroke:#F0F0F0;stroke-width:7.29"/>
	<line x1="4019.29" y1="1767.32" x2="4019.29" y2="1702.52" style="stroke:#F0F0F0;stroke-width:7.29"/>
	<line x1="4019.29" y1="1670.12" x2="4019.29" y2="1605.32" style="stroke:#F0F0F0;stroke-width:7.29"/>
	<line x1="4019.29" y1="1572.92" x2="4019.29" y2="1508.12" style="stroke:#F0F0F0;stroke-width:7.29"/>
	<line x1="4019.29" y1="1475.72" x2="4019.29" y2="1410.92" style="stroke:#F0F0F0;stroke-width:7.29"/>
	<line x1="4019.29" y1="1378.52" x2="4019.29" y2="1313.72" style="stroke:#F0F0F0;stroke-width:7.29"/>
	<line x1="4019.29" y1="1281.32" x2="4019.29" y2="1216.52" style="stroke:#F0F0F0;stroke-width:7.29"/>
	<line x1="4019.29" y1="1184.12" x2="4019.29" y2="1119.32" style="stroke:#F0F0F0;stroke-width:7.29"/>
	<line x1="4019.29" y1="1086.92" x2="4019.29" y2="1022.12" style="stroke:#F0F0F0;stroke-width:7.29"/>
	<line x1="4019.29" y1="989.72" x2="4019.29" y2="963.22" style="stroke:#F0F0F0;stroke-width:7.29"/>
	<line x1="4419.39" y1="2350.52" x2="4419.39" y2="2285.72" style="stroke:#F0F0F0;stroke-width:7.29"/>
	<line x1="4419.39" y1="2253.32" x2="4419.39" y2="2188.52" style="stroke:#F0F0F0;stroke-width:7.29"/>
	<line x1="4419.39" y1="2156.12" x2="4419.39" y2="2091.32" style="stroke:#F0F0F0;stroke-width:7.29"/>
	<line x1="4419.39" y1="2058.92" x2="4419.39" y2="1994.12" style="stroke:#F0F0F0;stroke-width:7.29"/>
	<line x1="4419.39" y1="1961.72" x2="4419.39" y2="1896.92" style="stroke:#F0F0F0;stroke-width:7.29"/>
	<line x1="4419.39" y1="1864.52" x2="4419.39" y2="1799.72" style="stroke:#F0F0F0;stroke-width:7.29"/>
	<line x1="4419.39" y1="1767.32" x2="4419.39" y2="1702.52" style="stroke:#F0F0F0;stroke-width:7.29"/>
	<line x1="4419.39" y1="1670.12" x2="4419.39" y2="1605.32" style="stroke:#F0F0F0;stroke-width:7.29"/>
	<line x1="4419.39" y1="1572.92" x2="4419.39" y2="1508.12" style="stroke:#F0F0F0;stroke-width:7.29"/>
	<line x1="4419.39" y1="1475.72" x2="4419.39" y2="1410.92" style="stroke:#F0F0F0;stroke-width:7.29"/>
	<line x1="4419.39" y1="1378.52" x2="4419.39" y2="1313.72" style="stroke:#F0F0F0;stroke-width:7.29"/>
	<line x1="4419.39" y1="1281.32" x2="4419.39" y2="1216.52" style="stroke:#F0F0F0;stroke-width:7.29"/>
	<line x1="4419.39" y1="1184.12" x2="4419.39" y2="1119.32" style="stroke:#F0F0F0;stroke-width:7.29"/>
	<line x1="4419.39" y1="1086.92" x2="4419.39" y2="1022.12" style="stroke:#F0F0F0;stroke-width:7.29"/>
	<line x1="4419.39" y1="989.72" x2="4419.39" y2="963.22" style="stroke:#F0F0F0;stroke-width:7.29"/>
	<line x1="3779.16" y1="2350.52" x2="3779.16" y2="2285.72" style="stroke:#000000;stroke-width:7.29"/>
	<line x1="3779.16" y1="2253.32" x2="3779.16" y2="2188.52" style="stroke:#000000;stroke-width:7.29"/>
	<line x1="3779.16" y1="2156.12" x2="3779.16" y2="2091.32" style="stroke:#000000;stroke-width:7.29"/>
	<line x1="3779.16" y1="2058.92" x2="3779.16" y2="1994.12" style="stroke:#000000;stroke-width:7.29"/>
	<line x1="3779.16" y1="1961.72" x2="3779.16" y2="1896.92" style="stroke:#000000;stroke-width:7.29"/>
	<line x1="3779.16" y1="1864.52" x2="3779.16" y2="1799.72" style="stroke:#000000;stroke-width:7.29"/>
	<line x1="3779.16" y1="1767.32" x2="3779.16" y2="1702.52" style="stroke:#000000;stroke-width:7.29"/>
	<line x1="3779.16" y1="1670.12" x2="3779.16" y2="1605.32" style="stroke:#000000;stroke-width:7.29"/>
	<line x1="3779.16" y1="1572.92" x2="3779.16" y2="1508.12" style="stroke:#000000;stroke-width:7.29"/>
	<line x1="3779.16" y1="1475.72" x2="3779.16" y2="1410.92" style="stroke:#000000;stroke-width:7.29"/>
	<line x1="3779.16" y1="1378.52" x2="3779.16" y2="1313.72" style="stroke:#000000;stroke-width:7.29"/>
	<line x1="3779.16" y1="1281.32" x2="3779.16" y2="1216.52" style="stroke:#000000;stroke-width:7.29"/>
	<line x1="3779.16" y1="1184.12" x2="3779.16" y2="1119.32" style="stroke:#000000;stroke-width:7.29"/>
	<line x1="3779.16" y1="1086.92" x2="3779.16" y2="1022.12" style="stroke:#000000;stroke-width:7.29"/>
	<line x1="3779.16" y1="989.72" x2="3779.16" y2="963.22" style="stroke:#000000;stroke-width:7.29"/>
	<path d=" M3218.91 1846.63 L3298.89 1929.15 L3379.05 1837.18 L3459.04 1853.38 L3539.03 1810.35 L3619.01 1817.78 L3699.17 1718.21 L3779.16 1789.76 L3859.14 1666.41 L3939.13 1680.24 L4019.12 1803.09 L4099.27 1752.98 L4179.26 1700.49 L4259.25 1791.28 L4339.24 1685.48 L4419.39 1744.20 L4499.38 1784.53" stroke-linejoin="round" style="fill:none;stroke:#1A85FF;stroke-width:7.29"/>
	<circle cx="3218.91" cy="1846.63" r="16.30" style="fill:#1A85FF"/>
	<circle cx="3218.91" cy="1846.63" r="12.66" style="fill:none;stroke:#1A85FF;stroke-width:7.29"/>
	<circle cx="3298.89" cy="1929.15" r="16.30" style="fill:#1A85FF"/>
	<circle cx="3298.89" cy="1929.15" r="12.66" style="fill:none;stroke:#1A85FF;stroke-width:7.29"/>
	<circle cx="3379.05" cy="1837.18" r="16.30" style="fill:#1A85FF"/>
	<circle cx="3379.05" cy="1837.18" r="12.66" style="fill:none;stroke:#1A85FF;stroke-width:7.29"/>
	<circle cx="3459.04" cy="1853.38" r="16.30" style="fill:#1A85FF"/>
	<circle cx="3459.04" cy="1853.38" r="12.66" style="fill:none;stroke:#1A85FF;stroke-width:7.29"/>
	<circle cx="3539.03" cy="1810.35" r="16.30" style="fill:#1A85FF"/>
	<circle cx="3539.03" cy="1810.35" r="12.66" style="fill:none;stroke:#1A85FF;stroke-width:7.29"/>
	<circle cx="3619.01" cy="1817.78" r="16.30" style="fill:#1A85FF"/>
	<circle cx="3619.01" cy="1817.78" r="12.66" style="fill:none;stroke:#1A85FF;stroke-width:7.29"/>
	<circle cx="3699.17" cy="1718.21" r="16.30" style="fill:#1A85FF"/>
	<circle cx="3699.17" cy="1718.21" r="12.66" style="fill:none;stroke:#1A85FF;stroke-width:7.29"/>
	<circle cx="3779.16" cy="1789.76" r="16.30" style="fill:#1A85FF"/>
	<circle cx="3779.16" cy="1789.76" r="12.66" style="fill:none;stroke:#1A85FF;stroke-width:7.29"/>
	<circle cx="3859.14" cy="1666.41" r="16.30" style="fill:#1A85FF"/>
	<circle cx="3859.14" cy="1666.41" r="12.66" style="fill:none;stroke:#1A85FF;stroke-width:7.29"/>
	<circle cx="3939.13" cy="1680.24" r="16.30" style="fill:#1A85FF"/>
	<circle cx="3939.13" cy="1680.24" r="12.66" style="fill:none;stroke:#1A85FF;stroke-width:7.29"/>
	<circle cx="4019.12" cy="1803.09" r="16.30" style="fill:#1A85FF"/>
	<circle cx="4019.12" cy="1803.09" r="12.66" style="fill:none;stroke:#1A85FF;stroke-width:7.29"/>
	<circle cx="4099.27" cy="1752.98" r="16.30" style="fill:#1A85FF"/>
	<circle cx="4099.27" cy="1752.98" r="12.66" style="fill:none;stroke:#1A85FF;stroke-width:7.29"/>
	<circle cx="4179.26" cy="1700.49" r="16.30" style="fill:#1A85FF"/>
	<circle cx="4179.26" cy="1700.49" r="12.66" style="fill:none;stroke:#1A85FF;stroke-width:7.29"/>
	<circle cx="4259.25" cy="1791.28" r="16.30" style="fill:#1A85FF"/>
	<circle cx="4259.25" cy="1791.28" r="12.66" style="fill:none;stroke:#1A85FF;stroke-width:7.29"/>
	<circle cx="4339.24" cy="1685.48" r="16.30" style="fill:#1A85FF"/>
	<circle cx="4339.24" cy="1685.48" r="12.66" style="fill:none;stroke:#1A85FF;stroke-width:7.29"/>
	<circle cx="4419.39" cy="1744.20" r="16.30" style="fill:#1A85FF"/>
	<circle cx="4419.39" cy="1744.20" r="12.66" style="fill:none;stroke:#1A85FF;stroke-width:7.29"/>
	<circle cx="4499.38" cy="1784.53" r="16.30" style="fill:#1A85FF"/>
	<circle cx="4499.38" cy="1784.53" r="12.66" style="fill:none;stroke:#1A85FF;stroke-width:7.29"/>
	<path d=" M3218.91 1226.47 L3298.89 1188.34 L3379.05 1138.05 L3459.04 1145.98 L3539.03 1177.37 L3619.01 1135.86 L3699.17 1144.80 L3779.16 1060.76 L3859.14 1091.47 L3939.13 1078.82 L4019.12 1115.61 L4099.27 1062.62 L4179.26 1076.46 L4259.25 1050.97 L4339.24 1045.24 L4419.39 1016.72 L4499.38 1020.26" stroke-linejoin="round" style="fill:none;stroke:#D41159;stroke-width:7.29"/>
	<circle cx="3218.91" cy="1226.47" r="16.30" style="fill:#D41159"/>
	<circle cx="3218.91" cy="1226.47" r="12.66" style="fill:none;stroke:#D41159;stroke-width:7.29"/>
	<circle cx="3298.89" cy="1188.34" r="16.30" style="fill:#D41159"/>
	<circle cx="3298.89" cy="1188.34" r="12.66" style="fill:none;stroke:#D41159;stroke-width:7.29"/>
	<circle cx="3379.05" cy="1138.05" r="16.30" style="fill:#D41159"/>
	<circle cx="3379.05" cy="1138.05" r="12.66" style="fill:none;stroke:#D41159;stroke-width:7.29"/>
	<circle cx="3459.04" cy="1145.98" r="16.30" style="fill:#D41159"/>
	<circle cx="3459.04" cy="1145.98" r="12.66" style="fill:none;stroke:#D41159;stroke-width:7.29"/>
	<circle cx="3539.03" cy="1177.37" r="16.30" style="fill:#D41159"/>
	<circle cx="3539.03" cy="1177.37" r="12.66" style="fill:none;stroke:#D41159;stroke-width:7.29"/>
	<circle cx="3619.01" cy="1135.86" r="16.30" style="fill:#D41159"/>
	<circle cx="3619.01" cy="1135.86" r="12.66" style="fill:none;stroke:#D41159;stroke-width:7.29"/>
	<circle cx="3699.17" cy="1144.80" r="16.30" style="fill:#D41159"/>
	<circle cx="3699.17" cy="1144.80" r="12.66" style="fill:none;stroke:#D41159;stroke-width:7.29"/>
	<circle cx="3779.16" cy="1060.76" r="16.30" style="fill:#D41159"/>
	<circle cx="3779.16" cy="1060.76" r="12.66" style="fill:none;stroke:#D41159;stroke-width:7.29"/>
	<circle cx="3859.14" cy="1091.47" r="16.30" style="fill:#D41159"/>
	<circle cx="3859.14" cy="1091.47" r="12.66" style="fill:none;stroke:#D41159;stroke-width:7.29"/>
	<circle cx="3939.13" cy="1078.82" r="16.30" style="fill:#D41159"/>
	<circle cx="3939.13" cy="1078.82" r="12.66" style="fill:none;stroke:#D41159;stroke-width:7.29"/>
	<circle cx="4019.12" cy="1115.61" r="16.30" style="fill:#D41159"/>
	<circle cx="4019.12" cy="1115.61" r="12.66" style="fill:none;stroke:#D41159;stroke-width:7.29"/>
	<circle cx="4099.27" cy="1062.62" r="16.30" style="fill:#D41159"/>
	<circle cx="4099.27" cy="1062.62" r="12.66" style="fill:none;stroke:#D41159;stroke-width:7.29"/>
	<circle cx="4179.26" cy="1076.46" r="16.30" style="fill:#D41159"/>
	<circle cx="4179.26" cy="1076.46" r="12.66" style="fill:none;stroke:#D41159;stroke-width:7.29"/>
	<circle cx="4259.25" cy="1050.97" r="16.30" style="fill:#D41159"/>
	<circle cx="4259.25" cy="1050.97" r="12.66" style="fill:none;stroke:#D41159;stroke-width:7.29"/>
	<circle cx="4339.24" cy="1045.24" r="16.30" style="fill:#D41159"/>
	<circle cx="4339.24" cy="1045.24" r="12.66" style="fill:none;stroke:#D41159;stroke-width:7.29"/>
	<circle cx="4419.39" cy="1016.72" r="16.30" style="fill:#D41159"/>
	<circle cx="4419.39" cy="1016.72" r="12.66" style="fill:none;stroke:#D41159;stroke-width:7.29"/>
	<circle cx="4499.38" cy="1020.26" r="16.30" style="fill:#D41159"/>
	<circle cx="4499.38" cy="1020.26" r="12.66" style="fill:none;stroke:#D41159;stroke-width:7.29"/>
	<line x1="3165.58" y1="2350.52" x2="3165.58" y2="963.22" style="stroke:#000000;stroke-width:4.86"/>
	<line x1="3165.58" y1="2297.03" x2="3131.83" y2="2297.03" style="stroke:#000000;stroke-width:4.86"/>
	<text x="3114.96" y="2326.60" style="font-family:'Helvetica';font-size:84.38px;fill:#000000" text-anchor="end">9.5</text>
	<line x1="3165.58" y1="1881.90" x2="3131.83" y2="1881.90" style="stroke:#000000;stroke-width:4.86"/>
	<text x="3114.96" y="1911.47" style="font-family:'Helvetica';font-size:84.38px;fill:#000000" text-anchor="end">10</text>
	<line x1="3165.58" y1="1466.94" x2="3131.83" y2="1466.94" style="stroke:#000000;stroke-width:4.86"/>
	<text x="3114.96" y="1496.52" style="font-family:'Helvetica';font-size:84.38px;fill:#000000" text-anchor="end">10.5</text>
	<line x1="3165.58" y1="1051.82" x2="3131.83" y2="1051.82" style="stroke:#000000;stroke-width:4.86"/>
	<text x="3114.96" y="1081.39" style="font-family:'Helvetica';font-size:84.38px;fill:#000000" text-anchor="end">11</text>
	<text x="2860.90" y="1656.79" style="font-family:'Helvetica';font-size:84.38px;fill:#000000" transform="rotate(-90 2860.90,1656.79)" text-anchor="middle">Log-earnings</text>
	<line x1="3165.58" y1="2350.52" x2="4552.88" y2="2350.52" style="stroke:#000000;stroke-width:4.86"/>
	<line x1="3219.08" y1="2350.52" x2="3219.08" y2="2384.27" style="stroke:#000000;stroke-width:4.86"/>
	<text x="3219.08" y="2460.12" style="font-family:'Helvetica';font-size:84.38px;fill:#000000" text-anchor="middle">1995</text>
	<line x1="3619.18" y1="2350.52" x2="3619.18" y2="2384.27" style="stroke:#000000;stroke-width:4.86"/>
	<text x="3619.18" y="2460.12" style="font-family:'Helvetica';font-size:84.38px;fill:#000000" text-anchor="middle">2000</text>
	<line x1="4019.29" y1="2350.52" x2="4019.29" y2="2384.27" style="stroke:#000000;stroke-width:4.86"/>
	<text x="4019.29" y="2460.12" style="font-family:'Helvetica';font-size:84.38px;fill:#000000" text-anchor="middle">2005</text>
	<line x1="4419.39" y1="2350.52" x2="4419.39" y2="2384.27" style="stroke:#000000;stroke-width:4.86"/>
	<text x="4419.39" y="2460.12" style="font-family:'Helvetica';font-size:84.38px;fill:#000000" text-anchor="middle">2010</text>
	<text x="3859.14" y="2578.25" style="font-family:'Helvetica';font-size:84.38px;fill:#000000" text-anchor="middle">Year</text>
	<rect x="4582.07" y="1513.52" width="632.47" height="286.71" style="fill:#FFFFFF"/>
	<rect x="4584.50" y="1515.95" width="627.61" height="281.85" style="fill:none;stroke:#FFFFFF;stroke-width:4.86"/>
	<line x1="4618.52" y1="1592.16" x2="4812.92" y2="1592.16" style="stroke:#1A85FF;stroke-width:7.29"/>
	<circle cx="4715.72" cy="1592.16" r="16.30" style="fill:#1A85FF"/>
	<circle cx="4715.72" cy="1592.16" r="12.66" style="fill:none;stroke:#1A85FF;stroke-width:7.29"/>
	<line x1="4618.52" y1="1721.59" x2="4812.92" y2="1721.59" style="stroke:#D41159;stroke-width:7.29"/>
	<circle cx="4715.72" cy="1721.59" r="16.30" style="fill:#D41159"/>
	<circle cx="4715.72" cy="1721.59" r="12.66" style="fill:none;stroke:#D41159;stroke-width:7.29"/>
	<text x="4880.42" y="1621.73" style="font-family:'Helvetica';font-size:84.38px;fill:#000000">Treated</text>
	<text x="4880.42" y="1751.16" style="font-family:'Helvetica';font-size:84.38px;fill:#000000">Control</text>
	<text x="3859.14" y="913.02" style="font-family:'Helvetica';font-size:118.13px;fill:#000000" text-anchor="middle">Region 2</text>
	<text x="2700.00" y="200.91" style="font-family:'Helvetica';font-size:157.44px;fill:#000000" text-anchor="middle">Panel A: Log-earnings by Region</text>
</svg>