<svg xmlns="http://www.w3.org/2000/svg" xmlns:xlink="http://www.w3.org/1999/xlink" version="1.1" width="7.500in" height="4.500in" viewBox="0 0 5400 3240">
	<desc>Stata Graph - R1</desc>
	<rect x="0" y="0" width="5400" height="3240" style="fill:#FFFFFF;stroke:none"/>
	<rect x="0.00" y="0.00" width="5400.00" height="3240.00" style="fill:#FFFFFF"/>
	<rect x="3.24" y="3.24" width="5393.52" height="3233.52" style="fill:none;stroke:#FFFFFF;stroke-width:6.48"/>
	<rect x="1275.92" y="309.82" width="2456.83" height="2456.83" style="fill:#FFFFFF"/>
	<rect x="1279.16" y="313.06" width="2450.35" height="2450.35" style="fill:none;stroke:#FFFFFF;stroke-width:6.48"/>
	<line x1="1275.92" y1="1942.99" x2="1340.72" y2="1942.99" style="stroke:#F0F0F0;stroke-width:9.72"/>
	<line x1="1373.12" y1="1942.99" x2="1437.92" y2="1942.99" style="stroke:#F0F0F0;stroke-width:9.72"/>
	<line x1="1470.32" y1="1942.99" x2="1535.12" y2="1942.99" style="stroke:#F0F0F0;stroke-width:9.72"/>
	<line x1="1567.52" y1="1942.99" x2="1632.32" y2="1942.99" style="stroke:#F0F0F0;stroke-width:9.72"/>
	<line x1="1664.72" y1="1942.99" x2="1729.52" y2="1942.99" style="stroke:#F0F0F0;stroke-width:9.72"/>
	<line x1="1761.92" y1="1942.99" x2="1826.72" y2="1942.99" style="stroke:#F0F0F0;stroke-width:9.72"/>
	<line x1="1859.12" y1="1942.99" x2="1923.92" y2="1942.99" style="stroke:#F0F0F0;stroke-width:9.72"/>
	<line x1="1956.32" y1="1942.99" x2="2021.12" y2="1942.99" style="stroke:#F0F0F0;stroke-width:9.72"/>
	<line x1="2053.52" y1="1942.99" x2="2118.32" y2="1942.99" style="stroke:#F0F0F0;stroke-width:9.72"/>
	<line x1="2150.72" y1="1942.99" x2="2215.52" y2="1942.99" style="stroke:#F0F0F0;stroke-width:9.72"/>
	<line x1="2247.92" y1="1942.99" x2="2312.72" y2="1942.99" style="stroke:#F0F0F0;stroke-width:9.72"/>
	<line x1="2345.12" y1="1942.99" x2="2409.92" y2="1942.99" style="stroke:#F0F0F0;stroke-width:9.72"/>
	<line x1="2442.32" y1="1942.99" x2="2507.12" y2="1942.99" style="stroke:#F0F0F0;stroke-width:9.72"/>
	<line x1="2539.52" y1="1942.99" x2="2604.32" y2="1942.99" style="stroke:#F0F0F0;stroke-width:9.72"/>
	<line x1="2636.72" y1="1942.99" x2="2701.52" y2="1942.99" style="stroke:#F0F0F0;stroke-width:9.72"/>
	<line x1="2733.92" y1="1942.99" x2="2798.72" y2="1942.99" style="stroke:#F0F0F0;stroke-width:9.72"/>
	<line x1="2831.12" y1="1942.99" x2="2895.92" y2="1942.99" style="stroke:#F0F0F0;stroke-width:9.72"/>
	<line x1="2928.32" y1="1942.99" x2="2993.12" y2="1942.99" style="stroke:#F0F0F0;stroke-width:9.72"/>
	<line x1="3025.52" y1="1942.99" x2="3090.32" y2="1942.99" style="stroke:#F0F0F0;stroke-width:9.72"/>
	<line x1="3122.72" y1="1942.99" x2="3187.52" y2="1942.99" style="stroke:#F0F0F0;stroke-width:9.72"/>
	<line x1="3219.92" y1="1942.99" x2="3284.72" y2="1942.99" style="stroke:#F0F0F0;stroke-width:9.72"/>
	<line x1="3317.12" y1="1942.99" x2="3381.92" y2="1942.99" style="stroke:#F0F0F0;stroke-width:9.72"/>
	<line x1="3414.32" y1="1942.99" x2="3479.12" y2="1942.99" style="stroke:#F0F0F0;stroke-width:9.72"/>
	<line x1="3511.52" y1="1942.99" x2="3576.32" y2="1942.99" style="stroke:#F0F0F0;stroke-width:9.72"/>
	<line x1="3608.72" y1="1942.99" x2="3673.52" y2="1942.99" style="stroke:#F0F0F0;stroke-width:9.72"/>
	<line x1="3705.92" y1="1942.99" x2="3732.75" y2="1942.99" style="stroke:#F0F0F0;stroke-width:9.72"/>
	<line x1="1275.92" y1="1190.53" x2="1340.72" y2="1190.53" style="stroke:#F0F0F0;stroke-width:9.72"/>
	<line x1="1373.12" y1="1190.53" x2="1437.92" y2="1190.53" style="stroke:#F0F0F0;stroke-width:9.72"/>
	<line x1="1470.32" y1="1190.53" x2="1535.12" y2="1190.53" style="stroke:#F0F0F0;stroke-width:9.72"/>
	<line x1="1567.52" y1="1190.53" x2="1632.32" y2="1190.53" style="stroke:#F0F0F0;stroke-width:9.72"/>
	<line x1="1664.72" y1="1190.53" x2="1729.52" y2="1190.53" style="stroke:#F0F0F0;stroke-width:9.72"/>
	<line x1="1761.92" y1="1190.53" x2="1826.72" y2="1190.53" style="stroke:#F0F0F0;stroke-width:9.72"/>
	<line x1="1859.12" y1="1190.53" x2="1923.92" y2="1190.53" style="stroke:#F0F0F0;stroke-width:9.72"/>
	<line x1="1956.32" y1="1190.53" x2="2021.12" y2="1190.53" style="stroke:#F0F0F0;stroke-width:9.72"/>
	<line x1="2053.52" y1="1190.53" x2="2118.32" y2="1190.53" style="stroke:#F0F0F0;stroke-width:9.72"/>
	<line x1="2150.72" y1="1190.53" x2="2215.52" y2="1190.53" style="stroke:#F0F0F0;stroke-width:9.72"/>
	<line x1="2247.92" y1="1190.53" x2="2312.72" y2="1190.53" style="stroke:#F0F0F0;stroke-width:9.72"/>
	<line x1="2345.12" y1="1190.53" x2="2409.92" y2="1190.53" style="stroke:#F0F0F0;stroke-width:9.72"/>
	<line x1="2442.32" y1="1190.53" x2="2507.12" y2="1190.53" style="stroke:#F0F0F0;stroke-width:9.72"/>
	<line x1="2539.52" y1="1190.53" x2="2604.32" y2="1190.53" style="stroke:#F0F0F0;stroke-width:9.72"/>
	<line x1="2636.72" y1="1190.53" x2="2701.52" y2="1190.53" style="stroke:#F0F0F0;stroke-width:9.72"/>
	<line x1="2733.92" y1="1190.53" x2="2798.72" y2="1190.53" style="stroke:#F0F0F0;stroke-width:9.72"/>
	<line x1="2831.12" y1="1190.53" x2="2895.92" y2="1190.53" style="stroke:#F0F0F0;stroke-width:9.72"/>
	<line x1="2928.32" y1="1190.53" x2="2993.12" y2="1190.53" style="stroke:#F0F0F0;stroke-width:9.72"/>
	<line x1="3025.52" y1="1190.53" x2="3090.32" y2="1190.53" style="stroke:#F0F0F0;stroke-width:9.72"/>
	<line x1="3122.72" y1="1190.53" x2="3187.52" y2="1190.53" style="stroke:#F0F0F0;stroke-width:9.72"/>
	<line x1="3219.92" y1="1190.53" x2="3284.72" y2="1190.53" style="stroke:#F0F0F0;stroke-width:9.72"/>
	<line x1="3317.12" y1="1190.53" x2="3381.92" y2="1190.53" style="stroke:#F0F0F0;stroke-width:9.72"/>
	<line x1="3414.32" y1="1190.53" x2="3479.12" y2="1190.53" style="stroke:#F0F0F0;stroke-width:9.72"/>
	<line x1="3511.52" y1="1190.53" x2="3576.32" y2="1190.53" style="stroke:#F0F0F0;stroke-width:9.72"/>
	<line x1="3608.72" y1="1190.53" x2="3673.52" y2="1190.53" style="stroke:#F0F0F0;stroke-width:9.72"/>
	<line x1="3705.92" y1="1190.53" x2="3732.75" y2="1190.53" style="stroke:#F0F0F0;stroke-width:9.72"/>
	<line x1="1275.92" y1="438.07" x2="1340.72" y2="438.07" style="stroke:#F0F0F0;stroke-width:9.72"/>
	<line x1="1373.12" y1="438.07" x2="1437.92" y2="438.07" style="stroke:#F0F0F0;stroke-width:9.72"/>
	<line x1="1470.32" y1="438.07" x2="1535.12" y2="438.07" style="stroke:#F0F0F0;stroke-width:9.72"/>
	<line x1="1567.52" y1="438.07" x2="1632.32" y2="438.07" style="stroke:#F0F0F0;stroke-width:9.72"/>
	<line x1="1664.72" y1="438.07" x2="1729.52" y2="438.07" style="stroke:#F0F0F0;stroke-width:9.72"/>
	<line x1="1761.92" y1="438.07" x2="1826.72" y2="438.07" style="stroke:#F0F0F0;stroke-width:9.72"/>
	<line x1="1859.12" y1="438.07" x2="1923.92" y2="438.07" style="stroke:#F0F0F0;stroke-width:9.72"/>
	<line x1="1956.32" y1="438.07" x2="2021.12" y2="438.07" style="stroke:#F0F0F0;stroke-width:9.72"/>
	<line x1="2053.52" y1="438.07" x2="2118.32" y2="438.07" style="stroke:#F0F0F0;stroke-width:9.72"/>
	<line x1="2150.72" y1="438.07" x2="2215.52" y2="438.07" style="stroke:#F0F0F0;stroke-width:9.72"/>
	<line x1="2247.92" y1="438.07" x2="2312.72" y2="438.07" style="stroke:#F0F0F0;stroke-width:9.72"/>
	<line x1="2345.12" y1="438.07" x2="2409.92" y2="438.07" style="stroke:#F0F0F0;stroke-width:9.72"/>
	<line x1="2442.32" y1="438.07" x2="2507.12" y2="438.07" style="stroke:#F0F0F0;stroke-width:9.72"/>
	<line x1="2539.52" y1="438.07" x2="2604.32" y2="438.07" style="stroke:#F0F0F0;stroke-width:9.72"/>
	<line x1="2636.72" y1="438.07" x2="2701.52" y2="438.07" style="stroke:#F0F0F0;stroke-width:9.72"/>
	<line x1="2733.92" y1="438.07" x2="2798.72" y2="438.07" style="stroke:#F0F0F0;stroke-width:9.72"/>
	<line x1="2831.12" y1="438.07" x2="2895.92" y2="438.07" style="stroke:#F0F0F0;stroke-width:9.72"/>
	<line x1="2928.32" y1="438.07" x2="2993.12" y2="438.07" style="stroke:#F0F0F0;stroke-width:9.72"/>
	<line x1="3025.52" y1="438.07" x2="3090.32" y2="438.07" style="stroke:#F0F0F0;stroke-width:9.72"/>
	<line x1="3122.72" y1="438.07" x2="3187.52" y2="438.07" style="stroke:#F0F0F0;stroke-width:9.72"/>
	<line x1="3219.92" y1="438.07" x2="3284.72" y2="438.07" style="stroke:#F0F0F0;stroke-width:9.72"/>
	<line x1="3317.12" y1="438.07" x2="3381.92" y2="438.07" style="stroke:#F0F0F0;stroke-width:9.72"/>
	<line x1="3414.32" y1="438.07" x2="3479.12" y2="438.07" style="stroke:#F0F0F0;stroke-width:9.72"/>
	<line x1="3511.52" y1="438.07" x2="3576.32" y2="438.07" style="stroke:#F0F0F0;stroke-width:9.72"/>
	<line x1="3608.72" y1="438.07" x2="3673.52" y2="438.07" style="stroke:#F0F0F0;stroke-width:9.72"/>
	<line x1="3705.92" y1="438.07" x2="3732.75" y2="438.07" style="stroke:#F0F0F0;stroke-width:9.72"/>
	<line x1="1347.30" y1="2766.66" x2="1347.30" y2="2701.86" style="stroke:#F0F0F0;stroke-width:9.72"/>
	<line x1="1347.30" y1="2669.46" x2="1347.30" y2="2604.66" style="stroke:#F0F0F0;stroke-width:9.72"/>
	<line x1="1347.30" y1="2572.26" x2="1347.30" y2="2507.46" style="stroke:#F0F0F0;stroke-width:9.72"/>
	<line x1="1347.30" y1="2475.06" x2="1347.30" y2="2410.26" style="stroke:#F0F0F0;stroke-width:9.72"/>
	<line x1="1347.30" y1="2377.86" x2="1347.30" y2="2313.06" style="stroke:#F0F0F0;stroke-width:9.72"/>
	<line x1="1347.30" y1="2280.66" x2="1347.30" y2="2215.86" style="stroke:#F0F0F0;stroke-width:9.72"/>
	<line x1="1347.30" y1="2183.46" x2="1347.30" y2="2118.66" style="stroke:#F0F0F0;stroke-width:9.72"/>
	<line x1="1347.30" y1="2086.26" x2="1347.30" y2="2021.46" style="stroke:#F0F0F0;stroke-width:9.72"/>
	<line x1="1347.30" y1="1989.06" x2="1347.30" y2="1924.26" style="stroke:#F0F0F0;stroke-width:9.72"/>
	<line x1="1347.30" y1="1891.86" x2="1347.30" y2="1827.06" style="stroke:#F0F0F0;stroke-width:9.72"/>
	<line x1="1347.30" y1="1794.66" x2="1347.30" y2="1729.86" style="stroke:#F0F0F0;stroke-width:9.72"/>
	<line x1="1347.30" y1="1697.46" x2="1347.30" y2="1632.66" style="stroke:#F0F0F0;stroke-width:9.72"/>
	<line x1="1347.30" y1="1600.26" x2="1347.30" y2="1535.46" style="stroke:#F0F0F0;stroke-width:9.72"/>
	<line x1="1347.30" y1="1503.06" x2="1347.30" y2="1438.26" style="stroke:#F0F0F0;stroke-width:9.72"/>
	<line x1="1347.30" y1="1405.86" x2="1347.30" y2="1341.06" style="stroke:#F0F0F0;stroke-width:9.72"/>
	<line x1="1347.30" y1="1308.66" x2="1347.30" y2="1243.86" style="stroke:#F0F0F0;stroke-width:9.72"/>
	<line x1="1347.30" y1="1211.46" x2="1347.30" y2="1146.66" style="stroke:#F0F0F0;stroke-width:9.72"/>
	<line x1="1347.30" y1="1114.26" x2="1347.30" y2="1049.46" style="stroke:#F0F0F0;stroke-width:9.72"/>
	<line x1="1347.30" y1="1017.06" x2="1347.30" y2="952.26" style="stroke:#F0F0F0;stroke-width:9.72"/>
	<line x1="1347.30" y1="919.86" x2="1347.30" y2="855.06" style="stroke:#F0F0F0;stroke-width:9.72"/>
	<line x1="1347.30" y1="822.66" x2="1347.30" y2="757.86" style="stroke:#F0F0F0;stroke-width:9.72"/>
	<line x1="1347.30" y1="725.46" x2="1347.30" y2="660.66" style="stroke:#F0F0F0;stroke-width:9.72"/>
	<line x1="1347.30" y1="628.26" x2="1347.30" y2="563.46" style="stroke:#F0F0F0;stroke-width:9.72"/>
	<line x1="1347.30" y1="531.06" x2="1347.30" y2="466.26" style="stroke:#F0F0F0;stroke-width:9.72"/>
	<line x1="1347.30" y1="433.86" x2="1347.30" y2="369.06" style="stroke:#F0F0F0;stroke-width:9.72"/>
	<line x1="1347.30" y1="336.66" x2="1347.30" y2="309.82" style="stroke:#F0F0F0;stroke-width:9.72"/>
	<line x1="2070.56" y1="2766.66" x2="2070.56" y2="2701.86" style="stroke:#F0F0F0;stroke-width:9.72"/>
	<line x1="2070.56" y1="2669.46" x2="2070.56" y2="2604.66" style="stroke:#F0F0F0;stroke-width:9.72"/>
	<line x1="2070.56" y1="2572.26" x2="2070.56" y2="2507.46" style="stroke:#F0F0F0;stroke-width:9.72"/>
	<line x1="2070.56" y1="2475.06" x2="2070.56" y2="2410.26" style="stroke:#F0F0F0;stroke-width:9.72"/>
	<line x1="2070.56" y1="2377.86" x2="2070.56" y2="2313.06" style="stroke:#F0F0F0;stroke-width:9.72"/>
	<line x1="2070.56" y1="2280.66" x2="2070.56" y2="2215.86" style="stroke:#F0F0F0;stroke-width:9.72"/>
	<line x1="2070.56" y1="2183.46" x2="2070.56" y2="2118.66" style="stroke:#F0F0F0;stroke-width:9.72"/>
	<line x1="2070.56" y1="2086.26" x2="2070.56" y2="2021.46" style="stroke:#F0F0F0;stroke-width:9.72"/>
	<line x1="2070.56" y1="1989.06" x2="2070.56" y2="1924.26" style="stroke:#F0F0F0;stroke-width:9.72"/>
	<line x1="2070.56" y1="1891.86" x2="2070.56" y2="1827.06" style="stroke:#F0F0F0;stroke-width:9.72"/>
	<line x1="2070.56" y1="1794.66" x2="2070.56" y2="1729.86" style="stroke:#F0F0F0;stroke-width:9.72"/>
	<line x1="2070.56" y1="1697.46" x2="2070.56" y2="1632.66" style="stroke:#F0F0F0;stroke-width:9.72"/>
	<line x1="2070.56" y1="1600.26" x2="2070.56" y2="1535.46" style="stroke:#F0F0F0;stroke-width:9.72"/>
	<line x1="2070.56" y1="1503.06" x2="2070.56" y2="1438.26" style="stroke:#F0F0F0;stroke-width:9.72"/>
	<line x1="2070.56" y1="1405.86" x2="2070.56" y2="1341.06" style="stroke:#F0F0F0;stroke-width:9.72"/>
	<line x1="2070.56" y1="1308.66" x2="2070.56" y2="1243.86" style="stroke:#F0F0F0;stroke-width:9.72"/>
	<line x1="2070.56" y1="1211.46" x2="2070.56" y2="1146.66" style="stroke:#F0F0F0;stroke-width:9.72"/>
	<line x1="2070.56" y1="1114.26" x2="2070.56" y2="1049.46" style="stroke:#F0F0F0;stroke-width:9.72"/>
	<line x1="2070.56" y1="1017.06" x2="2070.56" y2="952.26" style="stroke:#F0F0F0;stroke-width:9.72"/>
	<line x1="2070.56" y1="919.86" x2="2070.56" y2="855.06" style="stroke:#F0F0F0;stroke-width:9.72"/>
	<line x1="2070.56" y1="822.66" x2="2070.56" y2="757.86" style="stroke:#F0F0F0;stroke-width:9.72"/>
	<line x1="2070.56" y1="725.46" x2="2070.56" y2="660.66" style="stroke:#F0F0F0;stroke-width:9.72"/>
	<line x1="2070.56" y1="628.26" x2="2070.56" y2="563.46" style="stroke:#F0F0F0;stroke-width:9.72"/>
	<line x1="2070.56" y1="531.06" x2="2070.56" y2="466.26" style="stroke:#F0F0F0;stroke-width:9.72"/>
	<line x1="2070.56" y1="433.86" x2="2070.56" y2="369.06" style="stroke:#F0F0F0;stroke-width:9.72"/>
	<line x1="2070.56" y1="336.66" x2="2070.56" y2="309.82" style="stroke:#F0F0F0;stroke-width:9.72"/>
	<line x1="2793.66" y1="2766.66" x2="2793.66" y2="2701.86" style="stroke:#F0F0F0;stroke-width:9.72"/>
	<line x1="2793.66" y1="2669.46" x2="2793.66" y2="2604.66" style="stroke:#F0F0F0;stroke-width:9.72"/>
	<line x1="2793.66" y1="2572.26" x2="2793.66" y2="2507.46" style="stroke:#F0F0F0;stroke-width:9.72"/>
	<line x1="2793.66" y1="2475.06" x2="2793.66" y2="2410.26" style="stroke:#F0F0F0;stroke-width:9.72"/>
	<line x1="2793.66" y1="2377.86" x2="2793.66" y2="2313.06" style="stroke:#F0F0F0;stroke-width:9.72"/>
	<line x1="2793.66" y1="2280.66" x2="2793.66" y2="2215.86" style="stroke:#F0F0F0;stroke-width:9.72"/>
	<line x1="2793.66" y1="2183.46" x2="2793.66" y2="2118.66" style="stroke:#F0F0F0;stroke-width:9.72"/>
	<line x1="2793.66" y1="2086.26" x2="2793.66" y2="2021.46" style="stroke:#F0F0F0;stroke-width:9.72"/>
	<line x1="2793.66" y1="1989.06" x2="2793.66" y2="1924.26" style="stroke:#F0F0F0;stroke-width:9.72"/>
	<line x1="2793.66" y1="1891.86" x2="2793.66" y2="1827.06" style="stroke:#F0F0F0;stroke-width:9.72"/>
	<line x1="2793.66" y1="1794.66" x2="2793.66" y2="1729.86" style="stroke:#F0F0F0;stroke-width:9.72"/>
	<line x1="2793.66" y1="1697.46" x2="2793.66" y2="1632.66" style="stroke:#F0F0F0;stroke-width:9.72"/>
	<line x1="2793.66" y1="1600.26" x2="2793.66" y2="1535.46" style="stroke:#F0F0F0;stroke-width:9.72"/>
	<line x1="2793.66" y1="1503.06" x2="2793.66" y2="1438.26" style="stroke:#F0F0F0;stroke-width:9.72"/>
	<line x1="2793.66" y1="1405.86" x2="2793.66" y2="1341.06" style="stroke:#F0F0F0;stroke-width:9.72"/>
	<line x1="2793.66" y1="1308.66" x2="2793.66" y2="1243.86" style="stroke:#F0F0F0;stroke-width:9.72"/>
	<line x1="2793.66" y1="1211.46" x2="2793.66" y2="1146.66" style="stroke:#F0F0F0;stroke-width:9.72"/>
	<line x1="2793.66" y1="1114.26" x2="2793.66" y2="1049.46" style="stroke:#F0F0F0;stroke-width:9.72"/>
	<line x1="2793.66" y1="1017.06" x2="2793.66" y2="952.26" style="stroke:#F0F0F0;stroke-width:9.72"/>
	<line x1="2793.66" y1="919.86" x2="2793.66" y2="855.06" style="stroke:#F0F0F0;stroke-width:9.72"/>
	<line x1="2793.66" y1="822.66" x2="2793.66" y2="757.86" style="stroke:#F0F0F0;stroke-width:9.72"/>
	<line x1="2793.66" y1="725.46" x2="2793.66" y2="660.66" style="stroke:#F0F0F0;stroke-width:9.72"/>
	<line x1="2793.66" y1="628.26" x2="2793.66" y2="563.46" style="stroke:#F0F0F0;stroke-width:9.72"/>
	<line x1="2793.66" y1="531.06" x2="2793.66" y2="466.26" style="stroke:#F0F0F0;stroke-width:9.72"/>
	<line x1="2793.66" y1="433.86" x2="2793.66" y2="369.06" style="stroke:#F0F0F0;stroke-width:9.72"/>
	<line x1="2793.66" y1="336.66" x2="2793.66" y2="309.82" style="stroke:#F0F0F0;stroke-width:9.72"/>
	<line x1="3516.92" y1="2766.66" x2="3516.92" y2="2701.86" style="stroke:#F0F0F0;stroke-width:9.72"/>
	<line x1="3516.92" y1="2669.46" x2="3516.92" y2="2604.66" style="stroke:#F0F0F0;stroke-width:9.72"/>
	<line x1="3516.92" y1="2572.26" x2="3516.92" y2="2507.46" style="stroke:#F0F0F0;stroke-width:9.72"/>
	<line x1="3516.92" y1="2475.06" x2="3516.92" y2="2410.26" style="stroke:#F0F0F0;stroke-width:9.72"/>
	<line x1="3516.92" y1="2377.86" x2="3516.92" y2="2313.06" style="stroke:#F0F0F0;stroke-width:9.72"/>
	<line x1="3516.92" y1="2280.66" x2="3516.92" y2="2215.86" style="stroke:#F0F0F0;stroke-width:9.72"/>
	<line x1="3516.92" y1="2183.46" x2="3516.92" y2="2118.66" style="stroke:#F0F0F0;stroke-width:9.72"/>
	<line x1="3516.92" y1="2086.26" x2="3516.92" y2="2021.46" style="stroke:#F0F0F0;stroke-width:9.72"/>
	<line x1="3516.92" y1="1989.06" x2="3516.92" y2="1924.26" style="stroke:#F0F0F0;stroke-width:9.72"/>
	<line x1="3516.92" y1="1891.86" x2="3516.92" y2="1827.06" style="stroke:#F0F0F0;stroke-width:9.72"/>
	<line x1="3516.92" y1="1794.66" x2="3516.92" y2="1729.86" style="stroke:#F0F0F0;stroke-width:9.72"/>
	<line x1="3516.92" y1="1697.46" x2="3516.92" y2="1632.66" style="stroke:#F0F0F0;stroke-width:9.72"/>
	<line x1="3516.92" y1="1600.26" x2="3516.92" y2="1535.46" style="stroke:#F0F0F0;stroke-width:9.72"/>
	<line x1="3516.92" y1="1503.06" x2="3516.92" y2="1438.26" style="stroke:#F0F0F0;stroke-width:9.72"/>
	<line x1="3516.92" y1="1405.86" x2="3516.92" y2="1341.06" style="stroke:#F0F0F0;stroke-width:9.72"/>
	<line x1="3516.92" y1="1308.66" x2="3516.92" y2="1243.86" style="stroke:#F0F0F0;stroke-width:9.72"/>
	<line x1="3516.92" y1="1211.46" x2="3516.92" y2="1146.66" style="stroke:#F0F0F0;stroke-width:9.72"/>
	<line x1="3516.92" y1="1114.26" x2="3516.92" y2="1049.46" style="stroke:#F0F0F0;stroke-width:9.72"/>
	<line x1="3516.92" y1="1017.06" x2="3516.92" y2="952.26" style="stroke:#F0F0F0;stroke-width:9.72"/>
	<line x1="3516.92" y1="919.86" x2="3516.92" y2="855.06" style="stroke:#F0F0F0;stroke-width:9.72"/>
	<line x1="3516.92" y1="822.66" x2="3516.92" y2="757.86" style="stroke:#F0F0F0;stroke-width:9.72"/>
	<line x1="3516.92" y1="725.46" x2="3516.92" y2="660.66" style="stroke:#F0F0F0;stroke-width:9.72"/>
	<line x1="3516.92" y1="628.26" x2="3516.92" y2="563.46" style="stroke:#F0F0F0;stroke-width:9.72"/>
	<line x1="3516.92" y1="531.06" x2="3516.92" y2="466.26" style="stroke:#F0F0F0;stroke-width:9.72"/>
	<line x1="3516.92" y1="433.86" x2="3516.92" y2="369.06" style="stroke:#F0F0F0;stroke-width:9.72"/>
	<line x1="3516.92" y1="336.66" x2="3516.92" y2="309.82" style="stroke:#F0F0F0;stroke-width:9.72"/>
	<line x1="2359.80" y1="2766.66" x2="2359.80" y2="2701.86" style="stroke:#000000;stroke-width:9.72"/>
	<line x1="2359.80" y1="2669.46" x2="2359.80" y2="2604.66" style="stroke:#000000;stroke-width:9.72"/>
	<line x1="2359.80" y1="2572.26" x2="2359.80" y2="2507.46" style="stroke:#000000;stroke-width:9.72"/>
	<line x1="2359.80" y1="2475.06" x2="2359.80" y2="2410.26" style="stroke:#000000;stroke-width:9.72"/>
	<line x1="2359.80" y1="2377.86" x2="2359.80" y2="2313.06" style="stroke:#000000;stroke-width:9.72"/>
	<line x1="2359.80" y1="2280.66" x2="2359.80" y2="2215.86" style="stroke:#000000;stroke-width:9.72"/>
	<line x1="2359.80" y1="2183.46" x2="2359.80" y2="2118.66" style="stroke:#000000;stroke-width:9.72"/>
	<line x1="2359.80" y1="2086.26" x2="2359.80" y2="2021.46" style="stroke:#000000;stroke-width:9.72"/>
	<line x1="2359.80" y1="1989.06" x2="2359.80" y2="1924.26" style="stroke:#000000;stroke-width:9.72"/>
	<line x1="2359.80" y1="1891.86" x2="2359.80" y2="1827.06" style="stroke:#000000;stroke-width:9.72"/>
	<line x1="2359.80" y1="1794.66" x2="2359.80" y2="1729.86" style="stroke:#000000;stroke-width:9.72"/>
	<line x1="2359.80" y1="1697.46" x2="2359.80" y2="1632.66" style="stroke:#000000;stroke-width:9.72"/>
	<line x1="2359.80" y1="1600.26" x2="2359.80" y2="1535.46" style="stroke:#000000;stroke-width:9.72"/>
	<line x1="2359.80" y1="1503.06" x2="2359.80" y2="1438.26" style="stroke:#000000;stroke-width:9.72"/>
	<line x1="2359.80" y1="1405.86" x2="2359.80" y2="1341.06" style="stroke:#000000;stroke-width:9.72"/>
	<line x1="2359.80" y1="1308.66" x2="2359.80" y2="1243.86" style="stroke:#000000;stroke-width:9.72"/>
	<line x1="2359.80" y1="1211.46" x2="2359.80" y2="1146.66" style="stroke:#000000;stroke-width:9.72"/>
	<line x1="2359.80" y1="1114.26" x2="2359.80" y2="1049.46" style="stroke:#000000;stroke-width:9.72"/>
	<line x1="2359.80" y1="1017.06" x2="2359.80" y2="952.26" style="stroke:#000000;stroke-width:9.72"/>
	<line x1="2359.80" y1="919.86" x2="2359.80" y2="855.06" style="stroke:#000000;stroke-width:9.72"/>
	<line x1="2359.80" y1="822.66" x2="2359.80" y2="757.86" style="stroke:#000000;stroke-width:9.72"/>
	<line x1="2359.80" y1="725.46" x2="2359.80" y2="660.66" style="stroke:#000000;stroke-width:9.72"/>
	<line x1="2359.80" y1="628.26" x2="2359.80" y2="563.46" style="stroke:#000000;stroke-width:9.72"/>
	<line x1="2359.80" y1="531.06" x2="2359.80" y2="466.26" style="stroke:#000000;stroke-width:9.72"/>
	<line x1="2359.80" y1="433.86" x2="2359.80" y2="369.06" style="stroke:#000000;stroke-width:9.72"/>
	<line x1="2359.80" y1="336.66" x2="2359.80" y2="309.82" style="stroke:#000000;stroke-width:9.72"/>
	<path d=" M1347.13 1865.87 L1491.75 1887.30 L1636.54 1896.75 L1781.16 1774.41 L1925.78 1799.38 L2070.39 1741.50 L2215.01 1713.83 L2359.63 1728.34 L2504.25 1403.16 L2649.04 1606.50 L2793.66 1701.68 L2938.28 1668.77 L3082.89 1691.38 L3227.51 1545.58 L3372.13 1648.18 L3516.75 1673.83 L3661.54 1497.66" stroke-linejoin="round" style="fill:none;stroke:#1A85FF;stroke-width:9.72"/>
	<circle cx="1347.13" cy="1865.87" r="21.74" style="fill:#1A85FF"/>
	<circle cx="1347.13" cy="1865.87" r="16.88" style="fill:none;stroke:#1A85FF;stroke-width:9.72"/>
	<circle cx="1491.75" cy="1887.30" r="21.74" style="fill:#1A85FF"/>
	<circle cx="1491.75" cy="1887.30" r="16.88" style="fill:none;stroke:#1A85FF;stroke-width:9.72"/>
	<circle cx="1636.54" cy="1896.75" r="21.74" style="fill:#1A85FF"/>
	<circle cx="1636.54" cy="1896.75" r="16.88" style="fill:none;stroke:#1A85FF;stroke-width:9.72"/>
	<circle cx="1781.16" cy="1774.41" r="21.74" style="fill:#1A85FF"/>
	<circle cx="1781.16" cy="1774.41" r="16.88" style="fill:none;stroke:#1A85FF;stroke-width:9.72"/>
	<circle cx="1925.78" cy="1799.38" r="21.74" style="fill:#1A85FF"/>
	<circle cx="1925.78" cy="1799.38" r="16.88" style="fill:none;stroke:#1A85FF;stroke-width:9.72"/>
	<circle cx="2070.39" cy="1741.50" r="21.74" style="fill:#1A85FF"/>
	<circle cx="2070.39" cy="1741.50" r="16.88" style="fill:none;stroke:#1A85FF;stroke-width:9.72"/>
	<circle cx="2215.01" cy="1713.83" r="21.74" style="fill:#1A85FF"/>
	<circle cx="2215.01" cy="1713.83" r="16.88" style="fill:none;stroke:#1A85FF;stroke-width:9.72"/>
	<circle cx="2359.63" cy="1728.34" r="21.74" style="fill:#1A85FF"/>
	<circle cx="2359.63" cy="1728.34" r="16.88" style="fill:none;stroke:#1A85FF;stroke-width:9.72"/>
	<circle cx="2504.25" cy="1403.16" r="21.74" style="fill:#1A85FF"/>
	<circle cx="2504.25" cy="1403.16" r="16.88" style="fill:none;stroke:#1A85FF;stroke-width:9.72"/>
	<circle cx="2649.04" cy="1606.50" r="21.74" style="fill:#1A85FF"/>
	<circle cx="2649.04" cy="1606.50" r="16.88" style="fill:none;stroke:#1A85FF;stroke-width:9.72"/>
	<circle cx="2793.66" cy="1701.68" r="21.74" style="fill:#1A85FF"/>
	<circle cx="2793.66" cy="1701.68" r="16.88" style="fill:none;stroke:#1A85FF;stroke-width:9.72"/>
	<circle cx="2938.28" cy="1668.77" r="21.74" style="fill:#1A85FF"/>
	<circle cx="2938.28" cy="1668.77" r="16.88" style="fill:none;stroke:#1A85FF;stroke-width:9.72"/>
	<circle cx="3082.89" cy="1691.38" r="21.74" style="fill:#1A85FF"/>
	<circle cx="3082.89" cy="1691.38" r="16.88" style="fill:none;stroke:#1A85FF;stroke-width:9.72"/>
	<circle cx="3227.51" cy="1545.58" r="21.74" style="fill:#1A85FF"/>
	<circle cx="3227.51" cy="1545.58" r="16.88" style="fill:none;stroke:#1A85FF;stroke-width:9.72"/>
	<circle cx="3372.13" cy="1648.18" r="21.74" style="fill:#1A85FF"/>
	<circle cx="3372.13" cy="1648.18" r="16.88" style="fill:none;stroke:#1A85FF;stroke-width:9.72"/>
	<circle cx="3516.75" cy="1673.83" r="21.74" style="fill:#1A85FF"/>
	<circle cx="3516.75" cy="1673.83" r="16.88" style="fill:none;stroke:#1A85FF;stroke-width:9.72"/>
	<circle cx="3661.54" cy="1497.66" r="21.74" style="fill:#1A85FF"/>
	<circle cx="3661.54" cy="1497.66" r="16.88" style="fill:none;stroke:#1A85FF;stroke-width:9.72"/>
	<path d=" M1347.13 741.66 L1491.75 802.57 L1636.54 727.82 L1781.16 662.01 L1925.78 597.21 L2070.39 641.25 L2215.01 560.08 L2359.63 556.54 L2504.25 547.09 L2649.04 530.89 L2793.66 547.76 L2938.28 574.09 L3082.89 558.56 L3227.51 428.79 L3372.13 414.11 L3516.75 381.21 L3661.54 493.26" stroke-linejoin="round" style="fill:none;stroke:#D41159;stroke-width:9.72"/>
	<circle cx="1347.13" cy="741.66" r="21.74" style="fill:#D41159"/>
	<circle cx="1347.13" cy="741.66" r="16.88" style="fill:none;stroke:#D41159;stroke-width:9.72"/>
	<circle cx="1491.75" cy="802.57" r="21.74" style="fill:#D41159"/>
	<circle cx="1491.75" cy="802.57" r="16.88" style="fill:none;stroke:#D41159;stroke-width:9.72"/>
	<circle cx="1636.54" cy="727.82" r="21.74" style="fill:#D41159"/>
	<circle cx="1636.54" cy="727.82" r="16.88" style="fill:none;stroke:#D41159;stroke-width:9.72"/>
	<circle cx="1781.16" cy="662.01" r="21.74" style="fill:#D41159"/>
	<circle cx="1781.16" cy="662.01" r="16.88" style="fill:none;stroke:#D41159;stroke-width:9.72"/>
	<circle cx="1925.78" cy="597.21" r="21.74" style="fill:#D41159"/>
	<circle cx="1925.78" cy="597.21" r="16.88" style="fill:none;stroke:#D41159;stroke-width:9.72"/>
	<circle cx="2070.39" cy="641.25" r="21.74" style="fill:#D41159"/>
	<circle cx="2070.39" cy="641.25" r="16.88" style="fill:none;stroke:#D41159;stroke-width:9.72"/>
	<circle cx="2215.01" cy="560.08" r="21.74" style="fill:#D41159"/>
	<circle cx="2215.01" cy="560.08" r="16.88" style="fill:none;stroke:#D41159;stroke-width:9.72"/>
	<circle cx="2359.63" cy="556.54" r="21.74" style="fill:#D41159"/>
	<circle cx="2359.63" cy="556.54" r="16.88" style="fill:none;stroke:#D41159;stroke-width:9.72"/>
	<circle cx="2504.25" cy="547.09" r="21.74" style="fill:#D41159"/>
	<circle cx="2504.25" cy="547.09" r="16.88" style="fill:none;stroke:#D41159;stroke-width:9.72"/>
	<circle cx="2649.04" cy="530.89" r="21.74" style="fill:#D41159"/>
	<circle cx="2649.04" cy="530.89" r="16.88" style="fill:none;stroke:#D41159;stroke-width:9.72"/>
	<circle cx="2793.66" cy="547.76" r="21.74" style="fill:#D41159"/>
	<circle cx="2793.66" cy="547.76" r="16.88" style="fill:none;stroke:#D41159;stroke-width:9.72"/>
	<circle cx="2938.28" cy="574.09" r="21.74" style="fill:#D41159"/>
	<circle cx="2938.28" cy="574.09" r="16.88" style="fill:none;stroke:#D41159;stroke-width:9.72"/>
	<circle cx="3082.89" cy="558.56" r="21.74" style="fill:#D41159"/>
	<circle cx="3082.89" cy="558.56" r="16.88" style="fill:none;stroke:#D41159;stroke-width:9.72"/>
	<circle cx="3227.51" cy="428.79" r="21.74" style="fill:#D41159"/>
	<circle cx="3227.51" cy="428.79" r="16.88" style="fill:none;stroke:#D41159;stroke-width:9.72"/>
	<circle cx="3372.13" cy="414.11" r="21.74" style="fill:#D41159"/>
	<circle cx="3372.13" cy="414.11" r="16.88" style="fill:none;stroke:#D41159;stroke-width:9.72"/>
	<circle cx="3516.75" cy="381.21" r="21.74" style="fill:#D41159"/>
	<circle cx="3516.75" cy="381.21" r="16.88" style="fill:none;stroke:#D41159;stroke-width:9.72"/>
	<circle cx="3661.54" cy="493.26" r="21.74" style="fill:#D41159"/>
	<circle cx="3661.54" cy="493.26" r="16.88" style="fill:none;stroke:#D41159;stroke-width:9.72"/>
	<line x1="1275.92" y1="2766.66" x2="1275.92" y2="309.82" style="stroke:#000000;stroke-width:6.48"/>
	<line x1="1275.92" y1="2695.28" x2="1231.03" y2="2695.28" style="stroke:#000000;stroke-width:6.48"/>
	<text x="1208.42" y="2734.71" style="font-family:'Helvetica';font-size:112.56px;fill:#000000" text-anchor="end">9.5</text>
	<line x1="1275.92" y1="1942.99" x2="1231.03" y2="1942.99" style="stroke:#000000;stroke-width:6.48"/>
	<text x="1208.42" y="1982.42" style="font-family:'Helvetica';font-size:112.56px;fill:#000000" text-anchor="end">10</text>
	<line x1="1275.92" y1="1190.53" x2="1231.03" y2="1190.53" style="stroke:#000000;stroke-width:6.48"/>
	<text x="1208.42" y="1229.97" style="font-family:'Helvetica';font-size:112.56px;fill:#000000" text-anchor="end">10.5</text>
	<line x1="1275.92" y1="438.07" x2="1231.03" y2="438.07" style="stroke:#000000;stroke-width:6.48"/>
	<text x="1208.42" y="477.51" style="font-family:'Helvetica';font-size:112.56px;fill:#000000" text-anchor="end">11</text>
	<text x="869.81" y="1538.16" style="font-family:'Helvetica';font-size:112.56px;fill:#000000" transform="rotate(-90 869.81,1538.16)" text-anchor="middle">Log-earnings</text>
	<line x1="1275.92" y1="2766.66" x2="3732.75" y2="2766.66" style="stroke:#000000;stroke-width:6.48"/>
	<line x1="1347.30" y1="2766.66" x2="1347.30" y2="2811.54" style="stroke:#000000;stroke-width:6.48"/>
	<text x="1347.30" y="2912.86" style="font-family:'Helvetica';font-size:112.56px;fill:#000000" text-anchor="middle">1995</text>
	<line x1="2070.56" y1="2766.66" x2="2070.56" y2="2811.54" style="stroke:#000000;stroke-width:6.48"/>
	<text x="2070.56" y="2912.86" style="font-family:'Helvetica';font-size:112.56px;fill:#000000" text-anchor="middle">2000</text>
	<line x1="2793.66" y1="2766.66" x2="2793.66" y2="2811.54" style="stroke:#000000;stroke-width:6.48"/>
	<text x="2793.66" y="2912.86" style="font-family:'Helvetica';font-size:112.56px;fill:#000000" text-anchor="middle">2005</text>
	<line x1="3516.92" y1="2766.66" x2="3516.92" y2="2811.54" style="stroke:#000000;stroke-width:6.48"/>
	<text x="3516.92" y="2912.86" style="font-family:'Helvetica';font-size:112.56px;fill:#000000" text-anchor="middle">2010</text>
	<text x="2504.42" y="3070.31" style="font-family:'Helvetica';font-size:112.56px;fill:#000000" text-anchor="middle">Year</text>
	<rect x="3771.73" y="1354.56" width="820.80" height="367.20" style="fill:#FFFFFF"/>
	<rect x="3774.97" y="1357.80" width="814.32" height="360.72" style="fill:none;stroke:#FFFFFF;stroke-width:6.48"/>
	<line x1="3820.33" y1="1459.52" x2="4079.53" y2="1459.52" style="stroke:#1A85FF;stroke-width:9.72"/>
	<circle cx="3949.93" cy="1459.52" r="21.74" style="fill:#1A85FF"/>
	<circle cx="3949.93" cy="1459.52" r="16.88" style="fill:none;stroke:#1A85FF;stroke-width:9.72"/>
	<line x1="3820.33" y1="1616.96" x2="4079.53" y2="1616.96" style="stroke:#D41159;stroke-width:9.72"/>
	<circle cx="3949.93" cy="1616.96" r="21.74" style="fill:#D41159"/>
	<circle cx="3949.93" cy="1616.96" r="16.88" style="fill:none;stroke:#D41159;stroke-width:9.72"/>
	<text x="4147.03" y="1498.96" style="font-family:'Helvetica';font-size:112.56px;fill:#000000">Treated</text>
	<text x="4147.03" y="1656.40" style="font-family:'Helvetica';font-size:112.56px;fill:#000000">Control</text>
	<text x="2504.42" y="243.10" style="font-family:'Helvetica';font-size:157.44px;fill:#000000" text-anchor="middle">Region 1</text>
</svg>