<svg xmlns="http://www.w3.org/2000/svg" xmlns:xlink="http://www.w3.org/1999/xlink" version="1.1" width="7.500in" height="4.500in" viewBox="0 0 5400 3240">
	<desc>Stata Graph - Graph</desc>
	<rect x="0" y="0" width="5400" height="3240" style="fill:#FFFFFF;stroke:none"/>
	<rect x="0.00" y="0.00" width="5400.00" height="3240.00" style="fill:#FFFFFF"/>
	<rect x="3.24" y="3.24" width="5393.52" height="3233.52" style="fill:none;stroke:#FFFFFF;stroke-width:6.48"/>
	<rect x="684.62" y="113.40" width="4601.98" height="2653.26" style="fill:#FFFFFF"/>
	<rect x="687.86" y="116.64" width="4595.50" height="2646.78" style="fill:none;stroke:#FFFFFF;stroke-width:6.48"/>
	<line x1="684.62" y1="2636.89" x2="749.42" y2="2636.89" style="stroke:#F0F0F0;stroke-width:9.72"/>
	<line x1="781.82" y1="2636.89" x2="846.62" y2="2636.89" style="stroke:#F0F0F0;stroke-width:9.72"/>
	<line x1="879.02" y1="2636.89" x2="943.82" y2="2636.89" style="stroke:#F0F0F0;stroke-width:9.72"/>
	<line x1="976.22" y1="2636.89" x2="1041.02" y2="2636.89" style="stroke:#F0F0F0;stroke-width:9.72"/>
	<line x1="1073.42" y1="2636.89" x2="1138.22" y2="2636.89" style="stroke:#F0F0F0;stroke-width:9.72"/>
	<line x1="1170.62" y1="2636.89" x2="1235.42" y2="2636.89" style="stroke:#F0F0F0;stroke-width:9.72"/>
	<line x1="1267.82" y1="2636.89" x2="1332.62" y2="2636.89" style="stroke:#F0F0F0;stroke-width:9.72"/>
	<line x1="1365.02" y1="2636.89" x2="1429.82" y2="2636.89" style="stroke:#F0F0F0;stroke-width:9.72"/>
	<line x1="1462.22" y1="2636.89" x2="1527.02" y2="2636.89" style="stroke:#F0F0F0;stroke-width:9.72"/>
	<line x1="1559.42" y1="2636.89" x2="1624.22" y2="2636.89" style="stroke:#F0F0F0;stroke-width:9.72"/>
	<line x1="1656.62" y1="2636.89" x2="1721.42" y2="2636.89" style="stroke:#F0F0F0;stroke-width:9.72"/>
	<line x1="1753.82" y1="2636.89" x2="1818.62" y2="2636.89" style="stroke:#F0F0F0;stroke-width:9.72"/>
	<line x1="1851.02" y1="2636.89" x2="1915.82" y2="2636.89" style="stroke:#F0F0F0;stroke-width:9.72"/>
	<line x1="1948.22" y1="2636.89" x2="2013.02" y2="2636.89" style="stroke:#F0F0F0;stroke-width:9.72"/>
	<line x1="2045.42" y1="2636.89" x2="2110.22" y2="2636.89" style="stroke:#F0F0F0;stroke-width:9.72"/>
	<line x1="2142.62" y1="2636.89" x2="2207.42" y2="2636.89" style="stroke:#F0F0F0;stroke-width:9.72"/>
	<line x1="2239.82" y1="2636.89" x2="2304.62" y2="2636.89" style="stroke:#F0F0F0;stroke-width:9.72"/>
	<line x1="2337.02" y1="2636.89" x2="2401.82" y2="2636.89" style="stroke:#F0F0F0;stroke-width:9.72"/>
	<line x1="2434.22" y1="2636.89" x2="2499.02" y2="2636.89" style="stroke:#F0F0F0;stroke-width:9.72"/>
	<line x1="2531.42" y1="2636.89" x2="2596.22" y2="2636.89" style="stroke:#F0F0F0;stroke-width:9.72"/>
	<line x1="2628.62" y1="2636.89" x2="2693.42" y2="2636.89" style="stroke:#F0F0F0;stroke-width:9.72"/>
	<line x1="2725.82" y1="2636.89" x2="2790.62" y2="2636.89" style="stroke:#F0F0F0;stroke-width:9.72"/>
	<line x1="2823.02" y1="2636.89" x2="2887.82" y2="2636.89" style="stroke:#F0F0F0;stroke-width:9.72"/>
	<line x1="2920.22" y1="2636.89" x2="2985.02" y2="2636.89" style="stroke:#F0F0F0;stroke-width:9.72"/>
	<line x1="3017.42" y1="2636.89" x2="3082.22" y2="2636.89" style="stroke:#F0F0F0;stroke-width:9.72"/>
	<line x1="3114.62" y1="2636.89" x2="3179.42" y2="2636.89" style="stroke:#F0F0F0;stroke-width:9.72"/>
	<line x1="3211.82" y1="2636.89" x2="3276.62" y2="2636.89" style="stroke:#F0F0F0;stroke-width:9.72"/>
	<line x1="3309.02" y1="2636.89" x2="3373.82" y2="2636.89" style="stroke:#F0F0F0;stroke-width:9.72"/>
	<line x1="3406.22" y1="2636.89" x2="3471.02" y2="2636.89" style="stroke:#F0F0F0;stroke-width:9.72"/>
	<line x1="3503.42" y1="2636.89" x2="3568.22" y2="2636.89" style="stroke:#F0F0F0;stroke-width:9.72"/>
	<line x1="3600.62" y1="2636.89" x2="3665.42" y2="2636.89" style="stroke:#F0F0F0;stroke-width:9.72"/>
	<line x1="3697.82" y1="2636.89" x2="3762.62" y2="2636.89" style="stroke:#F0F0F0;stroke-width:9.72"/>
	<line x1="3795.02" y1="2636.89" x2="3859.82" y2="2636.89" style="stroke:#F0F0F0;stroke-width:9.72"/>
	<line x1="3892.22" y1="2636.89" x2="3957.02" y2="2636.89" style="stroke:#F0F0F0;stroke-width:9.72"/>
	<line x1="3989.42" y1="2636.89" x2="4054.22" y2="2636.89" style="stroke:#F0F0F0;stroke-width:9.72"/>
	<line x1="4086.62" y1="2636.89" x2="4151.42" y2="2636.89" style="stroke:#F0F0F0;stroke-width:9.72"/>
	<line x1="4183.82" y1="2636.89" x2="4248.62" y2="2636.89" style="stroke:#F0F0F0;stroke-width:9.72"/>
	<line x1="4281.02" y1="2636.89" x2="4345.82" y2="2636.89" style="stroke:#F0F0F0;stroke-width:9.72"/>
	<line x1="4378.22" y1="2636.89" x2="4443.02" y2="2636.89" style="stroke:#F0F0F0;stroke-width:9.72"/>
	<line x1="4475.42" y1="2636.89" x2="4540.22" y2="2636.89" style="stroke:#F0F0F0;stroke-width:9.72"/>
	<line x1="4572.62" y1="2636.89" x2="4637.42" y2="2636.89" style="stroke:#F0F0F0;stroke-width:9.72"/>
	<line x1="4669.82" y1="2636.89" x2="4734.62" y2="2636.89" style="stroke:#F0F0F0;stroke-width:9.72"/>
	<line x1="4767.02" y1="2636.89" x2="4831.82" y2="2636.89" style="stroke:#F0F0F0;stroke-width:9.72"/>
	<line x1="4864.22" y1="2636.89" x2="4929.02" y2="2636.89" style="stroke:#F0F0F0;stroke-width:9.72"/>
	<line x1="4961.42" y1="2636.89" x2="5026.22" y2="2636.89" style="stroke:#F0F0F0;stroke-width:9.72"/>
	<line x1="5058.62" y1="2636.89" x2="5123.42" y2="2636.89" style="stroke:#F0F0F0;stroke-width:9.72"/>
	<line x1="5155.82" y1="2636.89" x2="5220.62" y2="2636.89" style="stroke:#F0F0F0;stroke-width:9.72"/>
	<line x1="5253.02" y1="2636.89" x2="5286.60" y2="2636.89" style="stroke:#F0F0F0;stroke-width:9.72"/>
	<line x1="684.62" y1="2146.50" x2="749.42" y2="2146.50" style="stroke:#F0F0F0;stroke-width:9.72"/>
	<line x1="781.82" y1="2146.50" x2="846.62" y2="2146.50" style="stroke:#F0F0F0;stroke-width:9.72"/>
	<line x1="879.02" y1="2146.50" x2="943.82" y2="2146.50" style="stroke:#F0F0F0;stroke-width:9.72"/>
	<line x1="976.22" y1="2146.50" x2="1041.02" y2="2146.50" style="stroke:#F0F0F0;stroke-width:9.72"/>
	<line x1="1073.42" y1="2146.50" x2="1138.22" y2="2146.50" style="stroke:#F0F0F0;stroke-width:9.72"/>
	<line x1="1170.62" y1="2146.50" x2="1235.42" y2="2146.50" style="stroke:#F0F0F0;stroke-width:9.72"/>
	<line x1="1267.82" y1="2146.50" x2="1332.62" y2="2146.50" style="stroke:#F0F0F0;stroke-width:9.72"/>
	<line x1="1365.02" y1="2146.50" x2="1429.82" y2="2146.50" style="stroke:#F0F0F0;stroke-width:9.72"/>
	<line x1="1462.22" y1="2146.50" x2="1527.02" y2="2146.50" style="stroke:#F0F0F0;stroke-width:9.72"/>
	<line x1="1559.42" y1="2146.50" x2="1624.22" y2="2146.50" style="stroke:#F0F0F0;stroke-width:9.72"/>
	<line x1="1656.62" y1="2146.50" x2="1721.42" y2="2146.50" style="stroke:#F0F0F0;stroke-width:9.72"/>
	<line x1="1753.82" y1="2146.50" x2="1818.62" y2="2146.50" style="stroke:#F0F0F0;stroke-width:9.72"/>
	<line x1="1851.02" y1="2146.50" x2="1915.82" y2="2146.50" style="stroke:#F0F0F0;stroke-width:9.72"/>
	<line x1="1948.22" y1="2146.50" x2="2013.02" y2="2146.50" style="stroke:#F0F0F0;stroke-width:9.72"/>
	<line x1="2045.42" y1="2146.50" x2="2110.22" y2="2146.50" style="stroke:#F0F0F0;stroke-width:9.72"/>
	<line x1="2142.62" y1="2146.50" x2="2207.42" y2="2146.50" style="stroke:#F0F0F0;stroke-width:9.72"/>
	<line x1="2239.82" y1="2146.50" x2="2304.62" y2="2146.50" style="stroke:#F0F0F0;stroke-width:9.72"/>
	<line x1="2337.02" y1="2146.50" x2="2401.82" y2="2146.50" style="stroke:#F0F0F0;stroke-width:9.72"/>
	<line x1="2434.22" y1="2146.50" x2="2499.02" y2="2146.50" style="stroke:#F0F0F0;stroke-width:9.72"/>
	<line x1="2531.42" y1="2146.50" x2="2596.22" y2="2146.50" style="stroke:#F0F0F0;stroke-width:9.72"/>
	<line x1="2628.62" y1="2146.50" x2="2693.42" y2="2146.50" style="stroke:#F0F0F0;stroke-width:9.72"/>
	<line x1="2725.82" y1="2146.50" x2="2790.62" y2="2146.50" style="stroke:#F0F0F0;stroke-width:9.72"/>
	<line x1="2823.02" y1="2146.50" x2="2887.82" y2="2146.50" style="stroke:#F0F0F0;stroke-width:9.72"/>
	<line x1="2920.22" y1="2146.50" x2="2985.02" y2="2146.50" style="stroke:#F0F0F0;stroke-width:9.72"/>
	<line x1="3017.42" y1="2146.50" x2="3082.22" y2="2146.50" style="stroke:#F0F0F0;stroke-width:9.72"/>
	<line x1="3114.62" y1="2146.50" x2="3179.42" y2="2146.50" style="stroke:#F0F0F0;stroke-width:9.72"/>
	<line x1="3211.82" y1="2146.50" x2="3276.62" y2="2146.50" style="stroke:#F0F0F0;stroke-width:9.72"/>
	<line x1="3309.02" y1="2146.50" x2="3373.82" y2="2146.50" style="stroke:#F0F0F0;stroke-width:9.72"/>
	<line x1="3406.22" y1="2146.50" x2="3471.02" y2="2146.50" style="stroke:#F0F0F0;stroke-width:9.72"/>
	<line x1="3503.42" y1="2146.50" x2="3568.22" y2="2146.50" style="stroke:#F0F0F0;stroke-width:9.72"/>
	<line x1="3600.62" y1="2146.50" x2="3665.42" y2="2146.50" style="stroke:#F0F0F0;stroke-width:9.72"/>
	<line x1="3697.82" y1="2146.50" x2="3762.62" y2="2146.50" style="stroke:#F0F0F0;stroke-width:9.72"/>
	<line x1="3795.02" y1="2146.50" x2="3859.82" y2="2146.50" style="stroke:#F0F0F0;stroke-width:9.72"/>
	<line x1="3892.22" y1="2146.50" x2="3957.02" y2="2146.50" style="stroke:#F0F0F0;stroke-width:9.72"/>
	<line x1="3989.42" y1="2146.50" x2="4054.22" y2="2146.50" style="stroke:#F0F0F0;stroke-width:9.72"/>
	<line x1="4086.62" y1="2146.50" x2="4151.42" y2="2146.50" style="stroke:#F0F0F0;stroke-width:9.72"/>
	<line x1="4183.82" y1="2146.50" x2="4248.62" y2="2146.50" style="stroke:#F0F0F0;stroke-width:9.72"/>
	<line x1="4281.02" y1="2146.50" x2="4345.82" y2="2146.50" style="stroke:#F0F0F0;stroke-width:9.72"/>
	<line x1="4378.22" y1="2146.50" x2="4443.02" y2="2146.50" style="stroke:#F0F0F0;stroke-width:9.72"/>
	<line x1="4475.42" y1="2146.50" x2="4540.22" y2="2146.50" style="stroke:#F0F0F0;stroke-width:9.72"/>
	<line x1="4572.62" y1="2146.50" x2="4637.42" y2="2146.50" style="stroke:#F0F0F0;stroke-width:9.72"/>
	<line x1="4669.82" y1="2146.50" x2="4734.62" y2="2146.50" style="stroke:#F0F0F0;stroke-width:9.72"/>
	<line x1="4767.02" y1="2146.50" x2="4831.82" y2="2146.50" style="stroke:#F0F0F0;stroke-width:9.72"/>
	<line x1="4864.22" y1="2146.50" x2="4929.02" y2="2146.50" style="stroke:#F0F0F0;stroke-width:9.72"/>
	<line x1="4961.42" y1="2146.50" x2="5026.22" y2="2146.50" style="stroke:#F0F0F0;stroke-width:9.72"/>
	<line x1="5058.62" y1="2146.50" x2="5123.42" y2="2146.50" style="stroke:#F0F0F0;stroke-width:9.72"/>
	<line x1="5155.82" y1="2146.50" x2="5220.62" y2="2146.50" style="stroke:#F0F0F0;stroke-width:9.72"/>
	<line x1="5253.02" y1="2146.50" x2="5286.60" y2="2146.50" style="stroke:#F0F0F0;stroke-width:9.72"/>
	<line x1="684.62" y1="1655.94" x2="749.42" y2="1655.94" style="stroke:#F0F0F0;stroke-width:9.72"/>
	<line x1="781.82" y1="1655.94" x2="846.62" y2="1655.94" style="stroke:#F0F0F0;stroke-width:9.72"/>
	<line x1="879.02" y1="1655.94" x2="943.82" y2="1655.94" style="stroke:#F0F0F0;stroke-width:9.72"/>
	<line x1="976.22" y1="1655.94" x2="1041.02" y2="1655.94" style="stroke:#F0F0F0;stroke-width:9.72"/>
	<line x1="1073.42" y1="1655.94" x2="1138.22" y2="1655.94" style="stroke:#F0F0F0;stroke-width:9.72"/>
	<line x1="1170.62" y1="1655.94" x2="1235.42" y2="1655.94" style="stroke:#F0F0F0;stroke-width:9.72"/>
	<line x1="1267.82" y1="1655.94" x2="1332.62" y2="1655.94" style="stroke:#F0F0F0;stroke-width:9.72"/>
	<line x1="1365.02" y1="1655.94" x2="1429.82" y2="1655.94" style="stroke:#F0F0F0;stroke-width:9.72"/>
	<line x1="1462.22" y1="1655.94" x2="1527.02" y2="1655.94" style="stroke:#F0F0F0;stroke-width:9.72"/>
	<line x1="1559.42" y1="1655.94" x2="1624.22" y2="1655.94" style="stroke:#F0F0F0;stroke-width:9.72"/>
	<line x1="1656.62" y1="1655.94" x2="1721.42" y2="1655.94" style="stroke:#F0F0F0;stroke-width:9.72"/>
	<line x1="1753.82" y1="1655.94" x2="1818.62" y2="1655.94" style="stroke:#F0F0F0;stroke-width:9.72"/>
	<line x1="1851.02" y1="1655.94" x2="1915.82" y2="1655.94" style="stroke:#F0F0F0;stroke-width:9.72"/>
	<line x1="1948.22" y1="1655.94" x2="2013.02" y2="1655.94" style="stroke:#F0F0F0;stroke-width:9.72"/>
	<line x1="2045.42" y1="1655.94" x2="2110.22" y2="1655.94" style="stroke:#F0F0F0;stroke-width:9.72"/>
	<line x1="2142.62" y1="1655.94" x2="2207.42" y2="1655.94" style="stroke:#F0F0F0;stroke-width:9.72"/>
	<line x1="2239.82" y1="1655.94" x2="2304.62" y2="1655.94" style="stroke:#F0F0F0;stroke-width:9.72"/>
	<line x1="2337.02" y1="1655.94" x2="2401.82" y2="1655.94" style="stroke:#F0F0F0;stroke-width:9.72"/>
	<line x1="2434.22" y1="1655.94" x2="2499.02" y2="1655.94" style="stroke:#F0F0F0;stroke-width:9.72"/>
	<line x1="2531.42" y1="1655.94" x2="2596.22" y2="1655.94" style="stroke:#F0F0F0;stroke-width:9.72"/>
	<line x1="2628.62" y1="1655.94" x2="2693.42" y2="1655.94" style="stroke:#F0F0F0;stroke-width:9.72"/>
	<line x1="2725.82" y1="1655.94" x2="2790.62" y2="1655.94" style="stroke:#F0F0F0;stroke-width:9.72"/>
	<line x1="2823.02" y1="1655.94" x2="2887.82" y2="1655.94" style="stroke:#F0F0F0;stroke-width:9.72"/>
	<line x1="2920.22" y1="1655.94" x2="2985.02" y2="1655.94" style="stroke:#F0F0F0;stroke-width:9.72"/>
	<line x1="3017.42" y1="1655.94" x2="3082.22" y2="1655.94" style="stroke:#F0F0F0;stroke-width:9.72"/>
	<line x1="3114.62" y1="1655.94" x2="3179.42" y2="1655.94" style="stroke:#F0F0F0;stroke-width:9.72"/>
	<line x1="3211.82" y1="1655.94" x2="3276.62" y2="1655.94" style="stroke:#F0F0F0;stroke-width:9.72"/>
	<line x1="3309.02" y1="1655.94" x2="3373.82" y2="1655.94" style="stroke:#F0F0F0;stroke-width:9.72"/>
	<line x1="3406.22" y1="1655.94" x2="3471.02" y2="1655.94" style="stroke:#F0F0F0;stroke-width:9.72"/>
	<line x1="3503.42" y1="1655.94" x2="3568.22" y2="1655.94" style="stroke:#F0F0F0;stroke-width:9.72"/>
	<line x1="3600.62" y1="1655.94" x2="3665.42" y2="1655.94" style="stroke:#F0F0F0;stroke-width:9.72"/>
	<line x1="3697.82" y1="1655.94" x2="3762.62" y2="1655.94" style="stroke:#F0F0F0;stroke-width:9.72"/>
	<line x1="3795.02" y1="1655.94" x2="3859.82" y2="1655.94" style="stroke:#F0F0F0;stroke-width:9.72"/>
	<line x1="3892.22" y1="1655.94" x2="3957.02" y2="1655.94" style="stroke:#F0F0F0;stroke-width:9.72"/>
	<line x1="3989.42" y1="1655.94" x2="4054.22" y2="1655.94" style="stroke:#F0F0F0;stroke-width:9.72"/>
	<line x1="4086.62" y1="1655.94" x2="4151.42" y2="1655.94" style="stroke:#F0F0F0;stroke-width:9.72"/>
	<line x1="4183.82" y1="1655.94" x2="4248.62" y2="1655.94" style="stroke:#F0F0F0;stroke-width:9.72"/>
	<line x1="4281.02" y1="1655.94" x2="4345.82" y2="1655.94" style="stroke:#F0F0F0;stroke-width:9.72"/>
	<line x1="4378.22" y1="1655.94" x2="4443.02" y2="1655.94" style="stroke:#F0F0F0;stroke-width:9.72"/>
	<line x1="4475.42" y1="1655.94" x2="4540.22" y2="1655.94" style="stroke:#F0F0F0;stroke-width:9.72"/>
	<line x1="4572.62" y1="1655.94" x2="4637.42" y2="1655.94" style="stroke:#F0F0F0;stroke-width:9.72"/>
	<line x1="4669.82" y1="1655.94" x2="4734.62" y2="1655.94" style="stroke:#F0F0F0;stroke-width:9.72"/>
	<line x1="4767.02" y1="1655.94" x2="4831.82" y2="1655.94" style="stroke:#F0F0F0;stroke-width:9.72"/>
	<line x1="4864.22" y1="1655.94" x2="4929.02" y2="1655.94" style="stroke:#F0F0F0;stroke-width:9.72"/>
	<line x1="4961.42" y1="1655.94" x2="5026.22" y2="1655.94" style="stroke:#F0F0F0;stroke-width:9.72"/>
	<line x1="5058.62" y1="1655.94" x2="5123.42" y2="1655.94" style="stroke:#F0F0F0;stroke-width:9.72"/>
	<line x1="5155.82" y1="1655.94" x2="5220.62" y2="1655.94" style="stroke:#F0F0F0;stroke-width:9.72"/>
	<line x1="5253.02" y1="1655.94" x2="5286.60" y2="1655.94" style="stroke:#F0F0F0;stroke-width:9.72"/>
	<line x1="684.62" y1="1165.56" x2="749.42" y2="1165.56" style="stroke:#F0F0F0;stroke-width:9.72"/>
	<line x1="781.82" y1="1165.56" x2="846.62" y2="1165.56" style="stroke:#F0F0F0;stroke-width:9.72"/>
	<line x1="879.02" y1="1165.56" x2="943.82" y2="1165.56" style="stroke:#F0F0F0;stroke-width:9.72"/>
	<line x1="976.22" y1="1165.56" x2="1041.02" y2="1165.56" style="stroke:#F0F0F0;stroke-width:9.72"/>
	<line x1="1073.42" y1="1165.56" x2="1138.22" y2="1165.56" style="stroke:#F0F0F0;stroke-width:9.72"/>
	<line x1="1170.62" y1="1165.56" x2="1235.42" y2="1165.56" style="stroke:#F0F0F0;stroke-width:9.72"/>
	<line x1="1267.82" y1="1165.56" x2="1332.62" y2="1165.56" style="stroke:#F0F0F0;stroke-width:9.72"/>
	<line x1="1365.02" y1="1165.56" x2="1429.82" y2="1165.56" style="stroke:#F0F0F0;stroke-width:9.72"/>
	<line x1="1462.22" y1="1165.56" x2="1527.02" y2="1165.56" style="stroke:#F0F0F0;stroke-width:9.72"/>
	<line x1="1559.42" y1="1165.56" x2="1624.22" y2="1165.56" style="stroke:#F0F0F0;stroke-width:9.72"/>
	<line x1="1656.62" y1="1165.56" x2="1721.42" y2="1165.56" style="stroke:#F0F0F0;stroke-width:9.72"/>
	<line x1="1753.82" y1="1165.56" x2="1818.62" y2="1165.56" style="stroke:#F0F0F0;stroke-width:9.72"/>
	<line x1="1851.02" y1="1165.56" x2="1915.82" y2="1165.56" style="stroke:#F0F0F0;stroke-width:9.72"/>
	<line x1="1948.22" y1="1165.56" x2="2013.02" y2="1165.56" style="stroke:#F0F0F0;stroke-width:9.72"/>
	<line x1="2045.42" y1="1165.56" x2="2110.22" y2="1165.56" style="stroke:#F0F0F0;stroke-width:9.72"/>
	<line x1="2142.62" y1="1165.56" x2="2207.42" y2="1165.56" style="stroke:#F0F0F0;stroke-width:9.72"/>
	<line x1="2239.82" y1="1165.56" x2="2304.62" y2="1165.56" style="stroke:#F0F0F0;stroke-width:9.72"/>
	<line x1="2337.02" y1="1165.56" x2="2401.82" y2="1165.56" style="stroke:#F0F0F0;stroke-width:9.72"/>
	<line x1="2434.22" y1="1165.56" x2="2499.02" y2="1165.56" style="stroke:#F0F0F0;stroke-width:9.72"/>
	<line x1="2531.42" y1="1165.56" x2="2596.22" y2="1165.56" style="stroke:#F0F0F0;stroke-width:9.72"/>
	<line x1="2628.62" y1="1165.56" x2="2693.42" y2="1165.56" style="stroke:#F0F0F0;stroke-width:9.72"/>
	<line x1="2725.82" y1="1165.56" x2="2790.62" y2="1165.56" style="stroke:#F0F0F0;stroke-width:9.72"/>
	<line x1="2823.02" y1="1165.56" x2="2887.82" y2="1165.56" style="stroke:#F0F0F0;stroke-width:9.72"/>
	<line x1="2920.22" y1="1165.56" x2="2985.02" y2="1165.56" style="stroke:#F0F0F0;stroke-width:9.72"/>
	<line x1="3017.42" y1="1165.56" x2="3082.22" y2="1165.56" style="stroke:#F0F0F0;stroke-width:9.72"/>
	<line x1="3114.62" y1="1165.56" x2="3179.42" y2="1165.56" style="stroke:#F0F0F0;stroke-width:9.72"/>
	<line x1="3211.82" y1="1165.56" x2="3276.62" y2="1165.56" style="stroke:#F0F0F0;stroke-width:9.72"/>
	<line x1="3309.02" y1="1165.56" x2="3373.82" y2="1165.56" style="stroke:#F0F0F0;stroke-width:9.72"/>
	<line x1="3406.22" y1="1165.56" x2="3471.02" y2="1165.56" style="stroke:#F0F0F0;stroke-width:9.72"/>
	<line x1="3503.42" y1="1165.56" x2="3568.22" y2="1165.56" style="stroke:#F0F0F0;stroke-width:9.72"/>
	<line x1="3600.62" y1="1165.56" x2="3665.42" y2="1165.56" style="stroke:#F0F0F0;stroke-width:9.72"/>
	<line x1="3697.82" y1="1165.56" x2="3762.62" y2="1165.56" style="stroke:#F0F0F0;stroke-width:9.72"/>
	<line x1="3795.02" y1="1165.56" x2="3859.82" y2="1165.56" style="stroke:#F0F0F0;stroke-width:9.72"/>
	<line x1="3892.22" y1="1165.56" x2="3957.02" y2="1165.56" style="stroke:#F0F0F0;stroke-width:9.72"/>
	<line x1="3989.42" y1="1165.56" x2="4054.22" y2="1165.56" style="stroke:#F0F0F0;stroke-width:9.72"/>
	<line x1="4086.62" y1="1165.56" x2="4151.42" y2="1165.56" style="stroke:#F0F0F0;stroke-width:9.72"/>
	<line x1="4183.82" y1="1165.56" x2="4248.62" y2="1165.56" style="stroke:#F0F0F0;stroke-width:9.72"/>
	<line x1="4281.02" y1="1165.56" x2="4345.82" y2="1165.56" style="stroke:#F0F0F0;stroke-width:9.72"/>
	<line x1="4378.22" y1="1165.56" x2="4443.02" y2="1165.56" style="stroke:#F0F0F0;stroke-width:9.72"/>
	<line x1="4475.42" y1="1165.56" x2="4540.22" y2="1165.56" style="stroke:#F0F0F0;stroke-width:9.72"/>
	<line x1="4572.62" y1="1165.56" x2="4637.42" y2="1165.56" style="stroke:#F0F0F0;stroke-width:9.72"/>
	<line x1="4669.82" y1="1165.56" x2="4734.62" y2="1165.56" style="stroke:#F0F0F0;stroke-width:9.72"/>
	<line x1="4767.02" y1="1165.56" x2="4831.82" y2="1165.56" style="stroke:#F0F0F0;stroke-width:9.72"/>
	<line x1="4864.22" y1="1165.56" x2="4929.02" y2="1165.56" style="stroke:#F0F0F0;stroke-width:9.72"/>
	<line x1="4961.42" y1="1165.56" x2="5026.22" y2="1165.56" style="stroke:#F0F0F0;stroke-width:9.72"/>
	<line x1="5058.62" y1="1165.56" x2="5123.42" y2="1165.56" style="stroke:#F0F0F0;stroke-width:9.72"/>
	<line x1="5155.82" y1="1165.56" x2="5220.62" y2="1165.56" style="stroke:#F0F0F0;stroke-width:9.72"/>
	<line x1="5253.02" y1="1165.56" x2="5286.60" y2="1165.56" style="stroke:#F0F0F0;stroke-width:9.72"/>
	<line x1="684.62" y1="675.17" x2="749.42" y2="675.17" style="stroke:#F0F0F0;stroke-width:9.72"/>
	<line x1="781.82" y1="675.17" x2="846.62" y2="675.17" style="stroke:#F0F0F0;stroke-width:9.72"/>
	<line x1="879.02" y1="675.17" x2="943.82" y2="675.17" style="stroke:#F0F0F0;stroke-width:9.72"/>
	<line x1="976.22" y1="675.17" x2="1041.02" y2="675.17" style="stroke:#F0F0F0;stroke-width:9.72"/>
	<line x1="1073.42" y1="675.17" x2="1138.22" y2="675.17" style="stroke:#F0F0F0;stroke-width:9.72"/>
	<line x1="1170.62" y1="675.17" x2="1235.42" y2="675.17" style="stroke:#F0F0F0;stroke-width:9.72"/>
	<line x1="1267.82" y1="675.17" x2="1332.62" y2="675.17" style="stroke:#F0F0F0;stroke-width:9.72"/>
	<line x1="1365.02" y1="675.17" x2="1429.82" y2="675.17" style="stroke:#F0F0F0;stroke-width:9.72"/>
	<line x1="1462.22" y1="675.17" x2="1527.02" y2="675.17" style="stroke:#F0F0F0;stroke-width:9.72"/>
	<line x1="1559.42" y1="675.17" x2="1624.22" y2="675.17" style="stroke:#F0F0F0;stroke-width:9.72"/>
	<line x1="1656.62" y1="675.17" x2="1721.42" y2="675.17" style="stroke:#F0F0F0;stroke-width:9.72"/>
	<line x1="1753.82" y1="675.17" x2="1818.62" y2="675.17" style="stroke:#F0F0F0;stroke-width:9.72"/>
	<line x1="1851.02" y1="675.17" x2="1915.82" y2="675.17" style="stroke:#F0F0F0;stroke-width:9.72"/>
	<line x1="1948.22" y1="675.17" x2="2013.02" y2="675.17" style="stroke:#F0F0F0;stroke-width:9.72"/>
	<line x1="2045.42" y1="675.17" x2="2110.22" y2="675.17" style="stroke:#F0F0F0;stroke-width:9.72"/>
	<line x1="2142.62" y1="675.17" x2="2207.42" y2="675.17" style="stroke:#F0F0F0;stroke-width:9.72"/>
	<line x1="2239.82" y1="675.17" x2="2304.62" y2="675.17" style="stroke:#F0F0F0;stroke-width:9.72"/>
	<line x1="2337.02" y1="675.17" x2="2401.82" y2="675.17" style="stroke:#F0F0F0;stroke-width:9.72"/>
	<line x1="2434.22" y1="675.17" x2="2499.02" y2="675.17" style="stroke:#F0F0F0;stroke-width:9.72"/>
	<line x1="2531.42" y1="675.17" x2="2596.22" y2="675.17" style="stroke:#F0F0F0;stroke-width:9.72"/>
	<line x1="2628.62" y1="675.17" x2="2693.42" y2="675.17" style="stroke:#F0F0F0;stroke-width:9.72"/>
	<line x1="2725.82" y1="675.17" x2="2790.62" y2="675.17" style="stroke:#F0F0F0;stroke-width:9.72"/>
	<line x1="2823.02" y1="675.17" x2="2887.82" y2="675.17" style="stroke:#F0F0F0;stroke-width:9.72"/>
	<line x1="2920.22" y1="675.17" x2="2985.02" y2="675.17" style="stroke:#F0F0F0;stroke-width:9.72"/>
	<line x1="3017.42" y1="675.17" x2="3082.22" y2="675.17" style="stroke:#F0F0F0;stroke-width:9.72"/>
	<line x1="3114.62" y1="675.17" x2="3179.42" y2="675.17" style="stroke:#F0F0F0;stroke-width:9.72"/>
	<line x1="3211.82" y1="675.17" x2="3276.62" y2="675.17" style="stroke:#F0F0F0;stroke-width:9.72"/>
	<line x1="3309.02" y1="675.17" x2="3373.82" y2="675.17" style="stroke:#F0F0F0;stroke-width:9.72"/>
	<line x1="3406.22" y1="675.17" x2="3471.02" y2="675.17" style="stroke:#F0F0F0;stroke-width:9.72"/>
	<line x1="3503.42" y1="675.17" x2="3568.22" y2="675.17" style="stroke:#F0F0F0;stroke-width:9.72"/>
	<line x1="3600.62" y1="675.17" x2="3665.42" y2="675.17" style="stroke:#F0F0F0;stroke-width:9.72"/>
	<line x1="3697.82" y1="675.17" x2="3762.62" y2="675.17" style="stroke:#F0F0F0;stroke-width:9.72"/>
	<line x1="3795.02" y1="675.17" x2="3859.82" y2="675.17" style="stroke:#F0F0F0;stroke-width:9.72"/>
	<line x1="3892.22" y1="675.17" x2="3957.02" y2="675.17" style="stroke:#F0F0F0;stroke-width:9.72"/>
	<line x1="3989.42" y1="675.17" x2="4054.22" y2="675.17" style="stroke:#F0F0F0;stroke-width:9.72"/>
	<line x1="4086.62" y1="675.17" x2="4151.42" y2="675.17" style="stroke:#F0F0F0;stroke-width:9.72"/>
	<line x1="4183.82" y1="675.17" x2="4248.62" y2="675.17" style="stroke:#F0F0F0;stroke-width:9.72"/>
	<line x1="4281.02" y1="675.17" x2="4345.82" y2="675.17" style="stroke:#F0F0F0;stroke-width:9.72"/>
	<line x1="4378.22" y1="675.17" x2="4443.02" y2="675.17" style="stroke:#F0F0F0;stroke-width:9.72"/>
	<line x1="4475.42" y1="675.17" x2="4540.22" y2="675.17" style="stroke:#F0F0F0;stroke-width:9.72"/>
	<line x1="4572.62" y1="675.17" x2="4637.42" y2="675.17" style="stroke:#F0F0F0;stroke-width:9.72"/>
	<line x1="4669.82" y1="675.17" x2="4734.62" y2="675.17" style="stroke:#F0F0F0;stroke-width:9.72"/>
	<line x1="4767.02" y1="675.17" x2="4831.82" y2="675.17" style="stroke:#F0F0F0;stroke-width:9.72"/>
	<line x1="4864.22" y1="675.17" x2="4929.02" y2="675.17" style="stroke:#F0F0F0;stroke-width:9.72"/>
	<line x1="4961.42" y1="675.17" x2="5026.22" y2="675.17" style="stroke:#F0F0F0;stroke-width:9.72"/>
	<line x1="5058.62" y1="675.17" x2="5123.42" y2="675.17" style="stroke:#F0F0F0;stroke-width:9.72"/>
	<line x1="5155.82" y1="675.17" x2="5220.62" y2="675.17" style="stroke:#F0F0F0;stroke-width:9.72"/>
	<line x1="5253.02" y1="675.17" x2="5286.60" y2="675.17" style="stroke:#F0F0F0;stroke-width:9.72"/>
	<line x1="684.62" y1="184.61" x2="749.42" y2="184.61" style="stroke:#F0F0F0;stroke-width:9.72"/>
	<line x1="781.82" y1="184.61" x2="846.62" y2="184.61" style="stroke:#F0F0F0;stroke-width:9.72"/>
	<line x1="879.02" y1="184.61" x2="943.82" y2="184.61" style="stroke:#F0F0F0;stroke-width:9.72"/>
	<line x1="976.22" y1="184.61" x2="1041.02" y2="184.61" style="stroke:#F0F0F0;stroke-width:9.72"/>
	<line x1="1073.42" y1="184.61" x2="1138.22" y2="184.61" style="stroke:#F0F0F0;stroke-width:9.72"/>
	<line x1="1170.62" y1="184.61" x2="1235.42" y2="184.61" style="stroke:#F0F0F0;stroke-width:9.72"/>
	<line x1="1267.82" y1="184.61" x2="1332.62" y2="184.61" style="stroke:#F0F0F0;stroke-width:9.72"/>
	<line x1="1365.02" y1="184.61" x2="1429.82" y2="184.61" style="stroke:#F0F0F0;stroke-width:9.72"/>
	<line x1="1462.22" y1="184.61" x2="1527.02" y2="184.61" style="stroke:#F0F0F0;stroke-width:9.72"/>
	<line x1="1559.42" y1="184.61" x2="1624.22" y2="184.61" style="stroke:#F0F0F0;stroke-width:9.72"/>
	<line x1="1656.62" y1="184.61" x2="1721.42" y2="184.61" style="stroke:#F0F0F0;stroke-width:9.72"/>
	<line x1="1753.82" y1="184.61" x2="1818.62" y2="184.61" style="stroke:#F0F0F0;stroke-width:9.72"/>
	<line x1="1851.02" y1="184.61" x2="1915.82" y2="184.61" style="stroke:#F0F0F0;stroke-width:9.72"/>
	<line x1="1948.22" y1="184.61" x2="2013.02" y2="184.61" style="stroke:#F0F0F0;stroke-width:9.72"/>
	<line x1="2045.42" y1="184.61" x2="2110.22" y2="184.61" style="stroke:#F0F0F0;stroke-width:9.72"/>
	<line x1="2142.62" y1="184.61" x2="2207.42" y2="184.61" style="stroke:#F0F0F0;stroke-width:9.72"/>
	<line x1="2239.82" y1="184.61" x2="2304.62" y2="184.61" style="stroke:#F0F0F0;stroke-width:9.72"/>
	<line x1="2337.02" y1="184.61" x2="2401.82" y2="184.61" style="stroke:#F0F0F0;stroke-width:9.72"/>
	<line x1="2434.22" y1="184.61" x2="2499.02" y2="184.61" style="stroke:#F0F0F0;stroke-width:9.72"/>
	<line x1="2531.42" y1="184.61" x2="2596.22" y2="184.61" style="stroke:#F0F0F0;stroke-width:9.72"/>
	<line x1="2628.62" y1="184.61" x2="2693.42" y2="184.61" style="stroke:#F0F0F0;stroke-width:9.72"/>
	<line x1="2725.82" y1="184.61" x2="2790.62" y2="184.61" style="stroke:#F0F0F0;stroke-width:9.72"/>
	<line x1="2823.02" y1="184.61" x2="2887.82" y2="184.61" style="stroke:#F0F0F0;stroke-width:9.72"/>
	<line x1="2920.22" y1="184.61" x2="2985.02" y2="184.61" style="stroke:#F0F0F0;stroke-width:9.72"/>
	<line x1="3017.42" y1="184.61" x2="3082.22" y2="184.61" style="stroke:#F0F0F0;stroke-width:9.72"/>
	<line x1="3114.62" y1="184.61" x2="3179.42" y2="184.61" style="stroke:#F0F0F0;stroke-width:9.72"/>
	<line x1="3211.82" y1="184.61" x2="3276.62" y2="184.61" style="stroke:#F0F0F0;stroke-width:9.72"/>
	<line x1="3309.02" y1="184.61" x2="3373.82" y2="184.61" style="stroke:#F0F0F0;stroke-width:9.72"/>
	<line x1="3406.22" y1="184.61" x2="3471.02" y2="184.61" style="stroke:#F0F0F0;stroke-width:9.72"/>
	<line x1="3503.42" y1="184.61" x2="3568.22" y2="184.61" style="stroke:#F0F0F0;stroke-width:9.72"/>
	<line x1="3600.62" y1="184.61" x2="3665.42" y2="184.61" style="stroke:#F0F0F0;stroke-width:9.72"/>
	<line x1="3697.82" y1="184.61" x2="3762.62" y2="184.61" style="stroke:#F0F0F0;stroke-width:9.72"/>
	<line x1="3795.02" y1="184.61" x2="3859.82" y2="184.61" style="stroke:#F0F0F0;stroke-width:9.72"/>
	<line x1="3892.22" y1="184.61" x2="3957.02" y2="184.61" style="stroke:#F0F0F0;stroke-width:9.72"/>
	<line x1="3989.42" y1="184.61" x2="4054.22" y2="184.61" style="stroke:#F0F0F0;stroke-width:9.72"/>
	<line x1="4086.62" y1="184.61" x2="4151.42" y2="184.61" style="stroke:#F0F0F0;stroke-width:9.72"/>
	<line x1="4183.82" y1="184.61" x2="4248.62" y2="184.61" style="stroke:#F0F0F0;stroke-width:9.72"/>
	<line x1="4281.02" y1="184.61" x2="4345.82" y2="184.61" style="stroke:#F0F0F0;stroke-width:9.72"/>
	<line x1="4378.22" y1="184.61" x2="4443.02" y2="184.61" style="stroke:#F0F0F0;stroke-width:9.72"/>
	<line x1="4475.42" y1="184.61" x2="4540.22" y2="184.61" style="stroke:#F0F0F0;stroke-width:9.72"/>
	<line x1="4572.62" y1="184.61" x2="4637.42" y2="184.61" style="stroke:#F0F0F0;stroke-width:9.72"/>
	<line x1="4669.82" y1="184.61" x2="4734.62" y2="184.61" style="stroke:#F0F0F0;stroke-width:9.72"/>
	<line x1="4767.02" y1="184.61" x2="4831.82" y2="184.61" style="stroke:#F0F0F0;stroke-width:9.72"/>
	<line x1="4864.22" y1="184.61" x2="4929.02" y2="184.61" style="stroke:#F0F0F0;stroke-width:9.72"/>
	<line x1="4961.42" y1="184.61" x2="5026.22" y2="184.61" style="stroke:#F0F0F0;stroke-width:9.72"/>
	<line x1="5058.62" y1="184.61" x2="5123.42" y2="184.61" style="stroke:#F0F0F0;stroke-width:9.72"/>
	<line x1="5155.82" y1="184.61" x2="5220.62" y2="184.61" style="stroke:#F0F0F0;stroke-width:9.72"/>
	<line x1="5253.02" y1="184.61" x2="5286.60" y2="184.61" style="stroke:#F0F0F0;stroke-width:9.72"/>
	<line x1="755.83" y1="2766.66" x2="755.83" y2="2701.86" style="stroke:#F0F0F0;stroke-width:9.72"/>
	<line x1="755.83" y1="2669.46" x2="755.83" y2="2604.66" style="stroke:#F0F0F0;stroke-width:9.72"/>
	<line x1="755.83" y1="2572.26" x2="755.83" y2="2507.46" style="stroke:#F0F0F0;stroke-width:9.72"/>
	<line x1="755.83" y1="2475.06" x2="755.83" y2="2410.26" style="stroke:#F0F0F0;stroke-width:9.72"/>
	<line x1="755.83" y1="2377.86" x2="755.83" y2="2313.06" style="stroke:#F0F0F0;stroke-width:9.72"/>
	<line x1="755.83" y1="2280.66" x2="755.83" y2="2215.86" style="stroke:#F0F0F0;stroke-width:9.72"/>
	<line x1="755.83" y1="2183.46" x2="755.83" y2="2118.66" style="stroke:#F0F0F0;stroke-width:9.72"/>
	<line x1="755.83" y1="2086.26" x2="755.83" y2="2021.46" style="stroke:#F0F0F0;stroke-width:9.72"/>
	<line x1="755.83" y1="1989.06" x2="755.83" y2="1924.26" style="stroke:#F0F0F0;stroke-width:9.72"/>
	<line x1="755.83" y1="1891.86" x2="755.83" y2="1827.06" style="stroke:#F0F0F0;stroke-width:9.72"/>
	<line x1="755.83" y1="1794.66" x2="755.83" y2="1729.86" style="stroke:#F0F0F0;stroke-width:9.72"/>
	<line x1="755.83" y1="1697.46" x2="755.83" y2="1632.66" style="stroke:#F0F0F0;stroke-width:9.72"/>
	<line x1="755.83" y1="1600.26" x2="755.83" y2="1535.46" style="stroke:#F0F0F0;stroke-width:9.72"/>
	<line x1="755.83" y1="1503.06" x2="755.83" y2="1438.26" style="stroke:#F0F0F0;stroke-width:9.72"/>
	<line x1="755.83" y1="1405.86" x2="755.83" y2="1341.06" style="stroke:#F0F0F0;stroke-width:9.72"/>
	<line x1="755.83" y1="1308.66" x2="755.83" y2="1243.86" style="stroke:#F0F0F0;stroke-width:9.72"/>
	<line x1="755.83" y1="1211.46" x2="755.83" y2="1146.66" style="stroke:#F0F0F0;stroke-width:9.72"/>
	<line x1="755.83" y1="1114.26" x2="755.83" y2="1049.46" style="stroke:#F0F0F0;stroke-width:9.72"/>
	<line x1="755.83" y1="1017.06" x2="755.83" y2="952.26" style="stroke:#F0F0F0;stroke-width:9.72"/>
	<line x1="755.83" y1="919.86" x2="755.83" y2="855.06" style="stroke:#F0F0F0;stroke-width:9.72"/>
	<line x1="755.83" y1="822.66" x2="755.83" y2="757.86" style="stroke:#F0F0F0;stroke-width:9.72"/>
	<line x1="755.83" y1="725.46" x2="755.83" y2="660.66" style="stroke:#F0F0F0;stroke-width:9.72"/>
	<line x1="755.83" y1="628.26" x2="755.83" y2="563.46" style="stroke:#F0F0F0;stroke-width:9.72"/>
	<line x1="755.83" y1="531.06" x2="755.83" y2="466.26" style="stroke:#F0F0F0;stroke-width:9.72"/>
	<line x1="755.83" y1="433.86" x2="755.83" y2="369.06" style="stroke:#F0F0F0;stroke-width:9.72"/>
	<line x1="755.83" y1="336.66" x2="755.83" y2="271.86" style="stroke:#F0F0F0;stroke-width:9.72"/>
	<line x1="755.83" y1="239.46" x2="755.83" y2="174.66" style="stroke:#F0F0F0;stroke-width:9.72"/>
	<line x1="755.83" y1="142.26" x2="755.83" y2="113.40" style="stroke:#F0F0F0;stroke-width:9.72"/>
	<line x1="2149.37" y1="2766.66" x2="2149.37" y2="2701.86" style="stroke:#F0F0F0;stroke-width:9.72"/>
	<line x1="2149.37" y1="2669.46" x2="2149.37" y2="2604.66" style="stroke:#F0F0F0;stroke-width:9.72"/>
	<line x1="2149.37" y1="2572.26" x2="2149.37" y2="2507.46" style="stroke:#F0F0F0;stroke-width:9.72"/>
	<line x1="2149.37" y1="2475.06" x2="2149.37" y2="2410.26" style="stroke:#F0F0F0;stroke-width:9.72"/>
	<line x1="2149.37" y1="2377.86" x2="2149.37" y2="2313.06" style="stroke:#F0F0F0;stroke-width:9.72"/>
	<line x1="2149.37" y1="2280.66" x2="2149.37" y2="2215.86" style="stroke:#F0F0F0;stroke-width:9.72"/>
	<line x1="2149.37" y1="2183.46" x2="2149.37" y2="2118.66" style="stroke:#F0F0F0;stroke-width:9.72"/>
	<line x1="2149.37" y1="2086.26" x2="2149.37" y2="2021.46" style="stroke:#F0F0F0;stroke-width:9.72"/>
	<line x1="2149.37" y1="1989.06" x2="2149.37" y2="1924.26" style="stroke:#F0F0F0;stroke-width:9.72"/>
	<line x1="2149.37" y1="1891.86" x2="2149.37" y2="1827.06" style="stroke:#F0F0F0;stroke-width:9.72"/>
	<line x1="2149.37" y1="1794.66" x2="2149.37" y2="1729.86" style="stroke:#F0F0F0;stroke-width:9.72"/>
	<line x1="2149.37" y1="1697.46" x2="2149.37" y2="1632.66" style="stroke:#F0F0F0;stroke-width:9.72"/>
	<line x1="2149.37" y1="1600.26" x2="2149.37" y2="1535.46" style="stroke:#F0F0F0;stroke-width:9.72"/>
	<line x1="2149.37" y1="1503.06" x2="2149.37" y2="1438.26" style="stroke:#F0F0F0;stroke-width:9.72"/>
	<line x1="2149.37" y1="1405.86" x2="2149.37" y2="1341.06" style="stroke:#F0F0F0;stroke-width:9.72"/>
	<line x1="2149.37" y1="1308.66" x2="2149.37" y2="1243.86" style="stroke:#F0F0F0;stroke-width:9.72"/>
	<line x1="2149.37" y1="1211.46" x2="2149.37" y2="1146.66" style="stroke:#F0F0F0;stroke-width:9.72"/>
	<line x1="2149.37" y1="1114.26" x2="2149.37" y2="1049.46" style="stroke:#F0F0F0;stroke-width:9.72"/>
	<line x1="2149.37" y1="1017.06" x2="2149.37" y2="952.26" style="stroke:#F0F0F0;stroke-width:9.72"/>
	<line x1="2149.37" y1="919.86" x2="2149.37" y2="855.06" style="stroke:#F0F0F0;stroke-width:9.72"/>
	<line x1="2149.37" y1="822.66" x2="2149.37" y2="757.86" style="stroke:#F0F0F0;stroke-width:9.72"/>
	<line x1="2149.37" y1="725.46" x2="2149.37" y2="660.66" style="stroke:#F0F0F0;stroke-width:9.72"/>
	<line x1="2149.37" y1="628.26" x2="2149.37" y2="563.46" style="stroke:#F0F0F0;stroke-width:9.72"/>
	<line x1="2149.37" y1="531.06" x2="2149.37" y2="466.26" style="stroke:#F0F0F0;stroke-width:9.72"/>
	<line x1="2149.37" y1="433.86" x2="2149.37" y2="369.06" style="stroke:#F0F0F0;stroke-width:9.72"/>
	<line x1="2149.37" y1="336.66" x2="2149.37" y2="271.86" style="stroke:#F0F0F0;stroke-width:9.72"/>
	<line x1="2149.37" y1="239.46" x2="2149.37" y2="174.66" style="stroke:#F0F0F0;stroke-width:9.72"/>
	<line x1="2149.37" y1="142.26" x2="2149.37" y2="113.40" style="stroke:#F0F0F0;stroke-width:9.72"/>
	<line x1="3543.08" y1="2766.66" x2="3543.08" y2="2701.86" style="stroke:#F0F0F0;stroke-width:9.72"/>
	<line x1="3543.08" y1="2669.46" x2="3543.08" y2="2604.66" style="stroke:#F0F0F0;stroke-width:9.72"/>
	<line x1="3543.08" y1="2572.26" x2="3543.08" y2="2507.46" style="stroke:#F0F0F0;stroke-width:9.72"/>
	<line x1="3543.08" y1="2475.06" x2="3543.08" y2="2410.26" style="stroke:#F0F0F0;stroke-width:9.72"/>
	<line x1="3543.08" y1="2377.86" x2="3543.08" y2="2313.06" style="stroke:#F0F0F0;stroke-width:9.72"/>
	<line x1="3543.08" y1="2280.66" x2="3543.08" y2="2215.86" style="stroke:#F0F0F0;stroke-width:9.72"/>
	<line x1="3543.08" y1="2183.46" x2="3543.08" y2="2118.66" style="stroke:#F0F0F0;stroke-width:9.72"/>
	<line x1="3543.08" y1="2086.26" x2="3543.08" y2="2021.46" style="stroke:#F0F0F0;stroke-width:9.72"/>
	<line x1="3543.08" y1="1989.06" x2="3543.08" y2="1924.26" style="stroke:#F0F0F0;stroke-width:9.72"/>
	<line x1="3543.08" y1="1891.86" x2="3543.08" y2="1827.06" style="stroke:#F0F0F0;stroke-width:9.72"/>
	<line x1="3543.08" y1="1794.66" x2="3543.08" y2="1729.86" style="stroke:#F0F0F0;stroke-width:9.72"/>
	<line x1="3543.08" y1="1697.46" x2="3543.08" y2="1632.66" style="stroke:#F0F0F0;stroke-width:9.72"/>
	<line x1="3543.08" y1="1600.26" x2="3543.08" y2="1535.46" style="stroke:#F0F0F0;stroke-width:9.72"/>
	<line x1="3543.08" y1="1503.06" x2="3543.08" y2="1438.26" style="stroke:#F0F0F0;stroke-width:9.72"/>
	<line x1="3543.08" y1="1405.86" x2="3543.08" y2="1341.06" style="stroke:#F0F0F0;stroke-width:9.72"/>
	<line x1="3543.08" y1="1308.66" x2="3543.08" y2="1243.86" style="stroke:#F0F0F0;stroke-width:9.72"/>
	<line x1="3543.08" y1="1211.46" x2="3543.08" y2="1146.66" style="stroke:#F0F0F0;stroke-width:9.72"/>
	<line x1="3543.08" y1="1114.26" x2="3543.08" y2="1049.46" style="stroke:#F0F0F0;stroke-width:9.72"/>
	<line x1="3543.08" y1="1017.06" x2="3543.08" y2="952.26" style="stroke:#F0F0F0;stroke-width:9.72"/>
	<line x1="3543.08" y1="919.86" x2="3543.08" y2="855.06" style="stroke:#F0F0F0;stroke-width:9.72"/>
	<line x1="3543.08" y1="822.66" x2="3543.08" y2="757.86" style="stroke:#F0F0F0;stroke-width:9.72"/>
	<line x1="3543.08" y1="725.46" x2="3543.08" y2="660.66" style="stroke:#F0F0F0;stroke-width:9.72"/>
	<line x1="3543.08" y1="628.26" x2="3543.08" y2="563.46" style="stroke:#F0F0F0;stroke-width:9.72"/>
	<line x1="3543.08" y1="531.06" x2="3543.08" y2="466.26" style="stroke:#F0F0F0;stroke-width:9.72"/>
	<line x1="3543.08" y1="433.86" x2="3543.08" y2="369.06" style="stroke:#F0F0F0;stroke-width:9.72"/>
	<line x1="3543.08" y1="336.66" x2="3543.08" y2="271.86" style="stroke:#F0F0F0;stroke-width:9.72"/>
	<line x1="3543.08" y1="239.46" x2="3543.08" y2="174.66" style="stroke:#F0F0F0;stroke-width:9.72"/>
	<line x1="3543.08" y1="142.26" x2="3543.08" y2="113.40" style="stroke:#F0F0F0;stroke-width:9.72"/>
	<line x1="4936.61" y1="2766.66" x2="4936.61" y2="2701.86" style="stroke:#F0F0F0;stroke-width:9.72"/>
	<line x1="4936.61" y1="2669.46" x2="4936.61" y2="2604.66" style="stroke:#F0F0F0;stroke-width:9.72"/>
	<line x1="4936.61" y1="2572.26" x2="4936.61" y2="2507.46" style="stroke:#F0F0F0;stroke-width:9.72"/>
	<line x1="4936.61" y1="2475.06" x2="4936.61" y2="2410.26" style="stroke:#F0F0F0;stroke-width:9.72"/>
	<line x1="4936.61" y1="2377.86" x2="4936.61" y2="2313.06" style="stroke:#F0F0F0;stroke-width:9.72"/>
	<line x1="4936.61" y1="2280.66" x2="4936.61" y2="2215.86" style="stroke:#F0F0F0;stroke-width:9.72"/>
	<line x1="4936.61" y1="2183.46" x2="4936.61" y2="2118.66" style="stroke:#F0F0F0;stroke-width:9.72"/>
	<line x1="4936.61" y1="2086.26" x2="4936.61" y2="2021.46" style="stroke:#F0F0F0;stroke-width:9.72"/>
	<line x1="4936.61" y1="1989.06" x2="4936.61" y2="1924.26" style="stroke:#F0F0F0;stroke-width:9.72"/>
	<line x1="4936.61" y1="1891.86" x2="4936.61" y2="1827.06" style="stroke:#F0F0F0;stroke-width:9.72"/>
	<line x1="4936.61" y1="1794.66" x2="4936.61" y2="1729.86" style="stroke:#F0F0F0;stroke-width:9.72"/>
	<line x1="4936.61" y1="1697.46" x2="4936.61" y2="1632.66" style="stroke:#F0F0F0;stroke-width:9.72"/>
	<line x1="4936.61" y1="1600.26" x2="4936.61" y2="1535.46" style="stroke:#F0F0F0;stroke-width:9.72"/>
	<line x1="4936.61" y1="1503.06" x2="4936.61" y2="1438.26" style="stroke:#F0F0F0;stroke-width:9.72"/>
	<line x1="4936.61" y1="1405.86" x2="4936.61" y2="1341.06" style="stroke:#F0F0F0;stroke-width:9.72"/>
	<line x1="4936.61" y1="1308.66" x2="4936.61" y2="1243.86" style="stroke:#F0F0F0;stroke-width:9.72"/>
	<line x1="4936.61" y1="1211.46" x2="4936.61" y2="1146.66" style="stroke:#F0F0F0;stroke-width:9.72"/>
	<line x1="4936.61" y1="1114.26" x2="4936.61" y2="1049.46" style="stroke:#F0F0F0;stroke-width:9.72"/>
	<line x1="4936.61" y1="1017.06" x2="4936.61" y2="952.26" style="stroke:#F0F0F0;stroke-width:9.72"/>
	<line x1="4936.61" y1="919.86" x2="4936.61" y2="855.06" style="stroke:#F0F0F0;stroke-width:9.72"/>
	<line x1="4936.61" y1="822.66" x2="4936.61" y2="757.86" style="stroke:#F0F0F0;stroke-width:9.72"/>
	<line x1="4936.61" y1="725.46" x2="4936.61" y2="660.66" style="stroke:#F0F0F0;stroke-width:9.72"/>
	<line x1="4936.61" y1="628.26" x2="4936.61" y2="563.46" style="stroke:#F0F0F0;stroke-width:9.72"/>
	<line x1="4936.61" y1="531.06" x2="4936.61" y2="466.26" style="stroke:#F0F0F0;stroke-width:9.72"/>
	<line x1="4936.61" y1="433.86" x2="4936.61" y2="369.06" style="stroke:#F0F0F0;stroke-width:9.72"/>
	<line x1="4936.61" y1="336.66" x2="4936.61" y2="271.86" style="stroke:#F0F0F0;stroke-width:9.72"/>
	<line x1="4936.61" y1="239.46" x2="4936.61" y2="174.66" style="stroke:#F0F0F0;stroke-width:9.72"/>
	<line x1="4936.61" y1="142.26" x2="4936.61" y2="113.40" style="stroke:#F0F0F0;stroke-width:9.72"/>
	<path d=" M755.66 2598.75 L1034.44 2695.44 L1313.21 2207.08 L1591.82 1784.03 L1870.59 1622.03 L2149.37 1623.38 L2427.98 1207.91 L2706.75 1060.59 L2985.53 562.78 L3264.13 593.49 L3542.91 1113.41 L3821.68 1107.17 L4100.29 793.80 L4379.06 626.74 L4657.84 401.29 L4936.44 214.31 L5215.22 661.16" stroke-linejoin="round" style="fill:none;stroke:#1A85FF;stroke-width:9.72"/>
	<line x1="684.62" y1="2766.66" x2="684.62" y2="113.40" style="stroke:#000000;stroke-width:6.48"/>
	<line x1="684.62" y1="2636.89" x2="639.56" y2="2636.89" style="stroke:#000000;stroke-width:6.48"/>
	<text x="617.12" y="2676.32" style="font-family:'Helvetica';font-size:112.56px;fill:#000000" text-anchor="end">10.55</text>
	<line x1="684.62" y1="2146.50" x2="639.56" y2="2146.50" style="stroke:#000000;stroke-width:6.48"/>
	<text x="617.12" y="2185.94" style="font-family:'Helvetica';font-size:112.56px;fill:#000000" text-anchor="end">10.6</text>
	<line x1="684.62" y1="1655.94" x2="639.56" y2="1655.94" style="stroke:#000000;stroke-width:6.48"/>
	<text x="617.12" y="1695.38" style="font-family:'Helvetica';font-size:112.56px;fill:#000000" text-anchor="end">10.65</text>
	<line x1="684.62" y1="1165.56" x2="639.56" y2="1165.56" style="stroke:#000000;stroke-width:6.48"/>
	<text x="617.12" y="1204.99" style="font-family:'Helvetica';font-size:112.56px;fill:#000000" text-anchor="end">10.7</text>
	<line x1="684.62" y1="675.17" x2="639.56" y2="675.17" style="stroke:#000000;stroke-width:6.48"/>
	<text x="617.12" y="714.61" style="font-family:'Helvetica';font-size:112.56px;fill:#000000" text-anchor="end">10.75</text>
	<line x1="684.62" y1="184.61" x2="639.56" y2="184.61" style="stroke:#000000;stroke-width:6.48"/>
	<text x="617.12" y="224.05" style="font-family:'Helvetica';font-size:112.56px;fill:#000000" text-anchor="end">10.8</text>
	<text x="214.55" y="1439.94" style="font-family:'Helvetica';font-size:112.56px;fill:#000000" transform="rotate(-90 214.55,1439.94)" text-anchor="middle">Log-earnings</text>
	<line x1="684.62" y1="2766.66" x2="5286.60" y2="2766.66" style="stroke:#000000;stroke-width:6.48"/>
	<line x1="755.83" y1="2766.66" x2="755.83" y2="2811.54" style="stroke:#000000;stroke-width:6.48"/>
	<text x="755.83" y="2912.86" style="font-family:'Helvetica';font-size:112.56px;fill:#000000" text-anchor="middle">1995</text>
	<line x1="2149.37" y1="2766.66" x2="2149.37" y2="2811.54" style="stroke:#000000;stroke-width:6.48"/>
	<text x="2149.37" y="2912.86" style="font-family:'Helvetica';font-size:112.56px;fill:#000000" text-anchor="middle">2000</text>
	<line x1="3543.08" y1="2766.66" x2="3543.08" y2="2811.54" style="stroke:#000000;stroke-width:6.48"/>
	<text x="3543.08" y="2912.86" style="font-family:'Helvetica';font-size:112.56px;fill:#000000" text-anchor="middle">2005</text>
	<line x1="4936.61" y1="2766.66" x2="4936.61" y2="2811.54" style="stroke:#000000;stroke-width:6.48"/>
	<text x="4936.61" y="2912.86" style="font-family:'Helvetica';font-size:112.56px;fill:#000000" text-anchor="middle">2010</text>
	<text x="2985.53" y="3070.31" style="font-family:'Helvetica';font-size:112.56px;fill:#000000" text-anchor="middle">Year</text>
</svg>