<svg xmlns="http://www.w3.org/2000/svg" xmlns:xlink="http://www.w3.org/1999/xlink" version="1.1" width="7.500in" height="4.500in" viewBox="0 0 5400 3240">
	<desc>Stata Graph - Graph</desc>
	<rect x="0" y="0" width="5400" height="3240" style="fill:#FFFFFF;stroke:none"/>
	<rect x="0.00" y="0.00" width="5400.00" height="3240.00" style="fill:#FFFFFF"/>
	<rect x="3.24" y="3.24" width="5393.52" height="3233.52" style="fill:none;stroke:#FFFFFF;stroke-width:6.48"/>
	<rect x="687.83" y="113.40" width="4598.78" height="2765.64" style="fill:#FFFFFF"/>
	<rect x="691.07" y="116.64" width="4592.30" height="2759.16" style="fill:none;stroke:#FFFFFF;stroke-width:6.48"/>
	<line x1="687.83" y1="804.77" x2="752.63" y2="804.77" style="stroke:#F0F0F0;stroke-width:9.72"/>
	<line x1="785.03" y1="804.77" x2="849.83" y2="804.77" style="stroke:#F0F0F0;stroke-width:9.72"/>
	<line x1="882.23" y1="804.77" x2="947.03" y2="804.77" style="stroke:#F0F0F0;stroke-width:9.72"/>
	<line x1="979.43" y1="804.77" x2="1044.22" y2="804.77" style="stroke:#F0F0F0;stroke-width:9.72"/>
	<line x1="1076.63" y1="804.77" x2="1141.43" y2="804.77" style="stroke:#F0F0F0;stroke-width:9.72"/>
	<line x1="1173.83" y1="804.77" x2="1238.63" y2="804.77" style="stroke:#F0F0F0;stroke-width:9.72"/>
	<line x1="1271.03" y1="804.77" x2="1335.83" y2="804.77" style="stroke:#F0F0F0;stroke-width:9.72"/>
	<line x1="1368.23" y1="804.77" x2="1433.03" y2="804.77" style="stroke:#F0F0F0;stroke-width:9.72"/>
	<line x1="1465.43" y1="804.77" x2="1530.23" y2="804.77" style="stroke:#F0F0F0;stroke-width:9.72"/>
	<line x1="1562.63" y1="804.77" x2="1627.43" y2="804.77" style="stroke:#F0F0F0;stroke-width:9.72"/>
	<line x1="1659.83" y1="804.77" x2="1724.63" y2="804.77" style="stroke:#F0F0F0;stroke-width:9.72"/>
	<line x1="1757.03" y1="804.77" x2="1821.83" y2="804.77" style="stroke:#F0F0F0;stroke-width:9.72"/>
	<line x1="1854.23" y1="804.77" x2="1919.03" y2="804.77" style="stroke:#F0F0F0;stroke-width:9.72"/>
	<line x1="1951.43" y1="804.77" x2="2016.23" y2="804.77" style="stroke:#F0F0F0;stroke-width:9.72"/>
	<line x1="2048.63" y1="804.77" x2="2113.43" y2="804.77" style="stroke:#F0F0F0;stroke-width:9.72"/>
	<line x1="2145.82" y1="804.77" x2="2210.63" y2="804.77" style="stroke:#F0F0F0;stroke-width:9.72"/>
	<line x1="2243.03" y1="804.77" x2="2307.82" y2="804.77" style="stroke:#F0F0F0;stroke-width:9.72"/>
	<line x1="2340.23" y1="804.77" x2="2405.03" y2="804.77" style="stroke:#F0F0F0;stroke-width:9.72"/>
	<line x1="2437.43" y1="804.77" x2="2502.23" y2="804.77" style="stroke:#F0F0F0;stroke-width:9.72"/>
	<line x1="2534.63" y1="804.77" x2="2599.43" y2="804.77" style="stroke:#F0F0F0;stroke-width:9.72"/>
	<line x1="2631.83" y1="804.77" x2="2696.63" y2="804.77" style="stroke:#F0F0F0;stroke-width:9.72"/>
	<line x1="2729.03" y1="804.77" x2="2793.83" y2="804.77" style="stroke:#F0F0F0;stroke-width:9.72"/>
	<line x1="2826.23" y1="804.77" x2="2891.03" y2="804.77" style="stroke:#F0F0F0;stroke-width:9.72"/>
	<line x1="2923.43" y1="804.77" x2="2988.23" y2="804.77" style="stroke:#F0F0F0;stroke-width:9.72"/>
	<line x1="3020.63" y1="804.77" x2="3085.43" y2="804.77" style="stroke:#F0F0F0;stroke-width:9.72"/>
	<line x1="3117.83" y1="804.77" x2="3182.63" y2="804.77" style="stroke:#F0F0F0;stroke-width:9.72"/>
	<line x1="3215.03" y1="804.77" x2="3279.83" y2="804.77" style="stroke:#F0F0F0;stroke-width:9.72"/>
	<line x1="3312.23" y1="804.77" x2="3377.03" y2="804.77" style="stroke:#F0F0F0;stroke-width:9.72"/>
	<line x1="3409.43" y1="804.77" x2="3474.23" y2="804.77" style="stroke:#F0F0F0;stroke-width:9.72"/>
	<line x1="3506.63" y1="804.77" x2="3571.43" y2="804.77" style="stroke:#F0F0F0;stroke-width:9.72"/>
	<line x1="3603.83" y1="804.77" x2="3668.63" y2="804.77" style="stroke:#F0F0F0;stroke-width:9.72"/>
	<line x1="3701.03" y1="804.77" x2="3765.83" y2="804.77" style="stroke:#F0F0F0;stroke-width:9.72"/>
	<line x1="3798.23" y1="804.77" x2="3863.03" y2="804.77" style="stroke:#F0F0F0;stroke-width:9.72"/>
	<line x1="3895.43" y1="804.77" x2="3960.23" y2="804.77" style="stroke:#F0F0F0;stroke-width:9.72"/>
	<line x1="3992.63" y1="804.77" x2="4057.43" y2="804.77" style="stroke:#F0F0F0;stroke-width:9.72"/>
	<line x1="4089.83" y1="804.77" x2="4154.63" y2="804.77" style="stroke:#F0F0F0;stroke-width:9.72"/>
	<line x1="4187.02" y1="804.77" x2="4251.83" y2="804.77" style="stroke:#F0F0F0;stroke-width:9.72"/>
	<line x1="4284.23" y1="804.77" x2="4349.02" y2="804.77" style="stroke:#F0F0F0;stroke-width:9.72"/>
	<line x1="4381.43" y1="804.77" x2="4446.23" y2="804.77" style="stroke:#F0F0F0;stroke-width:9.72"/>
	<line x1="4478.63" y1="804.77" x2="4543.43" y2="804.77" style="stroke:#F0F0F0;stroke-width:9.72"/>
	<line x1="4575.83" y1="804.77" x2="4640.63" y2="804.77" style="stroke:#F0F0F0;stroke-width:9.72"/>
	<line x1="4673.02" y1="804.77" x2="4737.83" y2="804.77" style="stroke:#F0F0F0;stroke-width:9.72"/>
	<line x1="4770.23" y1="804.77" x2="4835.02" y2="804.77" style="stroke:#F0F0F0;stroke-width:9.72"/>
	<line x1="4867.43" y1="804.77" x2="4932.23" y2="804.77" style="stroke:#F0F0F0;stroke-width:9.72"/>
	<line x1="4964.63" y1="804.77" x2="5029.43" y2="804.77" style="stroke:#F0F0F0;stroke-width:9.72"/>
	<line x1="5061.83" y1="804.77" x2="5126.63" y2="804.77" style="stroke:#F0F0F0;stroke-width:9.72"/>
	<line x1="5159.02" y1="804.77" x2="5223.83" y2="804.77" style="stroke:#F0F0F0;stroke-width:9.72"/>
	<line x1="5256.23" y1="804.77" x2="5286.60" y2="804.77" style="stroke:#F0F0F0;stroke-width:9.72"/>
	<line x1="687.83" y1="2187.68" x2="752.63" y2="2187.68" style="stroke:#F0F0F0;stroke-width:9.72"/>
	<line x1="785.03" y1="2187.68" x2="849.83" y2="2187.68" style="stroke:#F0F0F0;stroke-width:9.72"/>
	<line x1="882.23" y1="2187.68" x2="947.03" y2="2187.68" style="stroke:#F0F0F0;stroke-width:9.72"/>
	<line x1="979.43" y1="2187.68" x2="1044.22" y2="2187.68" style="stroke:#F0F0F0;stroke-width:9.72"/>
	<line x1="1076.63" y1="2187.68" x2="1141.43" y2="2187.68" style="stroke:#F0F0F0;stroke-width:9.72"/>
	<line x1="1173.83" y1="2187.68" x2="1238.63" y2="2187.68" style="stroke:#F0F0F0;stroke-width:9.72"/>
	<line x1="1271.03" y1="2187.68" x2="1335.83" y2="2187.68" style="stroke:#F0F0F0;stroke-width:9.72"/>
	<line x1="1368.23" y1="2187.68" x2="1433.03" y2="2187.68" style="stroke:#F0F0F0;stroke-width:9.72"/>
	<line x1="1465.43" y1="2187.68" x2="1530.23" y2="2187.68" style="stroke:#F0F0F0;stroke-width:9.72"/>
	<line x1="1562.63" y1="2187.68" x2="1627.43" y2="2187.68" style="stroke:#F0F0F0;stroke-width:9.72"/>
	<line x1="1659.83" y1="2187.68" x2="1724.63" y2="2187.68" style="stroke:#F0F0F0;stroke-width:9.72"/>
	<line x1="1757.03" y1="2187.68" x2="1821.83" y2="2187.68" style="stroke:#F0F0F0;stroke-width:9.72"/>
	<line x1="1854.23" y1="2187.68" x2="1919.03" y2="2187.68" style="stroke:#F0F0F0;stroke-width:9.72"/>
	<line x1="1951.43" y1="2187.68" x2="2016.23" y2="2187.68" style="stroke:#F0F0F0;stroke-width:9.72"/>
	<line x1="2048.63" y1="2187.68" x2="2113.43" y2="2187.68" style="stroke:#F0F0F0;stroke-width:9.72"/>
	<line x1="2145.82" y1="2187.68" x2="2210.63" y2="2187.68" style="stroke:#F0F0F0;stroke-width:9.72"/>
	<line x1="2243.03" y1="2187.68" x2="2307.82" y2="2187.68" style="stroke:#F0F0F0;stroke-width:9.72"/>
	<line x1="2340.23" y1="2187.68" x2="2405.03" y2="2187.68" style="stroke:#F0F0F0;stroke-width:9.72"/>
	<line x1="2437.43" y1="2187.68" x2="2502.23" y2="2187.68" style="stroke:#F0F0F0;stroke-width:9.72"/>
	<line x1="2534.63" y1="2187.68" x2="2599.43" y2="2187.68" style="stroke:#F0F0F0;stroke-width:9.72"/>
	<line x1="2631.83" y1="2187.68" x2="2696.63" y2="2187.68" style="stroke:#F0F0F0;stroke-width:9.72"/>
	<line x1="2729.03" y1="2187.68" x2="2793.83" y2="2187.68" style="stroke:#F0F0F0;stroke-width:9.72"/>
	<line x1="2826.23" y1="2187.68" x2="2891.03" y2="2187.68" style="stroke:#F0F0F0;stroke-width:9.72"/>
	<line x1="2923.43" y1="2187.68" x2="2988.23" y2="2187.68" style="stroke:#F0F0F0;stroke-width:9.72"/>
	<line x1="3020.63" y1="2187.68" x2="3085.43" y2="2187.68" style="stroke:#F0F0F0;stroke-width:9.72"/>
	<line x1="3117.83" y1="2187.68" x2="3182.63" y2="2187.68" style="stroke:#F0F0F0;stroke-width:9.72"/>
	<line x1="3215.03" y1="2187.68" x2="3279.83" y2="2187.68" style="stroke:#F0F0F0;stroke-width:9.72"/>
	<line x1="3312.23" y1="2187.68" x2="3377.03" y2="2187.68" style="stroke:#F0F0F0;stroke-width:9.72"/>
	<line x1="3409.43" y1="2187.68" x2="3474.23" y2="2187.68" style="stroke:#F0F0F0;stroke-width:9.72"/>
	<line x1="3506.63" y1="2187.68" x2="3571.43" y2="2187.68" style="stroke:#F0F0F0;stroke-width:9.72"/>
	<line x1="3603.83" y1="2187.68" x2="3668.63" y2="2187.68" style="stroke:#F0F0F0;stroke-width:9.72"/>
	<line x1="3701.03" y1="2187.68" x2="3765.83" y2="2187.68" style="stroke:#F0F0F0;stroke-width:9.72"/>
	<line x1="3798.23" y1="2187.68" x2="3863.03" y2="2187.68" style="stroke:#F0F0F0;stroke-width:9.72"/>
	<line x1="3895.43" y1="2187.68" x2="3960.23" y2="2187.68" style="stroke:#F0F0F0;stroke-width:9.72"/>
	<line x1="3992.63" y1="2187.68" x2="4057.43" y2="2187.68" style="stroke:#F0F0F0;stroke-width:9.72"/>
	<line x1="4089.83" y1="2187.68" x2="4154.63" y2="2187.68" style="stroke:#F0F0F0;stroke-width:9.72"/>
	<line x1="4187.02" y1="2187.68" x2="4251.83" y2="2187.68" style="stroke:#F0F0F0;stroke-width:9.72"/>
	<line x1="4284.23" y1="2187.68" x2="4349.02" y2="2187.68" style="stroke:#F0F0F0;stroke-width:9.72"/>
	<line x1="4381.43" y1="2187.68" x2="4446.23" y2="2187.68" style="stroke:#F0F0F0;stroke-width:9.72"/>
	<line x1="4478.63" y1="2187.68" x2="4543.43" y2="2187.68" style="stroke:#F0F0F0;stroke-width:9.72"/>
	<line x1="4575.83" y1="2187.68" x2="4640.63" y2="2187.68" style="stroke:#F0F0F0;stroke-width:9.72"/>
	<line x1="4673.02" y1="2187.68" x2="4737.83" y2="2187.68" style="stroke:#F0F0F0;stroke-width:9.72"/>
	<line x1="4770.23" y1="2187.68" x2="4835.02" y2="2187.68" style="stroke:#F0F0F0;stroke-width:9.72"/>
	<line x1="4867.43" y1="2187.68" x2="4932.23" y2="2187.68" style="stroke:#F0F0F0;stroke-width:9.72"/>
	<line x1="4964.63" y1="2187.68" x2="5029.43" y2="2187.68" style="stroke:#F0F0F0;stroke-width:9.72"/>
	<line x1="5061.83" y1="2187.68" x2="5126.63" y2="2187.68" style="stroke:#F0F0F0;stroke-width:9.72"/>
	<line x1="5159.02" y1="2187.68" x2="5223.83" y2="2187.68" style="stroke:#F0F0F0;stroke-width:9.72"/>
	<line x1="5256.23" y1="2187.68" x2="5286.60" y2="2187.68" style="stroke:#F0F0F0;stroke-width:9.72"/>
	<line x1="759.04" y1="2879.04" x2="759.04" y2="2814.24" style="stroke:#F0F0F0;stroke-width:9.72"/>
	<line x1="759.04" y1="2781.84" x2="759.04" y2="2717.04" style="stroke:#F0F0F0;stroke-width:9.72"/>
	<line x1="759.04" y1="2684.64" x2="759.04" y2="2619.84" style="stroke:#F0F0F0;stroke-width:9.72"/>
	<line x1="759.04" y1="2587.44" x2="759.04" y2="2522.64" style="stroke:#F0F0F0;stroke-width:9.72"/>
	<line x1="759.04" y1="2490.24" x2="759.04" y2="2425.44" style="stroke:#F0F0F0;stroke-width:9.72"/>
	<line x1="759.04" y1="2393.04" x2="759.04" y2="2328.24" style="stroke:#F0F0F0;stroke-width:9.72"/>
	<line x1="759.04" y1="2295.84" x2="759.04" y2="2231.04" style="stroke:#F0F0F0;stroke-width:9.72"/>
	<line x1="759.04" y1="2198.64" x2="759.04" y2="2133.84" style="stroke:#F0F0F0;stroke-width:9.72"/>
	<line x1="759.04" y1="2101.44" x2="759.04" y2="2036.64" style="stroke:#F0F0F0;stroke-width:9.72"/>
	<line x1="759.04" y1="2004.24" x2="759.04" y2="1939.44" style="stroke:#F0F0F0;stroke-width:9.72"/>
	<line x1="759.04" y1="1907.04" x2="759.04" y2="1842.24" style="stroke:#F0F0F0;stroke-width:9.72"/>
	<line x1="759.04" y1="1809.84" x2="759.04" y2="1745.04" style="stroke:#F0F0F0;stroke-width:9.72"/>
	<line x1="759.04" y1="1712.64" x2="759.04" y2="1647.84" style="stroke:#F0F0F0;stroke-width:9.72"/>
	<line x1="759.04" y1="1615.44" x2="759.04" y2="1550.64" style="stroke:#F0F0F0;stroke-width:9.72"/>
	<line x1="759.04" y1="1518.24" x2="759.04" y2="1453.44" style="stroke:#F0F0F0;stroke-width:9.72"/>
	<line x1="759.04" y1="1421.04" x2="759.04" y2="1356.24" style="stroke:#F0F0F0;stroke-width:9.72"/>
	<line x1="759.04" y1="1323.84" x2="759.04" y2="1259.04" style="stroke:#F0F0F0;stroke-width:9.72"/>
	<line x1="759.04" y1="1226.64" x2="759.04" y2="1161.84" style="stroke:#F0F0F0;stroke-width:9.72"/>
	<line x1="759.04" y1="1129.44" x2="759.04" y2="1064.64" style="stroke:#F0F0F0;stroke-width:9.72"/>
	<line x1="759.04" y1="1032.24" x2="759.04" y2="967.44" style="stroke:#F0F0F0;stroke-width:9.72"/>
	<line x1="759.04" y1="935.04" x2="759.04" y2="870.24" style="stroke:#F0F0F0;stroke-width:9.72"/>
	<line x1="759.04" y1="837.84" x2="759.04" y2="773.04" style="stroke:#F0F0F0;stroke-width:9.72"/>
	<line x1="759.04" y1="740.64" x2="759.04" y2="675.84" style="stroke:#F0F0F0;stroke-width:9.72"/>
	<line x1="759.04" y1="643.44" x2="759.04" y2="578.64" style="stroke:#F0F0F0;stroke-width:9.72"/>
	<line x1="759.04" y1="546.24" x2="759.04" y2="481.44" style="stroke:#F0F0F0;stroke-width:9.72"/>
	<line x1="759.04" y1="449.04" x2="759.04" y2="384.24" style="stroke:#F0F0F0;stroke-width:9.72"/>
	<line x1="759.04" y1="351.84" x2="759.04" y2="287.04" style="stroke:#F0F0F0;stroke-width:9.72"/>
	<line x1="759.04" y1="254.64" x2="759.04" y2="189.84" style="stroke:#F0F0F0;stroke-width:9.72"/>
	<line x1="759.04" y1="157.44" x2="759.04" y2="113.40" style="stroke:#F0F0F0;stroke-width:9.72"/>
	<line x1="1800.90" y1="2879.04" x2="1800.90" y2="2814.24" style="stroke:#F0F0F0;stroke-width:9.72"/>
	<line x1="1800.90" y1="2781.84" x2="1800.90" y2="2717.04" style="stroke:#F0F0F0;stroke-width:9.72"/>
	<line x1="1800.90" y1="2684.64" x2="1800.90" y2="2619.84" style="stroke:#F0F0F0;stroke-width:9.72"/>
	<line x1="1800.90" y1="2587.44" x2="1800.90" y2="2522.64" style="stroke:#F0F0F0;stroke-width:9.72"/>
	<line x1="1800.90" y1="2490.24" x2="1800.90" y2="2425.44" style="stroke:#F0F0F0;stroke-width:9.72"/>
	<line x1="1800.90" y1="2393.04" x2="1800.90" y2="2328.24" style="stroke:#F0F0F0;stroke-width:9.72"/>
	<line x1="1800.90" y1="2295.84" x2="1800.90" y2="2231.04" style="stroke:#F0F0F0;stroke-width:9.72"/>
	<line x1="1800.90" y1="2198.64" x2="1800.90" y2="2133.84" style="stroke:#F0F0F0;stroke-width:9.72"/>
	<line x1="1800.90" y1="2101.44" x2="1800.90" y2="2036.64" style="stroke:#F0F0F0;stroke-width:9.72"/>
	<line x1="1800.90" y1="2004.24" x2="1800.90" y2="1939.44" style="stroke:#F0F0F0;stroke-width:9.72"/>
	<line x1="1800.90" y1="1907.04" x2="1800.90" y2="1842.24" style="stroke:#F0F0F0;stroke-width:9.72"/>
	<line x1="1800.90" y1="1809.84" x2="1800.90" y2="1745.04" style="stroke:#F0F0F0;stroke-width:9.72"/>
	<line x1="1800.90" y1="1712.64" x2="1800.90" y2="1647.84" style="stroke:#F0F0F0;stroke-width:9.72"/>
	<line x1="1800.90" y1="1615.44" x2="1800.90" y2="1550.64" style="stroke:#F0F0F0;stroke-width:9.72"/>
	<line x1="1800.90" y1="1518.24" x2="1800.90" y2="1453.44" style="stroke:#F0F0F0;stroke-width:9.72"/>
	<line x1="1800.90" y1="1421.04" x2="1800.90" y2="1356.24" style="stroke:#F0F0F0;stroke-width:9.72"/>
	<line x1="1800.90" y1="1323.84" x2="1800.90" y2="1259.04" style="stroke:#F0F0F0;stroke-width:9.72"/>
	<line x1="1800.90" y1="1226.64" x2="1800.90" y2="1161.84" style="stroke:#F0F0F0;stroke-width:9.72"/>
	<line x1="1800.90" y1="1129.44" x2="1800.90" y2="1064.64" style="stroke:#F0F0F0;stroke-width:9.72"/>
	<line x1="1800.90" y1="1032.24" x2="1800.90" y2="967.44" style="stroke:#F0F0F0;stroke-width:9.72"/>
	<line x1="1800.90" y1="935.04" x2="1800.90" y2="870.24" style="stroke:#F0F0F0;stroke-width:9.72"/>
	<line x1="1800.90" y1="837.84" x2="1800.90" y2="773.04" style="stroke:#F0F0F0;stroke-width:9.72"/>
	<line x1="1800.90" y1="740.64" x2="1800.90" y2="675.84" style="stroke:#F0F0F0;stroke-width:9.72"/>
	<line x1="1800.90" y1="643.44" x2="1800.90" y2="578.64" style="stroke:#F0F0F0;stroke-width:9.72"/>
	<line x1="1800.90" y1="546.24" x2="1800.90" y2="481.44" style="stroke:#F0F0F0;stroke-width:9.72"/>
	<line x1="1800.90" y1="449.04" x2="1800.90" y2="384.24" style="stroke:#F0F0F0;stroke-width:9.72"/>
	<line x1="1800.90" y1="351.84" x2="1800.90" y2="287.04" style="stroke:#F0F0F0;stroke-width:9.72"/>
	<line x1="1800.90" y1="254.64" x2="1800.90" y2="189.84" style="stroke:#F0F0F0;stroke-width:9.72"/>
	<line x1="1800.90" y1="157.44" x2="1800.90" y2="113.40" style="stroke:#F0F0F0;stroke-width:9.72"/>
	<line x1="2842.76" y1="2879.04" x2="2842.76" y2="2814.24" style="stroke:#F0F0F0;stroke-width:9.72"/>
	<line x1="2842.76" y1="2781.84" x2="2842.76" y2="2717.04" style="stroke:#F0F0F0;stroke-width:9.72"/>
	<line x1="2842.76" y1="2684.64" x2="2842.76" y2="2619.84" style="stroke:#F0F0F0;stroke-width:9.72"/>
	<line x1="2842.76" y1="2587.44" x2="2842.76" y2="2522.64" style="stroke:#F0F0F0;stroke-width:9.72"/>
	<line x1="2842.76" y1="2490.24" x2="2842.76" y2="2425.44" style="stroke:#F0F0F0;stroke-width:9.72"/>
	<line x1="2842.76" y1="2393.04" x2="2842.76" y2="2328.24" style="stroke:#F0F0F0;stroke-width:9.72"/>
	<line x1="2842.76" y1="2295.84" x2="2842.76" y2="2231.04" style="stroke:#F0F0F0;stroke-width:9.72"/>
	<line x1="2842.76" y1="2198.64" x2="2842.76" y2="2133.84" style="stroke:#F0F0F0;stroke-width:9.72"/>
	<line x1="2842.76" y1="2101.44" x2="2842.76" y2="2036.64" style="stroke:#F0F0F0;stroke-width:9.72"/>
	<line x1="2842.76" y1="2004.24" x2="2842.76" y2="1939.44" style="stroke:#F0F0F0;stroke-width:9.72"/>
	<line x1="2842.76" y1="1907.04" x2="2842.76" y2="1842.24" style="stroke:#F0F0F0;stroke-width:9.72"/>
	<line x1="2842.76" y1="1809.84" x2="2842.76" y2="1745.04" style="stroke:#F0F0F0;stroke-width:9.72"/>
	<line x1="2842.76" y1="1712.64" x2="2842.76" y2="1647.84" style="stroke:#F0F0F0;stroke-width:9.72"/>
	<line x1="2842.76" y1="1615.44" x2="2842.76" y2="1550.64" style="stroke:#F0F0F0;stroke-width:9.72"/>
	<line x1="2842.76" y1="1518.24" x2="2842.76" y2="1453.44" style="stroke:#F0F0F0;stroke-width:9.72"/>
	<line x1="2842.76" y1="1421.04" x2="2842.76" y2="1356.24" style="stroke:#F0F0F0;stroke-width:9.72"/>
	<line x1="2842.76" y1="1323.84" x2="2842.76" y2="1259.04" style="stroke:#F0F0F0;stroke-width:9.72"/>
	<line x1="2842.76" y1="1226.64" x2="2842.76" y2="1161.84" style="stroke:#F0F0F0;stroke-width:9.72"/>
	<line x1="2842.76" y1="1129.44" x2="2842.76" y2="1064.64" style="stroke:#F0F0F0;stroke-width:9.72"/>
	<line x1="2842.76" y1="1032.24" x2="2842.76" y2="967.44" style="stroke:#F0F0F0;stroke-width:9.72"/>
	<line x1="2842.76" y1="935.04" x2="2842.76" y2="870.24" style="stroke:#F0F0F0;stroke-width:9.72"/>
	<line x1="2842.76" y1="837.84" x2="2842.76" y2="773.04" style="stroke:#F0F0F0;stroke-width:9.72"/>
	<line x1="2842.76" y1="740.64" x2="2842.76" y2="675.84" style="stroke:#F0F0F0;stroke-width:9.72"/>
	<line x1="2842.76" y1="643.44" x2="2842.76" y2="578.64" style="stroke:#F0F0F0;stroke-width:9.72"/>
	<line x1="2842.76" y1="546.24" x2="2842.76" y2="481.44" style="stroke:#F0F0F0;stroke-width:9.72"/>
	<line x1="2842.76" y1="449.04" x2="2842.76" y2="384.24" style="stroke:#F0F0F0;stroke-width:9.72"/>
	<line x1="2842.76" y1="351.84" x2="2842.76" y2="287.04" style="stroke:#F0F0F0;stroke-width:9.72"/>
	<line x1="2842.76" y1="254.64" x2="2842.76" y2="189.84" style="stroke:#F0F0F0;stroke-width:9.72"/>
	<line x1="2842.76" y1="157.44" x2="2842.76" y2="113.40" style="stroke:#F0F0F0;stroke-width:9.72"/>
	<line x1="3884.46" y1="2879.04" x2="3884.46" y2="2814.24" style="stroke:#F0F0F0;stroke-width:9.72"/>
	<line x1="3884.46" y1="2781.84" x2="3884.46" y2="2717.04" style="stroke:#F0F0F0;stroke-width:9.72"/>
	<line x1="3884.46" y1="2684.64" x2="3884.46" y2="2619.84" style="stroke:#F0F0F0;stroke-width:9.72"/>
	<line x1="3884.46" y1="2587.44" x2="3884.46" y2="2522.64" style="stroke:#F0F0F0;stroke-width:9.72"/>
	<line x1="3884.46" y1="2490.24" x2="3884.46" y2="2425.44" style="stroke:#F0F0F0;stroke-width:9.72"/>
	<line x1="3884.46" y1="2393.04" x2="3884.46" y2="2328.24" style="stroke:#F0F0F0;stroke-width:9.72"/>
	<line x1="3884.46" y1="2295.84" x2="3884.46" y2="2231.04" style="stroke:#F0F0F0;stroke-width:9.72"/>
	<line x1="3884.46" y1="2198.64" x2="3884.46" y2="2133.84" style="stroke:#F0F0F0;stroke-width:9.72"/>
	<line x1="3884.46" y1="2101.44" x2="3884.46" y2="2036.64" style="stroke:#F0F0F0;stroke-width:9.72"/>
	<line x1="3884.46" y1="2004.24" x2="3884.46" y2="1939.44" style="stroke:#F0F0F0;stroke-width:9.72"/>
	<line x1="3884.46" y1="1907.04" x2="3884.46" y2="1842.24" style="stroke:#F0F0F0;stroke-width:9.72"/>
	<line x1="3884.46" y1="1809.84" x2="3884.46" y2="1745.04" style="stroke:#F0F0F0;stroke-width:9.72"/>
	<line x1="3884.46" y1="1712.64" x2="3884.46" y2="1647.84" style="stroke:#F0F0F0;stroke-width:9.72"/>
	<line x1="3884.46" y1="1615.44" x2="3884.46" y2="1550.64" style="stroke:#F0F0F0;stroke-width:9.72"/>
	<line x1="3884.46" y1="1518.24" x2="3884.46" y2="1453.44" style="stroke:#F0F0F0;stroke-width:9.72"/>
	<line x1="3884.46" y1="1421.04" x2="3884.46" y2="1356.24" style="stroke:#F0F0F0;stroke-width:9.72"/>
	<line x1="3884.46" y1="1323.84" x2="3884.46" y2="1259.04" style="stroke:#F0F0F0;stroke-width:9.72"/>
	<line x1="3884.46" y1="1226.64" x2="3884.46" y2="1161.84" style="stroke:#F0F0F0;stroke-width:9.72"/>
	<line x1="3884.46" y1="1129.44" x2="3884.46" y2="1064.64" style="stroke:#F0F0F0;stroke-width:9.72"/>
	<line x1="3884.46" y1="1032.24" x2="3884.46" y2="967.44" style="stroke:#F0F0F0;stroke-width:9.72"/>
	<line x1="3884.46" y1="935.04" x2="3884.46" y2="870.24" style="stroke:#F0F0F0;stroke-width:9.72"/>
	<line x1="3884.46" y1="837.84" x2="3884.46" y2="773.04" style="stroke:#F0F0F0;stroke-width:9.72"/>
	<line x1="3884.46" y1="740.64" x2="3884.46" y2="675.84" style="stroke:#F0F0F0;stroke-width:9.72"/>
	<line x1="3884.46" y1="643.44" x2="3884.46" y2="578.64" style="stroke:#F0F0F0;stroke-width:9.72"/>
	<line x1="3884.46" y1="546.24" x2="3884.46" y2="481.44" style="stroke:#F0F0F0;stroke-width:9.72"/>
	<line x1="3884.46" y1="449.04" x2="3884.46" y2="384.24" style="stroke:#F0F0F0;stroke-width:9.72"/>
	<line x1="3884.46" y1="351.84" x2="3884.46" y2="287.04" style="stroke:#F0F0F0;stroke-width:9.72"/>
	<line x1="3884.46" y1="254.64" x2="3884.46" y2="189.84" style="stroke:#F0F0F0;stroke-width:9.72"/>
	<line x1="3884.46" y1="157.44" x2="3884.46" y2="113.40" style="stroke:#F0F0F0;stroke-width:9.72"/>
	<line x1="4926.32" y1="2879.04" x2="4926.32" y2="2814.24" style="stroke:#F0F0F0;stroke-width:9.72"/>
	<line x1="4926.32" y1="2781.84" x2="4926.32" y2="2717.04" style="stroke:#F0F0F0;stroke-width:9.72"/>
	<line x1="4926.32" y1="2684.64" x2="4926.32" y2="2619.84" style="stroke:#F0F0F0;stroke-width:9.72"/>
	<line x1="4926.32" y1="2587.44" x2="4926.32" y2="2522.64" style="stroke:#F0F0F0;stroke-width:9.72"/>
	<line x1="4926.32" y1="2490.24" x2="4926.32" y2="2425.44" style="stroke:#F0F0F0;stroke-width:9.72"/>
	<line x1="4926.32" y1="2393.04" x2="4926.32" y2="2328.24" style="stroke:#F0F0F0;stroke-width:9.72"/>
	<line x1="4926.32" y1="2295.84" x2="4926.32" y2="2231.04" style="stroke:#F0F0F0;stroke-width:9.72"/>
	<line x1="4926.32" y1="2198.64" x2="4926.32" y2="2133.84" style="stroke:#F0F0F0;stroke-width:9.72"/>
	<line x1="4926.32" y1="2101.44" x2="4926.32" y2="2036.64" style="stroke:#F0F0F0;stroke-width:9.72"/>
	<line x1="4926.32" y1="2004.24" x2="4926.32" y2="1939.44" style="stroke:#F0F0F0;stroke-width:9.72"/>
	<line x1="4926.32" y1="1907.04" x2="4926.32" y2="1842.24" style="stroke:#F0F0F0;stroke-width:9.72"/>
	<line x1="4926.32" y1="1809.84" x2="4926.32" y2="1745.04" style="stroke:#F0F0F0;stroke-width:9.72"/>
	<line x1="4926.32" y1="1712.64" x2="4926.32" y2="1647.84" style="stroke:#F0F0F0;stroke-width:9.72"/>
	<line x1="4926.32" y1="1615.44" x2="4926.32" y2="1550.64" style="stroke:#F0F0F0;stroke-width:9.72"/>
	<line x1="4926.32" y1="1518.24" x2="4926.32" y2="1453.44" style="stroke:#F0F0F0;stroke-width:9.72"/>
	<line x1="4926.32" y1="1421.04" x2="4926.32" y2="1356.24" style="stroke:#F0F0F0;stroke-width:9.72"/>
	<line x1="4926.32" y1="1323.84" x2="4926.32" y2="1259.04" style="stroke:#F0F0F0;stroke-width:9.72"/>
	<line x1="4926.32" y1="1226.64" x2="4926.32" y2="1161.84" style="stroke:#F0F0F0;stroke-width:9.72"/>
	<line x1="4926.32" y1="1129.44" x2="4926.32" y2="1064.64" style="stroke:#F0F0F0;stroke-width:9.72"/>
	<line x1="4926.32" y1="1032.24" x2="4926.32" y2="967.44" style="stroke:#F0F0F0;stroke-width:9.72"/>
	<line x1="4926.32" y1="935.04" x2="4926.32" y2="870.24" style="stroke:#F0F0F0;stroke-width:9.72"/>
	<line x1="4926.32" y1="837.84" x2="4926.32" y2="773.04" style="stroke:#F0F0F0;stroke-width:9.72"/>
	<line x1="4926.32" y1="740.64" x2="4926.32" y2="675.84" style="stroke:#F0F0F0;stroke-width:9.72"/>
	<line x1="4926.32" y1="643.44" x2="4926.32" y2="578.64" style="stroke:#F0F0F0;stroke-width:9.72"/>
	<line x1="4926.32" y1="546.24" x2="4926.32" y2="481.44" style="stroke:#F0F0F0;stroke-width:9.72"/>
	<line x1="4926.32" y1="449.04" x2="4926.32" y2="384.24" style="stroke:#F0F0F0;stroke-width:9.72"/>
	<line x1="4926.32" y1="351.84" x2="4926.32" y2="287.04" style="stroke:#F0F0F0;stroke-width:9.72"/>
	<line x1="4926.32" y1="254.64" x2="4926.32" y2="189.84" style="stroke:#F0F0F0;stroke-width:9.72"/>
	<line x1="4926.32" y1="157.44" x2="4926.32" y2="113.40" style="stroke:#F0F0F0;stroke-width:9.72"/>
	<line x1="4845.83" y1="804.77" x2="5215.39" y2="804.77" style="stroke:#1A85FF;stroke-width:9.72"/>
	<line x1="996.47" y1="2187.68" x2="1147.67" y2="2187.68" style="stroke:#1A85FF;stroke-width:9.72"/>
	<circle cx="5030.44" cy="804.94" r="21.74" style="fill:#1A85FF"/>
	<circle cx="5030.44" cy="804.94" r="16.88" style="fill:none;stroke:#1A85FF;stroke-width:9.72"/>
	<circle cx="1071.90" cy="2187.84" r="21.74" style="fill:#1A85FF"/>
	<circle cx="1071.90" cy="2187.84" r="16.88" style="fill:none;stroke:#1A85FF;stroke-width:9.72"/>
	<line x1="687.83" y1="2879.04" x2="687.83" y2="113.40" style="stroke:#000000;stroke-width:6.48"/>
	<line x1="687.83" y1="804.77" x2="642.77" y2="804.77" style="stroke:#000000;stroke-width:6.48"/>
	<text x="620.33" y="844.21" style="font-family:'Helvetica';font-size:112.56px;fill:#000000" text-anchor="end">Age (ln)</text>
	<line x1="687.83" y1="2187.68" x2="642.77" y2="2187.68" style="stroke:#000000;stroke-width:6.48"/>
	<text x="620.33" y="2227.11" style="font-family:'Helvetica';font-size:112.56px;fill:#000000" text-anchor="end">Female</text>
	<line x1="687.83" y1="2879.04" x2="5286.60" y2="2879.04" style="stroke:#000000;stroke-width:6.48"/>
	<line x1="759.04" y1="2879.04" x2="759.04" y2="2924.10" style="stroke:#000000;stroke-width:6.48"/>
	<text x="759.04" y="3025.25" style="font-family:'Helvetica';font-size:112.56px;fill:#000000" text-anchor="middle">-.6</text>
	<line x1="1800.90" y1="2879.04" x2="1800.90" y2="2924.10" style="stroke:#000000;stroke-width:6.48"/>
	<text x="1800.90" y="3025.25" style="font-family:'Helvetica';font-size:112.56px;fill:#000000" text-anchor="middle">-.4</text>
	<line x1="2842.76" y1="2879.04" x2="2842.76" y2="2924.10" style="stroke:#000000;stroke-width:6.48"/>
	<text x="2842.76" y="3025.25" style="font-family:'Helvetica';font-size:112.56px;fill:#000000" text-anchor="middle">-.2</text>
	<line x1="3884.46" y1="2879.04" x2="3884.46" y2="2924.10" style="stroke:#000000;stroke-width:6.48"/>
	<text x="3884.46" y="3025.25" style="font-family:'Helvetica';font-size:112.56px;fill:#000000" text-anchor="middle">0</text>
	<line x1="4926.32" y1="2879.04" x2="4926.32" y2="2924.10" style="stroke:#000000;stroke-width:6.48"/>
	<text x="4926.32" y="3025.25" style="font-family:'Helvetica';font-size:112.56px;fill:#000000" text-anchor="middle">.2</text>
</svg>