<svg width="646" height="402" viewBox="0 0 646 402" fill="none" xmlns="http://www.w3.org/2000/svg">
<g filter="url(#filter0_d_202_686)">
<rect width="638" height="394" transform="translate(4)" fill="white"/>
<rect x="71.5" y="183.5" width="154" height="42" fill="#041746" stroke="#041746"/>
<rect x="71.5" y="230.5" width="154" height="43" fill="#041746" stroke="#041746"/>
<rect x="71.5" y="277.5" width="154" height="43" fill="#041746" stroke="#041746"/>
<rect x="229.5" y="183.5" width="112" height="42" stroke="#041746"/>
<rect x="345.5" y="183.5" width="112" height="42" stroke="#041746"/>
<rect x="229.5" y="230.5" width="112" height="43" stroke="#041746"/>
<rect x="345.5" y="230.5" width="112" height="43" stroke="#041746"/>
<rect x="229.5" y="277.5" width="112" height="43" stroke="#041746"/>
<rect x="345.5" y="277.5" width="112" height="43" stroke="#041746"/>
<rect x="461.5" y="277.5" width="112" height="43" stroke="#041746"/>
<rect x="461.5" y="230.5" width="112" height="43" stroke="#041746"/>
<path d="M505.817 241.414V260H503.469V244.347L498.733 246.073V243.953L505.449 241.414H505.817ZM520.442 241.414V260H518.094V244.347L513.358 246.073V243.953L520.074 241.414H520.442ZM538.952 249.285V252.104C538.952 253.618 538.817 254.896 538.546 255.938C538.275 256.979 537.886 257.816 537.378 258.451C536.87 259.086 536.257 259.547 535.537 259.835C534.826 260.114 534.022 260.254 533.125 260.254C532.414 260.254 531.758 260.165 531.157 259.987C530.556 259.81 530.015 259.526 529.532 259.137C529.058 258.739 528.652 258.223 528.313 257.588C527.975 256.953 527.717 256.183 527.539 255.277C527.361 254.372 527.272 253.314 527.272 252.104V249.285C527.272 247.77 527.408 246.501 527.679 245.477C527.958 244.452 528.352 243.632 528.859 243.014C529.367 242.387 529.977 241.939 530.688 241.668C531.407 241.397 532.211 241.262 533.1 241.262C533.819 241.262 534.479 241.351 535.08 241.528C535.689 241.698 536.231 241.973 536.705 242.354C537.179 242.726 537.581 243.225 537.911 243.852C538.25 244.469 538.508 245.227 538.686 246.124C538.863 247.021 538.952 248.075 538.952 249.285ZM536.591 252.484V248.892C536.591 248.062 536.54 247.334 536.438 246.708C536.345 246.073 536.206 245.532 536.02 245.083C535.833 244.634 535.596 244.271 535.309 243.991C535.029 243.712 534.703 243.509 534.331 243.382C533.967 243.246 533.557 243.179 533.1 243.179C532.541 243.179 532.046 243.285 531.614 243.496C531.183 243.699 530.819 244.025 530.522 244.474C530.235 244.922 530.015 245.51 529.862 246.238C529.71 246.966 529.634 247.851 529.634 248.892V252.484C529.634 253.314 529.68 254.046 529.773 254.681C529.875 255.315 530.023 255.866 530.218 256.331C530.412 256.788 530.649 257.165 530.929 257.461C531.208 257.757 531.53 257.977 531.894 258.121C532.266 258.257 532.676 258.324 533.125 258.324C533.701 258.324 534.204 258.214 534.636 257.994C535.067 257.774 535.427 257.431 535.715 256.966C536.011 256.492 536.231 255.887 536.375 255.15C536.519 254.406 536.591 253.517 536.591 252.484Z" fill="#041746"/>
<path d="M517.903 206.779V208.709H504.548V207.325L512.825 194.516H514.742L512.686 198.223L507.214 206.779H517.903ZM515.326 194.516V213H512.978V194.516H515.326ZM531.982 194.516V195.836L524.327 213H521.852L529.494 196.445H519.49V194.516H531.982Z" fill="#041746"/>
<rect x="229" y="117" width="113" height="62" fill="#041746"/>
<rect x="345" y="117" width="113" height="62" fill="#041746"/>
<rect x="462" y="117" width="113" height="62" fill="#041746"/>
<path d="M274.839 202.603H276.515C277.336 202.603 278.013 202.467 278.546 202.196C279.088 201.917 279.49 201.54 279.752 201.066C280.023 200.584 280.158 200.042 280.158 199.441C280.158 198.73 280.04 198.134 279.803 197.651C279.566 197.169 279.21 196.805 278.736 196.56C278.262 196.314 277.661 196.191 276.934 196.191C276.273 196.191 275.689 196.323 275.182 196.585C274.682 196.839 274.289 197.203 274.001 197.677C273.722 198.151 273.582 198.709 273.582 199.353H271.233C271.233 198.413 271.47 197.558 271.944 196.788C272.418 196.018 273.083 195.404 273.938 194.947C274.801 194.49 275.799 194.262 276.934 194.262C278.051 194.262 279.028 194.461 279.866 194.858C280.704 195.248 281.356 195.832 281.821 196.61C282.287 197.381 282.52 198.341 282.52 199.492C282.52 199.958 282.41 200.457 282.189 200.99C281.978 201.515 281.644 202.006 281.187 202.463C280.738 202.92 280.154 203.297 279.435 203.593C278.715 203.881 277.852 204.024 276.845 204.024H274.839V202.603ZM274.839 204.532V203.123H276.845C278.021 203.123 278.994 203.263 279.765 203.542C280.535 203.821 281.14 204.194 281.58 204.659C282.029 205.125 282.342 205.637 282.52 206.195C282.706 206.745 282.799 207.296 282.799 207.846C282.799 208.709 282.651 209.475 282.354 210.144C282.067 210.812 281.656 211.379 281.123 211.845C280.598 212.31 279.98 212.661 279.27 212.898C278.559 213.135 277.784 213.254 276.946 213.254C276.142 213.254 275.385 213.14 274.674 212.911C273.971 212.683 273.349 212.353 272.808 211.921C272.266 211.481 271.843 210.943 271.538 210.309C271.233 209.665 271.081 208.933 271.081 208.112H273.43C273.43 208.756 273.569 209.318 273.849 209.801C274.136 210.283 274.543 210.66 275.067 210.931C275.601 211.193 276.227 211.324 276.946 211.324C277.666 211.324 278.284 211.201 278.8 210.956C279.325 210.702 279.727 210.321 280.006 209.813C280.294 209.306 280.438 208.667 280.438 207.896C280.438 207.126 280.277 206.496 279.955 206.005C279.633 205.506 279.176 205.137 278.584 204.9C278 204.655 277.31 204.532 276.515 204.532H274.839ZM298.147 211.07V213H286.049V211.312L292.104 204.57C292.849 203.741 293.425 203.038 293.831 202.463C294.246 201.879 294.534 201.358 294.694 200.901C294.864 200.436 294.948 199.962 294.948 199.479C294.948 198.87 294.821 198.32 294.567 197.829C294.322 197.33 293.958 196.932 293.476 196.636C292.993 196.34 292.409 196.191 291.724 196.191C290.903 196.191 290.217 196.352 289.667 196.674C289.125 196.987 288.719 197.427 288.448 197.994C288.177 198.561 288.042 199.213 288.042 199.949H285.693C285.693 198.908 285.922 197.956 286.379 197.093C286.836 196.229 287.513 195.544 288.41 195.036C289.307 194.52 290.412 194.262 291.724 194.262C292.892 194.262 293.89 194.469 294.72 194.884C295.549 195.29 296.184 195.866 296.624 196.61C297.073 197.347 297.297 198.21 297.297 199.2C297.297 199.742 297.204 200.292 297.018 200.851C296.84 201.401 296.59 201.951 296.269 202.501C295.955 203.051 295.587 203.593 295.164 204.126C294.749 204.659 294.305 205.184 293.831 205.7L288.88 211.07H298.147Z" fill="#041746"/>
<path d="M395.13 194.414V213H392.781V197.347L388.046 199.073V196.953L394.762 194.414H395.13ZM405.007 204.202L403.128 203.72L404.055 194.516H413.538V196.687H406.048L405.489 201.714C405.828 201.519 406.255 201.337 406.771 201.168C407.296 200.999 407.897 200.914 408.574 200.914C409.429 200.914 410.195 201.062 410.872 201.358C411.549 201.646 412.125 202.061 412.599 202.603C413.081 203.144 413.449 203.796 413.703 204.558C413.957 205.319 414.084 206.17 414.084 207.109C414.084 207.998 413.961 208.815 413.716 209.56C413.479 210.304 413.119 210.956 412.637 211.515C412.154 212.065 411.545 212.492 410.809 212.797C410.081 213.102 409.222 213.254 408.231 213.254C407.487 213.254 406.78 213.152 406.111 212.949C405.451 212.738 404.859 212.42 404.334 211.997C403.818 211.565 403.395 211.032 403.064 210.397C402.743 209.754 402.54 209.001 402.455 208.138H404.689C404.791 208.832 404.994 209.416 405.299 209.89C405.604 210.364 406.001 210.723 406.492 210.969C406.992 211.206 407.571 211.324 408.231 211.324C408.79 211.324 409.285 211.227 409.717 211.032C410.148 210.838 410.512 210.558 410.809 210.194C411.105 209.83 411.329 209.39 411.481 208.874C411.642 208.358 411.723 207.778 411.723 207.135C411.723 206.551 411.642 206.009 411.481 205.51C411.321 205.01 411.079 204.575 410.758 204.202C410.445 203.83 410.06 203.542 409.603 203.339C409.146 203.127 408.621 203.021 408.028 203.021C407.241 203.021 406.645 203.127 406.238 203.339C405.84 203.55 405.43 203.838 405.007 204.202Z" fill="#041746"/>
<path d="M280.425 241.49H280.628V243.483H280.425C279.181 243.483 278.14 243.687 277.302 244.093C276.464 244.491 275.799 245.028 275.309 245.705C274.818 246.374 274.462 247.127 274.242 247.965C274.031 248.803 273.925 249.653 273.925 250.517V253.233C273.925 254.054 274.022 254.782 274.217 255.417C274.411 256.043 274.678 256.572 275.017 257.004C275.355 257.436 275.736 257.761 276.159 257.981C276.591 258.201 277.039 258.312 277.505 258.312C278.047 258.312 278.529 258.21 278.952 258.007C279.375 257.795 279.731 257.503 280.019 257.131C280.315 256.75 280.539 256.301 280.691 255.785C280.844 255.269 280.92 254.702 280.92 254.084C280.92 253.534 280.852 253.005 280.717 252.497C280.581 251.981 280.374 251.524 280.095 251.126C279.815 250.72 279.464 250.402 279.041 250.174C278.626 249.937 278.131 249.818 277.556 249.818C276.904 249.818 276.295 249.979 275.728 250.301C275.169 250.614 274.708 251.029 274.344 251.545C273.988 252.053 273.785 252.607 273.734 253.208L272.49 253.195C272.609 252.247 272.829 251.439 273.15 250.771C273.48 250.093 273.887 249.543 274.369 249.12C274.86 248.688 275.406 248.375 276.007 248.181C276.616 247.978 277.259 247.876 277.937 247.876C278.859 247.876 279.655 248.049 280.323 248.396C280.992 248.743 281.542 249.209 281.974 249.793C282.405 250.368 282.723 251.02 282.926 251.748C283.137 252.467 283.243 253.208 283.243 253.97C283.243 254.841 283.12 255.658 282.875 256.42C282.63 257.182 282.261 257.85 281.771 258.426C281.288 259.001 280.691 259.45 279.98 259.771C279.27 260.093 278.444 260.254 277.505 260.254C276.506 260.254 275.634 260.051 274.89 259.645C274.145 259.23 273.527 258.68 273.036 257.994C272.545 257.309 272.177 256.547 271.932 255.709C271.686 254.871 271.563 254.021 271.563 253.157V252.053C271.563 250.749 271.695 249.471 271.957 248.219C272.219 246.966 272.672 245.832 273.315 244.816C273.967 243.801 274.868 242.993 276.02 242.392C277.171 241.791 278.639 241.49 280.425 241.49ZM297.64 249.285V252.104C297.64 253.618 297.504 254.896 297.233 255.938C296.963 256.979 296.573 257.816 296.065 258.451C295.558 259.086 294.944 259.547 294.225 259.835C293.514 260.114 292.71 260.254 291.812 260.254C291.102 260.254 290.446 260.165 289.845 259.987C289.244 259.81 288.702 259.526 288.22 259.137C287.746 258.739 287.34 258.223 287.001 257.588C286.662 256.953 286.404 256.183 286.227 255.277C286.049 254.372 285.96 253.314 285.96 252.104V249.285C285.96 247.77 286.095 246.501 286.366 245.477C286.646 244.452 287.039 243.632 287.547 243.014C288.055 242.387 288.664 241.939 289.375 241.668C290.094 241.397 290.898 241.262 291.787 241.262C292.507 241.262 293.167 241.351 293.768 241.528C294.377 241.698 294.919 241.973 295.393 242.354C295.867 242.726 296.269 243.225 296.599 243.852C296.937 244.469 297.195 245.227 297.373 246.124C297.551 247.021 297.64 248.075 297.64 249.285ZM295.278 252.484V248.892C295.278 248.062 295.228 247.334 295.126 246.708C295.033 246.073 294.893 245.532 294.707 245.083C294.521 244.634 294.284 244.271 293.996 243.991C293.717 243.712 293.391 243.509 293.019 243.382C292.655 243.246 292.244 243.179 291.787 243.179C291.229 243.179 290.733 243.285 290.302 243.496C289.87 243.699 289.506 244.025 289.21 244.474C288.922 244.922 288.702 245.51 288.55 246.238C288.397 246.966 288.321 247.851 288.321 248.892V252.484C288.321 253.314 288.368 254.046 288.461 254.681C288.562 255.315 288.711 255.866 288.905 256.331C289.1 256.788 289.337 257.165 289.616 257.461C289.896 257.757 290.217 257.977 290.581 258.121C290.953 258.257 291.364 258.324 291.812 258.324C292.388 258.324 292.892 258.214 293.323 257.994C293.755 257.774 294.115 257.431 294.402 256.966C294.699 256.492 294.919 255.887 295.062 255.15C295.206 254.406 295.278 253.517 295.278 252.484Z" fill="#041746"/>
<path d="M390.382 251.202L388.503 250.72L389.43 241.516H398.913V243.687H391.423L390.864 248.714C391.203 248.519 391.63 248.337 392.146 248.168C392.671 247.999 393.272 247.914 393.949 247.914C394.804 247.914 395.57 248.062 396.247 248.358C396.924 248.646 397.5 249.061 397.974 249.603C398.456 250.144 398.824 250.796 399.078 251.558C399.332 252.319 399.459 253.17 399.459 254.109C399.459 254.998 399.336 255.815 399.091 256.56C398.854 257.304 398.494 257.956 398.012 258.515C397.529 259.065 396.92 259.492 396.184 259.797C395.456 260.102 394.597 260.254 393.606 260.254C392.862 260.254 392.155 260.152 391.486 259.949C390.826 259.738 390.234 259.42 389.709 258.997C389.193 258.565 388.77 258.032 388.439 257.397C388.118 256.754 387.915 256.001 387.83 255.138H390.064C390.166 255.832 390.369 256.416 390.674 256.89C390.979 257.364 391.376 257.723 391.867 257.969C392.367 258.206 392.946 258.324 393.606 258.324C394.165 258.324 394.66 258.227 395.092 258.032C395.523 257.838 395.887 257.558 396.184 257.194C396.48 256.83 396.704 256.39 396.856 255.874C397.017 255.358 397.098 254.778 397.098 254.135C397.098 253.551 397.017 253.009 396.856 252.51C396.696 252.01 396.454 251.575 396.133 251.202C395.82 250.83 395.435 250.542 394.978 250.339C394.521 250.127 393.996 250.021 393.403 250.021C392.616 250.021 392.02 250.127 391.613 250.339C391.215 250.55 390.805 250.838 390.382 251.202ZM413.64 249.285V252.104C413.64 253.618 413.504 254.896 413.233 255.938C412.963 256.979 412.573 257.816 412.065 258.451C411.558 259.086 410.944 259.547 410.225 259.835C409.514 260.114 408.71 260.254 407.812 260.254C407.102 260.254 406.446 260.165 405.845 259.987C405.244 259.81 404.702 259.526 404.22 259.137C403.746 258.739 403.34 258.223 403.001 257.588C402.662 256.953 402.404 256.183 402.227 255.277C402.049 254.372 401.96 253.314 401.96 252.104V249.285C401.96 247.77 402.095 246.501 402.366 245.477C402.646 244.452 403.039 243.632 403.547 243.014C404.055 242.387 404.664 241.939 405.375 241.668C406.094 241.397 406.898 241.262 407.787 241.262C408.507 241.262 409.167 241.351 409.768 241.528C410.377 241.698 410.919 241.973 411.393 242.354C411.867 242.726 412.269 243.225 412.599 243.852C412.937 244.469 413.195 245.227 413.373 246.124C413.551 247.021 413.64 248.075 413.64 249.285ZM411.278 252.484V248.892C411.278 248.062 411.228 247.334 411.126 246.708C411.033 246.073 410.893 245.532 410.707 245.083C410.521 244.634 410.284 244.271 409.996 243.991C409.717 243.712 409.391 243.509 409.019 243.382C408.655 243.246 408.244 243.179 407.787 243.179C407.229 243.179 406.733 243.285 406.302 243.496C405.87 243.699 405.506 244.025 405.21 244.474C404.922 244.922 404.702 245.51 404.55 246.238C404.397 246.966 404.321 247.851 404.321 248.892V252.484C404.321 253.314 404.368 254.046 404.461 254.681C404.562 255.315 404.711 255.866 404.905 256.331C405.1 256.788 405.337 257.165 405.616 257.461C405.896 257.757 406.217 257.977 406.581 258.121C406.953 258.257 407.364 258.324 407.812 258.324C408.388 258.324 408.892 258.214 409.323 257.994C409.755 257.774 410.115 257.431 410.402 256.966C410.699 256.492 410.919 255.887 411.062 255.15C411.206 254.406 411.278 253.517 411.278 252.484Z" fill="#041746"/>
<path d="M273.747 306.032H273.988C275.342 306.032 276.443 305.842 277.289 305.461C278.135 305.08 278.787 304.568 279.244 303.925C279.701 303.282 280.014 302.558 280.184 301.754C280.353 300.941 280.438 300.108 280.438 299.253V296.422C280.438 295.584 280.34 294.839 280.146 294.188C279.959 293.536 279.697 292.99 279.358 292.55C279.028 292.11 278.652 291.775 278.229 291.547C277.805 291.318 277.357 291.204 276.883 291.204C276.341 291.204 275.854 291.314 275.423 291.534C275 291.746 274.64 292.046 274.344 292.436C274.056 292.825 273.836 293.282 273.684 293.807C273.531 294.331 273.455 294.903 273.455 295.521C273.455 296.071 273.523 296.604 273.658 297.12C273.794 297.636 274.001 298.102 274.28 298.517C274.56 298.931 274.907 299.261 275.321 299.507C275.744 299.744 276.24 299.862 276.807 299.862C277.331 299.862 277.822 299.761 278.279 299.558C278.745 299.346 279.155 299.062 279.511 298.707C279.875 298.343 280.162 297.933 280.374 297.476C280.594 297.019 280.721 296.54 280.755 296.041H281.872C281.872 296.743 281.732 297.438 281.453 298.123C281.182 298.8 280.801 299.418 280.311 299.977C279.82 300.535 279.244 300.984 278.584 301.322C277.924 301.652 277.204 301.817 276.426 301.817C275.512 301.817 274.72 301.64 274.052 301.284C273.383 300.929 272.833 300.455 272.401 299.862C271.978 299.27 271.661 298.61 271.449 297.882C271.246 297.146 271.145 296.401 271.145 295.647C271.145 294.767 271.267 293.942 271.513 293.172C271.758 292.402 272.122 291.725 272.604 291.141C273.087 290.548 273.684 290.087 274.395 289.757C275.114 289.427 275.943 289.262 276.883 289.262C277.941 289.262 278.842 289.473 279.587 289.896C280.332 290.32 280.937 290.887 281.402 291.598C281.876 292.309 282.223 293.108 282.443 293.997C282.663 294.886 282.773 295.8 282.773 296.739V297.59C282.773 298.546 282.71 299.52 282.583 300.51C282.465 301.492 282.232 302.431 281.885 303.328C281.546 304.225 281.051 305.029 280.399 305.74C279.748 306.443 278.897 307.001 277.848 307.416C276.807 307.822 275.52 308.025 273.988 308.025H273.747V306.032ZM298.147 306.07V308H286.049V306.312L292.104 299.57C292.849 298.741 293.425 298.038 293.831 297.463C294.246 296.879 294.534 296.358 294.694 295.901C294.864 295.436 294.948 294.962 294.948 294.479C294.948 293.87 294.821 293.32 294.567 292.829C294.322 292.33 293.958 291.932 293.476 291.636C292.993 291.34 292.409 291.191 291.724 291.191C290.903 291.191 290.217 291.352 289.667 291.674C289.125 291.987 288.719 292.427 288.448 292.994C288.177 293.561 288.042 294.213 288.042 294.949H285.693C285.693 293.908 285.922 292.956 286.379 292.093C286.836 291.229 287.513 290.544 288.41 290.036C289.307 289.52 290.412 289.262 291.724 289.262C292.892 289.262 293.89 289.469 294.72 289.884C295.549 290.29 296.184 290.866 296.624 291.61C297.073 292.347 297.297 293.21 297.297 294.2C297.297 294.742 297.204 295.292 297.018 295.851C296.84 296.401 296.59 296.951 296.269 297.501C295.955 298.051 295.587 298.593 295.164 299.126C294.749 299.659 294.305 300.184 293.831 300.7L288.88 306.07H298.147Z" fill="#041746"/>
<path d="M398.425 289.49H398.628V291.483H398.425C397.181 291.483 396.14 291.687 395.302 292.093C394.464 292.491 393.799 293.028 393.309 293.705C392.818 294.374 392.462 295.127 392.242 295.965C392.031 296.803 391.925 297.653 391.925 298.517V301.233C391.925 302.054 392.022 302.782 392.217 303.417C392.411 304.043 392.678 304.572 393.017 305.004C393.355 305.436 393.736 305.761 394.159 305.981C394.591 306.201 395.039 306.312 395.505 306.312C396.047 306.312 396.529 306.21 396.952 306.007C397.375 305.795 397.731 305.503 398.019 305.131C398.315 304.75 398.539 304.301 398.691 303.785C398.844 303.269 398.92 302.702 398.92 302.084C398.92 301.534 398.852 301.005 398.717 300.497C398.581 299.981 398.374 299.524 398.095 299.126C397.815 298.72 397.464 298.402 397.041 298.174C396.626 297.937 396.131 297.818 395.556 297.818C394.904 297.818 394.295 297.979 393.728 298.301C393.169 298.614 392.708 299.029 392.344 299.545C391.988 300.053 391.785 300.607 391.734 301.208L390.49 301.195C390.609 300.247 390.829 299.439 391.15 298.771C391.48 298.093 391.887 297.543 392.369 297.12C392.86 296.688 393.406 296.375 394.007 296.181C394.616 295.978 395.259 295.876 395.937 295.876C396.859 295.876 397.655 296.049 398.323 296.396C398.992 296.743 399.542 297.209 399.974 297.793C400.405 298.368 400.723 299.02 400.926 299.748C401.137 300.467 401.243 301.208 401.243 301.97C401.243 302.841 401.12 303.658 400.875 304.42C400.63 305.182 400.261 305.85 399.771 306.426C399.288 307.001 398.691 307.45 397.98 307.771C397.27 308.093 396.444 308.254 395.505 308.254C394.506 308.254 393.634 308.051 392.89 307.645C392.145 307.23 391.527 306.68 391.036 305.994C390.545 305.309 390.177 304.547 389.932 303.709C389.686 302.871 389.563 302.021 389.563 301.157V300.053C389.563 298.749 389.695 297.471 389.957 296.219C390.219 294.966 390.672 293.832 391.315 292.816C391.967 291.801 392.868 290.993 394.02 290.392C395.171 289.791 396.639 289.49 398.425 289.49ZM407.007 299.202L405.128 298.72L406.055 289.516H415.538V291.687H408.048L407.489 296.714C407.828 296.519 408.255 296.337 408.771 296.168C409.296 295.999 409.897 295.914 410.574 295.914C411.429 295.914 412.195 296.062 412.872 296.358C413.549 296.646 414.125 297.061 414.599 297.603C415.081 298.144 415.449 298.796 415.703 299.558C415.957 300.319 416.084 301.17 416.084 302.109C416.084 302.998 415.961 303.815 415.716 304.56C415.479 305.304 415.119 305.956 414.637 306.515C414.154 307.065 413.545 307.492 412.809 307.797C412.081 308.102 411.222 308.254 410.231 308.254C409.487 308.254 408.78 308.152 408.111 307.949C407.451 307.738 406.859 307.42 406.334 306.997C405.818 306.565 405.395 306.032 405.064 305.397C404.743 304.754 404.54 304.001 404.455 303.138H406.689C406.791 303.832 406.994 304.416 407.299 304.89C407.604 305.364 408.001 305.723 408.492 305.969C408.992 306.206 409.571 306.324 410.231 306.324C410.79 306.324 411.285 306.227 411.717 306.032C412.148 305.838 412.512 305.558 412.809 305.194C413.105 304.83 413.329 304.39 413.481 303.874C413.642 303.358 413.723 302.778 413.723 302.135C413.723 301.551 413.642 301.009 413.481 300.51C413.321 300.01 413.079 299.575 412.758 299.202C412.445 298.83 412.06 298.542 411.603 298.339C411.146 298.127 410.621 298.021 410.028 298.021C409.241 298.021 408.645 298.127 408.238 298.339C407.84 298.55 407.43 298.838 407.007 299.202Z" fill="#041746"/>
<path d="M505.817 289.414V308H503.469V292.347L498.733 294.073V291.953L505.449 289.414H505.817ZM515.694 299.202L513.815 298.72L514.742 289.516H524.226V291.687H516.735L516.177 296.714C516.515 296.519 516.943 296.337 517.459 296.168C517.984 295.999 518.585 295.914 519.262 295.914C520.117 295.914 520.882 296.062 521.56 296.358C522.237 296.646 522.812 297.061 523.286 297.603C523.769 298.144 524.137 298.796 524.391 299.558C524.645 300.319 524.771 301.17 524.771 302.109C524.771 302.998 524.649 303.815 524.403 304.56C524.166 305.304 523.807 305.956 523.324 306.515C522.842 307.065 522.232 307.492 521.496 307.797C520.768 308.102 519.909 308.254 518.919 308.254C518.174 308.254 517.467 308.152 516.799 307.949C516.139 307.738 515.546 307.42 515.021 306.997C514.505 306.565 514.082 306.032 513.752 305.397C513.43 304.754 513.227 304.001 513.143 303.138H515.377C515.479 303.832 515.682 304.416 515.986 304.89C516.291 305.364 516.689 305.723 517.18 305.969C517.679 306.206 518.259 306.324 518.919 306.324C519.478 306.324 519.973 306.227 520.404 306.032C520.836 305.838 521.2 305.558 521.496 305.194C521.792 304.83 522.017 304.39 522.169 303.874C522.33 303.358 522.41 302.778 522.41 302.135C522.41 301.551 522.33 301.009 522.169 300.51C522.008 300.01 521.767 299.575 521.445 299.202C521.132 298.83 520.747 298.542 520.29 298.339C519.833 298.127 519.308 298.021 518.716 298.021C517.929 298.021 517.332 298.127 516.926 298.339C516.528 298.55 516.118 298.838 515.694 299.202ZM539.295 289.516V290.836L531.64 308H529.164L536.807 291.445H526.803V289.516H539.295Z" fill="#041746"/>
<path d="M268.457 152.711C268.887 152.711 269.284 152.623 269.648 152.447C270.013 152.271 270.312 152.031 270.547 151.725C270.781 151.412 270.915 151.057 270.947 150.66H272.666C272.633 151.285 272.422 151.868 272.031 152.408C271.647 152.942 271.143 153.375 270.518 153.707C269.893 154.033 269.206 154.195 268.457 154.195C267.663 154.195 266.969 154.055 266.377 153.775C265.791 153.495 265.303 153.111 264.912 152.623C264.528 152.135 264.238 151.575 264.043 150.943C263.854 150.305 263.76 149.632 263.76 148.922V148.512C263.76 147.802 263.854 147.132 264.043 146.5C264.238 145.862 264.528 145.299 264.912 144.811C265.303 144.322 265.791 143.938 266.377 143.658C266.969 143.378 267.663 143.238 268.457 143.238C269.284 143.238 270.007 143.408 270.625 143.746C271.243 144.078 271.729 144.534 272.08 145.113C272.438 145.686 272.633 146.337 272.666 147.066H270.947C270.915 146.63 270.791 146.236 270.576 145.885C270.368 145.533 270.081 145.253 269.717 145.045C269.359 144.83 268.939 144.723 268.457 144.723C267.904 144.723 267.438 144.833 267.061 145.055C266.689 145.27 266.393 145.562 266.172 145.934C265.957 146.298 265.801 146.705 265.703 147.154C265.612 147.597 265.566 148.049 265.566 148.512V148.922C265.566 149.384 265.612 149.84 265.703 150.289C265.794 150.738 265.947 151.145 266.162 151.51C266.383 151.874 266.68 152.167 267.051 152.389C267.428 152.604 267.897 152.711 268.457 152.711ZM274.219 148.834V148.609C274.219 147.848 274.329 147.141 274.551 146.49C274.772 145.833 275.091 145.263 275.508 144.781C275.924 144.293 276.429 143.915 277.021 143.648C277.614 143.375 278.278 143.238 279.014 143.238C279.756 143.238 280.423 143.375 281.016 143.648C281.615 143.915 282.122 144.293 282.539 144.781C282.962 145.263 283.285 145.833 283.506 146.49C283.727 147.141 283.838 147.848 283.838 148.609V148.834C283.838 149.596 283.727 150.302 283.506 150.953C283.285 151.604 282.962 152.174 282.539 152.662C282.122 153.144 281.618 153.521 281.025 153.795C280.439 154.062 279.775 154.195 279.033 154.195C278.291 154.195 277.624 154.062 277.031 153.795C276.439 153.521 275.931 153.144 275.508 152.662C275.091 152.174 274.772 151.604 274.551 150.953C274.329 150.302 274.219 149.596 274.219 148.834ZM276.025 148.609V148.834C276.025 149.361 276.087 149.859 276.211 150.328C276.335 150.79 276.52 151.201 276.768 151.559C277.021 151.917 277.337 152.2 277.715 152.408C278.092 152.61 278.532 152.711 279.033 152.711C279.528 152.711 279.961 152.61 280.332 152.408C280.71 152.2 281.022 151.917 281.27 151.559C281.517 151.201 281.702 150.79 281.826 150.328C281.956 149.859 282.021 149.361 282.021 148.834V148.609C282.021 148.089 281.956 147.597 281.826 147.135C281.702 146.666 281.514 146.253 281.26 145.895C281.012 145.53 280.7 145.243 280.322 145.035C279.951 144.827 279.515 144.723 279.014 144.723C278.519 144.723 278.083 144.827 277.705 145.035C277.334 145.243 277.021 145.53 276.768 145.895C276.52 146.253 276.335 146.666 276.211 147.135C276.087 147.597 276.025 148.089 276.025 148.609ZM287.91 139V154H286.104V139H287.91ZM287.48 148.316L286.729 148.287C286.735 147.564 286.842 146.897 287.051 146.285C287.259 145.667 287.552 145.13 287.93 144.674C288.307 144.218 288.757 143.867 289.277 143.619C289.805 143.365 290.387 143.238 291.025 143.238C291.546 143.238 292.015 143.31 292.432 143.453C292.848 143.59 293.203 143.811 293.496 144.117C293.796 144.423 294.023 144.82 294.18 145.309C294.336 145.79 294.414 146.38 294.414 147.076V154H292.598V147.057C292.598 146.503 292.516 146.061 292.354 145.729C292.191 145.39 291.953 145.146 291.641 144.996C291.328 144.84 290.944 144.762 290.488 144.762C290.039 144.762 289.629 144.856 289.258 145.045C288.893 145.234 288.577 145.494 288.311 145.826C288.05 146.158 287.845 146.539 287.695 146.969C287.552 147.392 287.48 147.841 287.48 148.316ZM296.641 148.834V148.609C296.641 147.848 296.751 147.141 296.973 146.49C297.194 145.833 297.513 145.263 297.93 144.781C298.346 144.293 298.851 143.915 299.443 143.648C300.036 143.375 300.7 143.238 301.436 143.238C302.178 143.238 302.845 143.375 303.438 143.648C304.036 143.915 304.544 144.293 304.961 144.781C305.384 145.263 305.706 145.833 305.928 146.49C306.149 147.141 306.26 147.848 306.26 148.609V148.834C306.26 149.596 306.149 150.302 305.928 150.953C305.706 151.604 305.384 152.174 304.961 152.662C304.544 153.144 304.04 153.521 303.447 153.795C302.861 154.062 302.197 154.195 301.455 154.195C300.713 154.195 300.046 154.062 299.453 153.795C298.861 153.521 298.353 153.144 297.93 152.662C297.513 152.174 297.194 151.604 296.973 150.953C296.751 150.302 296.641 149.596 296.641 148.834ZM298.447 148.609V148.834C298.447 149.361 298.509 149.859 298.633 150.328C298.757 150.79 298.942 151.201 299.189 151.559C299.443 151.917 299.759 152.2 300.137 152.408C300.514 152.61 300.954 152.711 301.455 152.711C301.95 152.711 302.383 152.61 302.754 152.408C303.132 152.2 303.444 151.917 303.691 151.559C303.939 151.201 304.124 150.79 304.248 150.328C304.378 149.859 304.443 149.361 304.443 148.834V148.609C304.443 148.089 304.378 147.597 304.248 147.135C304.124 146.666 303.936 146.253 303.682 145.895C303.434 145.53 303.122 145.243 302.744 145.035C302.373 144.827 301.937 144.723 301.436 144.723C300.941 144.723 300.505 144.827 300.127 145.035C299.756 145.243 299.443 145.53 299.189 145.895C298.942 146.253 298.757 146.666 298.633 147.135C298.509 147.597 298.447 148.089 298.447 148.609Z" fill="white"/>
<path d="M113.207 243V258H111.4V243H113.207ZM112.777 252.316L112.025 252.287C112.032 251.564 112.139 250.897 112.348 250.285C112.556 249.667 112.849 249.13 113.227 248.674C113.604 248.218 114.053 247.867 114.574 247.619C115.102 247.365 115.684 247.238 116.322 247.238C116.843 247.238 117.312 247.31 117.729 247.453C118.145 247.59 118.5 247.811 118.793 248.117C119.092 248.423 119.32 248.82 119.477 249.309C119.633 249.79 119.711 250.38 119.711 251.076V258H117.895V251.057C117.895 250.503 117.813 250.061 117.65 249.729C117.488 249.39 117.25 249.146 116.938 248.996C116.625 248.84 116.241 248.762 115.785 248.762C115.336 248.762 114.926 248.856 114.555 249.045C114.19 249.234 113.874 249.494 113.607 249.826C113.347 250.158 113.142 250.539 112.992 250.969C112.849 251.392 112.777 251.841 112.777 252.316ZM128.646 256.193V250.754C128.646 250.337 128.562 249.976 128.393 249.67C128.23 249.357 127.982 249.117 127.65 248.947C127.318 248.778 126.908 248.693 126.42 248.693C125.964 248.693 125.564 248.771 125.219 248.928C124.88 249.084 124.613 249.289 124.418 249.543C124.229 249.797 124.135 250.07 124.135 250.363H122.328C122.328 249.986 122.426 249.611 122.621 249.24C122.816 248.869 123.096 248.534 123.461 248.234C123.832 247.928 124.275 247.688 124.789 247.512C125.31 247.329 125.889 247.238 126.527 247.238C127.296 247.238 127.973 247.368 128.559 247.629C129.151 247.889 129.613 248.283 129.945 248.811C130.284 249.331 130.453 249.986 130.453 250.773V255.695C130.453 256.047 130.482 256.421 130.541 256.818C130.606 257.215 130.701 257.557 130.824 257.844V258H128.939C128.848 257.792 128.777 257.515 128.725 257.17C128.673 256.818 128.646 256.493 128.646 256.193ZM128.959 251.594L128.979 252.863H127.152C126.638 252.863 126.179 252.906 125.775 252.99C125.372 253.068 125.033 253.189 124.76 253.352C124.486 253.514 124.278 253.719 124.135 253.967C123.992 254.208 123.92 254.491 123.92 254.816C123.92 255.148 123.995 255.451 124.145 255.725C124.294 255.998 124.519 256.216 124.818 256.379C125.124 256.535 125.499 256.613 125.941 256.613C126.495 256.613 126.983 256.496 127.406 256.262C127.829 256.027 128.165 255.741 128.412 255.402C128.666 255.064 128.803 254.735 128.822 254.416L129.594 255.285C129.548 255.559 129.424 255.861 129.223 256.193C129.021 256.525 128.751 256.844 128.412 257.15C128.08 257.45 127.683 257.701 127.221 257.902C126.765 258.098 126.251 258.195 125.678 258.195C124.962 258.195 124.333 258.055 123.793 257.775C123.259 257.495 122.842 257.121 122.543 256.652C122.25 256.177 122.104 255.646 122.104 255.061C122.104 254.494 122.214 253.996 122.436 253.566C122.657 253.13 122.976 252.769 123.393 252.482C123.809 252.189 124.311 251.968 124.896 251.818C125.482 251.669 126.137 251.594 126.859 251.594H128.959ZM137.719 247.434V248.82H132.006V247.434H137.719ZM133.939 244.865H135.746V255.383C135.746 255.741 135.801 256.011 135.912 256.193C136.023 256.376 136.166 256.496 136.342 256.555C136.518 256.613 136.706 256.643 136.908 256.643C137.058 256.643 137.214 256.63 137.377 256.604C137.546 256.571 137.673 256.545 137.758 256.525L137.768 258C137.624 258.046 137.436 258.088 137.201 258.127C136.973 258.173 136.697 258.195 136.371 258.195C135.928 258.195 135.521 258.107 135.15 257.932C134.779 257.756 134.483 257.463 134.262 257.053C134.047 256.636 133.939 256.076 133.939 255.373V244.865ZM144.066 256.711C144.496 256.711 144.893 256.623 145.258 256.447C145.622 256.271 145.922 256.031 146.156 255.725C146.391 255.412 146.524 255.057 146.557 254.66H148.275C148.243 255.285 148.031 255.868 147.641 256.408C147.257 256.942 146.752 257.375 146.127 257.707C145.502 258.033 144.815 258.195 144.066 258.195C143.272 258.195 142.579 258.055 141.986 257.775C141.4 257.495 140.912 257.111 140.521 256.623C140.137 256.135 139.848 255.575 139.652 254.943C139.464 254.305 139.369 253.632 139.369 252.922V252.512C139.369 251.802 139.464 251.132 139.652 250.5C139.848 249.862 140.137 249.299 140.521 248.811C140.912 248.322 141.4 247.938 141.986 247.658C142.579 247.378 143.272 247.238 144.066 247.238C144.893 247.238 145.616 247.408 146.234 247.746C146.853 248.078 147.338 248.534 147.689 249.113C148.048 249.686 148.243 250.337 148.275 251.066H146.557C146.524 250.63 146.4 250.236 146.186 249.885C145.977 249.533 145.691 249.253 145.326 249.045C144.968 248.83 144.548 248.723 144.066 248.723C143.513 248.723 143.048 248.833 142.67 249.055C142.299 249.27 142.003 249.562 141.781 249.934C141.566 250.298 141.41 250.705 141.312 251.154C141.221 251.597 141.176 252.049 141.176 252.512V252.922C141.176 253.384 141.221 253.84 141.312 254.289C141.404 254.738 141.557 255.145 141.771 255.51C141.993 255.874 142.289 256.167 142.66 256.389C143.038 256.604 143.507 256.711 144.066 256.711ZM152.113 243V258H150.307V243H152.113ZM151.684 252.316L150.932 252.287C150.938 251.564 151.046 250.897 151.254 250.285C151.462 249.667 151.755 249.13 152.133 248.674C152.51 248.218 152.96 247.867 153.48 247.619C154.008 247.365 154.59 247.238 155.229 247.238C155.749 247.238 156.218 247.31 156.635 247.453C157.051 247.59 157.406 247.811 157.699 248.117C157.999 248.423 158.227 248.82 158.383 249.309C158.539 249.79 158.617 250.38 158.617 251.076V258H156.801V251.057C156.801 250.503 156.719 250.061 156.557 249.729C156.394 249.39 156.156 249.146 155.844 248.996C155.531 248.84 155.147 248.762 154.691 248.762C154.242 248.762 153.832 248.856 153.461 249.045C153.096 249.234 152.781 249.494 152.514 249.826C152.253 250.158 152.048 250.539 151.898 250.969C151.755 251.392 151.684 251.841 151.684 252.316ZM165.707 258.195C164.971 258.195 164.304 258.072 163.705 257.824C163.113 257.57 162.602 257.215 162.172 256.76C161.749 256.304 161.423 255.764 161.195 255.139C160.967 254.514 160.854 253.83 160.854 253.088V252.678C160.854 251.818 160.98 251.053 161.234 250.383C161.488 249.706 161.833 249.133 162.27 248.664C162.706 248.195 163.201 247.84 163.754 247.6C164.307 247.359 164.88 247.238 165.473 247.238C166.228 247.238 166.879 247.368 167.426 247.629C167.979 247.889 168.432 248.254 168.783 248.723C169.135 249.185 169.395 249.732 169.564 250.363C169.734 250.988 169.818 251.672 169.818 252.414V253.225H161.928V251.75H168.012V251.613C167.986 251.145 167.888 250.689 167.719 250.246C167.556 249.803 167.296 249.439 166.938 249.152C166.579 248.866 166.091 248.723 165.473 248.723C165.062 248.723 164.685 248.811 164.34 248.986C163.995 249.156 163.699 249.41 163.451 249.748C163.204 250.087 163.012 250.5 162.875 250.988C162.738 251.477 162.67 252.04 162.67 252.678V253.088C162.67 253.589 162.738 254.061 162.875 254.504C163.018 254.94 163.223 255.324 163.49 255.656C163.764 255.988 164.092 256.249 164.477 256.438C164.867 256.626 165.31 256.721 165.805 256.721C166.443 256.721 166.983 256.59 167.426 256.33C167.868 256.07 168.256 255.721 168.588 255.285L169.682 256.154C169.454 256.499 169.164 256.828 168.812 257.141C168.461 257.453 168.028 257.707 167.514 257.902C167.006 258.098 166.404 258.195 165.707 258.195ZM173.734 249.094V258H171.928V247.434H173.686L173.734 249.094ZM177.035 247.375L177.025 249.055C176.876 249.022 176.732 249.003 176.596 248.996C176.465 248.983 176.316 248.977 176.146 248.977C175.73 248.977 175.362 249.042 175.043 249.172C174.724 249.302 174.454 249.484 174.232 249.719C174.011 249.953 173.835 250.233 173.705 250.559C173.581 250.878 173.5 251.229 173.461 251.613L172.953 251.906C172.953 251.268 173.015 250.669 173.139 250.109C173.269 249.549 173.467 249.055 173.734 248.625C174.001 248.189 174.34 247.85 174.75 247.609C175.167 247.362 175.661 247.238 176.234 247.238C176.365 247.238 176.514 247.255 176.684 247.287C176.853 247.313 176.97 247.342 177.035 247.375ZM181.85 256.906L184.789 247.434H186.723L182.484 259.631C182.387 259.891 182.257 260.171 182.094 260.471C181.938 260.777 181.736 261.066 181.488 261.34C181.241 261.613 180.941 261.835 180.59 262.004C180.245 262.18 179.831 262.268 179.35 262.268C179.206 262.268 179.024 262.248 178.803 262.209C178.581 262.17 178.425 262.137 178.334 262.111L178.324 260.646C178.376 260.653 178.458 260.66 178.568 260.666C178.686 260.679 178.767 260.686 178.812 260.686C179.223 260.686 179.571 260.63 179.857 260.52C180.144 260.415 180.385 260.236 180.58 259.982C180.782 259.735 180.954 259.393 181.098 258.957L181.85 256.906ZM179.691 247.434L182.436 255.637L182.904 257.541L181.605 258.205L177.719 247.434H179.691Z" fill="white"/>
<path d="M135.025 209.125L137.74 200.434H138.932L138.697 202.162L135.934 211H134.771L135.025 209.125ZM133.199 200.434L135.514 209.223L135.68 211H134.459L131.393 200.434H133.199ZM141.529 209.154L143.736 200.434H145.533L142.467 211H141.256L141.529 209.154ZM139.195 200.434L141.852 208.979L142.154 211H141.002L138.16 202.143L137.926 200.434H139.195ZM149.352 200.434V211H147.535V200.434H149.352ZM147.398 197.631C147.398 197.338 147.486 197.09 147.662 196.889C147.844 196.687 148.111 196.586 148.463 196.586C148.808 196.586 149.072 196.687 149.254 196.889C149.443 197.09 149.537 197.338 149.537 197.631C149.537 197.911 149.443 198.152 149.254 198.354C149.072 198.549 148.808 198.646 148.463 198.646C148.111 198.646 147.844 198.549 147.662 198.354C147.486 198.152 147.398 197.911 147.398 197.631ZM154.215 196V211H152.398V196H154.215ZM163.775 208.949V196H165.592V211H163.932L163.775 208.949ZM156.666 205.834V205.629C156.666 204.822 156.764 204.089 156.959 203.432C157.161 202.768 157.444 202.198 157.809 201.723C158.18 201.247 158.619 200.883 159.127 200.629C159.641 200.368 160.214 200.238 160.846 200.238C161.51 200.238 162.089 200.355 162.584 200.59C163.085 200.818 163.508 201.153 163.854 201.596C164.205 202.032 164.482 202.559 164.684 203.178C164.885 203.796 165.025 204.496 165.104 205.277V206.176C165.032 206.951 164.892 207.647 164.684 208.266C164.482 208.884 164.205 209.411 163.854 209.848C163.508 210.284 163.085 210.619 162.584 210.854C162.083 211.081 161.497 211.195 160.826 211.195C160.208 211.195 159.641 211.062 159.127 210.795C158.619 210.528 158.18 210.154 157.809 209.672C157.444 209.19 157.161 208.624 156.959 207.973C156.764 207.315 156.666 206.602 156.666 205.834ZM158.482 205.629V205.834C158.482 206.361 158.535 206.856 158.639 207.318C158.749 207.781 158.919 208.188 159.146 208.539C159.374 208.891 159.664 209.167 160.016 209.369C160.367 209.564 160.787 209.662 161.275 209.662C161.874 209.662 162.366 209.535 162.75 209.281C163.141 209.027 163.453 208.692 163.688 208.275C163.922 207.859 164.104 207.406 164.234 206.918V204.564C164.156 204.206 164.042 203.861 163.893 203.529C163.749 203.191 163.561 202.891 163.326 202.631C163.098 202.364 162.815 202.152 162.477 201.996C162.145 201.84 161.751 201.762 161.295 201.762C160.8 201.762 160.374 201.866 160.016 202.074C159.664 202.276 159.374 202.556 159.146 202.914C158.919 203.266 158.749 203.676 158.639 204.145C158.535 204.607 158.482 205.102 158.482 205.629Z" fill="white"/>
<path d="M371.75 151.197C371.75 150.937 371.691 150.696 371.574 150.475C371.464 150.247 371.232 150.042 370.881 149.859C370.536 149.671 370.015 149.508 369.318 149.371C368.732 149.247 368.202 149.101 367.727 148.932C367.258 148.762 366.857 148.557 366.525 148.316C366.2 148.076 365.949 147.792 365.773 147.467C365.598 147.141 365.51 146.76 365.51 146.324C365.51 145.908 365.601 145.514 365.783 145.143C365.972 144.771 366.236 144.443 366.574 144.156C366.919 143.87 367.333 143.645 367.814 143.482C368.296 143.32 368.833 143.238 369.426 143.238C370.272 143.238 370.995 143.388 371.594 143.688C372.193 143.987 372.652 144.387 372.971 144.889C373.29 145.383 373.449 145.934 373.449 146.539H371.643C371.643 146.246 371.555 145.963 371.379 145.689C371.21 145.41 370.959 145.178 370.627 144.996C370.301 144.814 369.901 144.723 369.426 144.723C368.924 144.723 368.518 144.801 368.205 144.957C367.899 145.107 367.674 145.299 367.531 145.533C367.395 145.768 367.326 146.015 367.326 146.275C367.326 146.471 367.359 146.646 367.424 146.803C367.495 146.952 367.619 147.092 367.795 147.223C367.971 147.346 368.218 147.464 368.537 147.574C368.856 147.685 369.263 147.796 369.758 147.906C370.624 148.102 371.337 148.336 371.896 148.609C372.456 148.883 372.873 149.218 373.146 149.615C373.42 150.012 373.557 150.494 373.557 151.061C373.557 151.523 373.459 151.946 373.264 152.33C373.075 152.714 372.798 153.046 372.434 153.326C372.076 153.6 371.646 153.814 371.145 153.971C370.65 154.12 370.093 154.195 369.475 154.195C368.544 154.195 367.756 154.029 367.111 153.697C366.467 153.365 365.979 152.936 365.646 152.408C365.314 151.881 365.148 151.324 365.148 150.738H366.965C366.991 151.233 367.134 151.627 367.395 151.92C367.655 152.206 367.974 152.411 368.352 152.535C368.729 152.652 369.104 152.711 369.475 152.711C369.969 152.711 370.383 152.646 370.715 152.516C371.053 152.385 371.311 152.206 371.486 151.979C371.662 151.751 371.75 151.49 371.75 151.197ZM375.451 148.834V148.609C375.451 147.848 375.562 147.141 375.783 146.49C376.005 145.833 376.324 145.263 376.74 144.781C377.157 144.293 377.661 143.915 378.254 143.648C378.846 143.375 379.51 143.238 380.246 143.238C380.988 143.238 381.656 143.375 382.248 143.648C382.847 143.915 383.355 144.293 383.771 144.781C384.195 145.263 384.517 145.833 384.738 146.49C384.96 147.141 385.07 147.848 385.07 148.609V148.834C385.07 149.596 384.96 150.302 384.738 150.953C384.517 151.604 384.195 152.174 383.771 152.662C383.355 153.144 382.85 153.521 382.258 153.795C381.672 154.062 381.008 154.195 380.266 154.195C379.523 154.195 378.856 154.062 378.264 153.795C377.671 153.521 377.163 153.144 376.74 152.662C376.324 152.174 376.005 151.604 375.783 150.953C375.562 150.302 375.451 149.596 375.451 148.834ZM377.258 148.609V148.834C377.258 149.361 377.32 149.859 377.443 150.328C377.567 150.79 377.753 151.201 378 151.559C378.254 151.917 378.57 152.2 378.947 152.408C379.325 152.61 379.764 152.711 380.266 152.711C380.76 152.711 381.193 152.61 381.564 152.408C381.942 152.2 382.255 151.917 382.502 151.559C382.749 151.201 382.935 150.79 383.059 150.328C383.189 149.859 383.254 149.361 383.254 148.834V148.609C383.254 148.089 383.189 147.597 383.059 147.135C382.935 146.666 382.746 146.253 382.492 145.895C382.245 145.53 381.932 145.243 381.555 145.035C381.184 144.827 380.747 144.723 380.246 144.723C379.751 144.723 379.315 144.827 378.938 145.035C378.566 145.243 378.254 145.53 378 145.895C377.753 146.253 377.567 146.666 377.443 147.135C377.32 147.597 377.258 148.089 377.258 148.609ZM391.564 152.711C391.994 152.711 392.391 152.623 392.756 152.447C393.12 152.271 393.42 152.031 393.654 151.725C393.889 151.412 394.022 151.057 394.055 150.66H395.773C395.741 151.285 395.529 151.868 395.139 152.408C394.755 152.942 394.25 153.375 393.625 153.707C393 154.033 392.313 154.195 391.564 154.195C390.77 154.195 390.077 154.055 389.484 153.775C388.898 153.495 388.41 153.111 388.02 152.623C387.635 152.135 387.346 151.575 387.15 150.943C386.962 150.305 386.867 149.632 386.867 148.922V148.512C386.867 147.802 386.962 147.132 387.15 146.5C387.346 145.862 387.635 145.299 388.02 144.811C388.41 144.322 388.898 143.938 389.484 143.658C390.077 143.378 390.77 143.238 391.564 143.238C392.391 143.238 393.114 143.408 393.732 143.746C394.351 144.078 394.836 144.534 395.188 145.113C395.546 145.686 395.741 146.337 395.773 147.066H394.055C394.022 146.63 393.898 146.236 393.684 145.885C393.475 145.533 393.189 145.253 392.824 145.045C392.466 144.83 392.046 144.723 391.564 144.723C391.011 144.723 390.546 144.833 390.168 145.055C389.797 145.27 389.501 145.562 389.279 145.934C389.064 146.298 388.908 146.705 388.811 147.154C388.719 147.597 388.674 148.049 388.674 148.512V148.922C388.674 149.384 388.719 149.84 388.811 150.289C388.902 150.738 389.055 151.145 389.27 151.51C389.491 151.874 389.787 152.167 390.158 152.389C390.536 152.604 391.005 152.711 391.564 152.711ZM399.621 139V154H397.805V139H399.621ZM406.076 143.434L401.467 148.365L398.889 151.041L398.742 149.117L400.588 146.91L403.869 143.434H406.076ZM404.426 154L400.656 148.961L401.594 147.35L406.555 154H404.426ZM412.131 154.195C411.395 154.195 410.728 154.072 410.129 153.824C409.536 153.57 409.025 153.215 408.596 152.76C408.173 152.304 407.847 151.764 407.619 151.139C407.391 150.514 407.277 149.83 407.277 149.088V148.678C407.277 147.818 407.404 147.053 407.658 146.383C407.912 145.706 408.257 145.133 408.693 144.664C409.13 144.195 409.624 143.84 410.178 143.6C410.731 143.359 411.304 143.238 411.896 143.238C412.652 143.238 413.303 143.368 413.85 143.629C414.403 143.889 414.855 144.254 415.207 144.723C415.559 145.185 415.819 145.732 415.988 146.363C416.158 146.988 416.242 147.672 416.242 148.414V149.225H408.352V147.75H414.436V147.613C414.41 147.145 414.312 146.689 414.143 146.246C413.98 145.803 413.719 145.439 413.361 145.152C413.003 144.866 412.515 144.723 411.896 144.723C411.486 144.723 411.109 144.811 410.764 144.986C410.419 145.156 410.122 145.41 409.875 145.748C409.628 146.087 409.436 146.5 409.299 146.988C409.162 147.477 409.094 148.04 409.094 148.678V149.088C409.094 149.589 409.162 150.061 409.299 150.504C409.442 150.94 409.647 151.324 409.914 151.656C410.188 151.988 410.516 152.249 410.9 152.438C411.291 152.626 411.734 152.721 412.229 152.721C412.867 152.721 413.407 152.59 413.85 152.33C414.292 152.07 414.68 151.721 415.012 151.285L416.105 152.154C415.878 152.499 415.588 152.828 415.236 153.141C414.885 153.453 414.452 153.707 413.938 153.902C413.43 154.098 412.827 154.195 412.131 154.195ZM421.184 152.906L424.123 143.434H426.057L421.818 155.631C421.721 155.891 421.59 156.171 421.428 156.471C421.271 156.777 421.07 157.066 420.822 157.34C420.575 157.613 420.275 157.835 419.924 158.004C419.579 158.18 419.165 158.268 418.684 158.268C418.54 158.268 418.358 158.248 418.137 158.209C417.915 158.17 417.759 158.137 417.668 158.111L417.658 156.646C417.71 156.653 417.792 156.66 417.902 156.666C418.02 156.679 418.101 156.686 418.146 156.686C418.557 156.686 418.905 156.63 419.191 156.52C419.478 156.415 419.719 156.236 419.914 155.982C420.116 155.735 420.288 155.393 420.432 154.957L421.184 152.906ZM419.025 143.434L421.77 151.637L422.238 153.541L420.939 154.205L417.053 143.434H419.025ZM431.936 154.195C431.2 154.195 430.533 154.072 429.934 153.824C429.341 153.57 428.83 153.215 428.4 152.76C427.977 152.304 427.652 151.764 427.424 151.139C427.196 150.514 427.082 149.83 427.082 149.088V148.678C427.082 147.818 427.209 147.053 427.463 146.383C427.717 145.706 428.062 145.133 428.498 144.664C428.934 144.195 429.429 143.84 429.982 143.6C430.536 143.359 431.109 143.238 431.701 143.238C432.456 143.238 433.107 143.368 433.654 143.629C434.208 143.889 434.66 144.254 435.012 144.723C435.363 145.185 435.624 145.732 435.793 146.363C435.962 146.988 436.047 147.672 436.047 148.414V149.225H428.156V147.75H434.24V147.613C434.214 147.145 434.117 146.689 433.947 146.246C433.785 145.803 433.524 145.439 433.166 145.152C432.808 144.866 432.32 144.723 431.701 144.723C431.291 144.723 430.913 144.811 430.568 144.986C430.223 145.156 429.927 145.41 429.68 145.748C429.432 146.087 429.24 146.5 429.104 146.988C428.967 147.477 428.898 148.04 428.898 148.678V149.088C428.898 149.589 428.967 150.061 429.104 150.504C429.247 150.94 429.452 151.324 429.719 151.656C429.992 151.988 430.321 152.249 430.705 152.438C431.096 152.626 431.538 152.721 432.033 152.721C432.671 152.721 433.212 152.59 433.654 152.33C434.097 152.07 434.484 151.721 434.816 151.285L435.91 152.154C435.682 152.499 435.393 152.828 435.041 153.141C434.689 153.453 434.257 153.707 433.742 153.902C433.234 154.098 432.632 154.195 431.936 154.195Z" fill="white"/>
<path d="M503.781 143.434V144.82H498.068V143.434H503.781ZM500.002 140.865H501.809V151.383C501.809 151.741 501.864 152.011 501.975 152.193C502.085 152.376 502.229 152.496 502.404 152.555C502.58 152.613 502.769 152.643 502.971 152.643C503.12 152.643 503.277 152.63 503.439 152.604C503.609 152.571 503.736 152.545 503.82 152.525L503.83 154C503.687 154.046 503.498 154.088 503.264 154.127C503.036 154.173 502.759 154.195 502.434 154.195C501.991 154.195 501.584 154.107 501.213 153.932C500.842 153.756 500.546 153.463 500.324 153.053C500.109 152.636 500.002 152.076 500.002 151.373V140.865ZM505.227 148.834V148.609C505.227 147.848 505.337 147.141 505.559 146.49C505.78 145.833 506.099 145.263 506.516 144.781C506.932 144.293 507.437 143.915 508.029 143.648C508.622 143.375 509.286 143.238 510.021 143.238C510.764 143.238 511.431 143.375 512.023 143.648C512.622 143.915 513.13 144.293 513.547 144.781C513.97 145.263 514.292 145.833 514.514 146.49C514.735 147.141 514.846 147.848 514.846 148.609V148.834C514.846 149.596 514.735 150.302 514.514 150.953C514.292 151.604 513.97 152.174 513.547 152.662C513.13 153.144 512.626 153.521 512.033 153.795C511.447 154.062 510.783 154.195 510.041 154.195C509.299 154.195 508.632 154.062 508.039 153.795C507.447 153.521 506.939 153.144 506.516 152.662C506.099 152.174 505.78 151.604 505.559 150.953C505.337 150.302 505.227 149.596 505.227 148.834ZM507.033 148.609V148.834C507.033 149.361 507.095 149.859 507.219 150.328C507.342 150.79 507.528 151.201 507.775 151.559C508.029 151.917 508.345 152.2 508.723 152.408C509.1 152.61 509.54 152.711 510.041 152.711C510.536 152.711 510.969 152.61 511.34 152.408C511.717 152.2 512.03 151.917 512.277 151.559C512.525 151.201 512.71 150.79 512.834 150.328C512.964 149.859 513.029 149.361 513.029 148.834V148.609C513.029 148.089 512.964 147.597 512.834 147.135C512.71 146.666 512.521 146.253 512.268 145.895C512.02 145.53 511.708 145.243 511.33 145.035C510.959 144.827 510.523 144.723 510.021 144.723C509.527 144.723 509.09 144.827 508.713 145.035C508.342 145.243 508.029 145.53 507.775 145.895C507.528 146.253 507.342 146.666 507.219 147.135C507.095 147.597 507.033 148.089 507.033 148.609ZM521.535 143.434V144.82H515.822V143.434H521.535ZM517.756 140.865H519.562V151.383C519.562 151.741 519.618 152.011 519.729 152.193C519.839 152.376 519.982 152.496 520.158 152.555C520.334 152.613 520.523 152.643 520.725 152.643C520.874 152.643 521.031 152.63 521.193 152.604C521.363 152.571 521.49 152.545 521.574 152.525L521.584 154C521.441 154.046 521.252 154.088 521.018 154.127C520.79 154.173 520.513 154.195 520.188 154.195C519.745 154.195 519.338 154.107 518.967 153.932C518.596 153.756 518.299 153.463 518.078 153.053C517.863 152.636 517.756 152.076 517.756 151.373V140.865ZM529.885 152.193V146.754C529.885 146.337 529.8 145.976 529.631 145.67C529.468 145.357 529.221 145.117 528.889 144.947C528.557 144.778 528.146 144.693 527.658 144.693C527.202 144.693 526.802 144.771 526.457 144.928C526.118 145.084 525.852 145.289 525.656 145.543C525.467 145.797 525.373 146.07 525.373 146.363H523.566C523.566 145.986 523.664 145.611 523.859 145.24C524.055 144.869 524.335 144.534 524.699 144.234C525.07 143.928 525.513 143.688 526.027 143.512C526.548 143.329 527.128 143.238 527.766 143.238C528.534 143.238 529.211 143.368 529.797 143.629C530.389 143.889 530.852 144.283 531.184 144.811C531.522 145.331 531.691 145.986 531.691 146.773V151.695C531.691 152.047 531.721 152.421 531.779 152.818C531.844 153.215 531.939 153.557 532.062 153.844V154H530.178C530.087 153.792 530.015 153.515 529.963 153.17C529.911 152.818 529.885 152.493 529.885 152.193ZM530.197 147.594L530.217 148.863H528.391C527.876 148.863 527.417 148.906 527.014 148.99C526.61 149.068 526.271 149.189 525.998 149.352C525.725 149.514 525.516 149.719 525.373 149.967C525.23 150.208 525.158 150.491 525.158 150.816C525.158 151.148 525.233 151.451 525.383 151.725C525.533 151.998 525.757 152.216 526.057 152.379C526.363 152.535 526.737 152.613 527.18 152.613C527.733 152.613 528.221 152.496 528.645 152.262C529.068 152.027 529.403 151.741 529.65 151.402C529.904 151.064 530.041 150.735 530.061 150.416L530.832 151.285C530.786 151.559 530.663 151.861 530.461 152.193C530.259 152.525 529.989 152.844 529.65 153.15C529.318 153.45 528.921 153.701 528.459 153.902C528.003 154.098 527.489 154.195 526.916 154.195C526.2 154.195 525.572 154.055 525.031 153.775C524.497 153.495 524.081 153.121 523.781 152.652C523.488 152.177 523.342 151.646 523.342 151.061C523.342 150.494 523.452 149.996 523.674 149.566C523.895 149.13 524.214 148.769 524.631 148.482C525.048 148.189 525.549 147.968 526.135 147.818C526.721 147.669 527.375 147.594 528.098 147.594H530.197ZM536.496 139V154H534.68V139H536.496Z" fill="white"/>
<path d="M133.781 294.434V295.82H128.068V294.434H133.781ZM130.002 291.865H131.809V302.383C131.809 302.741 131.864 303.011 131.975 303.193C132.085 303.376 132.229 303.496 132.404 303.555C132.58 303.613 132.769 303.643 132.971 303.643C133.12 303.643 133.277 303.63 133.439 303.604C133.609 303.571 133.736 303.545 133.82 303.525L133.83 305C133.687 305.046 133.498 305.088 133.264 305.127C133.036 305.173 132.759 305.195 132.434 305.195C131.991 305.195 131.584 305.107 131.213 304.932C130.842 304.756 130.546 304.463 130.324 304.053C130.109 303.636 130.002 303.076 130.002 302.373V291.865ZM135.227 299.834V299.609C135.227 298.848 135.337 298.141 135.559 297.49C135.78 296.833 136.099 296.263 136.516 295.781C136.932 295.293 137.437 294.915 138.029 294.648C138.622 294.375 139.286 294.238 140.021 294.238C140.764 294.238 141.431 294.375 142.023 294.648C142.622 294.915 143.13 295.293 143.547 295.781C143.97 296.263 144.292 296.833 144.514 297.49C144.735 298.141 144.846 298.848 144.846 299.609V299.834C144.846 300.596 144.735 301.302 144.514 301.953C144.292 302.604 143.97 303.174 143.547 303.662C143.13 304.144 142.626 304.521 142.033 304.795C141.447 305.062 140.783 305.195 140.041 305.195C139.299 305.195 138.632 305.062 138.039 304.795C137.447 304.521 136.939 304.144 136.516 303.662C136.099 303.174 135.78 302.604 135.559 301.953C135.337 301.302 135.227 300.596 135.227 299.834ZM137.033 299.609V299.834C137.033 300.361 137.095 300.859 137.219 301.328C137.342 301.79 137.528 302.201 137.775 302.559C138.029 302.917 138.345 303.2 138.723 303.408C139.1 303.61 139.54 303.711 140.041 303.711C140.536 303.711 140.969 303.61 141.34 303.408C141.717 303.2 142.03 302.917 142.277 302.559C142.525 302.201 142.71 301.79 142.834 301.328C142.964 300.859 143.029 300.361 143.029 299.834V299.609C143.029 299.089 142.964 298.597 142.834 298.135C142.71 297.666 142.521 297.253 142.268 296.895C142.02 296.53 141.708 296.243 141.33 296.035C140.959 295.827 140.523 295.723 140.021 295.723C139.527 295.723 139.09 295.827 138.713 296.035C138.342 296.243 138.029 296.53 137.775 296.895C137.528 297.253 137.342 297.666 137.219 298.135C137.095 298.597 137.033 299.089 137.033 299.609ZM151.535 294.434V295.82H145.822V294.434H151.535ZM147.756 291.865H149.562V302.383C149.562 302.741 149.618 303.011 149.729 303.193C149.839 303.376 149.982 303.496 150.158 303.555C150.334 303.613 150.523 303.643 150.725 303.643C150.874 303.643 151.031 303.63 151.193 303.604C151.363 303.571 151.49 303.545 151.574 303.525L151.584 305C151.441 305.046 151.252 305.088 151.018 305.127C150.79 305.173 150.513 305.195 150.188 305.195C149.745 305.195 149.338 305.107 148.967 304.932C148.596 304.756 148.299 304.463 148.078 304.053C147.863 303.636 147.756 303.076 147.756 302.373V291.865ZM159.885 303.193V297.754C159.885 297.337 159.8 296.976 159.631 296.67C159.468 296.357 159.221 296.117 158.889 295.947C158.557 295.778 158.146 295.693 157.658 295.693C157.202 295.693 156.802 295.771 156.457 295.928C156.118 296.084 155.852 296.289 155.656 296.543C155.467 296.797 155.373 297.07 155.373 297.363H153.566C153.566 296.986 153.664 296.611 153.859 296.24C154.055 295.869 154.335 295.534 154.699 295.234C155.07 294.928 155.513 294.688 156.027 294.512C156.548 294.329 157.128 294.238 157.766 294.238C158.534 294.238 159.211 294.368 159.797 294.629C160.389 294.889 160.852 295.283 161.184 295.811C161.522 296.331 161.691 296.986 161.691 297.773V302.695C161.691 303.047 161.721 303.421 161.779 303.818C161.844 304.215 161.939 304.557 162.062 304.844V305H160.178C160.087 304.792 160.015 304.515 159.963 304.17C159.911 303.818 159.885 303.493 159.885 303.193ZM160.197 298.594L160.217 299.863H158.391C157.876 299.863 157.417 299.906 157.014 299.99C156.61 300.068 156.271 300.189 155.998 300.352C155.725 300.514 155.516 300.719 155.373 300.967C155.23 301.208 155.158 301.491 155.158 301.816C155.158 302.148 155.233 302.451 155.383 302.725C155.533 302.998 155.757 303.216 156.057 303.379C156.363 303.535 156.737 303.613 157.18 303.613C157.733 303.613 158.221 303.496 158.645 303.262C159.068 303.027 159.403 302.741 159.65 302.402C159.904 302.064 160.041 301.735 160.061 301.416L160.832 302.285C160.786 302.559 160.663 302.861 160.461 303.193C160.259 303.525 159.989 303.844 159.65 304.15C159.318 304.45 158.921 304.701 158.459 304.902C158.003 305.098 157.489 305.195 156.916 305.195C156.2 305.195 155.572 305.055 155.031 304.775C154.497 304.495 154.081 304.121 153.781 303.652C153.488 303.177 153.342 302.646 153.342 302.061C153.342 301.494 153.452 300.996 153.674 300.566C153.895 300.13 154.214 299.769 154.631 299.482C155.048 299.189 155.549 298.968 156.135 298.818C156.721 298.669 157.375 298.594 158.098 298.594H160.197ZM166.496 290V305H164.68V290H166.496Z" fill="white"/>
<rect x="462.5" y="182.5" width="112" height="43" stroke="#041746"/>
<path d="M95.4858 57.5L93.4602 57.5C93.3404 56.9174 93.1308 56.4055 92.8313 55.9645C92.5373 55.5234 92.1779 55.1532 91.7532 54.8537C91.3339 54.5488 90.8684 54.3201 90.3565 54.1676C89.8447 54.0152 89.3111 53.9389 88.7557 53.9389C87.7429 53.9389 86.8254 54.1948 86.0032 54.7067C85.1864 55.2185 84.5357 55.9727 84.0511 56.9691C83.572 57.9656 83.3324 59.188 83.3324 60.6364C83.3324 62.0848 83.572 63.3072 84.0511 64.3036C84.5357 65.3001 85.1864 66.0542 86.0032 66.5661C86.8254 67.0779 87.7429 67.3338 88.7557 67.3338C89.3111 67.3338 89.8447 67.2576 90.3565 67.1051C90.8684 66.9527 91.3339 66.7267 91.7532 66.4272C92.1779 66.1223 92.5373 65.7493 92.8313 65.3082C93.1308 64.8617 93.3404 64.3499 93.4602 63.7727L95.4858 63.7727C95.3333 64.6276 95.0556 65.3926 94.6527 66.0678C94.2498 66.743 93.7488 67.3175 93.1499 67.7912C92.5509 68.2595 91.8784 68.6161 91.1325 68.8612C90.3919 69.1062 89.5997 69.2287 88.7557 69.2287C87.3291 69.2287 86.0604 68.8802 84.9496 68.1832C83.8388 67.4863 82.9648 66.4953 82.3278 65.2102C81.6907 63.9252 81.3722 62.4006 81.3722 60.6364C81.3722 58.8722 81.6907 57.3475 82.3278 56.0625C82.9648 54.7775 83.8388 53.7865 84.9496 53.0895C86.0604 52.3925 87.3291 52.044 88.7557 52.044C89.5997 52.044 90.3919 52.1665 91.1325 52.4116C91.8784 52.6566 92.5509 53.016 93.1499 53.4897C93.7488 53.958 94.2498 54.5297 94.6527 55.2049C95.0556 55.8746 95.3333 56.6397 95.4858 57.5ZM103.594 69.2614C102.462 69.2614 101.468 68.9918 100.613 68.4528C99.7636 67.9137 99.0993 67.1596 98.6201 66.1903C98.1464 65.2211 97.9095 64.0885 97.9095 62.7926C97.9095 61.4858 98.1464 60.3451 98.6201 59.3704C99.0993 58.3957 99.7636 57.6388 100.613 57.0998C101.468 56.5607 102.462 56.2912 103.594 56.2912C104.727 56.2912 105.718 56.5607 106.567 57.0998C107.422 57.6388 108.086 58.3957 108.56 59.3704C109.039 60.3451 109.279 61.4858 109.279 62.7926C109.279 64.0885 109.039 65.2211 108.56 66.1903C108.086 67.1596 107.422 67.9137 106.567 68.4528C105.718 68.9918 104.727 69.2614 103.594 69.2614ZM103.594 67.5298C104.455 67.5298 105.162 67.3093 105.718 66.8683C106.273 66.4272 106.684 65.8473 106.951 65.1286C107.218 64.4098 107.351 63.6312 107.351 62.7926C107.351 61.9541 107.218 61.1727 106.951 60.4485C106.684 59.7243 106.273 59.139 105.718 58.6925C105.162 58.246 104.455 58.0227 103.594 58.0227C102.734 58.0227 102.026 58.246 101.471 58.6925C100.915 59.139 100.504 59.7243 100.237 60.4485C99.9705 61.1727 99.8371 61.9541 99.8371 62.7926C99.8371 63.6312 99.9705 64.4098 100.237 65.1286C100.504 65.8473 100.915 66.4272 101.471 66.8683C102.026 67.3093 102.734 67.5298 103.594 67.5298ZM114.149 61.4531L114.149 69L112.221 69L112.221 56.4545L114.083 56.4545L114.083 58.4148L114.247 58.4148C114.541 57.7777 114.987 57.2659 115.586 56.8793C116.185 56.4872 116.958 56.2912 117.906 56.2912C118.755 56.2912 119.499 56.4654 120.136 56.8139C120.773 57.157 121.268 57.6797 121.622 58.3821C121.976 59.0791 122.153 59.9612 122.153 61.0284L122.153 69L120.225 69L120.225 61.1591C120.225 60.1735 119.97 59.4058 119.458 58.8558C118.946 58.3004 118.243 58.0227 117.35 58.0227C116.735 58.0227 116.185 58.1561 115.701 58.4229C115.221 58.6897 114.843 59.0791 114.565 59.5909C114.288 60.1027 114.149 60.7235 114.149 61.4531ZM131.131 56.4545L131.131 58.0881L124.63 58.0881L124.63 56.4545L131.131 56.4545ZM126.525 53.4489L128.452 53.4489L128.452 65.4063C128.452 65.9508 128.531 66.3591 128.689 66.6314C128.853 66.8982 129.059 67.0779 129.31 67.1705C129.566 67.2576 129.835 67.3011 130.119 67.3011C130.331 67.3011 130.505 67.2902 130.641 67.2685C130.777 67.2412 130.886 67.2195 130.968 67.2031L131.36 68.9347C131.229 68.9837 131.047 69.0327 130.813 69.0817C130.579 69.1361 130.282 69.1634 129.922 69.1634C129.378 69.1634 128.844 69.0463 128.322 68.8121C127.804 68.578 127.374 68.2214 127.031 67.7422C126.694 67.263 126.525 66.6586 126.525 65.929L126.525 53.4489ZM134.031 69L134.031 56.4545L135.958 56.4545L135.958 69L134.031 69ZM135.011 54.3636C134.635 54.3636 134.311 54.2357 134.039 53.9798C133.772 53.7238 133.639 53.4162 133.639 53.0568C133.639 52.6974 133.772 52.3898 134.039 52.1339C134.311 51.878 134.635 51.75 135.011 51.75C135.387 51.75 135.708 51.878 135.975 52.1339C136.247 52.3898 136.383 52.6974 136.383 53.0568C136.383 53.4162 136.247 53.7238 135.975 53.9798C135.708 54.2357 135.387 54.3636 135.011 54.3636ZM141.416 61.4531L141.416 69L139.489 69L139.489 56.4545L141.351 56.4545L141.351 58.4148L141.514 58.4148C141.808 57.7777 142.255 57.2659 142.854 56.8793C143.453 56.4872 144.226 56.2912 145.173 56.2912C146.023 56.2912 146.766 56.4654 147.403 56.8139C148.04 57.157 148.536 57.6797 148.89 58.3821C149.244 59.0791 149.421 59.9612 149.421 61.0284L149.421 69L147.493 69L147.493 61.1591C147.493 60.1735 147.237 59.4058 146.725 58.8558C146.213 58.3004 145.511 58.0227 144.618 58.0227C144.003 58.0227 143.453 58.1561 142.968 58.4229C142.489 58.6897 142.111 59.0791 141.833 59.5909C141.555 60.1027 141.416 60.7235 141.416 61.4531ZM158.007 73.9659C157.076 73.9659 156.275 73.8461 155.606 73.6065C154.936 73.3724 154.378 73.062 153.931 72.6754C153.49 72.2943 153.139 71.8859 152.878 71.4503L154.413 70.3722C154.587 70.6009 154.808 70.8622 155.075 71.1563C155.341 71.4557 155.706 71.7144 156.169 71.9322C156.637 72.1554 157.25 72.267 158.007 72.267C159.02 72.267 159.855 72.022 160.514 71.532C161.173 71.0419 161.503 70.2741 161.503 69.2287L161.503 66.6804L161.339 66.6804C161.198 66.9091 160.996 67.1922 160.735 67.5298C160.479 67.862 160.109 68.1587 159.624 68.4201C159.145 68.676 158.497 68.804 157.68 68.804C156.667 68.804 155.758 68.5644 154.952 68.0852C154.152 67.6061 153.517 66.9091 153.049 65.9943C152.586 65.0795 152.355 63.9688 152.355 62.6619C152.355 61.3769 152.581 60.2579 153.033 59.305C153.485 58.3467 154.114 57.6062 154.919 57.0835C155.725 56.5553 156.656 56.2912 157.713 56.2912C158.53 56.2912 159.178 56.4273 159.657 56.6996C160.141 56.9664 160.512 57.2713 160.767 57.6143C161.029 57.9519 161.23 58.2296 161.372 58.4474L161.568 58.4474L161.568 56.4545L163.43 56.4545L163.43 69.3594C163.43 70.4375 163.185 71.3142 162.695 71.9893C162.21 72.67 161.557 73.1682 160.735 73.484C159.918 73.8053 159.009 73.9659 158.007 73.9659ZM157.941 67.0724C158.715 67.0724 159.368 66.8955 159.902 66.5415C160.435 66.1876 160.841 65.6785 161.119 65.0142C161.396 64.3499 161.535 63.5549 161.535 62.6293C161.535 61.7254 161.399 60.9277 161.127 60.2362C160.855 59.5446 160.452 59.0028 159.918 58.6108C159.384 58.2187 158.726 58.0227 157.941 58.0227C157.125 58.0227 156.444 58.2296 155.9 58.6435C155.361 59.0573 154.955 59.6127 154.683 60.3097C154.416 61.0066 154.282 61.7798 154.282 62.6293C154.282 63.5005 154.419 64.271 154.691 64.9407C154.968 65.605 155.377 66.1277 155.916 66.5089C156.46 66.8846 157.136 67.0724 157.941 67.0724ZM172.218 69.2614C171.01 69.2614 169.967 68.9946 169.09 68.4609C168.219 67.9219 167.547 67.1705 167.073 66.2067C166.605 65.2375 166.37 64.1103 166.37 62.8253C166.37 61.5402 166.605 60.4077 167.073 59.4276C167.547 58.442 168.205 57.6742 169.049 57.1243C169.899 56.5689 170.89 56.2912 172.022 56.2912C172.676 56.2912 173.321 56.4001 173.958 56.6179C174.595 56.8357 175.175 57.1896 175.698 57.6797C176.221 58.1643 176.637 58.8068 176.948 59.6072C177.258 60.4077 177.413 61.3932 177.413 62.5639L177.413 63.3807L167.743 63.3807L167.743 61.7145L175.453 61.7145C175.453 61.0066 175.311 60.375 175.028 59.8196C174.75 59.2642 174.353 58.8259 173.836 58.5046C173.324 58.1834 172.719 58.0227 172.022 58.0227C171.255 58.0227 170.59 58.2133 170.03 58.5945C169.474 58.9702 169.047 59.4602 168.747 60.0646C168.448 60.669 168.298 61.317 168.298 62.0085L168.298 63.1193C168.298 64.0668 168.461 64.8699 168.788 65.5288C169.12 66.1822 169.58 66.6804 170.168 67.0234C170.756 67.361 171.44 67.5298 172.218 67.5298C172.725 67.5298 173.182 67.459 173.591 67.3175C174.004 67.1705 174.361 66.9527 174.661 66.6641C174.96 66.37 175.191 66.0052 175.355 65.5696L177.217 66.0923C177.021 66.724 176.692 67.2794 176.229 67.7585C175.766 68.2322 175.194 68.6025 174.514 68.8693C173.833 69.1307 173.068 69.2614 172.218 69.2614ZM182.273 61.4531L182.273 69L180.345 69L180.345 56.4545L182.207 56.4545L182.207 58.4148L182.371 58.4148C182.665 57.7777 183.111 57.2659 183.71 56.8793C184.309 56.4872 185.082 56.2912 186.03 56.2912C186.879 56.2912 187.623 56.4654 188.26 56.8139C188.897 57.157 189.392 57.6797 189.746 58.3821C190.1 59.0791 190.277 59.9612 190.277 61.0284L190.277 69L188.35 69L188.35 61.1591C188.35 60.1735 188.094 59.4058 187.582 58.8558C187.07 58.3004 186.368 58.0227 185.475 58.0227C184.859 58.0227 184.309 58.1561 183.825 58.4229C183.345 58.6897 182.967 59.0791 182.689 59.5909C182.412 60.1027 182.273 60.7235 182.273 61.4531ZM198.896 69.2614C197.72 69.2614 196.707 68.9837 195.858 68.4283C195.008 67.8729 194.355 67.1078 193.897 66.1332C193.44 65.1585 193.211 64.045 193.211 62.7926C193.211 61.5185 193.445 60.3941 193.914 59.4194C194.387 58.4393 195.046 57.6742 195.89 57.1243C196.74 56.5689 197.731 56.2912 198.863 56.2912C199.745 56.2912 200.54 56.4545 201.248 56.7813C201.956 57.108 202.536 57.5653 202.988 58.1534C203.44 58.7415 203.72 59.4276 203.829 60.2116L201.902 60.2116C201.755 59.6399 201.428 59.1335 200.922 58.6925C200.421 58.246 199.745 58.0227 198.896 58.0227C198.145 58.0227 197.486 58.2188 196.919 58.6108C196.359 58.9974 195.92 59.5446 195.604 60.2525C195.294 60.9549 195.139 61.7798 195.139 62.7273C195.139 63.6965 195.291 64.5405 195.596 65.2592C195.907 65.978 196.342 66.5361 196.903 66.9336C197.469 67.3311 198.134 67.5298 198.896 67.5298C199.397 67.5298 199.852 67.4427 200.26 67.2685C200.668 67.0942 201.014 66.8438 201.297 66.517C201.58 66.1903 201.782 65.7983 201.902 65.3409L203.829 65.3409C203.72 66.0814 203.451 66.7485 203.021 67.342C202.596 67.93 202.032 68.3983 201.33 68.7468C200.633 69.0898 199.822 69.2614 198.896 69.2614ZM207.888 73.7045C207.562 73.7045 207.27 73.6773 207.015 73.6229C206.759 73.5739 206.582 73.5249 206.484 73.4759L206.974 71.777C207.442 71.8968 207.856 71.9403 208.215 71.9077C208.575 71.875 208.893 71.7144 209.171 71.4258C209.454 71.1426 209.713 70.6825 209.947 70.0455L210.306 69.0653L205.667 56.4545L207.758 56.4545L211.221 66.4517L211.352 66.4517L214.815 56.4545L216.906 56.4545L211.58 70.8295C211.341 71.4775 211.044 72.0139 210.69 72.4386C210.336 72.8687 209.925 73.1873 209.457 73.3942C208.994 73.6011 208.471 73.7045 207.888 73.7045ZM225.265 54.0696L225.265 52.2727L237.811 52.2727L237.811 54.0696L232.551 54.0696L232.551 69L230.525 69L230.525 54.0696L225.265 54.0696ZM242.66 69.294C241.865 69.294 241.144 69.1443 240.496 68.8448C239.848 68.5399 239.333 68.1016 238.952 67.5298C238.571 66.9527 238.38 66.2557 238.38 65.4389C238.38 64.7202 238.522 64.1375 238.805 63.6911C239.088 63.2391 239.467 62.8852 239.94 62.6293C240.414 62.3733 240.937 62.1828 241.508 62.0575C242.086 61.9268 242.666 61.8234 243.248 61.7472C244.01 61.6491 244.628 61.5756 245.102 61.5266C245.581 61.4722 245.93 61.3823 246.148 61.2571C246.371 61.1319 246.483 60.9141 246.483 60.6037L246.483 60.5384C246.483 59.7325 246.262 59.1063 245.821 58.6598C245.385 58.2133 244.724 57.9901 243.836 57.9901C242.916 57.9901 242.195 58.1915 241.672 58.5945C241.149 58.9974 240.782 59.4276 240.569 59.8849L238.74 59.2315C239.066 58.4692 239.502 57.8757 240.046 57.451C240.596 57.0208 241.195 56.7214 241.843 56.5526C242.497 56.3783 243.139 56.2912 243.771 56.2912C244.174 56.2912 244.637 56.3402 245.159 56.4382C245.688 56.5308 246.197 56.7241 246.687 57.0181C247.182 57.3121 247.593 57.7559 247.92 58.3494C248.247 58.9429 248.41 59.7379 248.41 60.7344L248.41 69L246.483 69L246.483 67.3011L246.384 67.3011C246.254 67.5734 246.036 67.8647 245.731 68.1751C245.426 68.4854 245.021 68.7495 244.514 68.9673C244.008 69.1851 243.39 69.294 242.66 69.294ZM242.954 67.5625C243.716 67.5625 244.359 67.4128 244.882 67.1133C245.41 66.8138 245.807 66.4272 246.074 65.9535C246.346 65.4798 246.483 64.9815 246.483 64.4588L246.483 62.6946C246.401 62.7926 246.221 62.8825 245.943 62.9641C245.671 63.0404 245.355 63.1084 244.996 63.1683C244.642 63.2228 244.296 63.2718 243.959 63.3153C243.627 63.3535 243.357 63.3861 243.15 63.4134C242.649 63.4787 242.181 63.5849 241.745 63.7319C241.315 63.8735 240.967 64.0885 240.7 64.3771C240.438 64.6603 240.308 65.0469 240.308 65.5369C240.308 66.2067 240.556 66.7131 241.051 67.0561C241.552 67.3937 242.186 67.5625 242.954 67.5625ZM252.19 69L252.19 52.2727L254.117 52.2727L254.117 58.4474L254.281 58.4474C254.422 58.2296 254.618 57.9519 254.869 57.6143C255.125 57.2713 255.489 56.9664 255.963 56.6996C256.442 56.4273 257.09 56.2912 257.907 56.2912C258.963 56.2912 259.894 56.5553 260.7 57.0835C261.506 57.6116 262.135 58.3603 262.587 59.3295C263.039 60.2988 263.265 61.4422 263.265 62.7599C263.265 64.0885 263.039 65.2402 262.587 66.2148C262.135 67.1841 261.509 67.9355 260.708 68.4691C259.908 68.9973 258.985 69.2614 257.94 69.2614C257.134 69.2614 256.489 69.128 256.004 68.8612C255.519 68.5889 255.146 68.2813 254.885 67.9382C254.624 67.5897 254.422 67.3011 254.281 67.0724L254.052 67.0724L254.052 69L252.19 69ZM254.085 62.7273C254.085 63.6747 254.223 64.5105 254.501 65.2347C254.779 65.9535 255.184 66.517 255.718 66.9254C256.252 67.3284 256.905 67.5298 257.678 67.5298C258.484 67.5298 259.157 67.3175 259.696 66.8928C260.24 66.4626 260.649 65.8854 260.921 65.1612C261.199 64.4316 261.337 63.6203 261.337 62.7273C261.337 61.8452 261.201 61.0502 260.929 60.3423C260.662 59.629 260.257 59.0655 259.712 58.6516C259.173 58.2324 258.495 58.0227 257.678 58.0227C256.894 58.0227 256.235 58.2215 255.702 58.619C255.168 59.011 254.765 59.561 254.493 60.2688C254.221 60.9712 254.085 61.7907 254.085 62.7273ZM268.141 52.2727L268.141 69L266.213 69L266.213 52.2727L268.141 52.2727ZM276.931 69.2614C275.723 69.2614 274.68 68.9946 273.803 68.4609C272.932 67.9219 272.259 67.1705 271.786 66.2067C271.318 65.2375 271.083 64.1103 271.083 62.8253C271.083 61.5402 271.318 60.4077 271.786 59.4276C272.259 58.442 272.918 57.6742 273.762 57.1243C274.612 56.5689 275.603 56.2912 276.735 56.2912C277.389 56.2912 278.034 56.4001 278.671 56.6179C279.308 56.8357 279.888 57.1896 280.411 57.6797C280.934 58.1643 281.35 58.8068 281.66 59.6072C281.971 60.4077 282.126 61.3932 282.126 62.5639L282.126 63.3807L272.456 63.3807L272.456 61.7145L280.166 61.7145C280.166 61.0066 280.024 60.375 279.741 59.8196C279.463 59.2642 279.066 58.8259 278.549 58.5046C278.037 58.1834 277.432 58.0227 276.735 58.0227C275.968 58.0227 275.303 58.2133 274.742 58.5945C274.187 58.9702 273.76 59.4602 273.46 60.0646C273.161 60.669 273.011 61.317 273.011 62.0085L273.011 63.1193C273.011 64.0668 273.174 64.8699 273.501 65.5288C273.833 66.1822 274.293 66.6804 274.881 67.0234C275.469 67.361 276.153 67.5298 276.931 67.5298C277.438 67.5298 277.895 67.459 278.304 67.3175C278.717 67.1705 279.074 66.9527 279.373 66.6641C279.673 66.37 279.904 66.0052 280.068 65.5696L281.93 66.0923C281.734 66.724 281.405 67.2794 280.942 67.7585C280.479 68.2322 279.907 68.6025 279.226 68.8693C278.546 69.1307 277.781 69.2614 276.931 69.2614ZM298.714 59.7379L298.714 61.5348L291.396 61.5348L291.396 59.7379L298.714 59.7379ZM307.921 54.0696L307.921 52.2727L320.467 52.2727L320.467 54.0696L315.207 54.0696L315.207 69L313.181 69L313.181 54.0696L307.921 54.0696ZM323.136 73.7045C322.809 73.7045 322.518 73.6773 322.262 73.6229C322.006 73.5739 321.829 73.5249 321.731 73.4759L322.221 71.777C322.689 71.8968 323.103 71.9403 323.462 71.9077C323.822 71.875 324.14 71.7144 324.418 71.4258C324.701 71.1426 324.96 70.6825 325.194 70.0455L325.553 69.0653L320.914 56.4545L323.005 56.4545L326.468 66.4517L326.599 66.4517L330.062 56.4545L332.153 56.4545L326.827 70.8295C326.588 71.4775 326.291 72.0139 325.937 72.4386C325.583 72.8687 325.172 73.1873 324.704 73.3942C324.241 73.6011 323.718 73.7045 323.136 73.7045ZM334.697 73.7045L334.697 56.4545L336.559 56.4545L336.559 58.4474L336.788 58.4474C336.929 58.2296 337.125 57.9519 337.376 57.6143C337.632 57.2713 337.997 56.9664 338.47 56.6996C338.949 56.4273 339.597 56.2912 340.414 56.2912C341.47 56.2912 342.402 56.5553 343.207 57.0835C344.013 57.6116 344.642 58.3603 345.094 59.3295C345.546 60.2988 345.772 61.4422 345.772 62.7599C345.772 64.0885 345.546 65.2402 345.094 66.2148C344.642 67.1841 344.016 67.9355 343.216 68.4691C342.415 68.9973 341.492 69.2614 340.447 69.2614C339.641 69.2614 338.996 69.128 338.511 68.8612C338.026 68.5889 337.653 68.2813 337.392 67.9382C337.131 67.5897 336.929 67.3011 336.788 67.0724L336.624 67.0724L336.624 73.7045L334.697 73.7045ZM336.592 62.7273C336.592 63.6747 336.731 64.5105 337.008 65.2347C337.286 65.9535 337.692 66.517 338.225 66.9254C338.759 67.3284 339.412 67.5298 340.185 67.5298C340.991 67.5298 341.664 67.3175 342.203 66.8928C342.747 66.4626 343.156 65.8854 343.428 65.1612C343.706 64.4316 343.845 63.6203 343.845 62.7273C343.845 61.8452 343.708 61.0502 343.436 60.3423C343.169 59.629 342.764 59.0655 342.219 58.6516C341.68 58.2324 341.002 58.0227 340.185 58.0227C339.401 58.0227 338.743 58.2215 338.209 58.619C337.675 59.011 337.272 59.561 337 60.2688C336.728 60.9712 336.592 61.7907 336.592 62.7273ZM353.972 69.2614C352.764 69.2614 351.721 68.9946 350.844 68.4609C349.973 67.9219 349.301 67.1705 348.827 66.2067C348.359 65.2375 348.124 64.1103 348.124 62.8253C348.124 61.5402 348.359 60.4077 348.827 59.4276C349.301 58.442 349.959 57.6742 350.803 57.1243C351.653 56.5689 352.644 56.2912 353.776 56.2912C354.43 56.2912 355.075 56.4001 355.712 56.6179C356.349 56.8357 356.929 57.1896 357.452 57.6797C357.975 58.1643 358.391 58.8068 358.701 59.6072C359.012 60.4077 359.167 61.3932 359.167 62.5639L359.167 63.3807L349.497 63.3807L349.497 61.7145L357.207 61.7145C357.207 61.0066 357.065 60.375 356.782 59.8196C356.504 59.2642 356.107 58.8259 355.59 58.5046C355.078 58.1834 354.473 58.0227 353.776 58.0227C353.009 58.0227 352.344 58.2133 351.783 58.5945C351.228 58.9702 350.801 59.4602 350.501 60.0646C350.202 60.669 350.052 61.317 350.052 62.0085L350.052 63.1193C350.052 64.0668 350.215 64.8699 350.542 65.5288C350.874 66.1822 351.334 66.6804 351.922 67.0234C352.51 67.361 353.194 67.5298 353.972 67.5298C354.479 67.5298 354.936 67.459 355.345 67.3175C355.758 67.1705 356.115 66.9527 356.415 66.6641C356.714 66.37 356.945 66.0052 357.109 65.5696L358.971 66.0923C358.775 66.724 358.446 67.2794 357.983 67.7585C357.52 68.2322 356.948 68.6025 356.267 68.8693C355.587 69.1307 354.822 69.2614 353.972 69.2614ZM370.986 59.2642L369.254 59.7543C369.145 59.4657 368.984 59.1853 368.772 58.913C368.565 58.6353 368.282 58.4066 367.923 58.2269C367.563 58.0472 367.103 57.9574 366.542 57.9574C365.775 57.9574 365.135 58.1344 364.623 58.4883C364.117 58.8368 363.863 59.2805 363.863 59.8196C363.863 60.2988 364.038 60.6772 364.386 60.9549C364.735 61.2326 365.279 61.464 366.02 61.6491L367.882 62.1065C369.004 62.3788 369.839 62.7953 370.389 63.3562C370.939 63.9116 371.214 64.6276 371.214 65.5043C371.214 66.223 371.007 66.8655 370.593 67.4318C370.185 67.9981 369.613 68.4446 368.878 68.7713C368.143 69.098 367.288 69.2614 366.314 69.2614C365.034 69.2614 363.975 68.9837 363.136 68.4283C362.298 67.8729 361.767 67.0616 361.544 65.9943L363.373 65.5369C363.548 66.2121 363.877 66.7185 364.362 67.0561C364.852 67.3937 365.491 67.5625 366.281 67.5625C367.179 67.5625 367.893 67.3719 368.421 66.9908C368.955 66.6042 369.221 66.1413 369.221 65.6023C369.221 65.1667 369.069 64.8018 368.764 64.5078C368.459 64.2083 367.991 63.9851 367.359 63.8381L365.268 63.348C364.119 63.0758 363.275 62.6538 362.736 62.082C362.203 61.5049 361.936 60.7834 361.936 59.9176C361.936 59.2098 362.135 58.5836 362.532 58.0391C362.935 57.4946 363.482 57.0671 364.174 56.7567C364.871 56.4464 365.66 56.2912 366.542 56.2912C367.784 56.2912 368.758 56.5634 369.466 57.108C370.18 57.6525 370.686 58.3712 370.986 59.2642ZM385.681 69.2614C384.549 69.2614 383.555 68.9918 382.7 68.4528C381.85 67.9137 381.186 67.1596 380.707 66.1903C380.233 65.2211 379.996 64.0885 379.996 62.7926C379.996 61.4858 380.233 60.3451 380.707 59.3704C381.186 58.3957 381.85 57.6389 382.7 57.0998C383.555 56.5607 384.549 56.2912 385.681 56.2912C386.814 56.2912 387.805 56.5607 388.654 57.0998C389.509 57.6389 390.173 58.3957 390.647 59.3704C391.126 60.3451 391.366 61.4858 391.366 62.7926C391.366 64.0885 391.126 65.2211 390.647 66.1903C390.173 67.1596 389.509 67.9137 388.654 68.4528C387.805 68.9918 386.814 69.2614 385.681 69.2614ZM385.681 67.5298C386.541 67.5298 387.249 67.3093 387.805 66.8683C388.36 66.4272 388.771 65.8473 389.038 65.1286C389.305 64.4098 389.438 63.6312 389.438 62.7926C389.438 61.9541 389.305 61.1727 389.038 60.4485C388.771 59.7243 388.36 59.139 387.805 58.6925C387.249 58.246 386.541 58.0227 385.681 58.0227C384.821 58.0227 384.113 58.246 383.558 58.6925C383.002 59.139 382.591 59.7243 382.324 60.4485C382.057 61.1727 381.924 61.9541 381.924 62.7926C381.924 63.6312 382.057 64.4098 382.324 65.1286C382.591 65.8473 383.002 66.4272 383.558 66.8683C384.113 67.3093 384.821 67.5298 385.681 67.5298ZM399.895 56.4545L399.895 58.0881L393.132 58.0881L393.132 56.4545L399.895 56.4545ZM395.158 69L395.158 54.723C395.158 54.0043 395.326 53.4053 395.664 52.9261C396.002 52.447 396.44 52.0876 396.979 51.848C397.518 51.6084 398.087 51.4886 398.686 51.4886C399.16 51.4886 399.546 51.5268 399.846 51.603C400.145 51.6792 400.369 51.75 400.516 51.8153L399.96 53.4815C399.862 53.4489 399.726 53.408 399.552 53.359C399.383 53.31 399.16 53.2855 398.882 53.2855C398.245 53.2855 397.785 53.4461 397.502 53.7674C397.224 54.0887 397.085 54.5597 397.085 55.1804L397.085 69L395.158 69ZM418.474 56.4545C418.376 55.6269 417.979 54.9844 417.282 54.527C416.585 54.0696 415.73 53.8409 414.717 53.8409C413.976 53.8409 413.328 53.9607 412.773 54.2003C412.223 54.4399 411.793 54.7693 411.483 55.1886C411.178 55.6078 411.025 56.0843 411.025 56.6179C411.025 57.0644 411.131 57.4483 411.344 57.7695C411.562 58.0853 411.839 58.3494 412.177 58.5618C412.514 58.7687 412.868 58.9402 413.239 59.0764C413.609 59.207 413.949 59.3132 414.26 59.3949L415.958 59.8523C416.394 59.9666 416.879 60.1245 417.412 60.326C417.951 60.5275 418.466 60.8024 418.956 61.1509C419.451 61.494 419.86 61.935 420.181 62.4741C420.502 63.0131 420.663 63.6747 420.663 64.4588C420.663 65.3627 420.426 66.1795 419.952 66.9091C419.484 67.6387 418.798 68.2186 417.894 68.6488C416.996 69.079 415.904 69.294 414.619 69.294C413.421 69.294 412.384 69.1007 411.507 68.7141C410.636 68.3275 409.95 67.7885 409.449 67.0969C408.953 66.4054 408.673 65.6023 408.608 64.6875L410.699 64.6875C410.753 65.3191 410.965 65.8419 411.336 66.2557C411.711 66.6641 412.185 66.969 412.757 67.1705C413.334 67.3665 413.955 67.4645 414.619 67.4645C415.392 67.4645 416.086 67.3393 416.702 67.0888C417.317 66.8329 417.804 66.4789 418.164 66.027C418.523 65.5696 418.703 65.036 418.703 64.4261C418.703 63.8707 418.548 63.4188 418.237 63.0703C417.927 62.7218 417.518 62.4387 417.012 62.2209C416.506 62.0031 415.958 61.8125 415.37 61.6491L413.312 61.0611C412.005 60.6854 410.971 60.149 410.208 59.4521C409.446 58.7551 409.065 57.843 409.065 56.7159C409.065 55.7794 409.318 54.9626 409.825 54.2656C410.336 53.5632 411.022 53.0187 411.883 52.6321C412.749 52.2401 413.715 52.044 414.782 52.044C415.86 52.044 416.819 52.2373 417.657 52.6239C418.496 53.0051 419.16 53.5278 419.65 54.1921C420.146 54.8564 420.407 55.6106 420.434 56.4545L418.474 56.4545ZM427.424 69.294C426.629 69.294 425.907 69.1443 425.259 68.8448C424.611 68.5399 424.097 68.1016 423.716 67.5298C423.334 66.9527 423.144 66.2557 423.144 65.4389C423.144 64.7202 423.285 64.1375 423.569 63.6911C423.852 63.2391 424.23 62.8852 424.704 62.6293C425.178 62.3733 425.7 62.1828 426.272 62.0575C426.849 61.9268 427.429 61.8234 428.012 61.7472C428.774 61.6491 429.392 61.5756 429.866 61.5266C430.345 61.4722 430.694 61.3823 430.911 61.2571C431.135 61.1319 431.246 60.9141 431.246 60.6037L431.246 60.5384C431.246 59.7325 431.026 59.1063 430.585 58.6598C430.149 58.2133 429.487 57.9901 428.6 57.9901C427.68 57.9901 426.958 58.1915 426.435 58.5945C425.913 58.9974 425.545 59.4276 425.333 59.8849L423.503 59.2315C423.83 58.4692 424.266 57.8757 424.81 57.451C425.36 57.0208 425.959 56.7214 426.607 56.5526C427.26 56.3783 427.903 56.2912 428.535 56.2912C428.937 56.2912 429.4 56.3402 429.923 56.4382C430.451 56.5308 430.96 56.7241 431.45 57.0181C431.946 57.3121 432.357 57.7559 432.684 58.3494C433.01 58.9429 433.174 59.7379 433.174 60.7344L433.174 69L431.246 69L431.246 67.3011L431.148 67.3011C431.017 67.5734 430.8 67.8647 430.495 68.1751C430.19 68.4854 429.784 68.7495 429.278 68.9673C428.771 69.1851 428.153 69.294 427.424 69.294ZM427.718 67.5625C428.48 67.5625 429.123 67.4128 429.645 67.1133C430.174 66.8138 430.571 66.4272 430.838 65.9535C431.11 65.4798 431.246 64.9815 431.246 64.4588L431.246 62.6946C431.165 62.7926 430.985 62.8825 430.707 62.9641C430.435 63.0404 430.119 63.1084 429.76 63.1683C429.406 63.2228 429.06 63.2718 428.722 63.3153C428.39 63.3535 428.121 63.3861 427.914 63.4134C427.413 63.4787 426.945 63.5849 426.509 63.7319C426.079 63.8735 425.73 64.0885 425.464 64.3771C425.202 64.6603 425.071 65.0469 425.071 65.5369C425.071 66.2067 425.319 66.7131 425.815 67.0561C426.316 67.3937 426.95 67.5625 427.718 67.5625ZM438.619 52.2727L438.619 69L436.692 69L436.692 52.2727L438.619 52.2727ZM442.15 69L442.15 56.4545L444.012 56.4545L444.012 58.4148L444.176 58.4148C444.437 57.745 444.859 57.225 445.441 56.8548C446.024 56.479 446.724 56.2912 447.541 56.2912C448.368 56.2912 449.057 56.479 449.607 56.8548C450.162 57.225 450.595 57.745 450.906 58.4148L451.036 58.4148C451.358 57.7668 451.839 57.2523 452.482 56.8711C453.124 56.4845 453.895 56.2912 454.793 56.2912C455.915 56.2912 456.833 56.6424 457.546 57.3448C458.259 58.0418 458.616 59.1281 458.616 60.6037L458.616 69L456.688 69L456.688 60.6037C456.688 59.678 456.435 59.0165 455.929 58.619C455.422 58.2215 454.826 58.0227 454.14 58.0227C453.258 58.0227 452.575 58.2895 452.09 58.8232C451.605 59.3513 451.363 60.0211 451.363 60.8324L451.363 69L449.403 69L449.403 60.4077C449.403 59.6944 449.171 59.1199 448.709 58.6843C448.246 58.2433 447.649 58.0227 446.92 58.0227C446.419 58.0227 445.951 58.1561 445.515 58.4229C445.085 58.6898 444.736 59.06 444.47 59.5337C444.208 60.002 444.078 60.5438 444.078 61.1591L444.078 69L442.15 69ZM467.237 69.2614C466.104 69.2614 465.11 68.9918 464.256 68.4528C463.406 67.9137 462.742 67.1596 462.263 66.1903C461.789 65.2211 461.552 64.0885 461.552 62.7926C461.552 61.4858 461.789 60.3451 462.263 59.3704C462.742 58.3957 463.406 57.6389 464.256 57.0998C465.11 56.5607 466.104 56.2912 467.237 56.2912C468.369 56.2912 469.36 56.5607 470.21 57.0998C471.065 57.6389 471.729 58.3957 472.203 59.3704C472.682 60.3451 472.921 61.4858 472.921 62.7926C472.921 64.0885 472.682 65.2211 472.203 66.1903C471.729 67.1596 471.065 67.9137 470.21 68.4528C469.36 68.9918 468.369 69.2614 467.237 69.2614ZM467.237 67.5298C468.097 67.5298 468.805 67.3093 469.36 66.8683C469.916 66.4272 470.327 65.8473 470.594 65.1286C470.86 64.4098 470.994 63.6312 470.994 62.7926C470.994 61.9541 470.86 61.1727 470.594 60.4485C470.327 59.7243 469.916 59.139 469.36 58.6925C468.805 58.246 468.097 58.0227 467.237 58.0227C466.376 58.0227 465.669 58.246 465.113 58.6925C464.558 59.139 464.147 59.7243 463.88 60.4485C463.613 61.1727 463.48 61.9541 463.48 62.7926C463.48 63.6312 463.613 64.4098 463.88 65.1286C464.147 65.8473 464.558 66.4272 465.113 66.8683C465.669 67.3093 466.376 67.5298 467.237 67.5298ZM477.791 61.4531L477.791 69L475.864 69L475.864 56.4545L477.726 56.4545L477.726 58.4148L477.889 58.4148C478.183 57.7777 478.63 57.2659 479.229 56.8793C479.828 56.4872 480.601 56.2912 481.548 56.2912C482.398 56.2912 483.141 56.4654 483.778 56.8139C484.415 57.157 484.911 57.6797 485.265 58.3821C485.619 59.0791 485.796 59.9612 485.796 61.0284L485.796 69L483.868 69L483.868 61.1591C483.868 60.1735 483.612 59.4058 483.1 58.8558C482.588 58.3004 481.886 58.0227 480.993 58.0227C480.378 58.0227 479.828 58.1561 479.343 58.4229C478.864 58.6898 478.486 59.0791 478.208 59.5909C477.93 60.1027 477.791 60.7235 477.791 61.4531ZM509.508 57.5L507.483 57.5C507.363 56.9174 507.153 56.4055 506.854 55.9645C506.56 55.5234 506.2 55.1532 505.776 54.8537C505.356 54.5488 504.891 54.3201 504.379 54.1676C503.867 54.0152 503.334 53.9389 502.778 53.9389C501.765 53.9389 500.848 54.1948 500.026 54.7067C499.209 55.2185 498.558 55.9727 498.074 56.9691C497.594 57.9656 497.355 59.188 497.355 60.6364C497.355 62.0848 497.594 63.3072 498.074 64.3036C498.558 65.3001 499.209 66.0542 500.026 66.5661C500.848 67.0779 501.765 67.3338 502.778 67.3338C503.334 67.3338 503.867 67.2576 504.379 67.1051C504.891 66.9527 505.356 66.7267 505.776 66.4272C506.2 66.1223 506.56 65.7493 506.854 65.3082C507.153 64.8617 507.363 64.3499 507.483 63.7727L509.508 63.7727C509.356 64.6276 509.078 65.3926 508.675 66.0678C508.272 66.743 507.771 67.3175 507.172 67.7912C506.573 68.2595 505.901 68.6161 505.155 68.8612C504.414 69.1062 503.622 69.2287 502.778 69.2287C501.352 69.2287 500.083 68.8802 498.972 68.1832C497.861 67.4863 496.987 66.4953 496.35 65.2102C495.713 63.9252 495.395 62.4006 495.395 60.6364C495.395 58.8722 495.713 57.3475 496.35 56.0625C496.987 54.7775 497.861 53.7865 498.972 53.0895C500.083 52.3925 501.352 52.044 502.778 52.044C503.622 52.044 504.414 52.1665 505.155 52.4116C505.901 52.6566 506.573 53.016 507.172 53.4897C507.771 53.958 508.272 54.5297 508.675 55.2049C509.078 55.8746 509.356 56.6397 509.508 57.5ZM516.212 69.294C515.417 69.294 514.695 69.1443 514.047 68.8448C513.399 68.5399 512.885 68.1016 512.504 67.5298C512.123 66.9527 511.932 66.2557 511.932 65.4389C511.932 64.7202 512.074 64.1375 512.357 63.6911C512.64 63.2391 513.018 62.8852 513.492 62.6293C513.966 62.3733 514.488 62.1828 515.06 62.0575C515.637 61.9268 516.217 61.8234 516.8 61.7472C517.562 61.6491 518.18 61.5756 518.654 61.5266C519.133 61.4722 519.482 61.3823 519.699 61.2571C519.923 61.1319 520.034 60.9141 520.034 60.6037L520.034 60.5384C520.034 59.7325 519.814 59.1063 519.373 58.6598C518.937 58.2133 518.276 57.9901 517.388 57.9901C516.468 57.9901 515.746 58.1915 515.224 58.5945C514.701 58.9974 514.333 59.4276 514.121 59.8849L512.291 59.2315C512.618 58.4692 513.054 57.8757 513.598 57.451C514.148 57.0208 514.747 56.7214 515.395 56.5526C516.048 56.3783 516.691 56.2912 517.323 56.2912C517.726 56.2912 518.188 56.3402 518.711 56.4382C519.239 56.5308 519.748 56.7241 520.238 57.0181C520.734 57.3121 521.145 57.7559 521.472 58.3494C521.798 58.9429 521.962 59.7379 521.962 60.7344L521.962 69L520.034 69L520.034 67.3011L519.936 67.3011C519.806 67.5734 519.588 67.8647 519.283 68.1751C518.978 68.4854 518.572 68.7495 518.066 68.9673C517.559 69.1851 516.941 69.294 516.212 69.294ZM516.506 67.5625C517.268 67.5625 517.911 67.4128 518.433 67.1133C518.962 66.8138 519.359 66.4272 519.626 65.9535C519.898 65.4798 520.034 64.9815 520.034 64.4588L520.034 62.6946C519.953 62.7926 519.773 62.8825 519.495 62.9641C519.223 63.0404 518.907 63.1084 518.548 63.1683C518.194 63.2228 517.848 63.2718 517.51 63.3153C517.178 63.3535 516.909 63.3861 516.702 63.4134C516.201 63.4787 515.733 63.5849 515.297 63.7319C514.867 63.8735 514.518 64.0885 514.252 64.3771C513.99 64.6603 513.86 65.0469 513.86 65.5369C513.86 66.2067 514.107 66.7131 514.603 67.0561C515.104 67.3937 515.738 67.5625 516.506 67.5625ZM533.386 63.8707L533.386 56.4545L535.314 56.4545L535.314 69L533.386 69L533.386 66.8764L533.256 66.8764C532.962 67.5135 532.504 68.0553 531.883 68.5018C531.263 68.9428 530.479 69.1634 529.531 69.1634C528.747 69.1634 528.05 68.9918 527.44 68.6488C526.83 68.3003 526.351 67.7776 526.003 67.0806C525.654 66.3782 525.48 65.4934 525.48 64.4261L525.48 56.4545L527.408 56.4545L527.408 64.2955C527.408 65.2102 527.664 65.9399 528.175 66.4844C528.693 67.0289 529.351 67.3011 530.152 67.3011C530.631 67.3011 531.118 67.1786 531.614 66.9336C532.115 66.6886 532.534 66.3129 532.872 65.8065C533.215 65.3001 533.386 64.6548 533.386 63.8707ZM543.908 73.9659C542.977 73.9659 542.177 73.8461 541.507 73.6065C540.837 73.3724 540.279 73.062 539.833 72.6754C539.392 72.2943 539.04 71.8859 538.779 71.4503L540.314 70.3722C540.489 70.6009 540.709 70.8622 540.976 71.1563C541.243 71.4557 541.608 71.7144 542.07 71.9322C542.539 72.1554 543.151 72.267 543.908 72.267C544.921 72.267 545.757 72.022 546.416 71.532C547.075 71.0419 547.404 70.2741 547.404 69.2287L547.404 66.6804L547.241 66.6804C547.099 66.9091 546.898 67.1922 546.636 67.5298C546.38 67.862 546.01 68.1587 545.525 68.4201C545.046 68.676 544.398 68.804 543.581 68.804C542.569 68.804 541.659 68.5644 540.854 68.0852C540.053 67.6061 539.419 66.9091 538.95 65.9943C538.488 65.0795 538.256 63.9688 538.256 62.6619C538.256 61.3769 538.482 60.2579 538.934 59.305C539.386 58.3467 540.015 57.6062 540.821 57.0835C541.627 56.5553 542.558 56.2912 543.614 56.2912C544.431 56.2912 545.079 56.4273 545.558 56.6996C546.043 56.9664 546.413 57.2713 546.669 57.6143C546.93 57.9519 547.132 58.2296 547.273 58.4474L547.469 58.4474L547.469 56.4545L549.331 56.4545L549.331 69.3594C549.331 70.4375 549.086 71.3142 548.596 71.9893C548.112 72.67 547.458 73.1682 546.636 73.484C545.819 73.8053 544.91 73.9659 543.908 73.9659ZM543.843 67.0724C544.616 67.0724 545.269 66.8955 545.803 66.5415C546.337 66.1876 546.742 65.6785 547.02 65.0142C547.298 64.3499 547.437 63.5549 547.437 62.6293C547.437 61.7254 547.3 60.9277 547.028 60.2362C546.756 59.5446 546.353 59.0028 545.819 58.6108C545.286 58.2188 544.627 58.0227 543.843 58.0227C543.026 58.0227 542.345 58.2296 541.801 58.6435C541.262 59.0573 540.856 59.6127 540.584 60.3097C540.317 61.0066 540.184 61.7798 540.184 62.6293C540.184 63.5005 540.32 64.271 540.592 64.9407C540.87 65.605 541.278 66.1277 541.817 66.5089C542.362 66.8846 543.037 67.0724 543.843 67.0724ZM554.787 61.4531L554.787 69L552.86 69L552.86 52.2727L554.787 52.2727L554.787 58.4148L554.951 58.4148C555.245 57.7668 555.686 57.2523 556.274 56.8711C556.867 56.4845 557.657 56.2912 558.643 56.2912C559.497 56.2912 560.246 56.4627 560.889 56.8058C561.531 57.1433 562.029 57.6634 562.383 58.3658C562.743 59.0627 562.922 59.9503 562.922 61.0284L562.922 69L560.995 69L560.995 61.1591C560.995 60.1626 560.736 59.3922 560.219 58.8477C559.707 58.2977 558.997 58.0227 558.087 58.0227C557.456 58.0227 556.889 58.1561 556.388 58.4229C555.893 58.6898 555.501 59.0791 555.212 59.5909C554.929 60.1027 554.787 60.7235 554.787 61.4531ZM571.905 56.4545L571.905 58.0881L565.403 58.0881L565.403 56.4545L571.905 56.4545ZM567.298 53.4489L569.226 53.4489L569.226 65.4063C569.226 65.9508 569.305 66.3591 569.463 66.6314C569.626 66.8982 569.833 67.0779 570.083 67.1705C570.339 67.2576 570.609 67.3011 570.892 67.3011C571.104 67.3011 571.279 67.2902 571.415 67.2685C571.551 67.2412 571.66 67.2195 571.741 67.2031L572.133 68.9347C572.003 68.9837 571.82 69.0327 571.586 69.0817C571.352 69.1361 571.055 69.1634 570.696 69.1634C570.151 69.1634 569.618 69.0463 569.095 68.8121C568.578 68.578 568.148 68.2214 567.805 67.7422C567.467 67.263 567.298 66.6586 567.298 65.929L567.298 53.4489Z" fill="black"/>
</g>
<defs>
<filter id="filter0_d_202_686" x="0" y="0" width="646" height="402" filterUnits="userSpaceOnUse" color-interpolation-filters="sRGB">
<feFlood flood-opacity="0" result="BackgroundImageFix"/>
<feColorMatrix in="SourceAlpha" type="matrix" values="0 0 0 0 0 0 0 0 0 0 0 0 0 0 0 0 0 0 127 0" result="hardAlpha"/>
<feOffset dy="4"/>
<feGaussianBlur stdDeviation="2"/>
<feComposite in2="hardAlpha" operator="out"/>
<feColorMatrix type="matrix" values="0 0 0 0 0 0 0 0 0 0 0 0 0 0 0 0 0 0 0.25 0"/>
<feBlend mode="normal" in2="BackgroundImageFix" result="effect1_dropShadow_202_686"/>
<feBlend mode="normal" in="SourceGraphic" in2="effect1_dropShadow_202_686" result="shape"/>
</filter>
</defs>
</svg>
