<svg width="769" height="348" viewBox="0 0 769 348" fill="none" xmlns="http://www.w3.org/2000/svg">
<rect width="769" height="348" fill="white"/>
<rect opacity="0.5" x="73.5" y="141.5" width="154" height="42" fill="#041746" stroke="#041746"/>
<rect opacity="0.5" x="73.5" y="94.5" width="154" height="42" fill="#041746" stroke="#041746"/>
<rect opacity="0.5" x="73.5" y="188.5" width="154" height="42" fill="#041746" stroke="#041746"/>
<rect opacity="0.5" x="73.5" y="235.5" width="154" height="42" fill="#041746" stroke="#041746"/>
<rect opacity="0.5" x="73.5" y="282.5" width="154" height="42" fill="#041746" stroke="#041746"/>
<rect x="349.5" y="94.5" width="112" height="42" stroke="#041746"/>
<rect x="233.5" y="141.5" width="112" height="43" stroke="#041746"/>
<rect x="349.5" y="141.5" width="112" height="43" stroke="#041746"/>
<rect x="233.5" y="188.5" width="112" height="43" stroke="#041746"/>
<rect x="349.5" y="188.5" width="112" height="43" stroke="#041746"/>
<rect x="465.5" y="188.5" width="112" height="43" stroke="#041746"/>
<rect x="465.5" y="141.5" width="112" height="43" stroke="#041746"/>
<rect x="233" y="28" width="113" height="62" fill="#041746"/>
<rect x="73" y="28" width="155" height="62" fill="#041746"/>
<rect x="349" y="28" width="113" height="62" fill="#041746"/>
<rect x="466" y="28" width="113" height="62" fill="#041746"/>
<path d="M287.995 213.736V215.369H276.694V214.198L283.698 203.359H285.32L283.58 206.496L278.95 213.736H287.995ZM285.814 203.359V219H283.827V203.359H285.814ZM299.661 214.768C299.661 215.72 299.439 216.529 298.995 217.195C298.558 217.854 297.964 218.355 297.212 218.699C296.467 219.043 295.626 219.215 294.688 219.215C293.749 219.215 292.904 219.043 292.152 218.699C291.4 218.355 290.806 217.854 290.369 217.195C289.932 216.529 289.714 215.72 289.714 214.768C289.714 214.145 289.832 213.575 290.068 213.06C290.312 212.537 290.652 212.082 291.089 211.695C291.533 211.309 292.056 211.011 292.657 210.804C293.266 210.589 293.936 210.481 294.666 210.481C295.626 210.481 296.481 210.668 297.233 211.04C297.985 211.405 298.576 211.91 299.006 212.555C299.443 213.199 299.661 213.937 299.661 214.768ZM297.663 214.725C297.663 214.145 297.538 213.632 297.287 213.188C297.036 212.737 296.686 212.386 296.234 212.136C295.783 211.885 295.26 211.76 294.666 211.76C294.057 211.76 293.531 211.885 293.087 212.136C292.65 212.386 292.31 212.737 292.066 213.188C291.823 213.632 291.701 214.145 291.701 214.725C291.701 215.326 291.819 215.842 292.056 216.271C292.299 216.694 292.643 217.02 293.087 217.249C293.538 217.471 294.072 217.582 294.688 217.582C295.303 217.582 295.833 217.471 296.277 217.249C296.721 217.02 297.062 216.694 297.298 216.271C297.541 215.842 297.663 215.326 297.663 214.725ZM299.296 207.431C299.296 208.19 299.095 208.874 298.694 209.482C298.293 210.091 297.745 210.571 297.051 210.922C296.356 211.273 295.568 211.448 294.688 211.448C293.792 211.448 292.994 211.273 292.292 210.922C291.597 210.571 291.053 210.091 290.659 209.482C290.265 208.874 290.068 208.19 290.068 207.431C290.068 206.521 290.265 205.748 290.659 205.11C291.06 204.473 291.608 203.986 292.303 203.649C292.997 203.313 293.789 203.145 294.677 203.145C295.572 203.145 296.367 203.313 297.062 203.649C297.756 203.986 298.3 204.473 298.694 205.11C299.095 205.748 299.296 206.521 299.296 207.431ZM297.309 207.463C297.309 206.94 297.198 206.478 296.976 206.077C296.754 205.676 296.446 205.361 296.052 205.132C295.658 204.896 295.2 204.777 294.677 204.777C294.154 204.777 293.696 204.888 293.302 205.11C292.915 205.325 292.611 205.633 292.389 206.034C292.174 206.435 292.066 206.911 292.066 207.463C292.066 208 292.174 208.469 292.389 208.87C292.611 209.271 292.919 209.583 293.312 209.805C293.706 210.027 294.165 210.138 294.688 210.138C295.21 210.138 295.665 210.027 296.052 209.805C296.446 209.583 296.754 209.271 296.976 208.87C297.198 208.469 297.309 208 297.309 207.463Z" fill="#041746"/>
<path d="M283.956 247.273V263H281.969V249.755L277.962 251.216V249.422L283.645 247.273H283.956ZM297.427 247.338H297.599V249.024H297.427C296.374 249.024 295.493 249.196 294.784 249.54C294.075 249.877 293.513 250.331 293.098 250.904C292.682 251.47 292.382 252.107 292.195 252.816C292.016 253.525 291.927 254.245 291.927 254.976V257.274C291.927 257.969 292.009 258.585 292.174 259.122C292.339 259.652 292.564 260.1 292.851 260.465C293.137 260.83 293.459 261.106 293.817 261.292C294.183 261.478 294.562 261.571 294.956 261.571C295.414 261.571 295.823 261.485 296.181 261.313C296.539 261.134 296.84 260.887 297.083 260.572C297.334 260.25 297.523 259.87 297.652 259.434C297.781 258.997 297.846 258.517 297.846 257.994C297.846 257.529 297.788 257.081 297.674 256.651C297.559 256.215 297.384 255.828 297.147 255.491C296.911 255.147 296.614 254.879 296.256 254.686C295.905 254.485 295.486 254.385 294.999 254.385C294.448 254.385 293.932 254.521 293.452 254.793C292.979 255.058 292.589 255.409 292.281 255.846C291.98 256.275 291.809 256.744 291.766 257.253L290.713 257.242C290.813 256.44 290.999 255.756 291.271 255.19C291.551 254.618 291.895 254.152 292.303 253.794C292.718 253.429 293.18 253.164 293.688 252.999C294.204 252.827 294.748 252.741 295.321 252.741C296.102 252.741 296.775 252.888 297.341 253.182C297.907 253.475 298.372 253.869 298.737 254.363C299.103 254.85 299.371 255.402 299.543 256.018C299.722 256.626 299.812 257.253 299.812 257.897C299.812 258.635 299.708 259.326 299.5 259.971C299.292 260.615 298.981 261.181 298.565 261.668C298.157 262.155 297.652 262.535 297.051 262.807C296.449 263.079 295.751 263.215 294.956 263.215C294.111 263.215 293.373 263.043 292.743 262.699C292.113 262.348 291.59 261.883 291.175 261.303C290.759 260.723 290.448 260.078 290.24 259.369C290.033 258.66 289.929 257.94 289.929 257.21V256.275C289.929 255.173 290.04 254.091 290.262 253.031C290.484 251.971 290.867 251.012 291.411 250.152C291.963 249.293 292.725 248.609 293.699 248.101C294.673 247.592 295.916 247.338 297.427 247.338Z" fill="#041746"/>
<path d="M287.052 294.338H287.224V296.024H287.052C285.999 296.024 285.118 296.196 284.409 296.54C283.7 296.877 283.138 297.331 282.723 297.904C282.307 298.47 282.007 299.107 281.82 299.816C281.641 300.525 281.552 301.245 281.552 301.976V304.274C281.552 304.969 281.634 305.585 281.799 306.122C281.964 306.652 282.189 307.1 282.476 307.465C282.762 307.83 283.084 308.106 283.442 308.292C283.808 308.478 284.187 308.571 284.581 308.571C285.039 308.571 285.448 308.485 285.806 308.313C286.164 308.134 286.465 307.887 286.708 307.572C286.959 307.25 287.148 306.87 287.277 306.434C287.406 305.997 287.471 305.517 287.471 304.994C287.471 304.529 287.413 304.081 287.299 303.651C287.184 303.215 287.009 302.828 286.772 302.491C286.536 302.147 286.239 301.879 285.881 301.686C285.53 301.485 285.111 301.385 284.624 301.385C284.073 301.385 283.557 301.521 283.077 301.793C282.604 302.058 282.214 302.409 281.906 302.846C281.605 303.275 281.434 303.744 281.391 304.253L280.338 304.242C280.438 303.44 280.624 302.756 280.896 302.19C281.176 301.618 281.52 301.152 281.928 300.794C282.343 300.429 282.805 300.164 283.313 299.999C283.829 299.827 284.373 299.741 284.946 299.741C285.727 299.741 286.4 299.888 286.966 300.182C287.532 300.475 287.997 300.869 288.362 301.363C288.728 301.85 288.996 302.402 289.168 303.018C289.347 303.626 289.437 304.253 289.437 304.897C289.437 305.635 289.333 306.326 289.125 306.971C288.917 307.615 288.606 308.181 288.19 308.668C287.782 309.155 287.277 309.535 286.676 309.807C286.074 310.079 285.376 310.215 284.581 310.215C283.736 310.215 282.998 310.043 282.368 309.699C281.738 309.348 281.215 308.883 280.8 308.303C280.384 307.723 280.073 307.078 279.865 306.369C279.658 305.66 279.554 304.94 279.554 304.21V303.275C279.554 302.173 279.665 301.091 279.887 300.031C280.109 298.971 280.492 298.012 281.036 297.152C281.588 296.293 282.35 295.609 283.324 295.101C284.298 294.592 285.541 294.338 287.052 294.338ZM301.908 294.359V295.477L295.431 310H293.336L299.803 295.992H291.338V294.359H301.908Z" fill="#041746"/>
<path d="M287.995 162.736V164.369H276.694V163.198L283.698 152.359H285.32L283.58 155.496L278.95 162.736H287.995ZM285.814 152.359V168H283.827V152.359H285.814ZM292.7 159.202H294.118C294.813 159.202 295.386 159.088 295.837 158.858C296.295 158.622 296.635 158.303 296.857 157.902C297.087 157.494 297.201 157.036 297.201 156.527C297.201 155.926 297.101 155.421 296.9 155.013C296.7 154.604 296.399 154.297 295.998 154.089C295.597 153.881 295.089 153.777 294.473 153.777C293.914 153.777 293.42 153.888 292.99 154.11C292.568 154.325 292.235 154.633 291.991 155.034C291.755 155.435 291.637 155.908 291.637 156.452H289.649C289.649 155.657 289.85 154.934 290.251 154.282C290.652 153.631 291.214 153.111 291.938 152.725C292.668 152.338 293.513 152.145 294.473 152.145C295.418 152.145 296.245 152.313 296.954 152.649C297.663 152.979 298.215 153.473 298.608 154.132C299.002 154.784 299.199 155.596 299.199 156.57C299.199 156.964 299.106 157.387 298.92 157.838C298.741 158.282 298.458 158.697 298.071 159.084C297.692 159.471 297.198 159.789 296.589 160.04C295.98 160.284 295.25 160.405 294.397 160.405H292.7V159.202ZM292.7 160.835V159.643H294.397C295.393 159.643 296.216 159.761 296.868 159.997C297.52 160.233 298.032 160.549 298.404 160.942C298.784 161.336 299.049 161.77 299.199 162.242C299.357 162.708 299.436 163.173 299.436 163.639C299.436 164.369 299.31 165.017 299.06 165.583C298.816 166.149 298.469 166.629 298.018 167.022C297.574 167.416 297.051 167.714 296.449 167.914C295.848 168.115 295.192 168.215 294.483 168.215C293.803 168.215 293.162 168.118 292.561 167.925C291.966 167.731 291.44 167.452 290.981 167.087C290.523 166.715 290.165 166.26 289.907 165.723C289.649 165.178 289.521 164.559 289.521 163.864H291.508C291.508 164.409 291.626 164.885 291.862 165.293C292.106 165.701 292.45 166.02 292.894 166.249C293.345 166.471 293.875 166.582 294.483 166.582C295.092 166.582 295.615 166.478 296.052 166.271C296.496 166.056 296.836 165.733 297.072 165.304C297.316 164.874 297.438 164.333 297.438 163.682C297.438 163.03 297.301 162.496 297.029 162.081C296.757 161.659 296.37 161.347 295.869 161.146C295.375 160.939 294.791 160.835 294.118 160.835H292.7Z" fill="#041746"/>
<path d="M287.673 120.367V122H277.436V120.571L282.56 114.867C283.19 114.165 283.677 113.571 284.021 113.084C284.371 112.59 284.615 112.149 284.751 111.763C284.894 111.369 284.966 110.968 284.966 110.56C284.966 110.044 284.858 109.578 284.644 109.163C284.436 108.741 284.128 108.404 283.72 108.153C283.312 107.903 282.817 107.777 282.237 107.777C281.543 107.777 280.963 107.913 280.497 108.186C280.039 108.451 279.695 108.823 279.466 109.303C279.237 109.783 279.122 110.334 279.122 110.957H277.135C277.135 110.076 277.328 109.271 277.715 108.54C278.102 107.81 278.674 107.229 279.434 106.8C280.193 106.363 281.127 106.145 282.237 106.145C283.226 106.145 284.071 106.32 284.772 106.671C285.474 107.015 286.011 107.502 286.384 108.132C286.763 108.755 286.953 109.485 286.953 110.323C286.953 110.782 286.874 111.247 286.717 111.72C286.566 112.185 286.355 112.651 286.083 113.116C285.818 113.582 285.507 114.04 285.148 114.491C284.798 114.942 284.422 115.386 284.021 115.823L279.831 120.367H287.673ZM299.618 112.934V115.318C299.618 116.6 299.504 117.682 299.274 118.562C299.045 119.443 298.716 120.152 298.286 120.689C297.856 121.227 297.337 121.617 296.729 121.86C296.127 122.097 295.447 122.215 294.688 122.215C294.086 122.215 293.531 122.14 293.022 121.989C292.514 121.839 292.056 121.599 291.647 121.27C291.246 120.933 290.903 120.496 290.616 119.959C290.33 119.422 290.111 118.77 289.961 118.004C289.811 117.238 289.735 116.342 289.735 115.318V112.934C289.735 111.652 289.85 110.577 290.079 109.711C290.315 108.844 290.648 108.15 291.078 107.627C291.508 107.097 292.023 106.717 292.625 106.488C293.234 106.259 293.914 106.145 294.666 106.145C295.275 106.145 295.833 106.22 296.342 106.37C296.857 106.513 297.316 106.746 297.717 107.068C298.118 107.383 298.458 107.806 298.737 108.336C299.024 108.859 299.242 109.5 299.393 110.259C299.543 111.018 299.618 111.91 299.618 112.934ZM297.62 115.641V112.601C297.62 111.899 297.577 111.283 297.491 110.753C297.412 110.216 297.294 109.757 297.137 109.378C296.979 108.998 296.779 108.69 296.535 108.454C296.299 108.218 296.023 108.046 295.708 107.938C295.4 107.824 295.053 107.767 294.666 107.767C294.193 107.767 293.774 107.856 293.409 108.035C293.044 108.207 292.736 108.483 292.485 108.862C292.242 109.242 292.056 109.74 291.927 110.355C291.798 110.971 291.733 111.72 291.733 112.601V115.641C291.733 116.342 291.773 116.962 291.852 117.499C291.938 118.036 292.063 118.502 292.228 118.896C292.392 119.282 292.593 119.601 292.829 119.852C293.065 120.102 293.338 120.288 293.646 120.41C293.961 120.525 294.308 120.582 294.688 120.582C295.174 120.582 295.601 120.489 295.966 120.303C296.331 120.117 296.635 119.826 296.879 119.433C297.13 119.032 297.316 118.52 297.438 117.896C297.559 117.266 297.62 116.514 297.62 115.641Z" fill="#041746"/>
<path d="M390.74 118.626L395.349 105.359H397.594L391.804 121H390.203L390.74 118.626ZM386.433 105.359L390.998 118.626L391.567 121H389.967L384.188 105.359H386.433ZM404.673 106.745L399.495 121H397.379L403.341 105.359H404.705L404.673 106.745ZM409.013 121L403.824 106.745L403.792 105.359H405.156L411.14 121H409.013ZM408.744 115.21V116.907H399.957V115.21H408.744ZM425.266 105.359V121H423.182L415.308 108.937V121H413.234V105.359H415.308L423.214 117.455V105.359H425.266Z" fill="#041746"/>
<path d="M395.198 216.626L399.807 203.359H402.052L396.262 219H394.661L395.198 216.626ZM390.891 203.359L395.456 216.626L396.025 219H394.425L388.646 203.359H390.891ZM406.381 203.359V219H404.308V203.359H406.381ZM419.594 214.026H421.656C421.549 215.015 421.266 215.899 420.808 216.68C420.349 217.46 419.701 218.08 418.863 218.538C418.025 218.989 416.98 219.215 415.727 219.215C414.81 219.215 413.976 219.043 413.224 218.699C412.479 218.355 411.838 217.868 411.301 217.238C410.764 216.601 410.348 215.838 410.055 214.95C409.768 214.055 409.625 213.06 409.625 211.964V210.406C409.625 209.311 409.768 208.319 410.055 207.431C410.348 206.535 410.767 205.769 411.312 205.132C411.863 204.494 412.525 204.004 413.299 203.66C414.072 203.316 414.942 203.145 415.909 203.145C417.091 203.145 418.09 203.367 418.906 203.811C419.723 204.255 420.356 204.87 420.808 205.658C421.266 206.439 421.549 207.345 421.656 208.376H419.594C419.493 207.646 419.307 207.019 419.035 206.496C418.763 205.966 418.376 205.558 417.875 205.271C417.374 204.985 416.718 204.842 415.909 204.842C415.215 204.842 414.602 204.974 414.072 205.239C413.549 205.504 413.109 205.88 412.751 206.367C412.4 206.854 412.135 207.438 411.956 208.118C411.777 208.799 411.688 209.554 411.688 210.385V211.964C411.688 212.73 411.766 213.45 411.924 214.123C412.089 214.796 412.336 215.387 412.665 215.896C412.994 216.404 413.413 216.805 413.922 217.099C414.43 217.385 415.032 217.528 415.727 217.528C416.607 217.528 417.309 217.389 417.832 217.109C418.355 216.83 418.749 216.429 419.014 215.906C419.286 215.383 419.479 214.757 419.594 214.026Z" fill="#041746"/>
<path d="M385.702 247.359V263H383.629V247.359H385.702ZM395.145 247.359L388.646 254.653L384.993 258.445L384.649 256.232L387.399 253.203L392.652 247.359H395.145ZM393.146 263L387.356 255.373L388.592 253.729L395.617 263H393.146ZM403.233 248.745L398.056 263H395.939L401.901 247.359H403.266L403.233 248.745ZM407.573 263L402.385 248.745L402.353 247.359H403.717L409.7 263H407.573ZM407.305 257.21V258.907H398.518V257.21H407.305ZM412.45 247.359H414.459L419.583 260.11L424.696 247.359H426.716L420.356 263H418.788L412.45 247.359ZM411.795 247.359H413.567L413.857 256.898V263H411.795V247.359ZM425.588 247.359H427.36V263H425.298V256.898L425.588 247.359Z" fill="#041746"/>
<path d="M394.738 305.273L397.843 294.359H399.347L398.477 298.603L395.136 310H393.643L394.738 305.273ZM391.526 294.359L393.997 305.059L394.738 310H393.256L389.464 294.359H391.526ZM403.364 305.048L405.781 294.359H407.854L404.073 310H402.591L403.364 305.048ZM399.572 294.359L402.591 305.273L403.687 310H402.193L398.971 298.603L398.09 294.359H399.572ZM412.377 294.359V310H410.304V294.359H412.377ZM425.633 308.313V310H417.812V308.313H425.633ZM418.221 294.359V310H416.147V294.359H418.221Z" fill="#041746"/>
<path d="M390.74 165.626L395.349 152.359H397.594L391.804 168H390.203L390.74 165.626ZM386.433 152.359L390.998 165.626L391.567 168H389.967L384.188 152.359H386.433ZM404.673 153.745L399.495 168H397.379L403.341 152.359H404.705L404.673 153.745ZM409.013 168L403.824 153.745L403.792 152.359H405.156L411.14 168H409.013ZM408.744 162.21V163.907H399.957V162.21H408.744ZM425.266 152.359V168H423.182L415.308 155.937V168H413.234V152.359H415.308L423.214 164.455V152.359H425.266Z" fill="#041746"/>
<path d="M510.769 105.273V121H508.781V107.755L504.774 109.216V107.422L510.457 105.273H510.769ZM524.239 105.338H524.411V107.024H524.239C523.187 107.024 522.306 107.196 521.597 107.54C520.888 107.877 520.326 108.331 519.91 108.904C519.495 109.47 519.194 110.107 519.008 110.816C518.829 111.525 518.739 112.245 518.739 112.976V115.274C518.739 115.969 518.822 116.585 518.986 117.122C519.151 117.652 519.377 118.1 519.663 118.465C519.95 118.83 520.272 119.106 520.63 119.292C520.995 119.478 521.375 119.571 521.769 119.571C522.227 119.571 522.635 119.485 522.993 119.313C523.351 119.134 523.652 118.887 523.896 118.572C524.146 118.25 524.336 117.87 524.465 117.434C524.594 116.997 524.658 116.517 524.658 115.994C524.658 115.529 524.601 115.081 524.486 114.651C524.372 114.215 524.196 113.828 523.96 113.491C523.724 113.147 523.426 112.879 523.068 112.686C522.717 112.485 522.299 112.385 521.812 112.385C521.26 112.385 520.744 112.521 520.265 112.793C519.792 113.058 519.402 113.409 519.094 113.846C518.793 114.275 518.621 114.744 518.578 115.253L517.525 115.242C517.626 114.44 517.812 113.756 518.084 113.19C518.363 112.618 518.707 112.152 519.115 111.794C519.531 111.429 519.993 111.164 520.501 110.999C521.017 110.827 521.561 110.741 522.134 110.741C522.914 110.741 523.588 110.888 524.153 111.182C524.719 111.475 525.185 111.869 525.55 112.363C525.915 112.85 526.184 113.402 526.355 114.018C526.535 114.626 526.624 115.253 526.624 115.897C526.624 116.635 526.52 117.326 526.312 117.971C526.105 118.615 525.793 119.181 525.378 119.668C524.97 120.155 524.465 120.535 523.863 120.807C523.262 121.079 522.563 121.215 521.769 121.215C520.924 121.215 520.186 121.043 519.556 120.699C518.925 120.348 518.403 119.883 517.987 119.303C517.572 118.723 517.26 118.078 517.053 117.369C516.845 116.66 516.741 115.94 516.741 115.21V114.275C516.741 113.173 516.852 112.091 517.074 111.031C517.296 109.971 517.679 109.012 518.224 108.152C518.775 107.293 519.538 106.609 520.512 106.101C521.486 105.592 522.728 105.338 524.239 105.338ZM531.501 113.556L529.911 113.147L530.695 105.359H538.72V107.196H532.382L531.909 111.45C532.196 111.285 532.557 111.132 532.994 110.988C533.438 110.845 533.947 110.773 534.52 110.773C535.243 110.773 535.891 110.899 536.464 111.149C537.037 111.393 537.524 111.744 537.925 112.202C538.333 112.66 538.645 113.212 538.859 113.856C539.074 114.501 539.182 115.221 539.182 116.016C539.182 116.768 539.078 117.459 538.87 118.089C538.67 118.719 538.365 119.271 537.957 119.743C537.549 120.209 537.033 120.57 536.41 120.828C535.794 121.086 535.067 121.215 534.229 121.215C533.599 121.215 533.001 121.129 532.436 120.957C531.877 120.778 531.376 120.509 530.932 120.151C530.495 119.786 530.137 119.335 529.857 118.798C529.585 118.254 529.413 117.616 529.342 116.886H531.232C531.318 117.473 531.49 117.967 531.748 118.368C532.006 118.769 532.342 119.074 532.758 119.281C533.18 119.482 533.671 119.582 534.229 119.582C534.702 119.582 535.121 119.5 535.486 119.335C535.852 119.17 536.16 118.934 536.41 118.626C536.661 118.318 536.851 117.946 536.979 117.509C537.116 117.072 537.184 116.581 537.184 116.037C537.184 115.543 537.116 115.085 536.979 114.662C536.843 114.24 536.639 113.871 536.367 113.556C536.102 113.241 535.776 112.997 535.39 112.825C535.003 112.646 534.559 112.557 534.058 112.557C533.392 112.557 532.887 112.646 532.543 112.825C532.206 113.004 531.859 113.248 531.501 113.556Z" fill="#041746"/>
<path d="M510.769 203.273V219H508.781V205.755L504.774 207.216V205.422L510.457 203.273H510.769ZM519.126 211.556L517.536 211.147L518.32 203.359H526.345V205.196H520.007L519.534 209.45C519.821 209.285 520.182 209.132 520.619 208.988C521.063 208.845 521.572 208.773 522.145 208.773C522.868 208.773 523.516 208.899 524.089 209.149C524.662 209.393 525.149 209.744 525.55 210.202C525.958 210.66 526.27 211.212 526.484 211.856C526.699 212.501 526.807 213.221 526.807 214.016C526.807 214.768 526.703 215.459 526.495 216.089C526.295 216.719 525.99 217.271 525.582 217.743C525.174 218.209 524.658 218.57 524.035 218.828C523.419 219.086 522.692 219.215 521.854 219.215C521.224 219.215 520.626 219.129 520.061 218.957C519.502 218.778 519.001 218.509 518.557 218.151C518.12 217.786 517.762 217.335 517.482 216.798C517.21 216.254 517.038 215.616 516.967 214.886H518.857C518.943 215.473 519.115 215.967 519.373 216.368C519.631 216.769 519.967 217.074 520.383 217.281C520.805 217.482 521.296 217.582 521.854 217.582C522.327 217.582 522.746 217.5 523.111 217.335C523.477 217.17 523.785 216.934 524.035 216.626C524.286 216.318 524.476 215.946 524.604 215.509C524.741 215.072 524.809 214.581 524.809 214.037C524.809 213.543 524.741 213.085 524.604 212.662C524.468 212.24 524.264 211.871 523.992 211.556C523.727 211.241 523.401 210.997 523.015 210.825C522.628 210.646 522.184 210.557 521.683 210.557C521.017 210.557 520.512 210.646 520.168 210.825C519.831 211.004 519.484 211.248 519.126 211.556ZM530.964 217.335H531.168C532.314 217.335 533.245 217.174 533.961 216.852C534.677 216.529 535.229 216.096 535.615 215.552C536.002 215.007 536.267 214.395 536.41 213.715C536.553 213.027 536.625 212.322 536.625 211.599V209.203C536.625 208.494 536.543 207.864 536.378 207.312C536.22 206.761 535.998 206.299 535.712 205.927C535.433 205.554 535.114 205.271 534.756 205.078C534.398 204.885 534.018 204.788 533.617 204.788C533.159 204.788 532.747 204.881 532.382 205.067C532.024 205.246 531.719 205.501 531.469 205.83C531.225 206.16 531.039 206.546 530.91 206.99C530.781 207.434 530.717 207.918 530.717 208.44C530.717 208.906 530.774 209.357 530.889 209.794C531.003 210.231 531.179 210.625 531.415 210.976C531.651 211.326 531.945 211.606 532.296 211.813C532.654 212.014 533.073 212.114 533.553 212.114C533.997 212.114 534.412 212.028 534.799 211.856C535.193 211.677 535.54 211.438 535.841 211.137C536.149 210.829 536.392 210.481 536.571 210.095C536.757 209.708 536.865 209.303 536.894 208.881H537.839C537.839 209.475 537.721 210.062 537.484 210.643C537.255 211.215 536.933 211.738 536.518 212.211C536.102 212.684 535.615 213.063 535.057 213.35C534.498 213.629 533.889 213.769 533.23 213.769C532.457 213.769 531.787 213.618 531.222 213.317C530.656 213.017 530.19 212.616 529.825 212.114C529.467 211.613 529.199 211.054 529.02 210.438C528.848 209.815 528.762 209.185 528.762 208.548C528.762 207.803 528.866 207.105 529.073 206.453C529.281 205.801 529.589 205.229 529.997 204.734C530.405 204.233 530.91 203.843 531.512 203.563C532.12 203.284 532.822 203.145 533.617 203.145C534.512 203.145 535.275 203.324 535.905 203.682C536.535 204.04 537.048 204.52 537.441 205.121C537.842 205.723 538.136 206.399 538.322 207.151C538.508 207.903 538.602 208.677 538.602 209.472V210.191C538.602 211.001 538.548 211.824 538.44 212.662C538.34 213.493 538.143 214.288 537.85 215.047C537.563 215.806 537.144 216.486 536.593 217.088C536.041 217.682 535.322 218.155 534.434 218.506C533.553 218.85 532.464 219.021 531.168 219.021H530.964V217.335Z" fill="#041746"/>
<path d="M510.769 247.273V263H508.781V249.755L504.774 251.216V249.422L510.457 247.273H510.769ZM526.474 258.768C526.474 259.72 526.252 260.529 525.808 261.195C525.371 261.854 524.776 262.355 524.024 262.699C523.28 263.043 522.438 263.215 521.5 263.215C520.562 263.215 519.717 263.043 518.965 262.699C518.213 262.355 517.618 261.854 517.182 261.195C516.745 260.529 516.526 259.72 516.526 258.768C516.526 258.145 516.645 257.575 516.881 257.06C517.124 256.537 517.465 256.082 517.901 255.695C518.345 255.309 518.868 255.011 519.47 254.804C520.078 254.589 520.748 254.481 521.479 254.481C522.438 254.481 523.294 254.668 524.046 255.04C524.798 255.405 525.389 255.91 525.818 256.555C526.255 257.199 526.474 257.937 526.474 258.768ZM524.476 258.725C524.476 258.145 524.35 257.632 524.1 257.188C523.849 256.737 523.498 256.386 523.047 256.136C522.596 255.885 522.073 255.76 521.479 255.76C520.87 255.76 520.343 255.885 519.899 256.136C519.463 256.386 519.122 256.737 518.879 257.188C518.635 257.632 518.514 258.145 518.514 258.725C518.514 259.326 518.632 259.842 518.868 260.271C519.112 260.694 519.455 261.02 519.899 261.249C520.351 261.471 520.884 261.582 521.5 261.582C522.116 261.582 522.646 261.471 523.09 261.249C523.534 261.02 523.874 260.694 524.11 260.271C524.354 259.842 524.476 259.326 524.476 258.725ZM526.108 251.431C526.108 252.19 525.908 252.874 525.507 253.482C525.106 254.091 524.558 254.571 523.863 254.922C523.169 255.273 522.381 255.448 521.5 255.448C520.605 255.448 519.806 255.273 519.104 254.922C518.41 254.571 517.866 254.091 517.472 253.482C517.078 252.874 516.881 252.19 516.881 251.431C516.881 250.521 517.078 249.748 517.472 249.11C517.873 248.473 518.421 247.986 519.115 247.649C519.81 247.313 520.601 247.145 521.489 247.145C522.384 247.145 523.179 247.313 523.874 247.649C524.569 247.986 525.113 248.473 525.507 249.11C525.908 249.748 526.108 250.521 526.108 251.431ZM524.121 251.463C524.121 250.94 524.01 250.478 523.788 250.077C523.566 249.676 523.258 249.361 522.864 249.132C522.47 248.896 522.012 248.777 521.489 248.777C520.966 248.777 520.508 248.888 520.114 249.11C519.728 249.325 519.423 249.633 519.201 250.034C518.986 250.435 518.879 250.911 518.879 251.463C518.879 252 518.986 252.469 519.201 252.87C519.423 253.271 519.731 253.583 520.125 253.805C520.519 254.027 520.977 254.138 521.5 254.138C522.023 254.138 522.478 254.027 522.864 253.805C523.258 253.583 523.566 253.271 523.788 252.87C524.01 252.469 524.121 252 524.121 251.463ZM539.096 247.359V248.477L532.618 263H530.523L536.99 248.992H528.525V247.359H539.096Z" fill="#041746"/>
<path d="M512.769 294.273V310H510.781V296.755L506.774 298.216V296.422L512.457 294.273H512.769ZM521.126 302.556L519.536 302.147L520.32 294.359H528.345V296.196H522.007L521.534 300.45C521.821 300.285 522.182 300.132 522.619 299.988C523.063 299.845 523.572 299.773 524.145 299.773C524.868 299.773 525.516 299.899 526.089 300.149C526.662 300.393 527.149 300.744 527.55 301.202C527.958 301.66 528.27 302.212 528.484 302.856C528.699 303.501 528.807 304.221 528.807 305.016C528.807 305.768 528.703 306.459 528.495 307.089C528.295 307.719 527.99 308.271 527.582 308.743C527.174 309.209 526.658 309.57 526.035 309.828C525.419 310.086 524.692 310.215 523.854 310.215C523.224 310.215 522.626 310.129 522.061 309.957C521.502 309.778 521.001 309.509 520.557 309.151C520.12 308.786 519.762 308.335 519.482 307.798C519.21 307.254 519.038 306.616 518.967 305.886H520.857C520.943 306.473 521.115 306.967 521.373 307.368C521.631 307.769 521.967 308.074 522.383 308.281C522.805 308.482 523.296 308.582 523.854 308.582C524.327 308.582 524.746 308.5 525.111 308.335C525.477 308.17 525.785 307.934 526.035 307.626C526.286 307.318 526.476 306.946 526.604 306.509C526.741 306.072 526.809 305.581 526.809 305.037C526.809 304.543 526.741 304.085 526.604 303.662C526.468 303.24 526.264 302.871 525.992 302.556C525.727 302.241 525.401 301.997 525.015 301.825C524.628 301.646 524.184 301.557 523.683 301.557C523.017 301.557 522.512 301.646 522.168 301.825C521.831 302.004 521.484 302.248 521.126 302.556ZM540.849 305.768C540.849 306.72 540.627 307.529 540.183 308.195C539.746 308.854 539.151 309.355 538.399 309.699C537.655 310.043 536.813 310.215 535.875 310.215C534.937 310.215 534.092 310.043 533.34 309.699C532.588 309.355 531.993 308.854 531.557 308.195C531.12 307.529 530.901 306.72 530.901 305.768C530.901 305.145 531.02 304.575 531.256 304.06C531.499 303.537 531.84 303.082 532.276 302.695C532.72 302.309 533.243 302.011 533.845 301.804C534.453 301.589 535.123 301.481 535.854 301.481C536.813 301.481 537.669 301.668 538.421 302.04C539.173 302.405 539.764 302.91 540.193 303.555C540.63 304.199 540.849 304.937 540.849 305.768ZM538.851 305.725C538.851 305.145 538.725 304.632 538.475 304.188C538.224 303.737 537.873 303.386 537.422 303.136C536.971 302.885 536.448 302.76 535.854 302.76C535.245 302.76 534.718 302.885 534.274 303.136C533.838 303.386 533.497 303.737 533.254 304.188C533.01 304.632 532.889 305.145 532.889 305.725C532.889 306.326 533.007 306.842 533.243 307.271C533.487 307.694 533.83 308.02 534.274 308.249C534.726 308.471 535.259 308.582 535.875 308.582C536.491 308.582 537.021 308.471 537.465 308.249C537.909 308.02 538.249 307.694 538.485 307.271C538.729 306.842 538.851 306.326 538.851 305.725ZM540.483 298.431C540.483 299.19 540.283 299.874 539.882 300.482C539.481 301.091 538.933 301.571 538.238 301.922C537.544 302.273 536.756 302.448 535.875 302.448C534.98 302.448 534.181 302.273 533.479 301.922C532.785 301.571 532.241 301.091 531.847 300.482C531.453 299.874 531.256 299.19 531.256 298.431C531.256 297.521 531.453 296.748 531.847 296.11C532.248 295.473 532.796 294.986 533.49 294.649C534.185 294.313 534.976 294.145 535.864 294.145C536.759 294.145 537.554 294.313 538.249 294.649C538.944 294.986 539.488 295.473 539.882 296.11C540.283 296.748 540.483 297.521 540.483 298.431ZM538.496 298.463C538.496 297.94 538.385 297.478 538.163 297.077C537.941 296.676 537.633 296.361 537.239 296.132C536.845 295.896 536.387 295.777 535.864 295.777C535.341 295.777 534.883 295.888 534.489 296.11C534.103 296.325 533.798 296.633 533.576 297.034C533.361 297.435 533.254 297.911 533.254 298.463C533.254 299 533.361 299.469 533.576 299.87C533.798 300.271 534.106 300.583 534.5 300.805C534.894 301.027 535.352 301.138 535.875 301.138C536.398 301.138 536.853 301.027 537.239 300.805C537.633 300.583 537.941 300.271 538.163 299.87C538.385 299.469 538.496 299 538.496 298.463Z" fill="#041746"/>
<path d="M510.769 152.273V168H508.781V154.755L504.774 156.216V154.422L510.457 152.273H510.769ZM526.721 152.359V153.477L520.243 168H518.148L524.615 153.992H516.15V152.359H526.721ZM539.558 162.736V164.369H528.257V163.198L535.261 152.359H536.883L535.143 155.496L530.513 162.736H539.558ZM537.377 152.359V168H535.39V152.359H537.377Z" fill="#041746"/>
<path d="M633.429 105.359L637.489 113.212L641.561 105.359H643.913L638.521 115.156V121H636.447V115.156L631.055 105.359H633.429Z" fill="#041746"/>
<path d="M643.494 203.359V219H641.41L633.536 206.937V219H631.463V203.359H633.536L641.442 215.455V203.359H643.494Z" fill="#041746"/>
<path d="M633.429 247.359L637.489 255.212L641.561 247.359H643.913L638.521 257.156V263H636.447V257.156L631.055 247.359H633.429Z" fill="#041746"/>
<path d="M645.494 294.359V310H643.41L635.536 297.937V310H633.463V294.359H635.536L643.442 306.455V294.359H645.494Z" fill="#041746"/>
<path d="M633.429 152.359L637.489 160.212L641.561 152.359H643.913L638.521 162.156V168H636.447V162.156L631.055 152.359H633.429Z" fill="#041746"/>
<rect x="349.5" y="141.5" width="112" height="43" stroke="#041746"/>
<rect x="233.5" y="188.5" width="112" height="43" stroke="#041746"/>
<rect x="349.5" y="188.5" width="112" height="43" stroke="#041746"/>
<rect x="233.5" y="141.5" width="112" height="43" stroke="#041746"/>
<rect x="349.5" y="141.5" width="112" height="43" stroke="#041746"/>
<rect x="233.5" y="188.5" width="112" height="43" stroke="#041746"/>
<rect x="349.5" y="188.5" width="112" height="43" stroke="#041746"/>
<rect x="233.5" y="141.5" width="112" height="43" stroke="#041746"/>
<rect x="233.5" y="93.5" width="112" height="43" stroke="#041746"/>
<rect x="233.5" y="188.5" width="112" height="43" stroke="#041746"/>
<rect x="233.5" y="235.5" width="112" height="43" stroke="#041746"/>
<rect x="233.5" y="282.5" width="112" height="43" stroke="#041746"/>
<rect x="350.5" y="235.5" width="112" height="43" stroke="#041746"/>
<rect x="350.5" y="282.5" width="112" height="43" stroke="#041746"/>
<rect x="466.5" y="236.5" width="112" height="43" stroke="#041746"/>
<rect x="466.5" y="283.5" width="112" height="43" stroke="#041746"/>
<rect x="583.5" y="235.5" width="112" height="43" stroke="#041746"/>
<rect x="583.5" y="282.5" width="112" height="43" stroke="#041746"/>
<path d="M278.473 41.041L273.766 54H271.842L277.262 39.7812H278.502L278.473 41.041ZM282.418 54L277.701 41.041L277.672 39.7812H278.912L284.352 54H282.418ZM282.174 48.7363V50.2793H274.186V48.7363H282.174ZM292.828 43.4336H294.469V53.7754C294.469 54.7064 294.28 55.5007 293.902 56.1582C293.525 56.8158 292.997 57.3138 292.32 57.6523C291.65 57.9974 290.875 58.1699 289.996 58.1699C289.632 58.1699 289.202 58.1113 288.707 57.9941C288.219 57.8835 287.737 57.6914 287.262 57.418C286.793 57.151 286.399 56.7897 286.08 56.334L287.027 55.2598C287.47 55.7936 287.932 56.1647 288.414 56.373C288.902 56.5814 289.384 56.6855 289.859 56.6855C290.432 56.6855 290.927 56.5781 291.344 56.3633C291.76 56.1484 292.083 55.8294 292.311 55.4062C292.545 54.9896 292.662 54.4753 292.662 53.8633V45.7578L292.828 43.4336ZM285.553 48.834V48.6289C285.553 47.8216 285.647 47.0892 285.836 46.4316C286.031 45.7676 286.308 45.1979 286.666 44.7227C287.031 44.2474 287.47 43.8828 287.984 43.6289C288.499 43.3685 289.078 43.2383 289.723 43.2383C290.387 43.2383 290.966 43.3555 291.461 43.5898C291.962 43.8177 292.385 44.153 292.73 44.5957C293.082 45.0319 293.359 45.5592 293.561 46.1777C293.762 46.7962 293.902 47.4961 293.98 48.2773V49.1758C293.909 49.9505 293.769 50.6471 293.561 51.2656C293.359 51.8841 293.082 52.4115 292.73 52.8477C292.385 53.2839 291.962 53.6191 291.461 53.8535C290.96 54.0814 290.374 54.1953 289.703 54.1953C289.072 54.1953 288.499 54.0618 287.984 53.7949C287.477 53.528 287.04 53.1536 286.676 52.6719C286.311 52.1901 286.031 51.6237 285.836 50.9727C285.647 50.3151 285.553 49.6022 285.553 48.834ZM287.359 48.6289V48.834C287.359 49.3613 287.411 49.8561 287.516 50.3184C287.626 50.7806 287.792 51.1875 288.014 51.5391C288.242 51.8906 288.531 52.1673 288.883 52.3691C289.234 52.5645 289.654 52.6621 290.143 52.6621C290.742 52.6621 291.236 52.5352 291.627 52.2812C292.018 52.0273 292.327 51.6921 292.555 51.2754C292.789 50.8587 292.971 50.4062 293.102 49.918V47.5645C293.03 47.2064 292.919 46.8613 292.77 46.5293C292.626 46.1908 292.438 45.8913 292.203 45.6309C291.975 45.3639 291.692 45.1523 291.354 44.9961C291.015 44.8398 290.618 44.7617 290.162 44.7617C289.667 44.7617 289.241 44.8659 288.883 45.0742C288.531 45.276 288.242 45.556 288.014 45.9141C287.792 46.2656 287.626 46.6758 287.516 47.1445C287.411 47.6068 287.359 48.1016 287.359 48.6289ZM301.598 54.1953C300.862 54.1953 300.195 54.0716 299.596 53.8242C299.003 53.5703 298.492 53.2155 298.062 52.7598C297.639 52.304 297.314 51.7637 297.086 51.1387C296.858 50.5137 296.744 49.8301 296.744 49.0879V48.6777C296.744 47.8184 296.871 47.0534 297.125 46.3828C297.379 45.7057 297.724 45.1328 298.16 44.6641C298.596 44.1953 299.091 43.8405 299.645 43.5996C300.198 43.3587 300.771 43.2383 301.363 43.2383C302.118 43.2383 302.77 43.3685 303.316 43.6289C303.87 43.8893 304.322 44.2539 304.674 44.7227C305.025 45.1849 305.286 45.7318 305.455 46.3633C305.624 46.9883 305.709 47.6719 305.709 48.4141V49.2246H297.818V47.75H303.902V47.6133C303.876 47.1445 303.779 46.6888 303.609 46.2461C303.447 45.8034 303.186 45.4388 302.828 45.1523C302.47 44.8659 301.982 44.7227 301.363 44.7227C300.953 44.7227 300.576 44.8105 300.23 44.9863C299.885 45.1556 299.589 45.4095 299.342 45.748C299.094 46.0866 298.902 46.5 298.766 46.9883C298.629 47.4766 298.561 48.0397 298.561 48.6777V49.0879C298.561 49.5892 298.629 50.0612 298.766 50.5039C298.909 50.9401 299.114 51.3242 299.381 51.6562C299.654 51.9883 299.983 52.2487 300.367 52.4375C300.758 52.6263 301.201 52.7207 301.695 52.7207C302.333 52.7207 302.874 52.5905 303.316 52.3301C303.759 52.0697 304.146 51.7214 304.479 51.2852L305.572 52.1543C305.344 52.4993 305.055 52.8281 304.703 53.1406C304.352 53.4531 303.919 53.707 303.404 53.9023C302.896 54.0977 302.294 54.1953 301.598 54.1953ZM259.43 71.3164V71.2188C259.43 69.7995 259.589 68.5169 259.908 67.3711C260.227 66.2188 260.634 65.2096 261.129 64.3438C261.624 63.4779 262.145 62.7617 262.691 62.1953C263.238 61.6224 263.743 61.209 264.205 60.9551L264.586 62.1465C264.202 62.4395 263.811 62.8431 263.414 63.3574C263.023 63.8717 262.662 64.5033 262.33 65.252C262.005 66.0007 261.741 66.8698 261.539 67.8594C261.337 68.849 261.236 69.9622 261.236 71.1992V71.3359C261.236 72.5729 261.337 73.6895 261.539 74.6855C261.741 75.6751 262.005 76.5475 262.33 77.3027C262.662 78.0579 263.023 78.6992 263.414 79.2266C263.811 79.7604 264.202 80.1836 264.586 80.4961L264.205 81.5898C263.743 81.3359 263.238 80.9225 262.691 80.3496C262.145 79.7832 261.624 79.0671 261.129 78.2012C260.634 77.3418 260.227 76.3359 259.908 75.1836C259.589 74.0312 259.43 72.7422 259.43 71.3164ZM269.322 75.9062L272.262 66.4336H274.195L269.957 78.6309C269.859 78.8913 269.729 79.1712 269.566 79.4707C269.41 79.7767 269.208 80.0664 268.961 80.3398C268.714 80.6133 268.414 80.8346 268.062 81.0039C267.717 81.1797 267.304 81.2676 266.822 81.2676C266.679 81.2676 266.497 81.248 266.275 81.209C266.054 81.1699 265.898 81.1374 265.807 81.1113L265.797 79.6465C265.849 79.653 265.93 79.6595 266.041 79.666C266.158 79.679 266.24 79.6855 266.285 79.6855C266.695 79.6855 267.044 79.6302 267.33 79.5195C267.617 79.4154 267.857 79.2363 268.053 78.9824C268.255 78.735 268.427 78.3932 268.57 77.957L269.322 75.9062ZM267.164 66.4336L269.908 74.6367L270.377 76.541L269.078 77.2051L265.191 66.4336H267.164ZM280.074 77.1953C279.339 77.1953 278.671 77.0716 278.072 76.8242C277.48 76.5703 276.969 76.2155 276.539 75.7598C276.116 75.304 275.79 74.7637 275.562 74.1387C275.335 73.5137 275.221 72.8301 275.221 72.0879V71.6777C275.221 70.8184 275.348 70.0534 275.602 69.3828C275.855 68.7057 276.201 68.1328 276.637 67.6641C277.073 67.1953 277.568 66.8405 278.121 66.5996C278.674 66.3587 279.247 66.2383 279.84 66.2383C280.595 66.2383 281.246 66.3685 281.793 66.6289C282.346 66.8893 282.799 67.2539 283.15 67.7227C283.502 68.1849 283.762 68.7318 283.932 69.3633C284.101 69.9883 284.186 70.6719 284.186 71.4141V72.2246H276.295V70.75H282.379V70.6133C282.353 70.1445 282.255 69.6888 282.086 69.2461C281.923 68.8034 281.663 68.4388 281.305 68.1523C280.947 67.8659 280.458 67.7227 279.84 67.7227C279.43 67.7227 279.052 67.8105 278.707 67.9863C278.362 68.1556 278.066 68.4095 277.818 68.748C277.571 69.0866 277.379 69.5 277.242 69.9883C277.105 70.4766 277.037 71.0397 277.037 71.6777V72.0879C277.037 72.5892 277.105 73.0612 277.242 73.5039C277.385 73.9401 277.59 74.3242 277.857 74.6562C278.131 74.9883 278.46 75.2487 278.844 75.4375C279.234 75.6263 279.677 75.7207 280.172 75.7207C280.81 75.7207 281.35 75.5905 281.793 75.3301C282.236 75.0697 282.623 74.7214 282.955 74.2852L284.049 75.1543C283.821 75.4993 283.531 75.8281 283.18 76.1406C282.828 76.4531 282.395 76.707 281.881 76.9023C281.373 77.0977 280.771 77.1953 280.074 77.1953ZM292.525 75.1934V69.7539C292.525 69.3372 292.441 68.9759 292.271 68.6699C292.109 68.3574 291.861 68.1165 291.529 67.9473C291.197 67.778 290.787 67.6934 290.299 67.6934C289.843 67.6934 289.443 67.7715 289.098 67.9277C288.759 68.084 288.492 68.2891 288.297 68.543C288.108 68.7969 288.014 69.0703 288.014 69.3633H286.207C286.207 68.9857 286.305 68.6113 286.5 68.2402C286.695 67.8691 286.975 67.5339 287.34 67.2344C287.711 66.9284 288.154 66.6875 288.668 66.5117C289.189 66.3294 289.768 66.2383 290.406 66.2383C291.174 66.2383 291.852 66.3685 292.438 66.6289C293.03 66.8893 293.492 67.2832 293.824 67.8105C294.163 68.3314 294.332 68.9857 294.332 69.7734V74.6953C294.332 75.0469 294.361 75.4212 294.42 75.8184C294.485 76.2155 294.579 76.5573 294.703 76.8438V77H292.818C292.727 76.7917 292.656 76.515 292.604 76.1699C292.551 75.8184 292.525 75.4928 292.525 75.1934ZM292.838 70.5938L292.857 71.8633H291.031C290.517 71.8633 290.058 71.9056 289.654 71.9902C289.251 72.0684 288.912 72.1888 288.639 72.3516C288.365 72.5143 288.157 72.7194 288.014 72.9668C287.87 73.2077 287.799 73.4909 287.799 73.8164C287.799 74.1484 287.874 74.4512 288.023 74.7246C288.173 74.998 288.398 75.2161 288.697 75.3789C289.003 75.5352 289.378 75.6133 289.82 75.6133C290.374 75.6133 290.862 75.4961 291.285 75.2617C291.708 75.0273 292.044 74.7409 292.291 74.4023C292.545 74.0638 292.682 73.735 292.701 73.416L293.473 74.2852C293.427 74.5586 293.303 74.8613 293.102 75.1934C292.9 75.5254 292.63 75.8444 292.291 76.1504C291.959 76.4499 291.562 76.7005 291.1 76.9023C290.644 77.0977 290.13 77.1953 289.557 77.1953C288.84 77.1953 288.212 77.0553 287.672 76.7754C287.138 76.4954 286.721 76.1211 286.422 75.6523C286.129 75.1771 285.982 74.6465 285.982 74.0605C285.982 73.4941 286.093 72.9961 286.314 72.5664C286.536 72.1302 286.855 71.7689 287.271 71.4824C287.688 71.1895 288.189 70.9681 288.775 70.8184C289.361 70.6686 290.016 70.5938 290.738 70.5938H292.838ZM298.98 68.0938V77H297.174V66.4336H298.932L298.98 68.0938ZM302.281 66.375L302.271 68.0547C302.122 68.0221 301.979 68.0026 301.842 67.9961C301.712 67.9831 301.562 67.9766 301.393 67.9766C300.976 67.9766 300.608 68.0417 300.289 68.1719C299.97 68.3021 299.7 68.4844 299.479 68.7188C299.257 68.9531 299.081 69.2331 298.951 69.5586C298.827 69.8776 298.746 70.2292 298.707 70.6133L298.199 70.9062C298.199 70.2682 298.261 69.6693 298.385 69.1094C298.515 68.5495 298.714 68.0547 298.98 67.625C299.247 67.1888 299.586 66.8503 299.996 66.6094C300.413 66.362 300.908 66.2383 301.48 66.2383C301.611 66.2383 301.76 66.2546 301.93 66.2871C302.099 66.3132 302.216 66.3424 302.281 66.375ZM310.104 74.1973C310.104 73.9368 310.045 73.696 309.928 73.4746C309.817 73.2467 309.586 73.0417 309.234 72.8594C308.889 72.6706 308.368 72.5078 307.672 72.3711C307.086 72.2474 306.555 72.1009 306.08 71.9316C305.611 71.7624 305.211 71.5573 304.879 71.3164C304.553 71.0755 304.303 70.7923 304.127 70.4668C303.951 70.1413 303.863 69.7604 303.863 69.3242C303.863 68.9076 303.954 68.5137 304.137 68.1426C304.326 67.7715 304.589 67.4427 304.928 67.1562C305.273 66.8698 305.686 66.6452 306.168 66.4824C306.65 66.3197 307.187 66.2383 307.779 66.2383C308.626 66.2383 309.348 66.388 309.947 66.6875C310.546 66.987 311.005 67.3874 311.324 67.8887C311.643 68.3835 311.803 68.9336 311.803 69.5391H309.996C309.996 69.2461 309.908 68.9629 309.732 68.6895C309.563 68.4095 309.312 68.1784 308.98 67.9961C308.655 67.8138 308.255 67.7227 307.779 67.7227C307.278 67.7227 306.871 67.8008 306.559 67.957C306.253 68.1068 306.028 68.2988 305.885 68.5332C305.748 68.7676 305.68 69.015 305.68 69.2754C305.68 69.4707 305.712 69.6465 305.777 69.8027C305.849 69.9525 305.973 70.0924 306.148 70.2227C306.324 70.3464 306.572 70.4635 306.891 70.5742C307.21 70.6849 307.617 70.7956 308.111 70.9062C308.977 71.1016 309.69 71.3359 310.25 71.6094C310.81 71.8828 311.227 72.2181 311.5 72.6152C311.773 73.0124 311.91 73.4941 311.91 74.0605C311.91 74.5228 311.812 74.946 311.617 75.3301C311.428 75.7142 311.152 76.0462 310.787 76.3262C310.429 76.5996 309.999 76.8145 309.498 76.9707C309.003 77.1204 308.447 77.1953 307.828 77.1953C306.897 77.1953 306.109 77.0293 305.465 76.6973C304.82 76.3652 304.332 75.9355 304 75.4082C303.668 74.8809 303.502 74.3242 303.502 73.7383H305.318C305.344 74.2331 305.488 74.627 305.748 74.9199C306.008 75.2064 306.327 75.4115 306.705 75.5352C307.083 75.6523 307.457 75.7109 307.828 75.7109C308.323 75.7109 308.736 75.6458 309.068 75.5156C309.407 75.3854 309.664 75.2064 309.84 74.9785C310.016 74.7507 310.104 74.4902 310.104 74.1973ZM318.443 71.2188V71.3164C318.443 72.7422 318.284 74.0312 317.965 75.1836C317.646 76.3359 317.239 77.3418 316.744 78.2012C316.249 79.0671 315.729 79.7832 315.182 80.3496C314.635 80.9225 314.13 81.3359 313.668 81.5898L313.287 80.4961C313.671 80.2031 314.059 79.793 314.449 79.2656C314.84 78.7448 315.201 78.1003 315.533 77.332C315.865 76.5703 316.132 75.6914 316.334 74.6953C316.536 73.6927 316.637 72.5729 316.637 71.3359V71.1992C316.637 69.9622 316.529 68.8457 316.314 67.8496C316.1 66.847 315.82 65.9648 315.475 65.2031C315.136 64.4414 314.771 63.8001 314.381 63.2793C313.997 62.752 313.632 62.3451 313.287 62.0586L313.668 60.9551C314.13 61.209 314.635 61.6224 315.182 62.1953C315.729 62.7617 316.249 63.4779 316.744 64.3438C317.239 65.2096 317.646 66.2188 317.965 67.3711C318.284 68.5169 318.443 69.7995 318.443 71.2188Z" fill="white"/>
<path d="M96.582 59.4238H92.7832V57.8906H96.582C97.3177 57.8906 97.9134 57.7734 98.3691 57.5391C98.8249 57.3047 99.1569 56.9792 99.3652 56.5625C99.5801 56.1458 99.6875 55.6706 99.6875 55.1367C99.6875 54.6484 99.5801 54.1895 99.3652 53.7598C99.1569 53.3301 98.8249 52.985 98.3691 52.7246C97.9134 52.4577 97.3177 52.3242 96.582 52.3242H93.2227V65H91.3379V50.7812H96.582C97.6562 50.7812 98.5645 50.9668 99.3066 51.3379C100.049 51.709 100.612 52.2233 100.996 52.8809C101.38 53.5319 101.572 54.2773 101.572 55.1172C101.572 56.0286 101.38 56.8066 100.996 57.4512C100.612 58.0957 100.049 58.5872 99.3066 58.9258C98.5645 59.2578 97.6562 59.4238 96.582 59.4238ZM109.795 63.1934V57.7539C109.795 57.3372 109.71 56.9759 109.541 56.6699C109.378 56.3574 109.131 56.1165 108.799 55.9473C108.467 55.778 108.057 55.6934 107.568 55.6934C107.113 55.6934 106.712 55.7715 106.367 55.9277C106.029 56.084 105.762 56.2891 105.566 56.543C105.378 56.7969 105.283 57.0703 105.283 57.3633H103.477C103.477 56.9857 103.574 56.6113 103.77 56.2402C103.965 55.8691 104.245 55.5339 104.609 55.2344C104.98 54.9284 105.423 54.6875 105.938 54.5117C106.458 54.3294 107.038 54.2383 107.676 54.2383C108.444 54.2383 109.121 54.3685 109.707 54.6289C110.299 54.8893 110.762 55.2832 111.094 55.8105C111.432 56.3314 111.602 56.9857 111.602 57.7734V62.6953C111.602 63.0469 111.631 63.4212 111.689 63.8184C111.755 64.2155 111.849 64.5573 111.973 64.8438V65H110.088C109.997 64.7917 109.925 64.515 109.873 64.1699C109.821 63.8184 109.795 63.4928 109.795 63.1934ZM110.107 58.5938L110.127 59.8633H108.301C107.786 59.8633 107.327 59.9056 106.924 59.9902C106.52 60.0684 106.182 60.1888 105.908 60.3516C105.635 60.5143 105.426 60.7194 105.283 60.9668C105.14 61.2077 105.068 61.4909 105.068 61.8164C105.068 62.1484 105.143 62.4512 105.293 62.7246C105.443 62.998 105.667 63.2161 105.967 63.3789C106.273 63.5352 106.647 63.6133 107.09 63.6133C107.643 63.6133 108.132 63.4961 108.555 63.2617C108.978 63.0273 109.313 62.7409 109.561 62.4023C109.814 62.0638 109.951 61.735 109.971 61.416L110.742 62.2852C110.697 62.5586 110.573 62.8613 110.371 63.1934C110.169 63.5254 109.899 63.8444 109.561 64.1504C109.229 64.4499 108.831 64.7005 108.369 64.9023C107.913 65.0977 107.399 65.1953 106.826 65.1953C106.11 65.1953 105.482 65.0553 104.941 64.7754C104.408 64.4954 103.991 64.1211 103.691 63.6523C103.398 63.1771 103.252 62.6465 103.252 62.0605C103.252 61.4941 103.363 60.9961 103.584 60.5664C103.805 60.1302 104.124 59.7689 104.541 59.4824C104.958 59.1895 105.459 58.9681 106.045 58.8184C106.631 58.6686 107.285 58.5938 108.008 58.5938H110.107ZM116.25 56.0938V65H114.443V54.4336H116.201L116.25 56.0938ZM119.551 54.375L119.541 56.0547C119.391 56.0221 119.248 56.0026 119.111 55.9961C118.981 55.9831 118.831 55.9766 118.662 55.9766C118.245 55.9766 117.878 56.0417 117.559 56.1719C117.24 56.3021 116.969 56.4844 116.748 56.7188C116.527 56.9531 116.351 57.2331 116.221 57.5586C116.097 57.8776 116.016 58.2292 115.977 58.6133L115.469 58.9062C115.469 58.2682 115.531 57.6693 115.654 57.1094C115.785 56.5495 115.983 56.0547 116.25 55.625C116.517 55.1888 116.855 54.8503 117.266 54.6094C117.682 54.362 118.177 54.2383 118.75 54.2383C118.88 54.2383 119.03 54.2546 119.199 54.2871C119.368 54.3132 119.486 54.3424 119.551 54.375ZM126.133 54.4336V55.8203H120.42V54.4336H126.133ZM122.354 51.8652H124.16V62.3828C124.16 62.7409 124.215 63.0111 124.326 63.1934C124.437 63.3757 124.58 63.4961 124.756 63.5547C124.932 63.6133 125.12 63.6426 125.322 63.6426C125.472 63.6426 125.628 63.6296 125.791 63.6035C125.96 63.571 126.087 63.5449 126.172 63.5254L126.182 65C126.038 65.0456 125.85 65.0879 125.615 65.127C125.387 65.1725 125.111 65.1953 124.785 65.1953C124.342 65.1953 123.936 65.1074 123.564 64.9316C123.193 64.7559 122.897 64.4629 122.676 64.0527C122.461 63.6361 122.354 63.0762 122.354 62.373V51.8652ZM130.215 54.4336V65H128.398V54.4336H130.215ZM128.262 51.6309C128.262 51.3379 128.35 51.0905 128.525 50.8887C128.708 50.6868 128.975 50.5859 129.326 50.5859C129.671 50.5859 129.935 50.6868 130.117 50.8887C130.306 51.0905 130.4 51.3379 130.4 51.6309C130.4 51.9108 130.306 52.1517 130.117 52.3535C129.935 52.5488 129.671 52.6465 129.326 52.6465C128.975 52.6465 128.708 52.5488 128.525 52.3535C128.35 52.1517 128.262 51.9108 128.262 51.6309ZM137.344 63.7109C137.773 63.7109 138.171 63.623 138.535 63.4473C138.9 63.2715 139.199 63.0306 139.434 62.7246C139.668 62.4121 139.801 62.0573 139.834 61.6602H141.553C141.52 62.2852 141.309 62.8678 140.918 63.4082C140.534 63.9421 140.029 64.375 139.404 64.707C138.779 65.0326 138.092 65.1953 137.344 65.1953C136.549 65.1953 135.856 65.0553 135.264 64.7754C134.678 64.4954 134.189 64.1113 133.799 63.623C133.415 63.1348 133.125 62.5749 132.93 61.9434C132.741 61.3053 132.646 60.6315 132.646 59.9219V59.5117C132.646 58.8021 132.741 58.1315 132.93 57.5C133.125 56.862 133.415 56.2988 133.799 55.8105C134.189 55.3223 134.678 54.9382 135.264 54.6582C135.856 54.3783 136.549 54.2383 137.344 54.2383C138.171 54.2383 138.893 54.4076 139.512 54.7461C140.13 55.0781 140.615 55.5339 140.967 56.1133C141.325 56.6862 141.52 57.3372 141.553 58.0664H139.834C139.801 57.6302 139.678 57.2363 139.463 56.8848C139.255 56.5332 138.968 56.2533 138.604 56.0449C138.245 55.8301 137.826 55.7227 137.344 55.7227C136.79 55.7227 136.325 55.8333 135.947 56.0547C135.576 56.2695 135.28 56.5625 135.059 56.9336C134.844 57.2982 134.688 57.7051 134.59 58.1543C134.499 58.597 134.453 59.0495 134.453 59.5117V59.9219C134.453 60.3841 134.499 60.8398 134.59 61.2891C134.681 61.7383 134.834 62.1452 135.049 62.5098C135.27 62.8743 135.566 63.1673 135.938 63.3887C136.315 63.6035 136.784 63.7109 137.344 63.7109ZM145.547 54.4336V65H143.73V54.4336H145.547ZM143.594 51.6309C143.594 51.3379 143.682 51.0905 143.857 50.8887C144.04 50.6868 144.307 50.5859 144.658 50.5859C145.003 50.5859 145.267 50.6868 145.449 50.8887C145.638 51.0905 145.732 51.3379 145.732 51.6309C145.732 51.9108 145.638 52.1517 145.449 52.3535C145.267 52.5488 145.003 52.6465 144.658 52.6465C144.307 52.6465 144.04 52.5488 143.857 52.3535C143.682 52.1517 143.594 51.9108 143.594 51.6309ZM150.254 56.4648V69.0625H148.438V54.4336H150.098L150.254 56.4648ZM157.373 59.6289V59.834C157.373 60.6022 157.282 61.3151 157.1 61.9727C156.917 62.6237 156.65 63.1901 156.299 63.6719C155.954 64.1536 155.527 64.528 155.02 64.7949C154.512 65.0618 153.929 65.1953 153.271 65.1953C152.601 65.1953 152.008 65.0846 151.494 64.8633C150.98 64.6419 150.544 64.3197 150.186 63.8965C149.827 63.4733 149.541 62.9655 149.326 62.373C149.118 61.7806 148.975 61.1133 148.896 60.3711V59.2773C148.975 58.4961 149.121 57.7962 149.336 57.1777C149.551 56.5592 149.834 56.0319 150.186 55.5957C150.544 55.153 150.977 54.8177 151.484 54.5898C151.992 54.3555 152.578 54.2383 153.242 54.2383C153.906 54.2383 154.495 54.3685 155.01 54.6289C155.524 54.8828 155.957 55.2474 156.309 55.7227C156.66 56.1979 156.924 56.7676 157.1 57.4316C157.282 58.0892 157.373 58.8216 157.373 59.6289ZM155.557 59.834V59.6289C155.557 59.1016 155.501 58.6068 155.391 58.1445C155.28 57.6758 155.107 57.2656 154.873 56.9141C154.645 56.556 154.352 56.276 153.994 56.0742C153.636 55.8659 153.21 55.7617 152.715 55.7617C152.259 55.7617 151.862 55.8398 151.523 55.9961C151.191 56.1523 150.908 56.3639 150.674 56.6309C150.439 56.8913 150.247 57.1908 150.098 57.5293C149.954 57.8613 149.847 58.2064 149.775 58.5645V61.0938C149.906 61.5495 150.088 61.9792 150.322 62.3828C150.557 62.7799 150.869 63.1022 151.26 63.3496C151.65 63.5905 152.142 63.7109 152.734 63.7109C153.223 63.7109 153.643 63.61 153.994 63.4082C154.352 63.1999 154.645 62.9167 154.873 62.5586C155.107 62.2005 155.28 61.7904 155.391 61.3281C155.501 60.8594 155.557 60.3613 155.557 59.834ZM165.908 63.1934V57.7539C165.908 57.3372 165.824 56.9759 165.654 56.6699C165.492 56.3574 165.244 56.1165 164.912 55.9473C164.58 55.778 164.17 55.6934 163.682 55.6934C163.226 55.6934 162.826 55.7715 162.48 55.9277C162.142 56.084 161.875 56.2891 161.68 56.543C161.491 56.7969 161.396 57.0703 161.396 57.3633H159.59C159.59 56.9857 159.688 56.6113 159.883 56.2402C160.078 55.8691 160.358 55.5339 160.723 55.2344C161.094 54.9284 161.536 54.6875 162.051 54.5117C162.572 54.3294 163.151 54.2383 163.789 54.2383C164.557 54.2383 165.234 54.3685 165.82 54.6289C166.413 54.8893 166.875 55.2832 167.207 55.8105C167.546 56.3314 167.715 56.9857 167.715 57.7734V62.6953C167.715 63.0469 167.744 63.4212 167.803 63.8184C167.868 64.2155 167.962 64.5573 168.086 64.8438V65H166.201C166.11 64.7917 166.038 64.515 165.986 64.1699C165.934 63.8184 165.908 63.4928 165.908 63.1934ZM166.221 58.5938L166.24 59.8633H164.414C163.9 59.8633 163.441 59.9056 163.037 59.9902C162.633 60.0684 162.295 60.1888 162.021 60.3516C161.748 60.5143 161.54 60.7194 161.396 60.9668C161.253 61.2077 161.182 61.4909 161.182 61.8164C161.182 62.1484 161.257 62.4512 161.406 62.7246C161.556 62.998 161.781 63.2161 162.08 63.3789C162.386 63.5352 162.76 63.6133 163.203 63.6133C163.757 63.6133 164.245 63.4961 164.668 63.2617C165.091 63.0273 165.426 62.7409 165.674 62.4023C165.928 62.0638 166.064 61.735 166.084 61.416L166.855 62.2852C166.81 62.5586 166.686 62.8613 166.484 63.1934C166.283 63.5254 166.012 63.8444 165.674 64.1504C165.342 64.4499 164.945 64.7005 164.482 64.9023C164.027 65.0977 163.512 65.1953 162.939 65.1953C162.223 65.1953 161.595 65.0553 161.055 64.7754C160.521 64.4954 160.104 64.1211 159.805 63.6523C159.512 63.1771 159.365 62.6465 159.365 62.0605C159.365 61.4941 159.476 60.9961 159.697 60.5664C159.919 60.1302 160.238 59.7689 160.654 59.4824C161.071 59.1895 161.572 58.9681 162.158 58.8184C162.744 58.6686 163.398 58.5938 164.121 58.5938H166.221ZM172.363 56.6895V65H170.557V54.4336H172.266L172.363 56.6895ZM171.934 59.3164L171.182 59.2871C171.188 58.5645 171.296 57.8971 171.504 57.2852C171.712 56.6667 172.005 56.1296 172.383 55.6738C172.76 55.2181 173.21 54.8665 173.73 54.6191C174.258 54.3652 174.84 54.2383 175.479 54.2383C175.999 54.2383 176.468 54.3099 176.885 54.4531C177.301 54.5898 177.656 54.8112 177.949 55.1172C178.249 55.4232 178.477 55.8203 178.633 56.3086C178.789 56.7904 178.867 57.3796 178.867 58.0762V65H177.051V58.0566C177.051 57.5033 176.969 57.0605 176.807 56.7285C176.644 56.39 176.406 56.1458 176.094 55.9961C175.781 55.8398 175.397 55.7617 174.941 55.7617C174.492 55.7617 174.082 55.8561 173.711 56.0449C173.346 56.2337 173.031 56.4941 172.764 56.8262C172.503 57.1582 172.298 57.5391 172.148 57.9688C172.005 58.3919 171.934 58.8411 171.934 59.3164ZM186.035 54.4336V55.8203H180.322V54.4336H186.035ZM182.256 51.8652H184.062V62.3828C184.062 62.7409 184.118 63.0111 184.229 63.1934C184.339 63.3757 184.482 63.4961 184.658 63.5547C184.834 63.6133 185.023 63.6426 185.225 63.6426C185.374 63.6426 185.531 63.6296 185.693 63.6035C185.863 63.571 185.99 63.5449 186.074 63.5254L186.084 65C185.941 65.0456 185.752 65.0879 185.518 65.127C185.29 65.1725 185.013 65.1953 184.688 65.1953C184.245 65.1953 183.838 65.1074 183.467 64.9316C183.096 64.7559 182.799 64.4629 182.578 64.0527C182.363 63.6361 182.256 63.0762 182.256 62.373V51.8652ZM195.41 50.7812V65H193.525V50.7812H195.41ZM202.686 65H199.717L199.736 63.4668H202.686C203.701 63.4668 204.548 63.2552 205.225 62.832C205.902 62.4023 206.41 61.8034 206.748 61.0352C207.093 60.2604 207.266 59.3555 207.266 58.3203V57.4512C207.266 56.6374 207.168 55.9147 206.973 55.2832C206.777 54.6452 206.491 54.1081 206.113 53.6719C205.736 53.2292 205.273 52.8939 204.727 52.666C204.186 52.4382 203.564 52.3242 202.861 52.3242H199.658V50.7812H202.861C203.792 50.7812 204.642 50.9375 205.41 51.25C206.178 51.556 206.839 52.002 207.393 52.5879C207.952 53.1673 208.382 53.8704 208.682 54.6973C208.981 55.5176 209.131 56.4421 209.131 57.4707V58.3203C209.131 59.349 208.981 60.2767 208.682 61.1035C208.382 61.9238 207.949 62.6237 207.383 63.2031C206.823 63.7826 206.146 64.2285 205.352 64.541C204.564 64.847 203.675 65 202.686 65ZM200.723 50.7812V65H198.838V50.7812H200.723Z" fill="white"/>
<path d="M140.244 108.703V123H138.438V110.959L134.795 112.287V110.656L139.961 108.703H140.244ZM154.482 114.758V116.926C154.482 118.091 154.378 119.074 154.17 119.875C153.962 120.676 153.662 121.32 153.271 121.809C152.881 122.297 152.409 122.652 151.855 122.873C151.309 123.088 150.69 123.195 150 123.195C149.453 123.195 148.949 123.127 148.486 122.99C148.024 122.854 147.607 122.635 147.236 122.336C146.872 122.03 146.559 121.633 146.299 121.145C146.038 120.656 145.84 120.064 145.703 119.367C145.566 118.671 145.498 117.857 145.498 116.926V114.758C145.498 113.592 145.602 112.616 145.811 111.828C146.025 111.04 146.328 110.409 146.719 109.934C147.109 109.452 147.578 109.107 148.125 108.898C148.678 108.69 149.297 108.586 149.98 108.586C150.534 108.586 151.042 108.654 151.504 108.791C151.973 108.921 152.389 109.133 152.754 109.426C153.118 109.712 153.428 110.096 153.682 110.578C153.942 111.053 154.141 111.636 154.277 112.326C154.414 113.016 154.482 113.827 154.482 114.758ZM152.666 117.219V114.455C152.666 113.817 152.627 113.257 152.549 112.775C152.477 112.287 152.37 111.87 152.227 111.525C152.083 111.18 151.901 110.9 151.68 110.686C151.465 110.471 151.214 110.314 150.928 110.217C150.648 110.113 150.332 110.061 149.98 110.061C149.551 110.061 149.17 110.142 148.838 110.305C148.506 110.461 148.226 110.712 147.998 111.057C147.777 111.402 147.607 111.854 147.49 112.414C147.373 112.974 147.314 113.654 147.314 114.455V117.219C147.314 117.857 147.35 118.42 147.422 118.908C147.5 119.396 147.614 119.82 147.764 120.178C147.913 120.529 148.096 120.819 148.311 121.047C148.525 121.275 148.773 121.444 149.053 121.555C149.339 121.659 149.655 121.711 150 121.711C150.443 121.711 150.83 121.626 151.162 121.457C151.494 121.288 151.771 121.024 151.992 120.666C152.22 120.301 152.389 119.836 152.5 119.27C152.611 118.697 152.666 118.013 152.666 117.219ZM162.744 108.703V123H160.938V110.959L157.295 112.287V110.656L162.461 108.703H162.744Z" fill="white"/>
<path d="M140.244 154.703V169H138.438V156.959L134.795 158.287V156.656L139.961 154.703H140.244ZM154.482 160.758V162.926C154.482 164.091 154.378 165.074 154.17 165.875C153.962 166.676 153.662 167.32 153.271 167.809C152.881 168.297 152.409 168.652 151.855 168.873C151.309 169.088 150.69 169.195 150 169.195C149.453 169.195 148.949 169.127 148.486 168.99C148.024 168.854 147.607 168.635 147.236 168.336C146.872 168.03 146.559 167.633 146.299 167.145C146.038 166.656 145.84 166.064 145.703 165.367C145.566 164.671 145.498 163.857 145.498 162.926V160.758C145.498 159.592 145.602 158.616 145.811 157.828C146.025 157.04 146.328 156.409 146.719 155.934C147.109 155.452 147.578 155.107 148.125 154.898C148.678 154.69 149.297 154.586 149.98 154.586C150.534 154.586 151.042 154.654 151.504 154.791C151.973 154.921 152.389 155.133 152.754 155.426C153.118 155.712 153.428 156.096 153.682 156.578C153.942 157.053 154.141 157.636 154.277 158.326C154.414 159.016 154.482 159.827 154.482 160.758ZM152.666 163.219V160.455C152.666 159.817 152.627 159.257 152.549 158.775C152.477 158.287 152.37 157.87 152.227 157.525C152.083 157.18 151.901 156.9 151.68 156.686C151.465 156.471 151.214 156.314 150.928 156.217C150.648 156.113 150.332 156.061 149.98 156.061C149.551 156.061 149.17 156.142 148.838 156.305C148.506 156.461 148.226 156.712 147.998 157.057C147.777 157.402 147.607 157.854 147.49 158.414C147.373 158.974 147.314 159.654 147.314 160.455V163.219C147.314 163.857 147.35 164.42 147.422 164.908C147.5 165.396 147.614 165.82 147.764 166.178C147.913 166.529 148.096 166.819 148.311 167.047C148.525 167.275 148.773 167.444 149.053 167.555C149.339 167.659 149.655 167.711 150 167.711C150.443 167.711 150.83 167.626 151.162 167.457C151.494 167.288 151.771 167.024 151.992 166.666C152.22 166.301 152.389 165.836 152.5 165.27C152.611 164.697 152.666 164.013 152.666 163.219ZM166.123 167.516V169H156.816V167.701L161.475 162.516C162.048 161.878 162.49 161.337 162.803 160.895C163.122 160.445 163.343 160.045 163.467 159.693C163.597 159.335 163.662 158.971 163.662 158.6C163.662 158.131 163.564 157.708 163.369 157.33C163.18 156.946 162.9 156.64 162.529 156.412C162.158 156.184 161.709 156.07 161.182 156.07C160.55 156.07 160.023 156.194 159.6 156.441C159.183 156.682 158.87 157.021 158.662 157.457C158.454 157.893 158.35 158.395 158.35 158.961H156.543C156.543 158.16 156.719 157.428 157.07 156.764C157.422 156.1 157.943 155.572 158.633 155.182C159.323 154.785 160.173 154.586 161.182 154.586C162.08 154.586 162.848 154.745 163.486 155.064C164.124 155.377 164.613 155.82 164.951 156.393C165.296 156.959 165.469 157.623 165.469 158.385C165.469 158.801 165.397 159.225 165.254 159.654C165.117 160.077 164.925 160.501 164.678 160.924C164.437 161.347 164.154 161.764 163.828 162.174C163.509 162.584 163.167 162.988 162.803 163.385L158.994 167.516H166.123Z" fill="white"/>
<path d="M140.244 201.703V216H138.438V203.959L134.795 205.287V203.656L139.961 201.703H140.244ZM154.482 207.758V209.926C154.482 211.091 154.378 212.074 154.17 212.875C153.962 213.676 153.662 214.32 153.271 214.809C152.881 215.297 152.409 215.652 151.855 215.873C151.309 216.088 150.69 216.195 150 216.195C149.453 216.195 148.949 216.127 148.486 215.99C148.024 215.854 147.607 215.635 147.236 215.336C146.872 215.03 146.559 214.633 146.299 214.145C146.038 213.656 145.84 213.064 145.703 212.367C145.566 211.671 145.498 210.857 145.498 209.926V207.758C145.498 206.592 145.602 205.616 145.811 204.828C146.025 204.04 146.328 203.409 146.719 202.934C147.109 202.452 147.578 202.107 148.125 201.898C148.678 201.69 149.297 201.586 149.98 201.586C150.534 201.586 151.042 201.654 151.504 201.791C151.973 201.921 152.389 202.133 152.754 202.426C153.118 202.712 153.428 203.096 153.682 203.578C153.942 204.053 154.141 204.636 154.277 205.326C154.414 206.016 154.482 206.827 154.482 207.758ZM152.666 210.219V207.455C152.666 206.817 152.627 206.257 152.549 205.775C152.477 205.287 152.37 204.87 152.227 204.525C152.083 204.18 151.901 203.9 151.68 203.686C151.465 203.471 151.214 203.314 150.928 203.217C150.648 203.113 150.332 203.061 149.98 203.061C149.551 203.061 149.17 203.142 148.838 203.305C148.506 203.461 148.226 203.712 147.998 204.057C147.777 204.402 147.607 204.854 147.49 205.414C147.373 205.974 147.314 206.654 147.314 207.455V210.219C147.314 210.857 147.35 211.42 147.422 211.908C147.5 212.396 147.614 212.82 147.764 213.178C147.913 213.529 148.096 213.819 148.311 214.047C148.525 214.275 148.773 214.444 149.053 214.555C149.339 214.659 149.655 214.711 150 214.711C150.443 214.711 150.83 214.626 151.162 214.457C151.494 214.288 151.771 214.024 151.992 213.666C152.22 213.301 152.389 212.836 152.5 212.27C152.611 211.697 152.666 211.013 152.666 210.219ZM159.443 208.002H160.732C161.364 208.002 161.885 207.898 162.295 207.689C162.712 207.475 163.021 207.185 163.223 206.82C163.431 206.449 163.535 206.033 163.535 205.57C163.535 205.023 163.444 204.564 163.262 204.193C163.079 203.822 162.806 203.542 162.441 203.354C162.077 203.165 161.615 203.07 161.055 203.07C160.547 203.07 160.098 203.171 159.707 203.373C159.323 203.568 159.02 203.848 158.799 204.213C158.584 204.577 158.477 205.007 158.477 205.502H156.67C156.67 204.779 156.852 204.122 157.217 203.529C157.581 202.937 158.092 202.465 158.75 202.113C159.414 201.762 160.182 201.586 161.055 201.586C161.914 201.586 162.666 201.739 163.311 202.045C163.955 202.344 164.456 202.794 164.814 203.393C165.173 203.985 165.352 204.724 165.352 205.609C165.352 205.967 165.267 206.352 165.098 206.762C164.935 207.165 164.678 207.543 164.326 207.895C163.981 208.246 163.532 208.536 162.979 208.764C162.425 208.985 161.761 209.096 160.986 209.096H159.443V208.002ZM159.443 209.486V208.402H160.986C161.891 208.402 162.64 208.51 163.232 208.725C163.825 208.939 164.29 209.226 164.629 209.584C164.974 209.942 165.215 210.336 165.352 210.766C165.495 211.189 165.566 211.612 165.566 212.035C165.566 212.699 165.452 213.288 165.225 213.803C165.003 214.317 164.688 214.753 164.277 215.111C163.874 215.469 163.398 215.74 162.852 215.922C162.305 216.104 161.709 216.195 161.064 216.195C160.446 216.195 159.863 216.107 159.316 215.932C158.776 215.756 158.298 215.502 157.881 215.17C157.464 214.831 157.139 214.418 156.904 213.93C156.67 213.435 156.553 212.872 156.553 212.24H158.359C158.359 212.735 158.467 213.168 158.682 213.539C158.903 213.91 159.215 214.2 159.619 214.408C160.029 214.61 160.511 214.711 161.064 214.711C161.618 214.711 162.093 214.617 162.49 214.428C162.894 214.232 163.203 213.939 163.418 213.549C163.639 213.158 163.75 212.667 163.75 212.074C163.75 211.482 163.626 210.997 163.379 210.619C163.132 210.235 162.78 209.952 162.324 209.77C161.875 209.581 161.344 209.486 160.732 209.486H159.443Z" fill="white"/>
<path d="M140.244 247.703V262H138.438V249.959L134.795 251.287V249.656L139.961 247.703H140.244ZM154.482 253.758V255.926C154.482 257.091 154.378 258.074 154.17 258.875C153.962 259.676 153.662 260.32 153.271 260.809C152.881 261.297 152.409 261.652 151.855 261.873C151.309 262.088 150.69 262.195 150 262.195C149.453 262.195 148.949 262.127 148.486 261.99C148.024 261.854 147.607 261.635 147.236 261.336C146.872 261.03 146.559 260.633 146.299 260.145C146.038 259.656 145.84 259.064 145.703 258.367C145.566 257.671 145.498 256.857 145.498 255.926V253.758C145.498 252.592 145.602 251.616 145.811 250.828C146.025 250.04 146.328 249.409 146.719 248.934C147.109 248.452 147.578 248.107 148.125 247.898C148.678 247.69 149.297 247.586 149.98 247.586C150.534 247.586 151.042 247.654 151.504 247.791C151.973 247.921 152.389 248.133 152.754 248.426C153.118 248.712 153.428 249.096 153.682 249.578C153.942 250.053 154.141 250.636 154.277 251.326C154.414 252.016 154.482 252.827 154.482 253.758ZM152.666 256.219V253.455C152.666 252.817 152.627 252.257 152.549 251.775C152.477 251.287 152.37 250.87 152.227 250.525C152.083 250.18 151.901 249.9 151.68 249.686C151.465 249.471 151.214 249.314 150.928 249.217C150.648 249.113 150.332 249.061 149.98 249.061C149.551 249.061 149.17 249.142 148.838 249.305C148.506 249.461 148.226 249.712 147.998 250.057C147.777 250.402 147.607 250.854 147.49 251.414C147.373 251.974 147.314 252.654 147.314 253.455V256.219C147.314 256.857 147.35 257.42 147.422 257.908C147.5 258.396 147.614 258.82 147.764 259.178C147.913 259.529 148.096 259.819 148.311 260.047C148.525 260.275 148.773 260.444 149.053 260.555C149.339 260.659 149.655 260.711 150 260.711C150.443 260.711 150.83 260.626 151.162 260.457C151.494 260.288 151.771 260.024 151.992 259.666C152.22 259.301 152.389 258.836 152.5 258.27C152.611 257.697 152.666 257.013 152.666 256.219ZM166.416 257.215V258.699H156.143V257.635L162.51 247.781H163.984L162.402 250.633L158.193 257.215H166.416ZM164.434 247.781V262H162.627V247.781H164.434Z" fill="white"/>
<path d="M140.244 296.703V311H138.438V298.959L134.795 300.287V298.656L139.961 296.703H140.244ZM154.482 302.758V304.926C154.482 306.091 154.378 307.074 154.17 307.875C153.962 308.676 153.662 309.32 153.271 309.809C152.881 310.297 152.409 310.652 151.855 310.873C151.309 311.088 150.69 311.195 150 311.195C149.453 311.195 148.949 311.127 148.486 310.99C148.024 310.854 147.607 310.635 147.236 310.336C146.872 310.03 146.559 309.633 146.299 309.145C146.038 308.656 145.84 308.064 145.703 307.367C145.566 306.671 145.498 305.857 145.498 304.926V302.758C145.498 301.592 145.602 300.616 145.811 299.828C146.025 299.04 146.328 298.409 146.719 297.934C147.109 297.452 147.578 297.107 148.125 296.898C148.678 296.69 149.297 296.586 149.98 296.586C150.534 296.586 151.042 296.654 151.504 296.791C151.973 296.921 152.389 297.133 152.754 297.426C153.118 297.712 153.428 298.096 153.682 298.578C153.942 299.053 154.141 299.636 154.277 300.326C154.414 301.016 154.482 301.827 154.482 302.758ZM152.666 305.219V302.455C152.666 301.817 152.627 301.257 152.549 300.775C152.477 300.287 152.37 299.87 152.227 299.525C152.083 299.18 151.901 298.9 151.68 298.686C151.465 298.471 151.214 298.314 150.928 298.217C150.648 298.113 150.332 298.061 149.98 298.061C149.551 298.061 149.17 298.142 148.838 298.305C148.506 298.461 148.226 298.712 147.998 299.057C147.777 299.402 147.607 299.854 147.49 300.414C147.373 300.974 147.314 301.654 147.314 302.455V305.219C147.314 305.857 147.35 306.42 147.422 306.908C147.5 307.396 147.614 307.82 147.764 308.178C147.913 308.529 148.096 308.819 148.311 309.047C148.525 309.275 148.773 309.444 149.053 309.555C149.339 309.659 149.655 309.711 150 309.711C150.443 309.711 150.83 309.626 151.162 309.457C151.494 309.288 151.771 309.024 151.992 308.666C152.22 308.301 152.389 307.836 152.5 307.27C152.611 306.697 152.666 306.013 152.666 305.219ZM159.092 304.232L157.646 303.861L158.359 296.781H165.654V298.451H159.893L159.463 302.318C159.723 302.169 160.052 302.029 160.449 301.898C160.853 301.768 161.315 301.703 161.836 301.703C162.493 301.703 163.083 301.817 163.604 302.045C164.124 302.266 164.567 302.585 164.932 303.002C165.303 303.419 165.586 303.92 165.781 304.506C165.977 305.092 166.074 305.746 166.074 306.469C166.074 307.152 165.98 307.781 165.791 308.354C165.609 308.926 165.332 309.428 164.961 309.857C164.59 310.281 164.121 310.609 163.555 310.844C162.995 311.078 162.334 311.195 161.572 311.195C160.999 311.195 160.456 311.117 159.941 310.961C159.434 310.798 158.978 310.554 158.574 310.229C158.177 309.896 157.852 309.486 157.598 308.998C157.35 308.503 157.194 307.924 157.129 307.26H158.848C158.926 307.794 159.082 308.243 159.316 308.607C159.551 308.972 159.857 309.249 160.234 309.438C160.618 309.62 161.064 309.711 161.572 309.711C162.002 309.711 162.383 309.636 162.715 309.486C163.047 309.337 163.327 309.122 163.555 308.842C163.783 308.562 163.955 308.223 164.072 307.826C164.196 307.429 164.258 306.983 164.258 306.488C164.258 306.039 164.196 305.622 164.072 305.238C163.949 304.854 163.763 304.519 163.516 304.232C163.275 303.946 162.979 303.725 162.627 303.568C162.275 303.406 161.872 303.324 161.416 303.324C160.811 303.324 160.352 303.406 160.039 303.568C159.733 303.731 159.417 303.952 159.092 304.232Z" fill="white"/>
<path d="M374.266 60.4785H376.141C376.043 61.377 375.786 62.181 375.369 62.8906C374.952 63.6003 374.363 64.1634 373.602 64.5801C372.84 64.9902 371.889 65.1953 370.75 65.1953C369.917 65.1953 369.158 65.0391 368.475 64.7266C367.798 64.4141 367.215 63.9714 366.727 63.3984C366.238 62.819 365.861 62.1257 365.594 61.3184C365.333 60.5046 365.203 59.5996 365.203 58.6035V57.1875C365.203 56.1914 365.333 55.2897 365.594 54.4824C365.861 53.6686 366.242 52.972 366.736 52.3926C367.238 51.8132 367.84 51.3672 368.543 51.0547C369.246 50.7422 370.037 50.5859 370.916 50.5859C371.99 50.5859 372.898 50.7878 373.641 51.1914C374.383 51.5951 374.959 52.1549 375.369 52.8711C375.786 53.5807 376.043 54.4043 376.141 55.3418H374.266C374.174 54.6777 374.005 54.1081 373.758 53.6328C373.51 53.151 373.159 52.7799 372.703 52.5195C372.247 52.2591 371.652 52.1289 370.916 52.1289C370.285 52.1289 369.728 52.2493 369.246 52.4902C368.771 52.7311 368.37 53.0729 368.045 53.5156C367.726 53.9583 367.485 54.4889 367.322 55.1074C367.16 55.7259 367.078 56.4128 367.078 57.168V58.6035C367.078 59.3001 367.15 59.9544 367.293 60.5664C367.443 61.1784 367.667 61.7155 367.967 62.1777C368.266 62.64 368.647 63.0046 369.109 63.2715C369.572 63.5319 370.118 63.6621 370.75 63.6621C371.551 63.6621 372.189 63.5352 372.664 63.2812C373.139 63.0273 373.497 62.6628 373.738 62.1875C373.986 61.7122 374.161 61.1426 374.266 60.4785ZM380.398 54.4336V65H378.582V54.4336H380.398ZM378.445 51.6309C378.445 51.3379 378.533 51.0905 378.709 50.8887C378.891 50.6868 379.158 50.5859 379.51 50.5859C379.855 50.5859 380.118 50.6868 380.301 50.8887C380.49 51.0905 380.584 51.3379 380.584 51.6309C380.584 51.9108 380.49 52.1517 380.301 52.3535C380.118 52.5488 379.855 52.6465 379.51 52.6465C379.158 52.6465 378.891 52.5488 378.709 52.3535C378.533 52.1517 378.445 51.9108 378.445 51.6309ZM387.723 54.4336V55.8203H382.01V54.4336H387.723ZM383.943 51.8652H385.75V62.3828C385.75 62.7409 385.805 63.0111 385.916 63.1934C386.027 63.3757 386.17 63.4961 386.346 63.5547C386.521 63.6133 386.71 63.6426 386.912 63.6426C387.062 63.6426 387.218 63.6296 387.381 63.6035C387.55 63.571 387.677 63.5449 387.762 63.5254L387.771 65C387.628 65.0456 387.439 65.0879 387.205 65.127C386.977 65.1725 386.701 65.1953 386.375 65.1953C385.932 65.1953 385.525 65.1074 385.154 64.9316C384.783 64.7559 384.487 64.4629 384.266 64.0527C384.051 63.6361 383.943 63.0762 383.943 62.373V51.8652ZM392.811 63.9062L395.75 54.4336H397.684L393.445 66.6309C393.348 66.8913 393.217 67.1712 393.055 67.4707C392.898 67.7767 392.697 68.0664 392.449 68.3398C392.202 68.6133 391.902 68.8346 391.551 69.0039C391.206 69.1797 390.792 69.2676 390.311 69.2676C390.167 69.2676 389.985 69.248 389.764 69.209C389.542 69.1699 389.386 69.1374 389.295 69.1113L389.285 67.6465C389.337 67.653 389.419 67.6595 389.529 67.666C389.646 67.679 389.728 67.6855 389.773 67.6855C390.184 67.6855 390.532 67.6302 390.818 67.5195C391.105 67.4154 391.346 67.2363 391.541 66.9824C391.743 66.735 391.915 66.3932 392.059 65.957L392.811 63.9062ZM390.652 54.4336L393.396 62.6367L393.865 64.541L392.566 65.2051L388.68 54.4336H390.652ZM399.9 62.8516V64.3066C399.9 64.8991 399.751 65.5241 399.451 66.1816C399.152 66.8457 398.732 67.3991 398.191 67.8418L397.166 67.1289C397.374 66.8424 397.55 66.5495 397.693 66.25C397.837 65.957 397.944 65.651 398.016 65.332C398.094 65.0195 398.133 64.6875 398.133 64.3359V62.8516H399.9ZM413.396 63.1934V57.7539C413.396 57.3372 413.312 56.9759 413.143 56.6699C412.98 56.3574 412.732 56.1165 412.4 55.9473C412.068 55.778 411.658 55.6934 411.17 55.6934C410.714 55.6934 410.314 55.7715 409.969 55.9277C409.63 56.084 409.363 56.2891 409.168 56.543C408.979 56.7969 408.885 57.0703 408.885 57.3633H407.078C407.078 56.9857 407.176 56.6113 407.371 56.2402C407.566 55.8691 407.846 55.5339 408.211 55.2344C408.582 54.9284 409.025 54.6875 409.539 54.5117C410.06 54.3294 410.639 54.2383 411.277 54.2383C412.046 54.2383 412.723 54.3685 413.309 54.6289C413.901 54.8893 414.363 55.2832 414.695 55.8105C415.034 56.3314 415.203 56.9857 415.203 57.7734V62.6953C415.203 63.0469 415.232 63.4212 415.291 63.8184C415.356 64.2155 415.451 64.5573 415.574 64.8438V65H413.689C413.598 64.7917 413.527 64.515 413.475 64.1699C413.423 63.8184 413.396 63.4928 413.396 63.1934ZM413.709 58.5938L413.729 59.8633H411.902C411.388 59.8633 410.929 59.9056 410.525 59.9902C410.122 60.0684 409.783 60.1888 409.51 60.3516C409.236 60.5143 409.028 60.7194 408.885 60.9668C408.742 61.2077 408.67 61.4909 408.67 61.8164C408.67 62.1484 408.745 62.4512 408.895 62.7246C409.044 62.998 409.269 63.2161 409.568 63.3789C409.874 63.5352 410.249 63.6133 410.691 63.6133C411.245 63.6133 411.733 63.4961 412.156 63.2617C412.579 63.0273 412.915 62.7409 413.162 62.4023C413.416 62.0638 413.553 61.735 413.572 61.416L414.344 62.2852C414.298 62.5586 414.174 62.8613 413.973 63.1934C413.771 63.5254 413.501 63.8444 413.162 64.1504C412.83 64.4499 412.433 64.7005 411.971 64.9023C411.515 65.0977 411.001 65.1953 410.428 65.1953C409.712 65.1953 409.083 65.0553 408.543 64.7754C408.009 64.4954 407.592 64.1211 407.293 63.6523C407 63.1771 406.854 62.6465 406.854 62.0605C406.854 61.4941 406.964 60.9961 407.186 60.5664C407.407 60.1302 407.726 59.7689 408.143 59.4824C408.559 59.1895 409.061 58.9681 409.646 58.8184C410.232 58.6686 410.887 58.5938 411.609 58.5938H413.709ZM418.035 50H419.852V62.9492L419.695 65H418.035V50ZM426.99 59.6289V59.834C426.99 60.6022 426.899 61.3151 426.717 61.9727C426.535 62.6237 426.268 63.1901 425.916 63.6719C425.564 64.1536 425.135 64.528 424.627 64.7949C424.119 65.0618 423.536 65.1953 422.879 65.1953C422.208 65.1953 421.619 65.0814 421.111 64.8535C420.61 64.6191 420.187 64.2839 419.842 63.8477C419.497 63.4115 419.22 62.8841 419.012 62.2656C418.81 61.6471 418.67 60.9505 418.592 60.1758V59.2773C418.67 58.4961 418.81 57.7962 419.012 57.1777C419.22 56.5592 419.497 56.0319 419.842 55.5957C420.187 55.153 420.61 54.8177 421.111 54.5898C421.613 54.3555 422.195 54.2383 422.859 54.2383C423.523 54.2383 424.113 54.3685 424.627 54.6289C425.141 54.8828 425.571 55.2474 425.916 55.7227C426.268 56.1979 426.535 56.7676 426.717 57.4316C426.899 58.0892 426.99 58.8216 426.99 59.6289ZM425.174 59.834V59.6289C425.174 59.1016 425.125 58.6068 425.027 58.1445C424.93 57.6758 424.773 57.2656 424.559 56.9141C424.344 56.556 424.061 56.276 423.709 56.0742C423.357 55.8659 422.924 55.7617 422.41 55.7617C421.954 55.7617 421.557 55.8398 421.219 55.9961C420.887 56.1523 420.604 56.3639 420.369 56.6309C420.135 56.8913 419.943 57.1908 419.793 57.5293C419.65 57.8613 419.542 58.2064 419.471 58.5645V60.918C419.575 61.3737 419.744 61.8132 419.979 62.2363C420.219 62.653 420.538 62.9948 420.936 63.2617C421.339 63.5286 421.837 63.6621 422.43 63.6621C422.918 63.6621 423.335 63.5645 423.68 63.3691C424.031 63.1673 424.314 62.8906 424.529 62.5391C424.751 62.1875 424.913 61.7806 425.018 61.3184C425.122 60.8561 425.174 60.3613 425.174 59.834ZM429.266 50H431.082V62.9492L430.926 65H429.266V50ZM438.221 59.6289V59.834C438.221 60.6022 438.13 61.3151 437.947 61.9727C437.765 62.6237 437.498 63.1901 437.146 63.6719C436.795 64.1536 436.365 64.528 435.857 64.7949C435.35 65.0618 434.767 65.1953 434.109 65.1953C433.439 65.1953 432.85 65.0814 432.342 64.8535C431.84 64.6191 431.417 64.2839 431.072 63.8477C430.727 63.4115 430.451 62.8841 430.242 62.2656C430.04 61.6471 429.9 60.9505 429.822 60.1758V59.2773C429.9 58.4961 430.04 57.7962 430.242 57.1777C430.451 56.5592 430.727 56.0319 431.072 55.5957C431.417 55.153 431.84 54.8177 432.342 54.5898C432.843 54.3555 433.426 54.2383 434.09 54.2383C434.754 54.2383 435.343 54.3685 435.857 54.6289C436.372 54.8828 436.801 55.2474 437.146 55.7227C437.498 56.1979 437.765 56.7676 437.947 57.4316C438.13 58.0892 438.221 58.8216 438.221 59.6289ZM436.404 59.834V59.6289C436.404 59.1016 436.355 58.6068 436.258 58.1445C436.16 57.6758 436.004 57.2656 435.789 56.9141C435.574 56.556 435.291 56.276 434.939 56.0742C434.588 55.8659 434.155 55.7617 433.641 55.7617C433.185 55.7617 432.788 55.8398 432.449 55.9961C432.117 56.1523 431.834 56.3639 431.6 56.6309C431.365 56.8913 431.173 57.1908 431.023 57.5293C430.88 57.8613 430.773 58.2064 430.701 58.5645V60.918C430.805 61.3737 430.975 61.8132 431.209 62.2363C431.45 62.653 431.769 62.9948 432.166 63.2617C432.57 63.5286 433.068 63.6621 433.66 63.6621C434.148 63.6621 434.565 63.5645 434.91 63.3691C435.262 63.1673 435.545 62.8906 435.76 62.5391C435.981 62.1875 436.144 61.7806 436.248 61.3184C436.352 60.8561 436.404 60.3613 436.404 59.834ZM442.312 56.0938V65H440.506V54.4336H442.264L442.312 56.0938ZM445.613 54.375L445.604 56.0547C445.454 56.0221 445.311 56.0026 445.174 55.9961C445.044 55.9831 444.894 55.9766 444.725 55.9766C444.308 55.9766 443.94 56.0417 443.621 56.1719C443.302 56.3021 443.032 56.4844 442.811 56.7188C442.589 56.9531 442.413 57.2331 442.283 57.5586C442.16 57.8776 442.078 58.2292 442.039 58.6133L441.531 58.9062C441.531 58.2682 441.593 57.6693 441.717 57.1094C441.847 56.5495 442.046 56.0547 442.312 55.625C442.579 55.1888 442.918 54.8503 443.328 54.6094C443.745 54.362 444.24 54.2383 444.812 54.2383C444.943 54.2383 445.092 54.2546 445.262 54.2871C445.431 54.3132 445.548 54.3424 445.613 54.375ZM446.102 64.043C446.102 63.737 446.196 63.4798 446.385 63.2715C446.58 63.0566 446.86 62.9492 447.225 62.9492C447.589 62.9492 447.866 63.0566 448.055 63.2715C448.25 63.4798 448.348 63.737 448.348 64.043C448.348 64.3424 448.25 64.5964 448.055 64.8047C447.866 65.013 447.589 65.1172 447.225 65.1172C446.86 65.1172 446.58 65.013 446.385 64.8047C446.196 64.5964 446.102 64.3424 446.102 64.043Z" fill="white"/>
<path d="M501.463 65H499.656V53.5156C499.656 52.7148 499.812 52.0378 500.125 51.4844C500.438 50.931 500.883 50.5111 501.463 50.2246C502.042 49.9382 502.729 49.7949 503.523 49.7949C503.992 49.7949 504.451 49.8535 504.9 49.9707C505.35 50.0814 505.812 50.2214 506.287 50.3906L505.984 51.9141C505.685 51.7969 505.337 51.6862 504.939 51.582C504.549 51.4714 504.119 51.416 503.65 51.416C502.876 51.416 502.316 51.5918 501.971 51.9434C501.632 52.2884 501.463 52.8125 501.463 53.5156V65ZM503.621 54.4336V55.8203H497.986V54.4336H503.621ZM507.176 54.4336V65H505.369V54.4336H507.176ZM516.297 62.1973C516.297 61.9368 516.238 61.696 516.121 61.4746C516.01 61.2467 515.779 61.0417 515.428 60.8594C515.083 60.6706 514.562 60.5078 513.865 60.3711C513.279 60.2474 512.749 60.1009 512.273 59.9316C511.805 59.7624 511.404 59.5573 511.072 59.3164C510.747 59.0755 510.496 58.7923 510.32 58.4668C510.145 58.1413 510.057 57.7604 510.057 57.3242C510.057 56.9076 510.148 56.5137 510.33 56.1426C510.519 55.7715 510.783 55.4427 511.121 55.1562C511.466 54.8698 511.88 54.6452 512.361 54.4824C512.843 54.3197 513.38 54.2383 513.973 54.2383C514.819 54.2383 515.542 54.388 516.141 54.6875C516.74 54.987 517.199 55.3874 517.518 55.8887C517.837 56.3835 517.996 56.9336 517.996 57.5391H516.189C516.189 57.2461 516.102 56.9629 515.926 56.6895C515.757 56.4095 515.506 56.1784 515.174 55.9961C514.848 55.8138 514.448 55.7227 513.973 55.7227C513.471 55.7227 513.064 55.8008 512.752 55.957C512.446 56.1068 512.221 56.2988 512.078 56.5332C511.941 56.7676 511.873 57.015 511.873 57.2754C511.873 57.4707 511.906 57.6465 511.971 57.8027C512.042 57.9525 512.166 58.0924 512.342 58.2227C512.518 58.3464 512.765 58.4635 513.084 58.5742C513.403 58.6849 513.81 58.7956 514.305 58.9062C515.171 59.1016 515.883 59.3359 516.443 59.6094C517.003 59.8828 517.42 60.2181 517.693 60.6152C517.967 61.0124 518.104 61.4941 518.104 62.0605C518.104 62.5228 518.006 62.946 517.811 63.3301C517.622 63.7142 517.345 64.0462 516.98 64.3262C516.622 64.5996 516.193 64.8145 515.691 64.9707C515.197 65.1204 514.64 65.1953 514.021 65.1953C513.09 65.1953 512.303 65.0293 511.658 64.6973C511.014 64.3652 510.525 63.9355 510.193 63.4082C509.861 62.8809 509.695 62.3242 509.695 61.7383H511.512C511.538 62.2331 511.681 62.627 511.941 62.9199C512.202 63.2064 512.521 63.4115 512.898 63.5352C513.276 63.6523 513.65 63.7109 514.021 63.7109C514.516 63.7109 514.93 63.6458 515.262 63.5156C515.6 63.3854 515.857 63.2064 516.033 62.9785C516.209 62.7507 516.297 62.4902 516.297 62.1973ZM522.283 50V65H520.477V50H522.283ZM521.854 59.3164L521.102 59.2871C521.108 58.5645 521.215 57.8971 521.424 57.2852C521.632 56.6667 521.925 56.1296 522.303 55.6738C522.68 55.2181 523.13 54.8665 523.65 54.6191C524.178 54.3652 524.76 54.2383 525.398 54.2383C525.919 54.2383 526.388 54.3099 526.805 54.4531C527.221 54.5898 527.576 54.8112 527.869 55.1172C528.169 55.4232 528.396 55.8203 528.553 56.3086C528.709 56.7904 528.787 57.3796 528.787 58.0762V65H526.971V58.0566C526.971 57.5033 526.889 57.0605 526.727 56.7285C526.564 56.39 526.326 56.1458 526.014 55.9961C525.701 55.8398 525.317 55.7617 524.861 55.7617C524.412 55.7617 524.002 55.8561 523.631 56.0449C523.266 56.2337 522.951 56.4941 522.684 56.8262C522.423 57.1582 522.218 57.5391 522.068 57.9688C521.925 58.3919 521.854 58.8411 521.854 59.3164ZM538.895 57.002H540.184C540.815 57.002 541.336 56.8978 541.746 56.6895C542.163 56.4746 542.472 56.1849 542.674 55.8203C542.882 55.4492 542.986 55.0326 542.986 54.5703C542.986 54.0234 542.895 53.5645 542.713 53.1934C542.531 52.8223 542.257 52.5423 541.893 52.3535C541.528 52.1647 541.066 52.0703 540.506 52.0703C539.998 52.0703 539.549 52.1712 539.158 52.373C538.774 52.5684 538.471 52.8483 538.25 53.2129C538.035 53.5775 537.928 54.0072 537.928 54.502H536.121C536.121 53.7793 536.303 53.1217 536.668 52.5293C537.033 51.9368 537.544 51.4648 538.201 51.1133C538.865 50.7617 539.633 50.5859 540.506 50.5859C541.365 50.5859 542.117 50.7389 542.762 51.0449C543.406 51.3444 543.908 51.7936 544.266 52.3926C544.624 52.985 544.803 53.724 544.803 54.6094C544.803 54.9674 544.718 55.3516 544.549 55.7617C544.386 56.1654 544.129 56.543 543.777 56.8945C543.432 57.2461 542.983 57.5358 542.43 57.7637C541.876 57.985 541.212 58.0957 540.438 58.0957H538.895V57.002ZM538.895 58.4863V57.4023H540.438C541.342 57.4023 542.091 57.5098 542.684 57.7246C543.276 57.9395 543.742 58.2259 544.08 58.584C544.425 58.9421 544.666 59.3359 544.803 59.7656C544.946 60.1888 545.018 60.612 545.018 61.0352C545.018 61.6992 544.904 62.2884 544.676 62.8027C544.454 63.3171 544.139 63.7533 543.729 64.1113C543.325 64.4694 542.85 64.7396 542.303 64.9219C541.756 65.1042 541.16 65.1953 540.516 65.1953C539.897 65.1953 539.314 65.1074 538.768 64.9316C538.227 64.7559 537.749 64.502 537.332 64.1699C536.915 63.8314 536.59 63.418 536.355 62.9297C536.121 62.4349 536.004 61.8717 536.004 61.2402H537.811C537.811 61.735 537.918 62.168 538.133 62.5391C538.354 62.9102 538.667 63.1999 539.07 63.4082C539.48 63.61 539.962 63.7109 540.516 63.7109C541.069 63.7109 541.544 63.6165 541.941 63.4277C542.345 63.2324 542.654 62.9395 542.869 62.5488C543.09 62.1582 543.201 61.6667 543.201 61.0742C543.201 60.4818 543.077 59.9967 542.83 59.6191C542.583 59.235 542.231 58.9518 541.775 58.7695C541.326 58.5807 540.796 58.4863 540.184 58.4863H538.895Z" fill="white"/>
<rect x="465.5" y="188.5" width="112" height="43" stroke="#041746"/>
<rect x="465.5" y="141.5" width="112" height="43" stroke="#041746"/>
<rect x="466" y="28" width="113" height="62" fill="#041746"/>
<path d="M504.189 45.8945V47.4277H496.494V45.8945H504.189ZM496.787 39.7812V54H494.902V39.7812H496.787ZM505.83 39.7812V54H503.955V39.7812H505.83ZM513.291 54.1953C512.555 54.1953 511.888 54.0716 511.289 53.8242C510.697 53.5703 510.186 53.2155 509.756 52.7598C509.333 52.304 509.007 51.7637 508.779 51.1387C508.551 50.5137 508.438 49.8301 508.438 49.0879V48.6777C508.438 47.8184 508.564 47.0534 508.818 46.3828C509.072 45.7057 509.417 45.1328 509.854 44.6641C510.29 44.1953 510.785 43.8405 511.338 43.5996C511.891 43.3587 512.464 43.2383 513.057 43.2383C513.812 43.2383 514.463 43.3685 515.01 43.6289C515.563 43.8893 516.016 44.2539 516.367 44.7227C516.719 45.1849 516.979 45.7318 517.148 46.3633C517.318 46.9883 517.402 47.6719 517.402 48.4141V49.2246H509.512V47.75H515.596V47.6133C515.57 47.1445 515.472 46.6888 515.303 46.2461C515.14 45.8034 514.88 45.4388 514.521 45.1523C514.163 44.8659 513.675 44.7227 513.057 44.7227C512.646 44.7227 512.269 44.8105 511.924 44.9863C511.579 45.1556 511.283 45.4095 511.035 45.748C510.788 46.0866 510.596 46.5 510.459 46.9883C510.322 47.4766 510.254 48.0397 510.254 48.6777V49.0879C510.254 49.5892 510.322 50.0612 510.459 50.5039C510.602 50.9401 510.807 51.3242 511.074 51.6562C511.348 51.9883 511.676 52.2487 512.061 52.4375C512.451 52.6263 512.894 52.7207 513.389 52.7207C514.027 52.7207 514.567 52.5905 515.01 52.3301C515.452 52.0697 515.84 51.7214 516.172 51.2852L517.266 52.1543C517.038 52.4993 516.748 52.8281 516.396 53.1406C516.045 53.4531 515.612 53.707 515.098 53.9023C514.59 54.0977 513.988 54.1953 513.291 54.1953ZM521.475 43.4336V54H519.658V43.4336H521.475ZM519.521 40.6309C519.521 40.3379 519.609 40.0905 519.785 39.8887C519.967 39.6868 520.234 39.5859 520.586 39.5859C520.931 39.5859 521.195 39.6868 521.377 39.8887C521.566 40.0905 521.66 40.3379 521.66 40.6309C521.66 40.9108 521.566 41.1517 521.377 41.3535C521.195 41.5488 520.931 41.6465 520.586 41.6465C520.234 41.6465 519.967 41.5488 519.785 41.3535C519.609 41.1517 519.521 40.9108 519.521 40.6309ZM531.221 43.4336H532.861V53.7754C532.861 54.7064 532.673 55.5007 532.295 56.1582C531.917 56.8158 531.39 57.3138 530.713 57.6523C530.042 57.9974 529.268 58.1699 528.389 58.1699C528.024 58.1699 527.594 58.1113 527.1 57.9941C526.611 57.8835 526.13 57.6914 525.654 57.418C525.186 57.151 524.792 56.7897 524.473 56.334L525.42 55.2598C525.863 55.7936 526.325 56.1647 526.807 56.373C527.295 56.5814 527.777 56.6855 528.252 56.6855C528.825 56.6855 529.32 56.5781 529.736 56.3633C530.153 56.1484 530.475 55.8294 530.703 55.4062C530.938 54.9896 531.055 54.4753 531.055 53.8633V45.7578L531.221 43.4336ZM523.945 48.834V48.6289C523.945 47.8216 524.04 47.0892 524.229 46.4316C524.424 45.7676 524.701 45.1979 525.059 44.7227C525.423 44.2474 525.863 43.8828 526.377 43.6289C526.891 43.3685 527.471 43.2383 528.115 43.2383C528.779 43.2383 529.359 43.3555 529.854 43.5898C530.355 43.8177 530.778 44.153 531.123 44.5957C531.475 45.0319 531.751 45.5592 531.953 46.1777C532.155 46.7962 532.295 47.4961 532.373 48.2773V49.1758C532.301 49.9505 532.161 50.6471 531.953 51.2656C531.751 51.8841 531.475 52.4115 531.123 52.8477C530.778 53.2839 530.355 53.6191 529.854 53.8535C529.352 54.0814 528.766 54.1953 528.096 54.1953C527.464 54.1953 526.891 54.0618 526.377 53.7949C525.869 53.528 525.433 53.1536 525.068 52.6719C524.704 52.1901 524.424 51.6237 524.229 50.9727C524.04 50.3151 523.945 49.6022 523.945 48.834ZM525.752 48.6289V48.834C525.752 49.3613 525.804 49.8561 525.908 50.3184C526.019 50.7806 526.185 51.1875 526.406 51.5391C526.634 51.8906 526.924 52.1673 527.275 52.3691C527.627 52.5645 528.047 52.6621 528.535 52.6621C529.134 52.6621 529.629 52.5352 530.02 52.2812C530.41 52.0273 530.719 51.6921 530.947 51.2754C531.182 50.8587 531.364 50.4062 531.494 49.918V47.5645C531.423 47.2064 531.312 46.8613 531.162 46.5293C531.019 46.1908 530.83 45.8913 530.596 45.6309C530.368 45.3639 530.085 45.1523 529.746 44.9961C529.408 44.8398 529.01 44.7617 528.555 44.7617C528.06 44.7617 527.633 44.8659 527.275 45.0742C526.924 45.276 526.634 45.556 526.406 45.9141C526.185 46.2656 526.019 46.6758 525.908 47.1445C525.804 47.6068 525.752 48.1016 525.752 48.6289ZM537.412 39V54H535.605V39H537.412ZM536.982 48.3164L536.23 48.2871C536.237 47.5645 536.344 46.8971 536.553 46.2852C536.761 45.6667 537.054 45.1296 537.432 44.6738C537.809 44.2181 538.258 43.8665 538.779 43.6191C539.307 43.3652 539.889 43.2383 540.527 43.2383C541.048 43.2383 541.517 43.3099 541.934 43.4531C542.35 43.5898 542.705 43.8112 542.998 44.1172C543.298 44.4232 543.525 44.8203 543.682 45.3086C543.838 45.7904 543.916 46.3796 543.916 47.0762V54H542.1V47.0566C542.1 46.5033 542.018 46.0605 541.855 45.7285C541.693 45.39 541.455 45.1458 541.143 44.9961C540.83 44.8398 540.446 44.7617 539.99 44.7617C539.541 44.7617 539.131 44.8561 538.76 45.0449C538.395 45.2337 538.079 45.4941 537.812 45.8262C537.552 46.1582 537.347 46.5391 537.197 46.9688C537.054 47.3919 536.982 47.8411 536.982 48.3164ZM551.045 43.4336V44.8203H545.332V43.4336H551.045ZM547.266 40.8652H549.072V51.3828C549.072 51.7409 549.128 52.0111 549.238 52.1934C549.349 52.3757 549.492 52.4961 549.668 52.5547C549.844 52.6133 550.033 52.6426 550.234 52.6426C550.384 52.6426 550.54 52.6296 550.703 52.6035C550.872 52.571 550.999 52.5449 551.084 52.5254L551.094 54C550.951 54.0456 550.762 54.0879 550.527 54.127C550.299 54.1725 550.023 54.1953 549.697 54.1953C549.255 54.1953 548.848 54.1074 548.477 53.9316C548.105 53.7559 547.809 53.4629 547.588 53.0527C547.373 52.6361 547.266 52.0762 547.266 51.373V40.8652ZM505.391 71.3164V71.2188C505.391 69.7995 505.55 68.5169 505.869 67.3711C506.188 66.2188 506.595 65.2096 507.09 64.3438C507.585 63.4779 508.105 62.7617 508.652 62.1953C509.199 61.6224 509.704 61.209 510.166 60.9551L510.547 62.1465C510.163 62.4395 509.772 62.8431 509.375 63.3574C508.984 63.8717 508.623 64.5033 508.291 65.252C507.965 66.0007 507.702 66.8698 507.5 67.8594C507.298 68.849 507.197 69.9622 507.197 71.1992V71.3359C507.197 72.5729 507.298 73.6895 507.5 74.6855C507.702 75.6751 507.965 76.5475 508.291 77.3027C508.623 78.0579 508.984 78.6992 509.375 79.2266C509.772 79.7604 510.163 80.1836 510.547 80.4961L510.166 81.5898C509.704 81.3359 509.199 80.9225 508.652 80.3496C508.105 79.7832 507.585 79.0671 507.09 78.2012C506.595 77.3418 506.188 76.3359 505.869 75.1836C505.55 74.0312 505.391 72.7422 505.391 71.3164ZM516.543 75.7109C516.973 75.7109 517.37 75.623 517.734 75.4473C518.099 75.2715 518.398 75.0306 518.633 74.7246C518.867 74.4121 519.001 74.0573 519.033 73.6602H520.752C520.719 74.2852 520.508 74.8678 520.117 75.4082C519.733 75.9421 519.229 76.375 518.604 76.707C517.979 77.0326 517.292 77.1953 516.543 77.1953C515.749 77.1953 515.055 77.0553 514.463 76.7754C513.877 76.4954 513.389 76.1113 512.998 75.623C512.614 75.1348 512.324 74.5749 512.129 73.9434C511.94 73.3053 511.846 72.6315 511.846 71.9219V71.5117C511.846 70.8021 511.94 70.1315 512.129 69.5C512.324 68.862 512.614 68.2988 512.998 67.8105C513.389 67.3223 513.877 66.9382 514.463 66.6582C515.055 66.3783 515.749 66.2383 516.543 66.2383C517.37 66.2383 518.092 66.4076 518.711 66.7461C519.329 67.0781 519.814 67.5339 520.166 68.1133C520.524 68.6862 520.719 69.3372 520.752 70.0664H519.033C519.001 69.6302 518.877 69.2363 518.662 68.8848C518.454 68.5332 518.167 68.2533 517.803 68.0449C517.445 67.8301 517.025 67.7227 516.543 67.7227C515.99 67.7227 515.524 67.8333 515.146 68.0547C514.775 68.2695 514.479 68.5625 514.258 68.9336C514.043 69.2982 513.887 69.7051 513.789 70.1543C513.698 70.597 513.652 71.0495 513.652 71.5117V71.9219C513.652 72.3841 513.698 72.8398 513.789 73.2891C513.88 73.7383 514.033 74.1452 514.248 74.5098C514.469 74.8743 514.766 75.1673 515.137 75.3887C515.514 75.6035 515.983 75.7109 516.543 75.7109ZM524.58 68.5332V77H522.764V66.4336H524.482L524.58 68.5332ZM524.209 71.3164L523.369 71.2871C523.376 70.5645 523.47 69.8971 523.652 69.2852C523.835 68.6667 524.105 68.1296 524.463 67.6738C524.821 67.2181 525.267 66.8665 525.801 66.6191C526.335 66.3652 526.953 66.2383 527.656 66.2383C528.151 66.2383 528.607 66.3099 529.023 66.4531C529.44 66.5898 529.801 66.8079 530.107 67.1074C530.413 67.4069 530.651 67.791 530.82 68.2598C530.99 68.7285 531.074 69.2949 531.074 69.959V77H529.268V70.0469C529.268 69.4935 529.173 69.0508 528.984 68.7188C528.802 68.3867 528.542 68.1458 528.203 67.9961C527.865 67.8398 527.467 67.7617 527.012 67.7617C526.478 67.7617 526.032 67.8561 525.674 68.0449C525.316 68.2337 525.029 68.4941 524.814 68.8262C524.6 69.1582 524.443 69.5391 524.346 69.9688C524.255 70.3919 524.209 70.8411 524.209 71.3164ZM531.055 70.3203L529.844 70.6914C529.85 70.112 529.945 69.5553 530.127 69.0215C530.316 68.4876 530.586 68.0124 530.938 67.5957C531.296 67.179 531.735 66.8503 532.256 66.6094C532.777 66.362 533.372 66.2383 534.043 66.2383C534.609 66.2383 535.111 66.3132 535.547 66.4629C535.99 66.6126 536.361 66.8438 536.66 67.1562C536.966 67.4622 537.197 67.8561 537.354 68.3379C537.51 68.8197 537.588 69.3926 537.588 70.0566V77H535.771V70.0371C535.771 69.4447 535.677 68.9857 535.488 68.6602C535.306 68.3281 535.046 68.097 534.707 67.9668C534.375 67.8301 533.978 67.7617 533.516 67.7617C533.118 67.7617 532.767 67.8301 532.461 67.9668C532.155 68.1035 531.898 68.2923 531.689 68.5332C531.481 68.7676 531.322 69.0378 531.211 69.3438C531.107 69.6497 531.055 69.9753 531.055 70.3203ZM544.482 71.2188V71.3164C544.482 72.7422 544.323 74.0312 544.004 75.1836C543.685 76.3359 543.278 77.3418 542.783 78.2012C542.288 79.0671 541.768 79.7832 541.221 80.3496C540.674 80.9225 540.169 81.3359 539.707 81.5898L539.326 80.4961C539.71 80.2031 540.098 79.793 540.488 79.2656C540.879 78.7448 541.24 78.1003 541.572 77.332C541.904 76.5703 542.171 75.6914 542.373 74.6953C542.575 73.6927 542.676 72.5729 542.676 71.3359V71.1992C542.676 69.9622 542.568 68.8457 542.354 67.8496C542.139 66.847 541.859 65.9648 541.514 65.2031C541.175 64.4414 540.811 63.8001 540.42 63.2793C540.036 62.752 539.671 62.3451 539.326 62.0586L539.707 60.9551C540.169 61.209 540.674 61.6224 541.221 62.1953C541.768 62.7617 542.288 63.4779 542.783 64.3438C543.278 65.2096 543.685 66.2188 544.004 67.3711C544.323 68.5169 544.482 69.7995 544.482 71.2188Z" fill="white"/>
<rect x="466.5" y="93.5" width="112" height="43" stroke="#041746"/>
<rect x="582.5" y="188.5" width="112" height="43" stroke="#041746"/>
<rect x="582.5" y="141.5" width="112" height="43" stroke="#041746"/>
<rect x="583" y="28" width="113" height="62" fill="#041746"/>
<path d="M624.82 62.8418L629.01 50.7812H631.051L625.787 65H624.332L624.82 62.8418ZM620.904 50.7812L625.055 62.8418L625.572 65H624.117L618.863 50.7812H620.904ZM631.764 59.834V59.6094C631.764 58.8477 631.874 58.1413 632.096 57.4902C632.317 56.8327 632.636 56.263 633.053 55.7812C633.469 55.293 633.974 54.9154 634.566 54.6484C635.159 54.375 635.823 54.2383 636.559 54.2383C637.301 54.2383 637.968 54.375 638.561 54.6484C639.16 54.9154 639.667 55.293 640.084 55.7812C640.507 56.263 640.829 56.8327 641.051 57.4902C641.272 58.1413 641.383 58.8477 641.383 59.6094V59.834C641.383 60.5957 641.272 61.3021 641.051 61.9531C640.829 62.6042 640.507 63.1738 640.084 63.6621C639.667 64.1439 639.163 64.5215 638.57 64.7949C637.984 65.0618 637.32 65.1953 636.578 65.1953C635.836 65.1953 635.169 65.0618 634.576 64.7949C633.984 64.5215 633.476 64.1439 633.053 63.6621C632.636 63.1738 632.317 62.6042 632.096 61.9531C631.874 61.3021 631.764 60.5957 631.764 59.834ZM633.57 59.6094V59.834C633.57 60.3613 633.632 60.8594 633.756 61.3281C633.88 61.7904 634.065 62.2005 634.312 62.5586C634.566 62.9167 634.882 63.1999 635.26 63.4082C635.637 63.61 636.077 63.7109 636.578 63.7109C637.073 63.7109 637.506 63.61 637.877 63.4082C638.255 63.1999 638.567 62.9167 638.814 62.5586C639.062 62.2005 639.247 61.7904 639.371 61.3281C639.501 60.8594 639.566 60.3613 639.566 59.834V59.6094C639.566 59.0885 639.501 58.597 639.371 58.1348C639.247 57.666 639.059 57.2526 638.805 56.8945C638.557 56.5299 638.245 56.2435 637.867 56.0352C637.496 55.8268 637.06 55.7227 636.559 55.7227C636.064 55.7227 635.628 55.8268 635.25 56.0352C634.879 56.2435 634.566 56.5299 634.312 56.8945C634.065 57.2526 633.88 57.666 633.756 58.1348C633.632 58.597 633.57 59.0885 633.57 59.6094ZM648.072 54.4336V55.8203H642.359V54.4336H648.072ZM644.293 51.8652H646.1V62.3828C646.1 62.7409 646.155 63.0111 646.266 63.1934C646.376 63.3757 646.52 63.4961 646.695 63.5547C646.871 63.6133 647.06 63.6426 647.262 63.6426C647.411 63.6426 647.568 63.6296 647.73 63.6035C647.9 63.571 648.027 63.5449 648.111 63.5254L648.121 65C647.978 65.0456 647.789 65.0879 647.555 65.127C647.327 65.1725 647.05 65.1953 646.725 65.1953C646.282 65.1953 645.875 65.1074 645.504 64.9316C645.133 64.7559 644.837 64.4629 644.615 64.0527C644.4 63.6361 644.293 63.0762 644.293 62.373V51.8652ZM654.576 65.1953C653.84 65.1953 653.173 65.0716 652.574 64.8242C651.982 64.5703 651.471 64.2155 651.041 63.7598C650.618 63.304 650.292 62.7637 650.064 62.1387C649.837 61.5137 649.723 60.8301 649.723 60.0879V59.6777C649.723 58.8184 649.85 58.0534 650.104 57.3828C650.357 56.7057 650.702 56.1328 651.139 55.6641C651.575 55.1953 652.07 54.8405 652.623 54.5996C653.176 54.3587 653.749 54.2383 654.342 54.2383C655.097 54.2383 655.748 54.3685 656.295 54.6289C656.848 54.8893 657.301 55.2539 657.652 55.7227C658.004 56.1849 658.264 56.7318 658.434 57.3633C658.603 57.9883 658.688 58.6719 658.688 59.4141V60.2246H650.797V58.75H656.881V58.6133C656.855 58.1445 656.757 57.6888 656.588 57.2461C656.425 56.8034 656.165 56.4388 655.807 56.1523C655.449 55.8659 654.96 55.7227 654.342 55.7227C653.932 55.7227 653.554 55.8105 653.209 55.9863C652.864 56.1556 652.568 56.4095 652.32 56.748C652.073 57.0866 651.881 57.5 651.744 57.9883C651.607 58.4766 651.539 59.0397 651.539 59.6777V60.0879C651.539 60.5892 651.607 61.0612 651.744 61.5039C651.887 61.9401 652.092 62.3242 652.359 62.6562C652.633 62.9883 652.962 63.2487 653.346 63.4375C653.736 63.6263 654.179 63.7207 654.674 63.7207C655.312 63.7207 655.852 63.5905 656.295 63.3301C656.738 63.0697 657.125 62.7214 657.457 62.2852L658.551 63.1543C658.323 63.4993 658.033 63.8281 657.682 64.1406C657.33 64.4531 656.897 64.707 656.383 64.9023C655.875 65.0977 655.273 65.1953 654.576 65.1953Z" fill="white"/>
<rect x="583.5" y="93.5" width="112" height="43" stroke="#041746"/>
</svg>
