<svg xmlns="http://www.w3.org/2000/svg" xmlns:xlink="http://www.w3.org/1999/xlink" version="1.1" width="7.500in" height="4.500in" viewBox="0 0 5400 3240">
	<desc>Stata Graph - Graph</desc>
	<rect x="0" y="0" width="5400" height="3240" style="fill:#FFFFFF;stroke:none"/>
	<rect x="0.00" y="0.00" width="5400.00" height="3240.00" style="fill:#FFFFFF"/>
	<rect x="3.24" y="3.24" width="5393.52" height="3233.52" style="fill:none;stroke:#FFFFFF;stroke-width:6.48"/>
	<rect x="419.68" y="113.40" width="4866.92" height="2765.64" style="fill:#FFFFFF"/>
	<rect x="422.92" y="116.64" width="4860.44" height="2759.16" style="fill:none;stroke:#FFFFFF;stroke-width:6.48"/>
	<line x1="419.68" y1="2807.83" x2="484.48" y2="2807.83" style="stroke:#F0F0F0;stroke-width:9.72"/>
	<line x1="516.88" y1="2807.83" x2="581.68" y2="2807.83" style="stroke:#F0F0F0;stroke-width:9.72"/>
	<line x1="614.08" y1="2807.83" x2="678.88" y2="2807.83" style="stroke:#F0F0F0;stroke-width:9.72"/>
	<line x1="711.28" y1="2807.83" x2="776.08" y2="2807.83" style="stroke:#F0F0F0;stroke-width:9.72"/>
	<line x1="808.48" y1="2807.83" x2="873.28" y2="2807.83" style="stroke:#F0F0F0;stroke-width:9.72"/>
	<line x1="905.68" y1="2807.83" x2="970.48" y2="2807.83" style="stroke:#F0F0F0;stroke-width:9.72"/>
	<line x1="1002.88" y1="2807.83" x2="1067.68" y2="2807.83" style="stroke:#F0F0F0;stroke-width:9.72"/>
	<line x1="1100.08" y1="2807.83" x2="1164.88" y2="2807.83" style="stroke:#F0F0F0;stroke-width:9.72"/>
	<line x1="1197.28" y1="2807.83" x2="1262.08" y2="2807.83" style="stroke:#F0F0F0;stroke-width:9.72"/>
	<line x1="1294.48" y1="2807.83" x2="1359.28" y2="2807.83" style="stroke:#F0F0F0;stroke-width:9.72"/>
	<line x1="1391.68" y1="2807.83" x2="1456.48" y2="2807.83" style="stroke:#F0F0F0;stroke-width:9.72"/>
	<line x1="1488.88" y1="2807.83" x2="1553.68" y2="2807.83" style="stroke:#F0F0F0;stroke-width:9.72"/>
	<line x1="1586.08" y1="2807.83" x2="1650.88" y2="2807.83" style="stroke:#F0F0F0;stroke-width:9.72"/>
	<line x1="1683.28" y1="2807.83" x2="1748.08" y2="2807.83" style="stroke:#F0F0F0;stroke-width:9.72"/>
	<line x1="1780.48" y1="2807.83" x2="1845.28" y2="2807.83" style="stroke:#F0F0F0;stroke-width:9.72"/>
	<line x1="1877.68" y1="2807.83" x2="1942.48" y2="2807.83" style="stroke:#F0F0F0;stroke-width:9.72"/>
	<line x1="1974.88" y1="2807.83" x2="2039.68" y2="2807.83" style="stroke:#F0F0F0;stroke-width:9.72"/>
	<line x1="2072.08" y1="2807.83" x2="2136.88" y2="2807.83" style="stroke:#F0F0F0;stroke-width:9.72"/>
	<line x1="2169.28" y1="2807.83" x2="2234.08" y2="2807.83" style="stroke:#F0F0F0;stroke-width:9.72"/>
	<line x1="2266.48" y1="2807.83" x2="2331.28" y2="2807.83" style="stroke:#F0F0F0;stroke-width:9.72"/>
	<line x1="2363.68" y1="2807.83" x2="2428.48" y2="2807.83" style="stroke:#F0F0F0;stroke-width:9.72"/>
	<line x1="2460.88" y1="2807.83" x2="2525.68" y2="2807.83" style="stroke:#F0F0F0;stroke-width:9.72"/>
	<line x1="2558.08" y1="2807.83" x2="2622.88" y2="2807.83" style="stroke:#F0F0F0;stroke-width:9.72"/>
	<line x1="2655.28" y1="2807.83" x2="2720.08" y2="2807.83" style="stroke:#F0F0F0;stroke-width:9.72"/>
	<line x1="2752.48" y1="2807.83" x2="2817.28" y2="2807.83" style="stroke:#F0F0F0;stroke-width:9.72"/>
	<line x1="2849.68" y1="2807.83" x2="2914.48" y2="2807.83" style="stroke:#F0F0F0;stroke-width:9.72"/>
	<line x1="2946.88" y1="2807.83" x2="3011.68" y2="2807.83" style="stroke:#F0F0F0;stroke-width:9.72"/>
	<line x1="3044.08" y1="2807.83" x2="3108.88" y2="2807.83" style="stroke:#F0F0F0;stroke-width:9.72"/>
	<line x1="3141.28" y1="2807.83" x2="3206.08" y2="2807.83" style="stroke:#F0F0F0;stroke-width:9.72"/>
	<line x1="3238.48" y1="2807.83" x2="3303.28" y2="2807.83" style="stroke:#F0F0F0;stroke-width:9.72"/>
	<line x1="3335.68" y1="2807.83" x2="3400.48" y2="2807.83" style="stroke:#F0F0F0;stroke-width:9.72"/>
	<line x1="3432.88" y1="2807.83" x2="3497.68" y2="2807.83" style="stroke:#F0F0F0;stroke-width:9.72"/>
	<line x1="3530.08" y1="2807.83" x2="3594.88" y2="2807.83" style="stroke:#F0F0F0;stroke-width:9.72"/>
	<line x1="3627.28" y1="2807.83" x2="3692.08" y2="2807.83" style="stroke:#F0F0F0;stroke-width:9.72"/>
	<line x1="3724.48" y1="2807.83" x2="3789.28" y2="2807.83" style="stroke:#F0F0F0;stroke-width:9.72"/>
	<line x1="3821.68" y1="2807.83" x2="3886.48" y2="2807.83" style="stroke:#F0F0F0;stroke-width:9.72"/>
	<line x1="3918.88" y1="2807.83" x2="3983.68" y2="2807.83" style="stroke:#F0F0F0;stroke-width:9.72"/>
	<line x1="4016.08" y1="2807.83" x2="4080.88" y2="2807.83" style="stroke:#F0F0F0;stroke-width:9.72"/>
	<line x1="4113.28" y1="2807.83" x2="4178.08" y2="2807.83" style="stroke:#F0F0F0;stroke-width:9.72"/>
	<line x1="4210.48" y1="2807.83" x2="4275.28" y2="2807.83" style="stroke:#F0F0F0;stroke-width:9.72"/>
	<line x1="4307.68" y1="2807.83" x2="4372.48" y2="2807.83" style="stroke:#F0F0F0;stroke-width:9.72"/>
	<line x1="4404.88" y1="2807.83" x2="4469.68" y2="2807.83" style="stroke:#F0F0F0;stroke-width:9.72"/>
	<line x1="4502.08" y1="2807.83" x2="4566.88" y2="2807.83" style="stroke:#F0F0F0;stroke-width:9.72"/>
	<line x1="4599.28" y1="2807.83" x2="4664.08" y2="2807.83" style="stroke:#F0F0F0;stroke-width:9.72"/>
	<line x1="4696.48" y1="2807.83" x2="4761.28" y2="2807.83" style="stroke:#F0F0F0;stroke-width:9.72"/>
	<line x1="4793.68" y1="2807.83" x2="4858.48" y2="2807.83" style="stroke:#F0F0F0;stroke-width:9.72"/>
	<line x1="4890.88" y1="2807.83" x2="4955.68" y2="2807.83" style="stroke:#F0F0F0;stroke-width:9.72"/>
	<line x1="4988.08" y1="2807.83" x2="5052.88" y2="2807.83" style="stroke:#F0F0F0;stroke-width:9.72"/>
	<line x1="5085.28" y1="2807.83" x2="5150.08" y2="2807.83" style="stroke:#F0F0F0;stroke-width:9.72"/>
	<line x1="5182.48" y1="2807.83" x2="5247.28" y2="2807.83" style="stroke:#F0F0F0;stroke-width:9.72"/>
	<line x1="5279.68" y1="2807.83" x2="5286.60" y2="2807.83" style="stroke:#F0F0F0;stroke-width:9.72"/>
	<line x1="419.68" y1="2211.30" x2="484.48" y2="2211.30" style="stroke:#F0F0F0;stroke-width:9.72"/>
	<line x1="516.88" y1="2211.30" x2="581.68" y2="2211.30" style="stroke:#F0F0F0;stroke-width:9.72"/>
	<line x1="614.08" y1="2211.30" x2="678.88" y2="2211.30" style="stroke:#F0F0F0;stroke-width:9.72"/>
	<line x1="711.28" y1="2211.30" x2="776.08" y2="2211.30" style="stroke:#F0F0F0;stroke-width:9.72"/>
	<line x1="808.48" y1="2211.30" x2="873.28" y2="2211.30" style="stroke:#F0F0F0;stroke-width:9.72"/>
	<line x1="905.68" y1="2211.30" x2="970.48" y2="2211.30" style="stroke:#F0F0F0;stroke-width:9.72"/>
	<line x1="1002.88" y1="2211.30" x2="1067.68" y2="2211.30" style="stroke:#F0F0F0;stroke-width:9.72"/>
	<line x1="1100.08" y1="2211.30" x2="1164.88" y2="2211.30" style="stroke:#F0F0F0;stroke-width:9.72"/>
	<line x1="1197.28" y1="2211.30" x2="1262.08" y2="2211.30" style="stroke:#F0F0F0;stroke-width:9.72"/>
	<line x1="1294.48" y1="2211.30" x2="1359.28" y2="2211.30" style="stroke:#F0F0F0;stroke-width:9.72"/>
	<line x1="1391.68" y1="2211.30" x2="1456.48" y2="2211.30" style="stroke:#F0F0F0;stroke-width:9.72"/>
	<line x1="1488.88" y1="2211.30" x2="1553.68" y2="2211.30" style="stroke:#F0F0F0;stroke-width:9.72"/>
	<line x1="1586.08" y1="2211.30" x2="1650.88" y2="2211.30" style="stroke:#F0F0F0;stroke-width:9.72"/>
	<line x1="1683.28" y1="2211.30" x2="1748.08" y2="2211.30" style="stroke:#F0F0F0;stroke-width:9.72"/>
	<line x1="1780.48" y1="2211.30" x2="1845.28" y2="2211.30" style="stroke:#F0F0F0;stroke-width:9.72"/>
	<line x1="1877.68" y1="2211.30" x2="1942.48" y2="2211.30" style="stroke:#F0F0F0;stroke-width:9.72"/>
	<line x1="1974.88" y1="2211.30" x2="2039.68" y2="2211.30" style="stroke:#F0F0F0;stroke-width:9.72"/>
	<line x1="2072.08" y1="2211.30" x2="2136.88" y2="2211.30" style="stroke:#F0F0F0;stroke-width:9.72"/>
	<line x1="2169.28" y1="2211.30" x2="2234.08" y2="2211.30" style="stroke:#F0F0F0;stroke-width:9.72"/>
	<line x1="2266.48" y1="2211.30" x2="2331.28" y2="2211.30" style="stroke:#F0F0F0;stroke-width:9.72"/>
	<line x1="2363.68" y1="2211.30" x2="2428.48" y2="2211.30" style="stroke:#F0F0F0;stroke-width:9.72"/>
	<line x1="2460.88" y1="2211.30" x2="2525.68" y2="2211.30" style="stroke:#F0F0F0;stroke-width:9.72"/>
	<line x1="2558.08" y1="2211.30" x2="2622.88" y2="2211.30" style="stroke:#F0F0F0;stroke-width:9.72"/>
	<line x1="2655.28" y1="2211.30" x2="2720.08" y2="2211.30" style="stroke:#F0F0F0;stroke-width:9.72"/>
	<line x1="2752.48" y1="2211.30" x2="2817.28" y2="2211.30" style="stroke:#F0F0F0;stroke-width:9.72"/>
	<line x1="2849.68" y1="2211.30" x2="2914.48" y2="2211.30" style="stroke:#F0F0F0;stroke-width:9.72"/>
	<line x1="2946.88" y1="2211.30" x2="3011.68" y2="2211.30" style="stroke:#F0F0F0;stroke-width:9.72"/>
	<line x1="3044.08" y1="2211.30" x2="3108.88" y2="2211.30" style="stroke:#F0F0F0;stroke-width:9.72"/>
	<line x1="3141.28" y1="2211.30" x2="3206.08" y2="2211.30" style="stroke:#F0F0F0;stroke-width:9.72"/>
	<line x1="3238.48" y1="2211.30" x2="3303.28" y2="2211.30" style="stroke:#F0F0F0;stroke-width:9.72"/>
	<line x1="3335.68" y1="2211.30" x2="3400.48" y2="2211.30" style="stroke:#F0F0F0;stroke-width:9.72"/>
	<line x1="3432.88" y1="2211.30" x2="3497.68" y2="2211.30" style="stroke:#F0F0F0;stroke-width:9.72"/>
	<line x1="3530.08" y1="2211.30" x2="3594.88" y2="2211.30" style="stroke:#F0F0F0;stroke-width:9.72"/>
	<line x1="3627.28" y1="2211.30" x2="3692.08" y2="2211.30" style="stroke:#F0F0F0;stroke-width:9.72"/>
	<line x1="3724.48" y1="2211.30" x2="3789.28" y2="2211.30" style="stroke:#F0F0F0;stroke-width:9.72"/>
	<line x1="3821.68" y1="2211.30" x2="3886.48" y2="2211.30" style="stroke:#F0F0F0;stroke-width:9.72"/>
	<line x1="3918.88" y1="2211.30" x2="3983.68" y2="2211.30" style="stroke:#F0F0F0;stroke-width:9.72"/>
	<line x1="4016.08" y1="2211.30" x2="4080.88" y2="2211.30" style="stroke:#F0F0F0;stroke-width:9.72"/>
	<line x1="4113.28" y1="2211.30" x2="4178.08" y2="2211.30" style="stroke:#F0F0F0;stroke-width:9.72"/>
	<line x1="4210.48" y1="2211.30" x2="4275.28" y2="2211.30" style="stroke:#F0F0F0;stroke-width:9.72"/>
	<line x1="4307.68" y1="2211.30" x2="4372.48" y2="2211.30" style="stroke:#F0F0F0;stroke-width:9.72"/>
	<line x1="4404.88" y1="2211.30" x2="4469.68" y2="2211.30" style="stroke:#F0F0F0;stroke-width:9.72"/>
	<line x1="4502.08" y1="2211.30" x2="4566.88" y2="2211.30" style="stroke:#F0F0F0;stroke-width:9.72"/>
	<line x1="4599.28" y1="2211.30" x2="4664.08" y2="2211.30" style="stroke:#F0F0F0;stroke-width:9.72"/>
	<line x1="4696.48" y1="2211.30" x2="4761.28" y2="2211.30" style="stroke:#F0F0F0;stroke-width:9.72"/>
	<line x1="4793.68" y1="2211.30" x2="4858.48" y2="2211.30" style="stroke:#F0F0F0;stroke-width:9.72"/>
	<line x1="4890.88" y1="2211.30" x2="4955.68" y2="2211.30" style="stroke:#F0F0F0;stroke-width:9.72"/>
	<line x1="4988.08" y1="2211.30" x2="5052.88" y2="2211.30" style="stroke:#F0F0F0;stroke-width:9.72"/>
	<line x1="5085.28" y1="2211.30" x2="5150.08" y2="2211.30" style="stroke:#F0F0F0;stroke-width:9.72"/>
	<line x1="5182.48" y1="2211.30" x2="5247.28" y2="2211.30" style="stroke:#F0F0F0;stroke-width:9.72"/>
	<line x1="5279.68" y1="2211.30" x2="5286.60" y2="2211.30" style="stroke:#F0F0F0;stroke-width:9.72"/>
	<line x1="419.68" y1="1614.94" x2="484.48" y2="1614.94" style="stroke:#F0F0F0;stroke-width:9.72"/>
	<line x1="516.88" y1="1614.94" x2="581.68" y2="1614.94" style="stroke:#F0F0F0;stroke-width:9.72"/>
	<line x1="614.08" y1="1614.94" x2="678.88" y2="1614.94" style="stroke:#F0F0F0;stroke-width:9.72"/>
	<line x1="711.28" y1="1614.94" x2="776.08" y2="1614.94" style="stroke:#F0F0F0;stroke-width:9.72"/>
	<line x1="808.48" y1="1614.94" x2="873.28" y2="1614.94" style="stroke:#F0F0F0;stroke-width:9.72"/>
	<line x1="905.68" y1="1614.94" x2="970.48" y2="1614.94" style="stroke:#F0F0F0;stroke-width:9.72"/>
	<line x1="1002.88" y1="1614.94" x2="1067.68" y2="1614.94" style="stroke:#F0F0F0;stroke-width:9.72"/>
	<line x1="1100.08" y1="1614.94" x2="1164.88" y2="1614.94" style="stroke:#F0F0F0;stroke-width:9.72"/>
	<line x1="1197.28" y1="1614.94" x2="1262.08" y2="1614.94" style="stroke:#F0F0F0;stroke-width:9.72"/>
	<line x1="1294.48" y1="1614.94" x2="1359.28" y2="1614.94" style="stroke:#F0F0F0;stroke-width:9.72"/>
	<line x1="1391.68" y1="1614.94" x2="1456.48" y2="1614.94" style="stroke:#F0F0F0;stroke-width:9.72"/>
	<line x1="1488.88" y1="1614.94" x2="1553.68" y2="1614.94" style="stroke:#F0F0F0;stroke-width:9.72"/>
	<line x1="1586.08" y1="1614.94" x2="1650.88" y2="1614.94" style="stroke:#F0F0F0;stroke-width:9.72"/>
	<line x1="1683.28" y1="1614.94" x2="1748.08" y2="1614.94" style="stroke:#F0F0F0;stroke-width:9.72"/>
	<line x1="1780.48" y1="1614.94" x2="1845.28" y2="1614.94" style="stroke:#F0F0F0;stroke-width:9.72"/>
	<line x1="1877.68" y1="1614.94" x2="1942.48" y2="1614.94" style="stroke:#F0F0F0;stroke-width:9.72"/>
	<line x1="1974.88" y1="1614.94" x2="2039.68" y2="1614.94" style="stroke:#F0F0F0;stroke-width:9.72"/>
	<line x1="2072.08" y1="1614.94" x2="2136.88" y2="1614.94" style="stroke:#F0F0F0;stroke-width:9.72"/>
	<line x1="2169.28" y1="1614.94" x2="2234.08" y2="1614.94" style="stroke:#F0F0F0;stroke-width:9.72"/>
	<line x1="2266.48" y1="1614.94" x2="2331.28" y2="1614.94" style="stroke:#F0F0F0;stroke-width:9.72"/>
	<line x1="2363.68" y1="1614.94" x2="2428.48" y2="1614.94" style="stroke:#F0F0F0;stroke-width:9.72"/>
	<line x1="2460.88" y1="1614.94" x2="2525.68" y2="1614.94" style="stroke:#F0F0F0;stroke-width:9.72"/>
	<line x1="2558.08" y1="1614.94" x2="2622.88" y2="1614.94" style="stroke:#F0F0F0;stroke-width:9.72"/>
	<line x1="2655.28" y1="1614.94" x2="2720.08" y2="1614.94" style="stroke:#F0F0F0;stroke-width:9.72"/>
	<line x1="2752.48" y1="1614.94" x2="2817.28" y2="1614.94" style="stroke:#F0F0F0;stroke-width:9.72"/>
	<line x1="2849.68" y1="1614.94" x2="2914.48" y2="1614.94" style="stroke:#F0F0F0;stroke-width:9.72"/>
	<line x1="2946.88" y1="1614.94" x2="3011.68" y2="1614.94" style="stroke:#F0F0F0;stroke-width:9.72"/>
	<line x1="3044.08" y1="1614.94" x2="3108.88" y2="1614.94" style="stroke:#F0F0F0;stroke-width:9.72"/>
	<line x1="3141.28" y1="1614.94" x2="3206.08" y2="1614.94" style="stroke:#F0F0F0;stroke-width:9.72"/>
	<line x1="3238.48" y1="1614.94" x2="3303.28" y2="1614.94" style="stroke:#F0F0F0;stroke-width:9.72"/>
	<line x1="3335.68" y1="1614.94" x2="3400.48" y2="1614.94" style="stroke:#F0F0F0;stroke-width:9.72"/>
	<line x1="3432.88" y1="1614.94" x2="3497.68" y2="1614.94" style="stroke:#F0F0F0;stroke-width:9.72"/>
	<line x1="3530.08" y1="1614.94" x2="3594.88" y2="1614.94" style="stroke:#F0F0F0;stroke-width:9.72"/>
	<line x1="3627.28" y1="1614.94" x2="3692.08" y2="1614.94" style="stroke:#F0F0F0;stroke-width:9.72"/>
	<line x1="3724.48" y1="1614.94" x2="3789.28" y2="1614.94" style="stroke:#F0F0F0;stroke-width:9.72"/>
	<line x1="3821.68" y1="1614.94" x2="3886.48" y2="1614.94" style="stroke:#F0F0F0;stroke-width:9.72"/>
	<line x1="3918.88" y1="1614.94" x2="3983.68" y2="1614.94" style="stroke:#F0F0F0;stroke-width:9.72"/>
	<line x1="4016.08" y1="1614.94" x2="4080.88" y2="1614.94" style="stroke:#F0F0F0;stroke-width:9.72"/>
	<line x1="4113.28" y1="1614.94" x2="4178.08" y2="1614.94" style="stroke:#F0F0F0;stroke-width:9.72"/>
	<line x1="4210.48" y1="1614.94" x2="4275.28" y2="1614.94" style="stroke:#F0F0F0;stroke-width:9.72"/>
	<line x1="4307.68" y1="1614.94" x2="4372.48" y2="1614.94" style="stroke:#F0F0F0;stroke-width:9.72"/>
	<line x1="4404.88" y1="1614.94" x2="4469.68" y2="1614.94" style="stroke:#F0F0F0;stroke-width:9.72"/>
	<line x1="4502.08" y1="1614.94" x2="4566.88" y2="1614.94" style="stroke:#F0F0F0;stroke-width:9.72"/>
	<line x1="4599.28" y1="1614.94" x2="4664.08" y2="1614.94" style="stroke:#F0F0F0;stroke-width:9.72"/>
	<line x1="4696.48" y1="1614.94" x2="4761.28" y2="1614.94" style="stroke:#F0F0F0;stroke-width:9.72"/>
	<line x1="4793.68" y1="1614.94" x2="4858.48" y2="1614.94" style="stroke:#F0F0F0;stroke-width:9.72"/>
	<line x1="4890.88" y1="1614.94" x2="4955.68" y2="1614.94" style="stroke:#F0F0F0;stroke-width:9.72"/>
	<line x1="4988.08" y1="1614.94" x2="5052.88" y2="1614.94" style="stroke:#F0F0F0;stroke-width:9.72"/>
	<line x1="5085.28" y1="1614.94" x2="5150.08" y2="1614.94" style="stroke:#F0F0F0;stroke-width:9.72"/>
	<line x1="5182.48" y1="1614.94" x2="5247.28" y2="1614.94" style="stroke:#F0F0F0;stroke-width:9.72"/>
	<line x1="5279.68" y1="1614.94" x2="5286.60" y2="1614.94" style="stroke:#F0F0F0;stroke-width:9.72"/>
	<line x1="419.68" y1="1018.41" x2="484.48" y2="1018.41" style="stroke:#F0F0F0;stroke-width:9.72"/>
	<line x1="516.88" y1="1018.41" x2="581.68" y2="1018.41" style="stroke:#F0F0F0;stroke-width:9.72"/>
	<line x1="614.08" y1="1018.41" x2="678.88" y2="1018.41" style="stroke:#F0F0F0;stroke-width:9.72"/>
	<line x1="711.28" y1="1018.41" x2="776.08" y2="1018.41" style="stroke:#F0F0F0;stroke-width:9.72"/>
	<line x1="808.48" y1="1018.41" x2="873.28" y2="1018.41" style="stroke:#F0F0F0;stroke-width:9.72"/>
	<line x1="905.68" y1="1018.41" x2="970.48" y2="1018.41" style="stroke:#F0F0F0;stroke-width:9.72"/>
	<line x1="1002.88" y1="1018.41" x2="1067.68" y2="1018.41" style="stroke:#F0F0F0;stroke-width:9.72"/>
	<line x1="1100.08" y1="1018.41" x2="1164.88" y2="1018.41" style="stroke:#F0F0F0;stroke-width:9.72"/>
	<line x1="1197.28" y1="1018.41" x2="1262.08" y2="1018.41" style="stroke:#F0F0F0;stroke-width:9.72"/>
	<line x1="1294.48" y1="1018.41" x2="1359.28" y2="1018.41" style="stroke:#F0F0F0;stroke-width:9.72"/>
	<line x1="1391.68" y1="1018.41" x2="1456.48" y2="1018.41" style="stroke:#F0F0F0;stroke-width:9.72"/>
	<line x1="1488.88" y1="1018.41" x2="1553.68" y2="1018.41" style="stroke:#F0F0F0;stroke-width:9.72"/>
	<line x1="1586.08" y1="1018.41" x2="1650.88" y2="1018.41" style="stroke:#F0F0F0;stroke-width:9.72"/>
	<line x1="1683.28" y1="1018.41" x2="1748.08" y2="1018.41" style="stroke:#F0F0F0;stroke-width:9.72"/>
	<line x1="1780.48" y1="1018.41" x2="1845.28" y2="1018.41" style="stroke:#F0F0F0;stroke-width:9.72"/>
	<line x1="1877.68" y1="1018.41" x2="1942.48" y2="1018.41" style="stroke:#F0F0F0;stroke-width:9.72"/>
	<line x1="1974.88" y1="1018.41" x2="2039.68" y2="1018.41" style="stroke:#F0F0F0;stroke-width:9.72"/>
	<line x1="2072.08" y1="1018.41" x2="2136.88" y2="1018.41" style="stroke:#F0F0F0;stroke-width:9.72"/>
	<line x1="2169.28" y1="1018.41" x2="2234.08" y2="1018.41" style="stroke:#F0F0F0;stroke-width:9.72"/>
	<line x1="2266.48" y1="1018.41" x2="2331.28" y2="1018.41" style="stroke:#F0F0F0;stroke-width:9.72"/>
	<line x1="2363.68" y1="1018.41" x2="2428.48" y2="1018.41" style="stroke:#F0F0F0;stroke-width:9.72"/>
	<line x1="2460.88" y1="1018.41" x2="2525.68" y2="1018.41" style="stroke:#F0F0F0;stroke-width:9.72"/>
	<line x1="2558.08" y1="1018.41" x2="2622.88" y2="1018.41" style="stroke:#F0F0F0;stroke-width:9.72"/>
	<line x1="2655.28" y1="1018.41" x2="2720.08" y2="1018.41" style="stroke:#F0F0F0;stroke-width:9.72"/>
	<line x1="2752.48" y1="1018.41" x2="2817.28" y2="1018.41" style="stroke:#F0F0F0;stroke-width:9.72"/>
	<line x1="2849.68" y1="1018.41" x2="2914.48" y2="1018.41" style="stroke:#F0F0F0;stroke-width:9.72"/>
	<line x1="2946.88" y1="1018.41" x2="3011.68" y2="1018.41" style="stroke:#F0F0F0;stroke-width:9.72"/>
	<line x1="3044.08" y1="1018.41" x2="3108.88" y2="1018.41" style="stroke:#F0F0F0;stroke-width:9.72"/>
	<line x1="3141.28" y1="1018.41" x2="3206.08" y2="1018.41" style="stroke:#F0F0F0;stroke-width:9.72"/>
	<line x1="3238.48" y1="1018.41" x2="3303.28" y2="1018.41" style="stroke:#F0F0F0;stroke-width:9.72"/>
	<line x1="3335.68" y1="1018.41" x2="3400.48" y2="1018.41" style="stroke:#F0F0F0;stroke-width:9.72"/>
	<line x1="3432.88" y1="1018.41" x2="3497.68" y2="1018.41" style="stroke:#F0F0F0;stroke-width:9.72"/>
	<line x1="3530.08" y1="1018.41" x2="3594.88" y2="1018.41" style="stroke:#F0F0F0;stroke-width:9.72"/>
	<line x1="3627.28" y1="1018.41" x2="3692.08" y2="1018.41" style="stroke:#F0F0F0;stroke-width:9.72"/>
	<line x1="3724.48" y1="1018.41" x2="3789.28" y2="1018.41" style="stroke:#F0F0F0;stroke-width:9.72"/>
	<line x1="3821.68" y1="1018.41" x2="3886.48" y2="1018.41" style="stroke:#F0F0F0;stroke-width:9.72"/>
	<line x1="3918.88" y1="1018.41" x2="3983.68" y2="1018.41" style="stroke:#F0F0F0;stroke-width:9.72"/>
	<line x1="4016.08" y1="1018.41" x2="4080.88" y2="1018.41" style="stroke:#F0F0F0;stroke-width:9.72"/>
	<line x1="4113.28" y1="1018.41" x2="4178.08" y2="1018.41" style="stroke:#F0F0F0;stroke-width:9.72"/>
	<line x1="4210.48" y1="1018.41" x2="4275.28" y2="1018.41" style="stroke:#F0F0F0;stroke-width:9.72"/>
	<line x1="4307.68" y1="1018.41" x2="4372.48" y2="1018.41" style="stroke:#F0F0F0;stroke-width:9.72"/>
	<line x1="4404.88" y1="1018.41" x2="4469.68" y2="1018.41" style="stroke:#F0F0F0;stroke-width:9.72"/>
	<line x1="4502.08" y1="1018.41" x2="4566.88" y2="1018.41" style="stroke:#F0F0F0;stroke-width:9.72"/>
	<line x1="4599.28" y1="1018.41" x2="4664.08" y2="1018.41" style="stroke:#F0F0F0;stroke-width:9.72"/>
	<line x1="4696.48" y1="1018.41" x2="4761.28" y2="1018.41" style="stroke:#F0F0F0;stroke-width:9.72"/>
	<line x1="4793.68" y1="1018.41" x2="4858.48" y2="1018.41" style="stroke:#F0F0F0;stroke-width:9.72"/>
	<line x1="4890.88" y1="1018.41" x2="4955.68" y2="1018.41" style="stroke:#F0F0F0;stroke-width:9.72"/>
	<line x1="4988.08" y1="1018.41" x2="5052.88" y2="1018.41" style="stroke:#F0F0F0;stroke-width:9.72"/>
	<line x1="5085.28" y1="1018.41" x2="5150.08" y2="1018.41" style="stroke:#F0F0F0;stroke-width:9.72"/>
	<line x1="5182.48" y1="1018.41" x2="5247.28" y2="1018.41" style="stroke:#F0F0F0;stroke-width:9.72"/>
	<line x1="5279.68" y1="1018.41" x2="5286.60" y2="1018.41" style="stroke:#F0F0F0;stroke-width:9.72"/>
	<line x1="419.68" y1="422.04" x2="484.48" y2="422.04" style="stroke:#F0F0F0;stroke-width:9.72"/>
	<line x1="516.88" y1="422.04" x2="581.68" y2="422.04" style="stroke:#F0F0F0;stroke-width:9.72"/>
	<line x1="614.08" y1="422.04" x2="678.88" y2="422.04" style="stroke:#F0F0F0;stroke-width:9.72"/>
	<line x1="711.28" y1="422.04" x2="776.08" y2="422.04" style="stroke:#F0F0F0;stroke-width:9.72"/>
	<line x1="808.48" y1="422.04" x2="873.28" y2="422.04" style="stroke:#F0F0F0;stroke-width:9.72"/>
	<line x1="905.68" y1="422.04" x2="970.48" y2="422.04" style="stroke:#F0F0F0;stroke-width:9.72"/>
	<line x1="1002.88" y1="422.04" x2="1067.68" y2="422.04" style="stroke:#F0F0F0;stroke-width:9.72"/>
	<line x1="1100.08" y1="422.04" x2="1164.88" y2="422.04" style="stroke:#F0F0F0;stroke-width:9.72"/>
	<line x1="1197.28" y1="422.04" x2="1262.08" y2="422.04" style="stroke:#F0F0F0;stroke-width:9.72"/>
	<line x1="1294.48" y1="422.04" x2="1359.28" y2="422.04" style="stroke:#F0F0F0;stroke-width:9.72"/>
	<line x1="1391.68" y1="422.04" x2="1456.48" y2="422.04" style="stroke:#F0F0F0;stroke-width:9.72"/>
	<line x1="1488.88" y1="422.04" x2="1553.68" y2="422.04" style="stroke:#F0F0F0;stroke-width:9.72"/>
	<line x1="1586.08" y1="422.04" x2="1650.88" y2="422.04" style="stroke:#F0F0F0;stroke-width:9.72"/>
	<line x1="1683.28" y1="422.04" x2="1748.08" y2="422.04" style="stroke:#F0F0F0;stroke-width:9.72"/>
	<line x1="1780.48" y1="422.04" x2="1845.28" y2="422.04" style="stroke:#F0F0F0;stroke-width:9.72"/>
	<line x1="1877.68" y1="422.04" x2="1942.48" y2="422.04" style="stroke:#F0F0F0;stroke-width:9.72"/>
	<line x1="1974.88" y1="422.04" x2="2039.68" y2="422.04" style="stroke:#F0F0F0;stroke-width:9.72"/>
	<line x1="2072.08" y1="422.04" x2="2136.88" y2="422.04" style="stroke:#F0F0F0;stroke-width:9.72"/>
	<line x1="2169.28" y1="422.04" x2="2234.08" y2="422.04" style="stroke:#F0F0F0;stroke-width:9.72"/>
	<line x1="2266.48" y1="422.04" x2="2331.28" y2="422.04" style="stroke:#F0F0F0;stroke-width:9.72"/>
	<line x1="2363.68" y1="422.04" x2="2428.48" y2="422.04" style="stroke:#F0F0F0;stroke-width:9.72"/>
	<line x1="2460.88" y1="422.04" x2="2525.68" y2="422.04" style="stroke:#F0F0F0;stroke-width:9.72"/>
	<line x1="2558.08" y1="422.04" x2="2622.88" y2="422.04" style="stroke:#F0F0F0;stroke-width:9.72"/>
	<line x1="2655.28" y1="422.04" x2="2720.08" y2="422.04" style="stroke:#F0F0F0;stroke-width:9.72"/>
	<line x1="2752.48" y1="422.04" x2="2817.28" y2="422.04" style="stroke:#F0F0F0;stroke-width:9.72"/>
	<line x1="2849.68" y1="422.04" x2="2914.48" y2="422.04" style="stroke:#F0F0F0;stroke-width:9.72"/>
	<line x1="2946.88" y1="422.04" x2="3011.68" y2="422.04" style="stroke:#F0F0F0;stroke-width:9.72"/>
	<line x1="3044.08" y1="422.04" x2="3108.88" y2="422.04" style="stroke:#F0F0F0;stroke-width:9.72"/>
	<line x1="3141.28" y1="422.04" x2="3206.08" y2="422.04" style="stroke:#F0F0F0;stroke-width:9.72"/>
	<line x1="3238.48" y1="422.04" x2="3303.28" y2="422.04" style="stroke:#F0F0F0;stroke-width:9.72"/>
	<line x1="3335.68" y1="422.04" x2="3400.48" y2="422.04" style="stroke:#F0F0F0;stroke-width:9.72"/>
	<line x1="3432.88" y1="422.04" x2="3497.68" y2="422.04" style="stroke:#F0F0F0;stroke-width:9.72"/>
	<line x1="3530.08" y1="422.04" x2="3594.88" y2="422.04" style="stroke:#F0F0F0;stroke-width:9.72"/>
	<line x1="3627.28" y1="422.04" x2="3692.08" y2="422.04" style="stroke:#F0F0F0;stroke-width:9.72"/>
	<line x1="3724.48" y1="422.04" x2="3789.28" y2="422.04" style="stroke:#F0F0F0;stroke-width:9.72"/>
	<line x1="3821.68" y1="422.04" x2="3886.48" y2="422.04" style="stroke:#F0F0F0;stroke-width:9.72"/>
	<line x1="3918.88" y1="422.04" x2="3983.68" y2="422.04" style="stroke:#F0F0F0;stroke-width:9.72"/>
	<line x1="4016.08" y1="422.04" x2="4080.88" y2="422.04" style="stroke:#F0F0F0;stroke-width:9.72"/>
	<line x1="4113.28" y1="422.04" x2="4178.08" y2="422.04" style="stroke:#F0F0F0;stroke-width:9.72"/>
	<line x1="4210.48" y1="422.04" x2="4275.28" y2="422.04" style="stroke:#F0F0F0;stroke-width:9.72"/>
	<line x1="4307.68" y1="422.04" x2="4372.48" y2="422.04" style="stroke:#F0F0F0;stroke-width:9.72"/>
	<line x1="4404.88" y1="422.04" x2="4469.68" y2="422.04" style="stroke:#F0F0F0;stroke-width:9.72"/>
	<line x1="4502.08" y1="422.04" x2="4566.88" y2="422.04" style="stroke:#F0F0F0;stroke-width:9.72"/>
	<line x1="4599.28" y1="422.04" x2="4664.08" y2="422.04" style="stroke:#F0F0F0;stroke-width:9.72"/>
	<line x1="4696.48" y1="422.04" x2="4761.28" y2="422.04" style="stroke:#F0F0F0;stroke-width:9.72"/>
	<line x1="4793.68" y1="422.04" x2="4858.48" y2="422.04" style="stroke:#F0F0F0;stroke-width:9.72"/>
	<line x1="4890.88" y1="422.04" x2="4955.68" y2="422.04" style="stroke:#F0F0F0;stroke-width:9.72"/>
	<line x1="4988.08" y1="422.04" x2="5052.88" y2="422.04" style="stroke:#F0F0F0;stroke-width:9.72"/>
	<line x1="5085.28" y1="422.04" x2="5150.08" y2="422.04" style="stroke:#F0F0F0;stroke-width:9.72"/>
	<line x1="5182.48" y1="422.04" x2="5247.28" y2="422.04" style="stroke:#F0F0F0;stroke-width:9.72"/>
	<line x1="5279.68" y1="422.04" x2="5286.60" y2="422.04" style="stroke:#F0F0F0;stroke-width:9.72"/>
	<line x1="1636.37" y1="539.83" x2="1636.37" y2="184.61" style="stroke:#1A85FF;stroke-width:9.72"/>
	<line x1="4069.91" y1="2701.35" x2="4069.91" y2="2556.06" style="stroke:#1A85FF;stroke-width:9.72"/>
	<line x1="1636.37" y1="468.11" x2="1636.37" y2="256.50" style="stroke:#1A85FF;stroke-width:19.44"/>
	<line x1="4069.91" y1="2671.99" x2="4069.91" y2="2585.42" style="stroke:#1A85FF;stroke-width:19.44"/>
	<circle cx="1636.37" cy="362.31" r="21.74" style="fill:#1A85FF"/>
	<circle cx="1636.37" cy="362.31" r="16.88" style="fill:none;stroke:#1A85FF;stroke-width:9.72"/>
	<circle cx="4069.74" cy="2628.79" r="21.74" style="fill:#1A85FF"/>
	<circle cx="4069.74" cy="2628.79" r="16.88" style="fill:none;stroke:#1A85FF;stroke-width:9.72"/>
	<line x1="419.68" y1="2879.04" x2="419.68" y2="113.40" style="stroke:#000000;stroke-width:6.48"/>
	<line x1="419.68" y1="2807.83" x2="374.63" y2="2807.83" style="stroke:#000000;stroke-width:6.48"/>
	<text x="352.18" y="2847.27" style="font-family:'Helvetica';font-size:112.56px;fill:#000000" text-anchor="end">-.6</text>
	<line x1="419.68" y1="2211.30" x2="374.63" y2="2211.30" style="stroke:#000000;stroke-width:6.48"/>
	<text x="352.18" y="2250.74" style="font-family:'Helvetica';font-size:112.56px;fill:#000000" text-anchor="end">-.4</text>
	<line x1="419.68" y1="1614.94" x2="374.63" y2="1614.94" style="stroke:#000000;stroke-width:6.48"/>
	<text x="352.18" y="1654.37" style="font-family:'Helvetica';font-size:112.56px;fill:#000000" text-anchor="end">-.2</text>
	<line x1="419.68" y1="1018.41" x2="374.63" y2="1018.41" style="stroke:#000000;stroke-width:6.48"/>
	<text x="352.18" y="1057.84" style="font-family:'Helvetica';font-size:112.56px;fill:#000000" text-anchor="end">0</text>
	<line x1="419.68" y1="422.04" x2="374.63" y2="422.04" style="stroke:#000000;stroke-width:6.48"/>
	<text x="352.18" y="461.48" style="font-family:'Helvetica';font-size:112.56px;fill:#000000" text-anchor="end">.2</text>
	<line x1="419.68" y1="2879.04" x2="5286.60" y2="2879.04" style="stroke:#000000;stroke-width:6.48"/>
	<line x1="1636.37" y1="2879.04" x2="1636.37" y2="2924.10" style="stroke:#000000;stroke-width:6.48"/>
	<text x="1636.37" y="3025.25" style="font-family:'Helvetica';font-size:112.56px;fill:#000000" text-anchor="middle">Age (ln)</text>
	<line x1="4069.91" y1="2879.04" x2="4069.91" y2="2924.10" style="stroke:#000000;stroke-width:6.48"/>
	<text x="4069.91" y="3025.25" style="font-family:'Helvetica';font-size:112.56px;fill:#000000" text-anchor="middle">Female</text>
</svg>